<?xml version="1.0" encoding="UTF-8"?>
<svg id="Capa_2" data-name="Capa 2" xmlns="http://www.w3.org/2000/svg" viewBox="0 0 960.64 960.64">
  <defs>
    <style>
      .cls-1 {
        fill: #fff;
        stroke-width: 0px;
      }
    </style>
  </defs>
  <g id="Capa_1-2" data-name="Capa 1">
    <g>
      <path class="cls-1" d="m236.88,500c-3.84-2.37-8.12-4.01-12.87-4.91-4.74-.9-9.37-1.35-13.88-1.35h-48.08v64.33h48.76c11.29,0,20.6-2.48,27.93-7.45,7.34-4.97,11.01-12.87,11.01-23.7,0-7-1.19-12.64-3.55-16.93-2.37-4.29-5.47-7.62-9.31-9.99Z"/>
      <path class="cls-1" d="m228.25,450.74c6.43-4.29,9.65-11.4,9.65-21.33s-3.33-17.1-9.99-20.82c-6.66-3.73-16.19-5.59-28.61-5.59h-37.24v54.17h42.66c9.26,0,17.1-2.14,23.53-6.43Z"/>
      <path class="cls-1" d="m0,0v960.64h960.64V0H0Zm298.33,558.07c-3.5,8.35-9.09,15.57-16.76,21.67-7.67,6.09-17.49,10.83-29.46,14.22s-26.41,5.08-43.34,5.08h-98.19v-237h84.98c17.15,0,31.77,1.35,43.84,4.06,12.08,2.71,21.95,6.71,29.63,12.02,7.67,5.3,13.2,11.68,16.59,19.13,3.39,7.45,5.08,15.91,5.08,25.39,0,13.77-3.67,24.49-11.01,32.16-7.33,7.68-17.21,13.09-29.62,16.25,18.28,3.61,31.77,10.44,40.46,20.48,8.69,10.05,13.04,23.08,13.04,39.11,0,9.93-1.75,19.07-5.25,27.43Zm302.75,40.7h-52.2v-181.7h-.67l-62.24,181.7h-39.82l-59.9-181.7h-.67v181.7h-52.2v-236.92h78.97l54.54,154.6h.67l54.88-154.6h78.64v236.92Zm163.3,6.03c-73.95,0-127.83-48.53-127.83-124.48s53.88-124.48,127.83-124.48c26.44,0,59.9,9.03,79.98,34.8l-40.15,32.79c-10.38-12.38-25.43-19.41-44.84-19.41-39.49,0-68.6,32.13-68.6,76.3s29.11,76.29,66.92,76.29c21.08,0,38.15-9.37,48.86-25.43l43.5,32.46c-19.74,28.11-53.2,41.16-85.66,41.16Z"/>
    </g>
  </g>
</svg>