<?xml version="1.0" encoding="UTF-8"?>
<svg id="Capa_2" data-name="Capa 2" xmlns="http://www.w3.org/2000/svg" viewBox="0 0 970.17 337.19">
  <defs>
    <style>
      .cls-1 {
        fill: #1f3b70;
      }

      .cls-1, .cls-2 {
        stroke-width: 0px;
      }

      .cls-2 {
        fill: #fff;
      }
    </style>
  </defs>
  <g id="Capa_1-2" data-name="Capa 1">
    <g>
      <rect class="cls-1" width="970.17" height="337.19"/>
      <g>
        <path class="cls-2" d="m94.7,65.73l1.08-.48c16.62.41,33.31-.49,49.92,0,22.34.66,51,4.52,52.84,32.27.89,13.51-4.48,23.25-16.94,28.56l-5.82,2.12c14.62,2.77,26.83,10.97,29.54,26.42,5.54,31.59-19.18,46.14-47.16,47.12h-63.45s0-136.02,0-136.02Zm29.93,54.38h27.28c6.51,0,14.1-4.61,15.6-11.21,3.91-17.17-9.47-19.5-22.76-19.97-6.69-.24-13.43.2-20.12.01v31.16Zm0,57.96c11.34-.23,22.77.48,34.06-.4,12.15-2.04,17.87-9.83,15.74-22.1-1.74-10.03-10.41-13.71-19.7-14.28-9.8-.61-20.23.48-30.1.01v36.77Z"/>
        <path class="cls-2" d="m691.44,62.24c42.83-2.57,71.81,23.34,73.67,66.11,1.46,33.75-12.1,64.22-46.47,73.87-38.58,10.83-78.67-7.9-87.15-48.45-9.31-44.47,10.79-88.57,59.96-91.53Zm1.56,24.93c-21.48,1.89-31.63,22.03-32.67,41.51-1.17,21.87,5.43,48.01,30.75,51.22,37.3,4.72,48.03-33.04,41.37-62.85-4.57-20.48-17.93-31.77-39.45-29.88Z"/>
        <path class="cls-2" d="m223.79,65.73l1.08-.48c20.97,1.12,43.83-1.85,64.51,1,27.7,3.83,46.49,23.94,39.03,52.93-3.35,13.03-14.24,22.18-26.66,26.33l35.54,56.25h-34.77l-30.25-51.42h-18.55v51.42h-29.93V65.73Zm29.93,61.23h27.91c8.94,0,16.46-7,17.27-15.78,1.37-14.93-6.27-20.89-20.37-21.63-8.13-.43-16.64.35-24.8.01v37.39Z"/>
        <path class="cls-2" d="m445.42,62.24c23.85-1.43,47.42,5.45,63.34,23.79l-20.09,16.55c-6.91-7.18-14.93-12.61-24.84-14.67-11.84-2.46-36.45-2.57-34.87,15.21.77,8.6,9.98,11.21,17.08,13.16,24.69,6.77,60.46,6.26,64.57,39.55,5.91,47.79-51.96,55.9-86.33,45.14-12.6-3.94-24.19-11.11-32.74-21.19l19.22-17.58c7.44,6.59,15.35,12.82,25.06,15.71,12.23,3.65,43.48,5.05,44.28-13.41.6-13.88-14.63-16.63-25.25-19-21.09-4.71-49.79-7.81-55.47-33.38-6.93-31.19,18.03-48.2,46.04-49.88Z"/>
        <polygon class="cls-2" points="622.59 65.26 622.59 90.19 584.24 90.19 584.24 201.75 554.31 201.75 554.31 90.19 515.64 90.19 515.64 65.73 516.11 65.26 622.59 65.26"/>
        <polygon class="cls-2" points="816.54 176.2 875.47 176.2 875.47 201.75 786.61 201.75 786.61 65.73 787.08 65.26 816.07 65.26 816.54 65.73 816.54 176.2"/>
        <rect class="cls-2" x="349.13" y="62.77" width="28.06" height="138.98"/>
        <path class="cls-2" d="m105.61,216.4l18.08,47.68,17.78-47.68h10.6v57.34h-7.17v-47.37l-18.08,47.22c-.38.23-5.39.28-6.09.15-.35-.06-.6-.15-.75-.49l-17.8-46.87v47.37h-7.17v-57.34h10.6Z"/>
        <path class="cls-2" d="m613.86,216.4l18.08,47.68,17.78-47.68h10.6v57.34h-7.17v-47.37l-18.08,47.22c-.38.23-5.39.28-6.09.15-.35-.06-.6-.15-.75-.49l-17.8-46.87v47.37h-7.17v-57.34h10.6Z"/>
        <polygon class="cls-2" points="809.99 262.83 809.99 216.4 817.17 216.4 817.17 273.73 808.9 273.73 778.5 227.93 778.5 273.73 771.33 273.73 771.33 216.4 779.28 216.4 809.99 262.83"/>
        <polygon class="cls-2" points="392.79 262.83 392.79 216.4 399.96 216.4 399.96 273.73 391.7 273.73 361.3 227.93 361.3 273.73 354.12 273.73 354.12 216.4 362.07 216.4 392.79 262.83"/>
        <path class="cls-2" d="m562.66,215.24c22.92-2.13,34.99,17.65,30.16,38.55-3.79,16.39-19.22,24.76-35.32,20.02-27.07-7.97-24.7-55.8,5.16-58.57Zm.93,6.54c-23.99,2.46-23.37,48.89,4.58,46.65,25.03-2.01,24.31-49.61-4.58-46.65Z"/>
        <polygon class="cls-2" points="282.72 216.4 282.72 241.01 312.65 241.01 312.65 216.4 320.45 216.4 320.45 273.73 312.65 273.73 312.65 247.56 282.72 247.56 282.72 273.73 274.92 273.73 274.92 216.4 282.72 216.4"/>
        <polygon class="cls-2" points="451.72 216.4 451.72 222.94 419.92 222.94 419.92 241.01 449.54 241.01 449.54 247.56 419.92 247.56 419.92 267.19 452.03 267.19 452.03 273.73 412.12 273.73 412.12 216.4 451.72 216.4"/>
        <path class="cls-2" d="m264.95,233.85h-7.33c-1.36-3.37-2.47-6.56-5.48-8.85-6.28-4.76-16.69-4.37-22.74.59-11.62,9.53-10.23,37.29,5.69,42,10.3,3.04,19.36-1.22,22.16-11.66.36-1.33.28-2.95.99-4h7.33c-1.19,15.8-12.34,24.21-27.9,23.06-30.11-2.24-31.43-51.15-4.84-58.73,13.77-3.93,30.48,1.9,32.12,17.61Z"/>
        <path class="cls-2" d="m531.55,233.85h-7.33c-1.36-3.37-2.47-6.56-5.48-8.85-6.28-4.76-16.69-4.37-22.74.59-11.62,9.53-10.23,37.29,5.69,42,10.3,3.04,19.36-1.22,22.16-11.66.36-1.33.28-2.95.99-4h7.33c-1.19,15.8-12.34,24.21-27.9,23.06-30.11-2.24-31.43-51.15-4.84-58.73,13.77-3.93,30.48,1.9,32.12,17.61Z"/>
        <path class="cls-2" d="m680.9,250.36v23.37h-7.8v-57.34h28.84c1.37,0,5.61,1.67,6.91,2.44,10.32,6.09,9.65,25.02-1.66,29.92-1.09.47-4.85,1.6-5.88,1.6h-20.42Zm0-6.54h16.99c.94,0,4.02-.83,5-1.24,7.08-2.96,7.34-14.88.47-18.25-.77-.38-3.84-1.39-4.53-1.39h-17.93v20.88Z"/>
        <path class="cls-2" d="m765.72,273.73h-8.73l-5.97-17.1-23.82-.07-6.69,17.16h-8.11l22.44-57.19c.36-.22,7.18-.29,7.96-.15.35.06.6.15.75.49l22.17,56.84Zm-17.15-23.68l-9.36-26.49-9.97,26.49h19.33Z"/>
        <path class="cls-2" d="m211.31,273.73h-8.73l-5.97-17.1-23.82-.07-6.69,17.16h-8.11l22.44-57.19c.36-.22,7.18-.29,7.96-.15.35.06.6.15.75.49l22.17,56.84Zm-17.15-23.68l-9.36-26.49-9.97,26.49h19.33Z"/>
        <polygon class="cls-2" points="832.29 216.4 849.29 243.51 866.28 216.4 874.85 216.4 853.02 250.21 853.02 273.73 845.23 273.73 845.23 250.21 823.09 216.4 832.29 216.4"/>
        <rect class="cls-2" x="333.54" y="216.4" width="7.8" height="57.34"/>
      </g>
    </g>
  </g>
</svg>