<?xml version="1.0" encoding="UTF-8"?>
<svg id="Capa_2" data-name="Capa 2" xmlns="http://www.w3.org/2000/svg" viewBox="0 0 959.28 261.79">
  <defs>
    <style>
      .cls-1 {
        stroke-width: 0px;
      }
    </style>
  </defs>
  <g id="Capa_1-2" data-name="Capa 1">
    <g>
      <path class="cls-1" d="m0,4.52l1.32-.59c20.42.5,40.92-.6,61.33,0,27.45.81,62.66,5.55,64.92,39.65,1.1,16.59-5.5,28.57-20.81,35.09l-7.15,2.61c17.97,3.4,32.96,13.48,36.29,32.46,6.8,38.81-23.56,56.69-57.94,57.9H0S0,4.52,0,4.52Zm36.78,66.81h33.52c8,0,17.32-5.67,19.17-13.77,4.8-21.1-11.63-23.96-27.96-24.53-8.22-.29-16.51.25-24.73.02v38.29Zm0,71.21c13.93-.28,27.97.59,41.84-.49,14.92-2.5,21.95-12.08,19.34-27.16-2.13-12.33-12.79-16.84-24.2-17.55-12.05-.74-24.86.59-36.98.02v45.18Z"/>
      <path class="cls-1" d="m733.17.23c52.63-3.16,88.23,28.68,90.51,81.23,1.8,41.47-14.87,78.9-57.1,90.75-47.4,13.31-96.65-9.71-107.08-59.53-11.43-54.64,13.26-108.82,73.67-112.45Zm1.92,30.63c-26.39,2.32-38.86,27.06-40.14,51-1.44,26.86,6.67,58.99,37.78,62.93,45.83,5.81,59.01-40.6,50.83-77.22-5.62-25.17-22.03-39.04-48.47-36.71Z"/>
      <path class="cls-1" d="m158.6,4.52l1.32-.59c25.77,1.38,53.85-2.28,79.26,1.23,34.03,4.7,57.12,29.42,47.95,65.03-4.12,16.01-17.49,27.25-32.76,32.34l43.67,69.11h-42.72l-37.16-63.17h-22.79v63.17h-36.78V4.52Zm36.78,75.23h34.29c10.98,0,20.22-8.6,21.21-19.38,1.68-18.35-7.7-25.66-25.03-26.58-9.99-.53-20.44.43-30.47.02v45.94Z"/>
      <path class="cls-1" d="m430.91.23c29.3-1.76,58.26,6.7,77.82,29.23l-24.69,20.34c-8.49-8.82-18.34-15.5-30.51-18.03-14.55-3.03-44.79-3.16-42.84,18.69.94,10.57,12.26,13.78,20.98,16.17,30.34,8.32,74.28,7.69,79.34,48.59,7.26,58.72-63.84,68.68-106.07,55.47-15.49-4.84-29.72-13.65-40.22-26.03l23.61-21.6c9.14,8.1,18.86,15.75,30.78,19.3,15.03,4.48,53.42,6.2,54.4-16.47.73-17.05-17.97-20.43-31.02-23.35-25.91-5.79-61.17-9.59-68.15-41.01C365.83,23.19,396.48,2.29,430.91.23Z"/>
      <polygon class="cls-1" points="648.58 3.94 648.58 34.57 601.46 34.57 601.46 171.63 564.69 171.63 564.69 34.57 517.18 34.57 517.18 4.52 517.76 3.94 648.58 3.94"/>
      <polygon class="cls-1" points="886.87 140.24 959.28 140.24 959.28 171.63 850.09 171.63 850.09 4.52 850.67 3.94 886.3 3.94 886.87 4.52 886.87 140.24"/>
      <rect class="cls-1" x="312.61" y=".88" width="34.48" height="170.75"/>
      <path class="cls-1" d="m13.41,189.63l22.22,58.58,21.84-58.58h13.03v70.45h-8.81v-58.19l-22.21,58.01c-.46.28-6.62.34-7.48.19-.43-.08-.73-.19-.92-.61l-21.87-57.59v58.19H.38v-70.45h13.03Z"/>
      <path class="cls-1" d="m637.86,189.63l22.22,58.58,21.84-58.58h13.03v70.45h-8.81v-58.19l-22.21,58.01c-.46.28-6.62.34-7.48.19-.43-.08-.73-.19-.92-.61l-21.87-57.59v58.19h-8.81v-70.45h13.03Z"/>
      <polygon class="cls-1" points="878.83 246.67 878.83 189.63 887.64 189.63 887.64 260.07 877.49 260.07 840.13 203.79 840.13 260.07 831.32 260.07 831.32 189.63 841.09 189.63 878.83 246.67"/>
      <polygon class="cls-1" points="366.24 246.67 366.24 189.63 375.05 189.63 375.05 260.07 364.9 260.07 327.55 203.79 327.55 260.07 318.74 260.07 318.74 189.63 328.51 189.63 366.24 246.67"/>
      <path class="cls-1" d="m574.95,188.21c28.17-2.62,42.99,21.68,37.05,47.36-4.66,20.14-23.61,30.43-43.39,24.6-33.26-9.8-30.35-68.55,6.34-71.96Zm1.15,8.04c-29.48,3.03-28.72,60.06,5.63,57.31,30.75-2.46,29.86-60.96-5.63-57.31Z"/>
      <polygon class="cls-1" points="231.01 189.63 231.01 219.87 267.79 219.87 267.79 189.63 277.36 189.63 277.36 260.07 267.79 260.07 267.79 227.91 231.01 227.91 231.01 260.07 221.43 260.07 221.43 189.63 231.01 189.63"/>
      <polygon class="cls-1" points="438.65 189.63 438.65 197.67 399.57 197.67 399.57 219.87 435.97 219.87 435.97 227.91 399.57 227.91 399.57 252.03 439.03 252.03 439.03 260.07 389.99 260.07 389.99 189.63 438.65 189.63"/>
      <path class="cls-1" d="m209.17,211.07h-9c-1.67-4.14-3.03-8.07-6.74-10.88-7.71-5.85-20.51-5.36-27.94.73-14.28,11.7-12.57,45.82,6.99,51.6,12.65,3.74,23.78-1.5,27.23-14.33.44-1.63.35-3.63,1.22-4.91h9c-1.47,19.41-15.16,29.75-34.28,28.33-36.99-2.75-38.62-62.84-5.94-72.16,16.92-4.83,37.45,2.33,39.46,21.63Z"/>
      <path class="cls-1" d="m536.72,211.07h-9c-1.67-4.14-3.03-8.07-6.74-10.88-7.71-5.85-20.51-5.36-27.94.73-14.28,11.7-12.57,45.82,6.99,51.6,12.65,3.74,23.78-1.5,27.23-14.33.44-1.63.35-3.63,1.22-4.91h9c-1.47,19.41-15.16,29.75-34.28,28.33-36.99-2.75-38.62-62.84-5.94-72.16,16.92-4.83,37.45,2.33,39.46,21.63Z"/>
      <path class="cls-1" d="m720.22,231.36v28.71h-9.58v-70.45h35.44c1.69,0,6.89,2.05,8.49,3,12.68,7.48,11.86,30.74-2.04,36.76-1.34.58-5.95,1.97-7.22,1.97h-25.09Zm0-8.04h20.88c1.16,0,4.94-1.02,6.14-1.52,8.7-3.64,9.01-18.28.58-22.42-.95-.47-4.71-1.71-5.57-1.71h-22.03v25.65Z"/>
      <path class="cls-1" d="m824.43,260.07h-10.73l-7.33-21-29.27-.08-8.22,21.09h-9.96l27.58-70.26c.44-.26,8.82-.36,9.78-.18.43.08.73.18.92.61l27.23,69.84Zm-21.07-29.1l-11.5-32.54-12.26,32.54h23.75Z"/>
      <path class="cls-1" d="m143.28,260.07h-10.73l-7.33-21-29.27-.08-8.22,21.09h-9.96l27.58-70.26c.44-.26,8.82-.36,9.78-.18.43.08.73.18.92.61l27.23,69.84Zm-21.07-29.1l-11.5-32.54-12.26,32.54h23.75Z"/>
      <polygon class="cls-1" points="906.22 189.63 927.1 222.93 947.98 189.63 958.51 189.63 931.69 231.17 931.69 260.07 922.12 260.07 922.12 231.17 894.92 189.63 906.22 189.63"/>
      <rect class="cls-1" x="293.45" y="189.63" width="9.58" height="70.45"/>
    </g>
  </g>
</svg>