<svg width="48" height="48" viewBox="0 0 48 48" fill="none" xmlns="http://www.w3.org/2000/svg">
<path d="M38 0H10C4.486 0 0 4.486 0 10V12C0 17.514 4.486 22 10 22H38C43.514 22 48 17.514 48 12V10C48 4.486 43.514 0 38 0ZM44 12C44 15.308 41.308 18 38 18H10C6.692 18 4 15.308 4 12V10C4 6.692 6.692 4 10 4H38C41.308 4 44 6.692 44 10V12ZM40 12C40 13.104 39.106 14 38 14H10C8.894 14 8 13.104 8 12C8 10.896 8.894 10 10 10H38C39.106 10 40 10.896 40 12ZM26 28V46C26 47.104 25.106 48 24 48C22.894 48 22 47.104 22 46V28C22 26.896 22.894 26 24 26C25.106 26 26 26.896 26 28ZM18 28V40C18 44.412 14.412 48 10 48C5.588 48 2 44.412 2 40C2 36.522 4.242 33.206 7.334 32.114C8.376 31.746 9.518 32.294 9.886 33.334C10.254 34.376 9.706 35.518 8.666 35.886C7.172 36.414 6 38.22 6 40C6 42.206 7.794 44 10 44C12.206 44 14 42.206 14 40V28C14 26.896 14.894 26 16 26C17.106 26 18 26.896 18 28ZM46 40C46 44.412 42.412 48 38 48C33.588 48 30 44.412 30 40V28C30 26.896 30.894 26 32 26C33.106 26 34 26.896 34 28V40C34 42.206 35.794 44 38 44C40.206 44 42 42.206 42 40C42 38.22 40.828 36.414 39.334 35.886C38.292 35.518 37.746 34.376 38.114 33.334C38.484 32.292 39.624 31.746 40.666 32.114C43.758 33.206 46 36.522 46 40Z" fill="#2078BA"/>
</svg>
