<svg width="48" height="48" viewBox="0 0 48 48" fill="none" xmlns="http://www.w3.org/2000/svg">
<g clip-path="url(#clip0_72_4052)">
<path d="M26 4.092V2C26 0.894 25.106 0 24 0C22.894 0 22 0.894 22 2V4.092C10.802 5.106 2 14.544 2 26C2 31.476 4.012 36.492 7.334 40.346C5.642 41.244 4 42.98 4 46C4 47.106 4.894 48 6 48C7.106 48 8 47.106 8 46C8 44 9.716 43.612 10.22 43.542C10.36 43.526 10.496 43.496 10.624 43.454C14.334 46.302 18.972 48 23.998 48C29.024 48 33.668 46.302 37.378 43.45C37.498 43.49 37.624 43.52 37.754 43.538C38.282 43.61 39.998 43.998 39.998 45.998C39.998 47.104 40.892 47.998 41.998 47.998C43.104 47.998 43.998 47.104 43.998 45.998C43.998 42.978 42.356 41.242 40.664 40.344C43.986 36.49 45.998 31.474 45.998 25.998C45.998 14.542 37.196 5.104 25.998 4.09L26 4.092ZM6 26C6 16.074 14.074 8 24 8C33.926 8 42 16.074 42 26C42 35.926 33.926 44 24 44C14.074 44 6 35.926 6 26ZM48 9C48 10.106 47.106 11 46 11C44.894 11 44 10.106 44 9C44 6.576 42.046 4 38.43 4C37.324 4 36.43 3.106 36.43 2C36.43 0.894 37.324 0 38.43 0C43.798 0 48 3.954 48 9ZM2 11C0.894 11 0 10.106 0 9C0 3.954 4.204 0 9.57 0C10.676 0 11.57 0.894 11.57 2C11.57 3.106 10.676 4 9.57 4C5.952 4 4 6.576 4 9C4 10.106 3.106 11 2 11ZM26 14V28C26 29.106 25.106 30 24 30C22.894 30 22 29.106 22 28V14C22 12.894 22.894 12 24 12C25.106 12 26 12.894 26 14ZM27 37C27 38.656 25.656 40 24 40C22.344 40 21 38.656 21 37C21 35.344 22.344 34 24 34C25.656 34 27 35.344 27 37Z" fill="#2078BA"/>
</g>
<defs>
<clipPath id="clip0_72_4052">
<rect width="48" height="48" fill="white"/>
</clipPath>
</defs>
</svg>
