<svg width="48" height="48" viewBox="0 0 48 48" fill="none" xmlns="http://www.w3.org/2000/svg">
<g clip-path="url(#clip0_72_3988)">
<path d="M18 22C18 25.86 21.14 29 25 29C28.86 29 32 25.86 32 22C32 18.14 28.86 15 25 15C21.14 15 18 18.14 18 22ZM28 22C28 23.654 26.654 25 25 25C23.346 25 22 23.654 22 22C22 20.346 23.346 19 25 19C26.654 19 28 20.346 28 22ZM41.462 28.634C40.71 27.826 39.442 27.786 38.634 28.538C37.828 29.292 37.784 30.558 38.538 31.366L42.866 36H13.928C13.488 32.94 11.06 30.512 8 30.072V13.928C11.06 13.488 13.488 11.06 13.928 8H34.072C34.558 11.388 37.48 14 41 14C44.86 14 48 10.86 48 7C48 3.14 44.86 0 41 0C38.214 0 35.802 1.638 34.676 4H13.324C12.198 1.638 9.786 0 7 0C3.14 0 0 3.14 0 7C0 9.786 1.638 12.198 4 13.324V30.678C1.638 31.804 0 34.216 0 37.002C0 40.862 3.14 44.002 7 44.002C9.786 44.002 12.198 42.364 13.324 40.002H42.866L38.54 44.636C37.786 45.444 37.83 46.71 38.636 47.464C39.022 47.824 39.512 48.002 40.002 48.002C40.536 48.002 41.07 47.79 41.464 47.368L46.244 42.246C47.378 41.112 48.002 39.606 48.002 38.002C48.002 36.398 47.378 34.892 46.292 33.808L41.464 28.636L41.462 28.634ZM41 4C42.654 4 44 5.346 44 7C44 8.654 42.654 10 41 10C39.346 10 38 8.654 38 7C38 5.346 39.346 4 41 4ZM7 4C8.654 4 10 5.346 10 7C10 8.654 8.654 10 7 10C5.346 10 4 8.654 4 7C4 5.346 5.346 4 7 4ZM7 40C5.346 40 4 38.654 4 37C4 35.346 5.346 34 7 34C8.654 34 10 35.346 10 37C10 38.654 8.654 40 7 40Z" fill="#2078BA"/>
</g>
<defs>
<clipPath id="clip0_72_3988">
<rect width="48" height="48" fill="white"/>
</clipPath>
</defs>
</svg>
