<svg width="48" height="48" viewBox="0 0 48 48" fill="none" xmlns="http://www.w3.org/2000/svg">
<g clip-path="url(#clip0_72_4048)">
<path d="M47.4137 44.586L35.4877 32.66C38.3117 29.21 40.0117 24.806 40.0117 20.012C40.0117 8.98402 31.0397 0.0120239 20.0117 0.0120239C8.98372 0.0120239 0.0117188 8.98402 0.0117188 20.012C0.0117188 31.04 8.98372 40.012 20.0117 40.012C24.8077 40.012 29.2117 38.312 32.6597 35.488L44.5857 47.414C44.9757 47.804 45.4877 48 45.9997 48C46.5117 48 47.0237 47.804 47.4137 47.414C48.1957 46.632 48.1957 45.368 47.4137 44.586ZM4.01172 20.012C4.01172 11.19 11.1897 4.01202 20.0117 4.01202C28.8337 4.01202 36.0117 11.19 36.0117 20.012C36.0117 28.834 28.8337 36.012 20.0117 36.012C11.1897 36.012 4.01172 28.834 4.01172 20.012ZM29.9997 24C29.9997 25.106 29.1037 26 27.9997 26H11.9997C10.8957 26 9.99972 25.106 9.99972 24C9.99972 22.894 10.8957 22 11.9997 22V18C11.9997 16.894 12.8957 16 13.9997 16C15.1037 16 15.9997 16.894 15.9997 18V22H17.9997V12C17.9997 10.894 18.8957 10 19.9997 10C21.1037 10 21.9997 10.894 21.9997 12V22H23.9997V16C23.9997 14.894 24.8957 14 25.9997 14C27.1037 14 27.9997 14.894 27.9997 16V22C29.1037 22 29.9997 22.894 29.9997 24Z" fill="#2078BA"/>
</g>
<defs>
<clipPath id="clip0_72_4048">
<rect width="48" height="48" fill="white"/>
</clipPath>
</defs>
</svg>
