<svg width="48" height="48" viewBox="0 0 48 48" fill="none" xmlns="http://www.w3.org/2000/svg">
<path d="M37.4196 16.42C37.2337 16.2326 37.0125 16.0838 36.7688 15.9822C36.5251 15.8807 36.2637 15.8284 35.9996 15.8284C35.7356 15.8284 35.4742 15.8807 35.2305 15.9822C34.9868 16.0838 34.7656 16.2326 34.5796 16.42L25.4196 25.58C25.2337 25.7675 25.0125 25.9163 24.7688 26.0178C24.5251 26.1193 24.2637 26.1716 23.9996 26.1716C23.7356 26.1716 23.4742 26.1193 23.2305 26.0178C22.9868 25.9163 22.7656 25.7675 22.5796 25.58L13.4196 16.42C13.2337 16.2326 13.0125 16.0838 12.7688 15.9822C12.5251 15.8807 12.2637 15.8284 11.9996 15.8284C11.7356 15.8284 11.4742 15.8807 11.2305 15.9822C10.9868 16.0838 10.7656 16.2326 10.5796 16.42C10.2071 16.7948 9.99805 17.3017 9.99805 17.83C9.99805 18.3584 10.2071 18.8653 10.5796 19.24L19.7596 28.42C20.8846 29.5436 22.4096 30.1747 23.9996 30.1747C25.5896 30.1747 27.1146 29.5436 28.2396 28.42L37.4196 19.24C37.7921 18.8653 38.0012 18.3584 38.0012 17.83C38.0012 17.3017 37.7921 16.7948 37.4196 16.42Z" fill="#2078BA"/>
</svg>
