<svg width="48" height="48" viewBox="0 0 48 48" fill="none" xmlns="http://www.w3.org/2000/svg">
<g clip-path="url(#clip0_72_3908)">
<path d="M22 28C22 29.106 21.104 30 20 30H18C16.896 30 16 29.106 16 28C16 26.894 16.896 26 18 26H20C21.104 26 22 26.894 22 28ZM30 26H28C26.896 26 26 26.894 26 28C26 29.106 26.896 30 28 30H30C31.104 30 32 29.106 32 28C32 26.894 31.104 26 30 26ZM20 34H18C16.896 34 16 34.894 16 36C16 37.106 16.896 38 18 38H20C21.104 38 22 37.106 22 36C22 34.894 21.104 34 20 34ZM30 34H28C26.896 34 26 34.894 26 36C26 37.106 26.896 38 28 38H30C31.104 38 32 37.106 32 36C32 34.894 31.104 34 30 34ZM20 10H18C16.896 10 16 10.894 16 12C16 13.106 16.896 14 18 14H20C21.104 14 22 13.106 22 12C22 10.894 21.104 10 20 10ZM30 10H28C26.896 10 26 10.894 26 12C26 13.106 26.896 14 28 14H30C31.104 14 32 13.106 32 12C32 10.894 31.104 10 30 10ZM20 18H18C16.896 18 16 18.894 16 20C16 21.106 16.896 22 18 22H20C21.104 22 22 21.106 22 20C22 18.894 21.104 18 20 18ZM30 18H28C26.896 18 26 18.894 26 20C26 21.106 26.896 22 28 22H30C31.104 22 32 21.106 32 20C32 18.894 31.104 18 30 18ZM48 20V38C48 43.514 43.514 48 38 48H10C4.486 48 0 43.514 0 38V28C0 23.17 3.442 19.13 8 18.202V10C8 4.486 12.486 0 18 0H30C35.514 0 40 4.486 40 10V10.202C44.558 11.132 48 15.17 48 20ZM44 20C44 16.692 41.308 14 38 14C36.896 14 36 13.106 36 12V10C36 6.692 33.308 4 30 4H18C14.692 4 12 6.692 12 10V20C12 21.106 11.104 22 10 22C6.692 22 4 24.692 4 28V38C4 41.308 6.692 44 10 44H38C41.308 44 44 41.308 44 38V20ZM38 26H36C34.896 26 34 26.894 34 28C34 29.106 34.896 30 36 30H38C39.104 30 40 29.106 40 28C40 26.894 39.104 26 38 26ZM38 34H36C34.896 34 34 34.894 34 36C34 37.106 34.896 38 36 38H38C39.104 38 40 37.106 40 36C40 34.894 39.104 34 38 34ZM12 26H10C8.896 26 8 26.894 8 28C8 29.106 8.896 30 10 30H12C13.104 30 14 29.106 14 28C14 26.894 13.104 26 12 26ZM12 34H10C8.896 34 8 34.894 8 36C8 37.106 8.896 38 10 38H12C13.104 38 14 37.106 14 36C14 34.894 13.104 34 12 34ZM38 18H36C34.896 18 34 18.894 34 20C34 21.106 34.896 22 36 22H38C39.104 22 40 21.106 40 20C40 18.894 39.104 18 38 18Z" fill="#2078BA"/>
</g>
<defs>
<clipPath id="clip0_72_3908">
<rect width="48" height="48" fill="white"/>
</clipPath>
</defs>
</svg>
