<svg width="48" height="48" viewBox="0 0 48 48" fill="none" xmlns="http://www.w3.org/2000/svg">
<path d="M14 22C14 27.514 18.486 32 24 32C29.514 32 34 27.514 34 22C34 20.896 34.896 20 36 20C37.104 20 38 20.896 38 22C38 29.72 31.72 36 24 36C16.28 36 10 29.72 10 22C10 14.28 16.28 8 24 8C25.104 8 26 8.896 26 10C26 11.104 25.104 12 24 12C18.486 12 14 16.486 14 22ZM24 24C22.896 24 22 23.104 22 22C22 21.448 22.224 20.948 22.586 20.586L26.55 16.622C24.326 15.62 21.53 15.984 19.756 17.758C18.624 18.89 18 20.398 18 22C18 23.602 18.624 25.11 19.756 26.242C20.888 27.374 22.396 28 24 28C25.604 28 27.11 27.376 28.242 26.244C29.374 25.112 30 23.604 30 22C30 21.092 29.78 20.224 29.4 19.428L25.416 23.412C25.054 23.774 24.554 23.998 24.002 23.998L24 24ZM26.55 16.622C27.168 16.9 27.75 17.264 28.242 17.756C28.734 18.248 29.108 18.818 29.398 19.426L32.826 15.998H37.998C38.528 15.998 39.038 15.788 39.412 15.412L43.412 11.412C43.984 10.84 44.156 9.98 43.846 9.232C43.536 8.484 42.806 7.998 41.998 7.998H37.998V4C37.998 3.192 37.51 2.462 36.764 2.152C36.014 1.842 35.156 2.012 34.584 2.586L30.584 6.586C30.208 6.962 29.998 7.47 29.998 8V13.172L26.55 16.622ZM38.59 38.42C43.124 34.388 46 28.53 46 22C46 21.258 45.964 20.526 45.892 19.802C45.782 18.704 44.808 17.9 43.704 18.01C42.606 18.12 41.802 19.098 41.912 20.198C41.97 20.79 42 21.392 42 22C42 31.924 33.924 40 24 40C14.076 40 6 31.924 6 22C6 12.076 14.076 4 24 4C24.608 4 25.208 4.03 25.802 4.088C26.914 4.2 27.882 3.394 27.99 2.296C28.1 1.196 27.296 0.216 26.198 0.108C25.474 0.036 24.74 0 24 0C11.87 0 2 9.87 2 22C2 28.53 4.876 34.388 9.41 38.42L5.308 44.934C4.72 45.868 5 47.102 5.934 47.692C6.854 48.276 8.1 48.008 8.692 47.066L12.636 40.802C15.958 42.818 19.838 44 24 44C28.162 44 32.042 42.818 35.364 40.802L39.308 47.066C39.9 48.008 41.146 48.276 42.066 47.692C43 47.104 43.282 45.868 42.692 44.934L38.59 38.42Z" fill="#2078BA"/>
</svg>
