<svg width="48" height="48" viewBox="0 0 48 48" fill="none" xmlns="http://www.w3.org/2000/svg">
<g clip-path="url(#clip0_72_3907)">
<g clip-path="url(#clip1_72_3907)">
<g clip-path="url(#clip2_72_3907)">
<path d="M34.5345 14.1893C34.5345 13.3149 33.8257 12.6061 32.9514 12.6061H18.7033C17.829 12.6061 17.1202 13.3149 17.1202 14.1893C17.1202 15.0636 17.829 15.7724 18.7033 15.7724H31.3683V28.4374C31.3683 29.3117 32.0771 30.0205 32.9514 30.0205C33.8257 30.0205 34.5345 29.3117 34.5345 28.4374V14.1893ZM14.3092 35.0705L34.071 15.3087L31.832 13.0698L12.0703 32.8315L14.3092 35.0705Z" fill="#2078BA"/>
</g>
</g>
</g>
<defs>
<clipPath id="clip0_72_3907">
<rect width="25.33" height="23.2192" fill="white" transform="translate(11 12)"/>
</clipPath>
<clipPath id="clip1_72_3907">
<rect width="25.33" height="23.2192" fill="white" transform="translate(11 12)"/>
</clipPath>
<clipPath id="clip2_72_3907">
<rect width="25.33" height="23.2192" fill="white" transform="translate(11 12)"/>
</clipPath>
</defs>
</svg>
