<svg width="48" height="48" viewBox="0 0 48 48" fill="none" xmlns="http://www.w3.org/2000/svg">
<rect x="0.6" y="0.6" width="46.8" height="46.8" rx="23.4" stroke="#2078BA" stroke-width="1.2"/>
<g clip-path="url(#clip0_72_3926)">
<g clip-path="url(#clip1_72_3926)">
<g clip-path="url(#clip2_72_3926)">
<path d="M33.7519 24.3023C33.9943 24.0599 33.9943 23.6669 33.7519 23.4245L29.8018 19.4745C29.5594 19.2321 29.1665 19.2321 28.9241 19.4745C28.6817 19.7169 28.6817 20.1099 28.9241 20.3522L32.4352 23.8634L28.9241 27.3745C28.6817 27.6169 28.6817 28.0099 28.9241 28.2523C29.1665 28.4947 29.5594 28.4947 29.8018 28.2523L33.7519 24.3023ZM14.4141 24.4841H33.313V23.2427H14.4141V24.4841Z" fill="#2078BA"/>
</g>
</g>
</g>
<defs>
<clipPath id="clip0_72_3926">
<rect width="19.8621" height="9.93103" fill="white" transform="translate(14.0693 19.0345)"/>
</clipPath>
<clipPath id="clip1_72_3926">
<rect width="19.8621" height="9.93103" fill="white" transform="translate(14.0693 19.0345)"/>
</clipPath>
<clipPath id="clip2_72_3926">
<rect width="19.8621" height="9.93103" fill="white" transform="translate(14.0693 19.0345)"/>
</clipPath>
</defs>
</svg>
