<svg width="48" height="48" viewBox="0 0 48 48" fill="none" xmlns="http://www.w3.org/2000/svg">
<rect x="0.6" y="0.6" width="46.8" height="46.8" rx="23.4" stroke="#2078BA" stroke-width="1.2"/>
<g clip-path="url(#clip0_72_3925)">
<g clip-path="url(#clip1_72_3925)">
<g clip-path="url(#clip2_72_3925)">
<path d="M30.179 18.6446C30.179 18.1476 29.776 17.7446 29.279 17.7446H21.179C20.682 17.7446 20.279 18.1476 20.279 18.6446C20.279 19.1417 20.682 19.5446 21.179 19.5446H28.379V26.7446C28.379 27.2417 28.782 27.6446 29.279 27.6446C29.776 27.6446 30.179 27.2417 30.179 26.7446V18.6446ZM18.681 30.5155L29.9155 19.281L28.6426 18.0082L17.4082 29.2427L18.681 30.5155Z" fill="#2078BA"/>
</g>
</g>
</g>
<defs>
<clipPath id="clip0_72_3925">
<rect width="14.4" height="13.2" fill="white" transform="translate(16.7998 17.4)"/>
</clipPath>
<clipPath id="clip1_72_3925">
<rect width="14.4" height="13.2" fill="white" transform="translate(16.7998 17.4)"/>
</clipPath>
<clipPath id="clip2_72_3925">
<rect width="14.4" height="13.2" fill="white" transform="translate(16.7998 17.4)"/>
</clipPath>
</defs>
</svg>
