<svg width="48" height="48" viewBox="0 0 48 48" fill="none" xmlns="http://www.w3.org/2000/svg">
<g clip-path="url(#clip0_72_4021)">
<path d="M48 8V13.976C48.012 16.15 46.112 18.102 44 17.976L38.008 18H38C36.898 18 36.004 17.11 36 16.008C35.996 14.904 36.886 14.004 37.992 14L41.324 13.986C37.792 7.836 31.276 4 24 4C13.7 4 4.91 11.986 3.992 22.18C3.896 23.284 2.904 24.094 1.82 23.992C0.792 23.898 0 23 0 22C0 21.928 0.008 21.784 0.008 21.784C1.11 9.55 11.648 0 24 0C32.216 0 39.618 4.084 43.996 10.718L44 8C44 6.896 44.894 6 46 6C47.106 6 48 6.896 48 8ZM46.18 24.008C45.092 23.922 44.108 24.72 44.008 25.82C43.09 36.014 34.3 44 24 44C16.834 44 10.286 40.124 6.734 34.012L10.008 34C11.114 33.996 12.004 33.096 12 31.992C11.996 30.89 11.102 30 10 30H9.992L4 30.024C1.794 30.024 0 31.818 0 34.024V40C0 41.104 0.894 42 2 42C3.106 42 4 41.104 4 40L4.004 37.256C8.404 43.882 15.888 48 24 48C36.352 48 46.89 38.418 47.992 26.182C47.998 26.12 48 26 48 26C48 25 47.218 24.102 46.18 24.008ZM24 36C17.382 36 12 30.618 12 24C12 17.382 17.382 12 24 12C30.618 12 36 17.382 36 24C36 30.618 30.618 36 24 36ZM24 32C28.412 32 32 28.412 32 24C32 19.588 28.412 16 24 16C19.588 16 16 19.588 16 24C16 28.412 19.588 32 24 32ZM29.672 24.444C30.468 23.68 30.494 22.412 29.73 21.616C28.966 20.82 27.7 20.792 26.902 21.558L23.4 24.918C23.29 25.03 23.11 25.03 22.998 24.918L21.112 23.072C20.324 22.298 19.06 22.318 18.284 23.102C17.512 23.892 17.526 25.158 18.316 25.932L20.202 27.778C21.032 28.592 22.122 28.996 23.208 28.996C24.294 28.996 25.376 28.592 26.192 27.786L29.672 24.444Z" fill="#2078BA"/>
</g>
<defs>
<clipPath id="clip0_72_4021">
<rect width="48" height="48" fill="white"/>
</clipPath>
</defs>
</svg>
