<svg width="48" height="48" viewBox="0 0 48 48" fill="none" xmlns="http://www.w3.org/2000/svg">
<g clip-path="url(#clip0_72_3910)">
<path d="M34 5V2C34 0.896 34.894 0 36 0C37.106 0 38 0.896 38 2V5C38 6.106 37.106 7 36 7C34.894 7 34 6.106 34 5ZM48 26V46C48 47.106 47.106 48 46 48C44.894 48 44 47.106 44 46V40H4V46C4 47.106 3.106 48 2 48C0.894 48 0 47.106 0 46V26C0 22.282 2.558 19.178 6 18.284V16C6 12.692 8.692 10 12 10C15.308 10 18 12.692 18 16V18H30V16C30 12.692 32.692 10 36 10C39.308 10 42 12.692 42 16V18.284C45.442 19.178 48 22.282 48 26ZM34 18H38V16C38 14.896 37.104 14 36 14C34.896 14 34 14.896 34 16V18ZM10 18H14V16C14 14.896 13.104 14 12 14C10.896 14 10 14.896 10 16V18ZM4 32.172L14.172 22H8C5.794 22 4 23.794 4 26V32.172ZM14.172 36L28.172 22H19.828L5.828 36H14.172ZM28.172 36L41.746 22.426C41.216 22.164 40.63 22 40 22H33.828L19.828 36H28.172ZM44 25.828L33.828 36H44V25.828ZM43.414 8.414L45.414 6.414C46.196 5.632 46.196 4.368 45.414 3.586C44.632 2.804 43.368 2.804 42.586 3.586L40.586 5.586C39.804 6.368 39.804 7.632 40.586 8.414C41.368 9.196 42.632 9.196 43.414 8.414ZM28.586 8.414C29.368 9.196 30.632 9.196 31.414 8.414C32.196 7.632 32.196 6.368 31.414 5.586L29.414 3.586C28.632 2.804 27.368 2.804 26.586 3.586C25.804 4.368 25.804 5.632 26.586 6.414L28.586 8.414ZM4.586 8.414C5.368 9.196 6.632 9.196 7.414 8.414C8.196 7.632 8.196 6.368 7.414 5.586L5.414 3.586C4.632 2.804 3.368 2.804 2.586 3.586C1.804 4.368 1.804 5.632 2.586 6.414L4.586 8.414ZM19.414 8.414L21.414 6.414C22.196 5.632 22.196 4.368 21.414 3.586C20.632 2.804 19.368 2.804 18.586 3.586L16.586 5.586C15.804 6.368 15.804 7.632 16.586 8.414C17.368 9.196 18.632 9.196 19.414 8.414ZM12 7C13.106 7 14 6.106 14 5V2C14 0.896 13.106 0 12 0C10.894 0 10 0.896 10 2V5C10 6.106 10.894 7 12 7Z" fill="#2078BA"/>
</g>
<defs>
<clipPath id="clip0_72_3910">
<rect width="48" height="48" fill="white"/>
</clipPath>
</defs>
</svg>
