<svg width="48" height="48" viewBox="0 0 48 48" fill="none" xmlns="http://www.w3.org/2000/svg">
<g clip-path="url(#clip0_72_3911)">
<path d="M11.2961 11.916C12.7621 12.356 14.3381 13.578 16.0041 14.872C18.4941 16.806 21.3141 19 24.6501 19C28.5801 19 31.9361 16.516 33.3161 13.016C34.4061 13.702 35.4541 14.596 36.4361 15.826C36.8321 16.32 37.4121 16.576 38.0001 16.576C38.4381 16.576 38.8781 16.432 39.2481 16.138C40.1101 15.448 40.2501 14.19 39.5601 13.328C37.8081 11.14 35.8981 9.70401 33.9241 8.76201C33.5541 3.86201 29.5621 -0.019989 24.6501 -0.019989C17.0001 -0.019989 11.6421 4.26201 9.68606 6.79201C9.02406 7.64401 8.82606 8.77201 9.15806 9.80401C9.48406 10.822 10.2821 11.612 11.2961 11.916ZM24.6501 3.98001C26.8841 3.98001 28.7961 5.40001 29.5961 7.40601C27.6941 7.06601 25.8001 7.00001 24.0001 7.00001C22.8941 7.00001 22.0001 7.89601 22.0001 9.00001C22.0001 10.104 22.8941 11 24.0001 11C25.9201 11 27.8041 11.088 29.6161 11.508C28.8321 13.548 26.9061 15 24.6501 15C22.6881 15 20.6321 13.404 18.4561 11.714C16.8901 10.496 15.2761 9.24201 13.5201 8.48001C15.5301 6.44601 19.6301 3.98001 24.6501 3.98001ZM18.1801 29.608C17.1141 27.256 15.2021 25.474 12.8001 24.586C11.5061 24.108 10.1561 23.948 8.82006 24.052C9.17206 23.092 9.65406 22.086 10.2921 21.046C10.8701 20.104 10.5741 18.874 9.63206 18.296C8.68806 17.716 7.45806 18.014 6.88206 18.956C5.43006 21.324 4.58806 23.576 4.31206 25.626C0.468056 28.196 -1.08994 33.276 0.890056 37.638C4.39206 45.354 12.6801 47.476 15.1341 47.942C15.3401 47.982 15.5441 48 15.7481 48C16.6321 48 17.4821 47.638 18.1001 46.98C18.8901 46.138 19.1861 44.956 18.8921 43.83C18.7621 43.31 18.6901 42.79 18.6841 42.278C18.6681 41.108 18.7941 39.898 18.9281 38.618C19.2341 35.674 19.5521 32.628 18.1801 29.61V29.608ZM14.9501 38.202C14.8101 39.54 14.6641 40.924 14.6841 42.326C14.6901 42.804 14.7281 43.286 14.8041 43.77C12.1221 43.082 6.86206 41.116 4.53206 35.984C3.68406 34.114 3.94806 32.026 5.01606 30.444C5.63406 31.822 6.69006 33.516 8.58806 35.414C8.97806 35.804 9.49006 36 10.0021 36C10.5141 36 11.0261 35.804 11.4161 35.414C12.1981 34.632 12.1981 33.368 11.4161 32.586C9.46006 30.63 8.69006 29.062 8.38406 28.126C8.76406 28.042 9.14806 28 9.53406 28C10.1681 28 10.8041 28.114 11.4141 28.338C12.8061 28.852 13.9181 29.892 14.5401 31.262C15.4621 33.294 15.2141 35.678 14.9501 38.202ZM45.8121 23.87C45.3521 22.892 44.4441 22.208 43.3841 22.04C42.2901 21.872 41.1661 22.256 40.3921 23.082C39.2801 24.266 37.7501 25.33 36.1281 26.454C33.5101 28.27 30.8061 30.148 29.2181 32.954C27.9781 35.148 27.6721 37.69 28.3561 40.112C28.6541 41.168 29.1541 42.124 29.7741 42.992C28.6061 43.494 27.2861 43.856 25.7941 44.01C24.6941 44.124 23.8981 45.108 24.0121 46.206C24.1181 47.234 24.9861 47.998 25.9981 47.998C28.7381 47.964 31.0721 46.912 32.9581 45.836C34.4021 46.618 35.9601 46.994 37.5021 46.994C40.8401 46.994 44.0841 45.256 45.8261 42.176C49.5281 35.636 47.5561 27.592 45.8101 23.868L45.8121 23.87ZM42.3481 40.208C41.1901 42.258 38.8841 43.26 36.6601 42.914C38.3561 41.078 39.5161 38.986 40.1201 36.988C40.4401 35.932 39.8421 34.816 38.7841 34.496C37.7221 34.176 36.6121 34.774 36.2921 35.832C35.7781 37.532 34.7281 39.334 33.1141 40.824C32.7061 40.29 32.3921 39.686 32.2041 39.022C31.8141 37.636 31.9881 36.18 32.6981 34.924C33.8361 32.912 36.0581 31.372 38.4081 29.74C39.8481 28.74 41.3281 27.712 42.5961 26.53C43.8141 29.716 44.9581 35.594 42.3461 40.21L42.3481 40.208Z" fill="#2078BA"/>
</g>
<defs>
<clipPath id="clip0_72_3911">
<rect width="48" height="48" fill="white"/>
</clipPath>
</defs>
</svg>
