<svg width="48" height="48" viewBox="0 0 48 48" fill="none" xmlns="http://www.w3.org/2000/svg">
<g clip-path="url(#clip0_72_3909)">
<path d="M22.4796 48C21.8244 47.9977 21.1775 47.853 20.5836 47.576C19.6136 47.1441 18.8346 46.373 18.3927 45.4075C17.9509 44.442 17.8765 43.3484 18.1836 42.332L21.3056 32H13.9496C13.0124 32.0011 12.088 31.7827 11.2504 31.3622C10.4129 30.9417 9.68543 30.3309 9.12645 29.5787C8.56747 28.8264 8.19247 27.9537 8.03152 27.0304C7.87058 26.1072 7.92814 25.159 8.19962 24.262L14.2476 4.26201C14.6163 3.02497 15.3762 1.94086 16.4133 1.17239C17.4504 0.403919 18.7088 -0.00745481 19.9996 8.22592e-06H27.3856C28.2251 0.000710511 29.052 0.20466 29.7955 0.594428C30.5391 0.984195 31.1772 1.54819 31.6554 2.23822C32.1335 2.92824 32.4375 3.72378 32.5413 4.55684C32.6452 5.3899 32.5458 6.23572 32.2516 7.02201L28.8856 16H33.9996C35.0897 15.9999 36.1593 16.2968 37.0933 16.8588C38.0274 17.4208 38.7907 18.2267 39.3013 19.1898C39.8119 20.153 40.0504 21.237 39.9912 22.3255C39.9321 23.414 39.5775 24.4658 38.9656 25.368L26.1656 45.968C25.7699 46.5877 25.2252 47.0984 24.5813 47.4533C23.9375 47.8083 23.2149 47.9963 22.4796 48ZM19.9996 4.00001C19.5701 3.99959 19.1519 4.13745 18.8068 4.39319C18.4617 4.64893 18.2082 5.00896 18.0836 5.42001L12.0356 25.42C11.9451 25.7188 11.9257 26.0347 11.9792 26.3424C12.0326 26.65 12.1574 26.9408 12.3434 27.1916C12.5295 27.4424 12.7716 27.6461 13.0505 27.7865C13.3295 27.9269 13.6374 28 13.9496 28H23.9996C24.3119 28 24.6198 28.0731 24.8987 28.2135C25.1776 28.3539 25.4198 28.5576 25.6058 28.8084C25.7919 29.0592 25.9166 29.35 25.97 29.6577C26.0235 29.9653 26.0042 30.2812 25.9136 30.58L22.0196 43.464C22.0016 43.5114 21.9937 43.562 21.9962 43.6127C21.9988 43.6633 22.0119 43.7129 22.0347 43.7582C22.0574 43.8035 22.0894 43.8436 22.1284 43.8759C22.1675 43.9083 22.2128 43.9321 22.2616 43.946C22.3058 43.9743 22.3555 43.9931 22.4074 44.0011C22.4593 44.0091 22.5123 44.0061 22.563 43.9923C22.6137 43.9786 22.6609 43.9544 22.7017 43.9212C22.7424 43.8881 22.7758 43.8468 22.7996 43.8L35.5996 23.2C35.8235 22.8964 35.9569 22.5357 35.9845 22.1595C36.0121 21.7833 35.9327 21.407 35.7556 21.074C35.5915 20.7496 35.3403 20.4773 35.0301 20.2876C34.72 20.0979 34.3632 19.9984 33.9996 20H25.9996C25.6764 20.0002 25.3579 19.9221 25.0715 19.7722C24.785 19.6224 24.5392 19.4054 24.3549 19.1398C24.1707 18.8742 24.0536 18.5679 24.0137 18.2471C23.9738 17.9264 24.0122 17.6007 24.1256 17.298L28.5056 5.61801C28.5729 5.43692 28.5955 5.24226 28.5714 5.05058C28.5474 4.8589 28.4774 4.67585 28.3675 4.51701C28.2575 4.35817 28.1108 4.22822 27.9399 4.13821C27.7689 4.0482 27.5788 4.00079 27.3856 4.00001H19.9996Z" fill="#2078BA"/>
</g>
<defs>
<clipPath id="clip0_72_3909">
<rect width="48" height="48" fill="white"/>
</clipPath>
</defs>
</svg>
