<svg width="48" height="48" viewBox="0 0 48 48" fill="none" xmlns="http://www.w3.org/2000/svg">
<g clip-path="url(#clip0_72_4025)">
<path d="M47.572 38.984L33.426 3.67197C32.178 0.61397 28.674 -0.86603 25.604 0.38197L23.754 1.13797C23.256 1.34197 22.81 1.62597 22.394 1.94197C21.298 0.75397 19.742 -0.00202991 18.002 -0.00202991H6C2.692 -2.99104e-05 0 2.69197 0 5.99997V42C0 45.308 2.692 48 6 48H18C21.308 48 24 45.308 24 42V17.79L34.608 44.274C35.858 47.36 39.442 48.794 42.426 47.556L44.278 46.8C47.288 45.652 48.85 41.93 47.572 38.984ZM27.148 14.892L32.704 12.628L41.046 33.452L35.49 35.716L27.148 14.892ZM25.264 4.84197L27.114 4.08597C28.106 3.67397 29.308 4.14797 29.718 5.17197L31.218 8.91397L25.664 11.178L24.17 7.44597C23.754 6.42597 24.246 5.25597 25.268 4.83997L25.264 4.84197ZM4 14H10V34H4V14ZM14 14H20V34H14V14ZM20 5.99997V9.99997H14V3.99997H18C19.102 3.99997 20 4.89597 20 5.99997ZM6 3.99997H10V9.99997H4V5.99997C4 4.89597 4.898 3.99997 6 3.99997ZM4 42V38H10V44H6C4.898 44 4 43.104 4 42ZM18 44H14V38H20V42C20 43.104 19.102 44 18 44ZM43.858 42.018C43.65 42.512 43.264 42.894 42.77 43.096L40.918 43.852C39.896 44.264 38.728 43.778 38.318 42.772L36.98 39.43L42.536 37.166L43.866 40.488C44.07 40.982 44.068 41.528 43.86 42.02L43.858 42.018Z" fill="#2078BA"/>
</g>
<defs>
<clipPath id="clip0_72_4025">
<rect width="48" height="48" fill="white"/>
</clipPath>
</defs>
</svg>
