<svg width="48" height="48" viewBox="0 0 48 48" fill="none" xmlns="http://www.w3.org/2000/svg">
<path d="M44 36H40C37.794 36 36 37.794 36 40H34C32.896 40 32 39.102 32 38C32 36.898 31.106 36 30 36C28.894 36 28 36.896 28 38C28 41.308 30.692 44 34 44H36C36 46.206 37.794 48 40 48H44C46.206 48 48 46.206 48 44V40C48 37.794 46.206 36 44 36ZM40 44V40H44V44H40ZM4 12H8C10.206 12 12 10.206 12 8H14C15.102 8 16 8.898 16 10C16 11.102 16.896 12 18 12C19.104 12 20 11.104 20 10C20 6.692 17.308 4 14 4H12C12 1.794 10.206 0 8 0H4C1.794 0 0 1.794 0 4V8C0 10.206 1.794 12 4 12ZM8 4V8H4V4H8ZM44 0H40C37.794 0 36 1.794 36 4H34C30.692 4 28 6.692 28 10C28 11.104 28.894 12 30 12C31.106 12 32 11.104 32 10C32 8.896 32.896 8 34 8H36C36 10.206 37.794 12 40 12H44C46.206 12 48 10.206 48 8V4C48 1.794 46.206 0 44 0ZM44 8H40V4H44V8ZM18 36C16.896 36 16 36.896 16 38C16 39.104 15.102 40 14 40H12C12 37.794 10.206 36 8 36H4C1.794 36 0 37.794 0 40V44C0 46.206 1.794 48 4 48H8C10.206 48 12 46.206 12 44H14C17.308 44 20 41.308 20 38C20 36.896 19.104 36 18 36ZM8 44H4V40H8V44ZM34 26.636V21.892C33.968 19.714 32.822 17.764 30.952 16.668L26.946 14.404C25.124 13.372 22.86 13.374 21.038 14.406L17.044 16.668C15.184 17.766 14.026 19.714 14 21.888V26.536C14 28.684 15.158 30.68 17.022 31.744L21.054 34.048C21.97 34.57 23 34.832 24.032 34.832C25.038 34.832 26.042 34.582 26.944 34.082L30.914 31.878C32.818 30.822 34.002 28.812 34.002 26.632L34 26.636ZM23.008 17.886C23.616 17.544 24.372 17.544 24.976 17.886L27.84 19.504L24.002 21.696L20.158 19.5L23.008 17.886ZM19.008 28.272C18.386 27.916 18.002 27.252 18.002 26.536V22.872L22.002 25.158V29.984L19.008 28.274V28.272ZM28.972 28.384L26.002 30.034V25.162L30.002 22.876V26.636C30.002 27.362 29.608 28.03 28.972 28.384Z" fill="#2078BA"/>
</svg>
