<svg width="48" height="48" viewBox="0 0 48 48" fill="none" xmlns="http://www.w3.org/2000/svg">
<path d="M8.56826 36.724C9.27226 37.576 9.15226 38.838 8.30226 39.54C7.92826 39.848 7.47826 39.998 7.02826 39.998C6.45226 39.998 5.88226 39.75 5.48626 39.274C-1.81774 30.442 -1.82974 17.608 5.45626 8.76C6.15826 7.906 7.41626 7.782 8.27226 8.488C9.12426 9.19 9.24626 10.448 8.54426 11.302C2.47426 18.674 2.48426 29.366 8.56826 36.724ZM42.5443 8.762C41.8423 7.908 40.5803 7.788 39.7283 8.49C38.8763 9.192 38.7543 10.45 39.4563 11.304C45.5143 18.66 45.5143 29.34 39.4563 36.694C38.7543 37.548 38.8763 38.808 39.7283 39.508C40.1003 39.816 40.5523 39.966 40.9983 39.966C41.5763 39.966 42.1483 39.718 42.5423 39.238C49.8143 30.408 49.8163 17.592 42.5443 8.762ZM24.0003 27C22.3443 27 21.0003 28.344 21.0003 30C21.0003 31.656 22.3443 33 24.0003 33C25.6563 33 27.0003 31.656 27.0003 30C27.0003 28.344 25.6563 27 24.0003 27ZM40.0003 24C40.0003 32.822 32.8223 40 24.0003 40C15.1783 40 8.00026 32.822 8.00026 24C8.00026 15.178 15.1783 8 24.0003 8C32.8223 8 40.0003 15.178 40.0003 24ZM36.0003 24C36.0003 17.382 30.6183 12 24.0003 12C17.3823 12 12.0003 17.382 12.0003 24C12.0003 30.618 17.3823 36 24.0003 36C30.6183 36 36.0003 30.618 36.0003 24ZM24.0003 24C25.1043 24 26.0003 23.106 26.0003 22V16C26.0003 14.894 25.1043 14 24.0003 14C22.8963 14 22.0003 14.894 22.0003 16V22C22.0003 23.106 22.8963 24 24.0003 24Z" fill="#2078BA"/>
</svg>
