<svg width="48" height="48" viewBox="0 0 48 48" fill="none" xmlns="http://www.w3.org/2000/svg">
<g clip-path="url(#clip0_72_3913)">
<path d="M39 0H9C4.038 0 0 4.038 0 9V20.002C0 22.948 1.734 25.66 4.528 27.08C7.904 28.796 10 32.214 10 36V46C10 47.106 10.896 48 12 48C13.104 48 14 47.106 14 46V36C14 30.486 18.486 26 24 26C29.514 26 34 30.486 34 36V46C34 47.106 34.896 48 36 48C37.104 48 38 47.106 38 46V36C38 32.214 40.096 28.796 43.472 27.08C46.264 25.66 48 22.948 48 20.002V9C48 4.038 43.962 0 39 0ZM44 9V10H37V4H39C41.756 4 44 6.244 44 9ZM26 10V4H33V10H26ZM15 10V4H22V10H15ZM9 4H11V10H4V9C4 6.244 6.244 4 9 4ZM41.66 23.514C39.25 24.74 37.314 26.59 35.988 28.806C33.536 24.736 29.088 22 24 22C18.912 22 14.464 24.736 12.012 28.806C10.686 26.59 8.75 24.74 6.34 23.516C4.896 22.782 4 21.434 4 20.002V14H44V20.002C44 21.434 43.104 22.782 41.66 23.514Z" fill="#2078BA"/>
</g>
<defs>
<clipPath id="clip0_72_3913">
<rect width="48" height="48" fill="white"/>
</clipPath>
</defs>
</svg>
