<svg width="48" height="48" viewBox="0 0 48 48" fill="none" xmlns="http://www.w3.org/2000/svg">
<g clip-path="url(#clip0_72_3912)">
<path d="M48 18V30.856C48 33.318 46.42 35.476 43.976 36.35C41.598 37.202 40 39.474 40 42V46C40 47.106 39.104 48 38 48C36.896 48 36 47.106 36 46V42C36 38.692 33.308 36 30 36C26.692 36 24 38.692 24 42V46C24 47.106 23.104 48 22 48C20.896 48 20 47.106 20 46V42C20 39.26 18.15 36.872 15.5 36.19C14.43 35.914 13.788 34.822 14.062 33.754C14.336 32.686 15.424 32.042 16.498 32.314C18.774 32.902 20.686 34.252 22.016 36.042C23.842 33.604 26.726 32 30 32C33.274 32 36.164 33.606 37.99 36.048C39.142 34.496 40.73 33.264 42.628 32.584C43.462 32.286 44.002 31.608 44.002 30.856V26H16C14.896 26 14 25.106 14 24C14 22.894 14.896 22 16 22H20V18C20 16.894 20.896 16 22 16C23.104 16 24 16.894 24 18V22H32V18C32 16.894 32.896 16 34 16C35.104 16 36 16.894 36 18V22H44V18C44 16.894 44.896 16 46 16C47.104 16 48 16.894 48 18ZM16 46C16 47.106 15.104 48 14 48H2C0.896 48 0 47.106 0 46C0 44.894 0.896 44 2 44H6V15.69C4.824 15.154 4 13.974 4 12.6V12H2C0.896 12 0 11.106 0 10C0 8.894 0.896 8 2 8H4V7.4C4 6.026 4.824 4.846 6 4.31V2C6 0.894 6.896 0 8 0C9.104 0 10 0.894 10 2V4.172C11.002 4.412 11.926 4.906 12.674 5.652L14.346 7.326C14.554 7.534 14.73 7.766 14.9 8H46C47.104 8 48 8.894 48 10C48 11.106 47.104 12 46 12H16V12.6C16 14.476 14.474 16 12.6 16H10V44H14C15.104 44 16 44.894 16 46ZM11.518 10.156L9.846 8.482C9.54 8.176 9.116 8 8.682 8H8V12H12V11.318C12 10.878 11.83 10.464 11.518 10.156Z" fill="#2078BA"/>
</g>
<defs>
<clipPath id="clip0_72_3912">
<rect width="48" height="48" fill="white"/>
</clipPath>
</defs>
</svg>
