<svg width="48" height="48" viewBox="0 0 48 48" fill="none" xmlns="http://www.w3.org/2000/svg">
<g clip-path="url(#clip0_72_3914)">
<path d="M39 0H30C27.794 0 26 1.794 26 4V12C26 14.206 27.794 16 30 16H44C46.206 16 48 14.206 48 12V9C48 4.038 43.962 0 39 0ZM30 12V4H39C41.758 4 44 6.244 44 9V12H30ZM44 20H16V12C16 9.794 14.206 8 12 8H9C4.038 8 0 12.038 0 17V39C0 43.962 4.038 48 9 48H39C43.962 48 48 43.962 48 39V24C48 21.794 46.206 20 44 20ZM44 32H26V24H44V32ZM32 36V44H16V36H32ZM4 17C4 14.244 6.242 12 9 12H12V20H4V17ZM22 24V32H4V24H22ZM4 39V36H12V44H9C6.242 44 4 41.756 4 39ZM39 44H36V36H44V39C44 41.756 41.758 44 39 44Z" fill="#2078BA"/>
</g>
<defs>
<clipPath id="clip0_72_3914">
<rect width="48" height="48" fill="white"/>
</clipPath>
</defs>
</svg>
