<svg width="48" height="48" viewBox="0 0 48 48" fill="none" xmlns="http://www.w3.org/2000/svg">
<g clip-path="url(#clip0_72_3916)">
<path d="M19.7859 34.094C19.2039 34.032 18.6099 34 17.9999 34C10.5319 34 4.89986 38.922 3.98386 46.248C3.85786 47.26 2.99586 48 2.00186 48C1.91786 48 1.83586 47.994 1.75186 47.984C0.655858 47.848 -0.122142 46.848 0.0158583 45.752C1.17586 36.476 8.56986 30 17.9999 30C18.7559 30 19.4959 30.04 20.2139 30.118C21.3119 30.238 22.1059 31.224 21.9879 32.322C21.8699 33.422 20.8699 34.2 19.7839 34.096L19.7859 34.094ZM2.99986 14C2.99986 12.894 3.89586 12 4.99986 12H5.99986V11C5.99986 4.936 10.9339 0 16.9999 0H18.9999C25.0659 0 29.9999 4.936 29.9999 11V12H30.9999C32.1059 12 32.9999 12.894 32.9999 14C32.9999 15.106 32.1059 16 30.9999 16H29.9999C29.9999 22.618 24.6179 28 17.9999 28C11.3819 28 5.99986 22.618 5.99986 16H4.99986C3.89586 16 2.99986 15.106 2.99986 14ZM25.9999 16H9.99986C9.99986 20.412 13.5879 24 17.9999 24C22.4119 24 25.9999 20.412 25.9999 16ZM9.99986 12H25.9999V11C25.9999 7.484 23.3839 4.592 19.9999 4.102V8C19.9999 9.106 19.1039 10 17.9999 10C16.8959 10 15.9999 9.106 15.9999 8V4.102C12.6159 4.592 9.99986 7.484 9.99986 11V12ZM44.9999 42H38.9999C37.3439 42 35.9999 43.344 35.9999 45C35.9999 46.656 37.3439 48 38.9999 48H44.9999C46.6559 48 47.9999 46.656 47.9999 45C47.9999 43.344 46.6559 42 44.9999 42ZM38.9999 28H44.9999C46.6559 28 47.9999 26.656 47.9999 25C47.9999 23.344 46.6559 22 44.9999 22H38.9999C37.3439 22 35.9999 23.344 35.9999 25C35.9999 26.656 37.3439 28 38.9999 28ZM28.9999 42H22.9999C21.3419 42 19.9999 43.344 19.9999 45C19.9999 46.656 21.3419 48 22.9999 48H28.9999C30.6559 48 31.9999 46.656 31.9999 45C31.9999 43.344 30.6559 42 28.9999 42ZM32.9999 32H28.9999C27.3439 32 25.9999 33.344 25.9999 35C25.9999 36.656 27.3439 38 28.9999 38H32.9999C34.6559 38 35.9999 36.656 35.9999 35C35.9999 33.344 34.6559 32 32.9999 32ZM44.9999 32H42.9999C41.3439 32 39.9999 33.344 39.9999 35C39.9999 36.656 41.3439 38 42.9999 38H44.9999C46.6559 38 47.9999 36.656 47.9999 35C47.9999 33.344 46.6559 32 44.9999 32Z" fill="#2078BA"/>
</g>
<defs>
<clipPath id="clip0_72_3916">
<rect width="48" height="48" fill="white"/>
</clipPath>
</defs>
</svg>
