<svg width="48" height="48" viewBox="0 0 48 48" fill="none" xmlns="http://www.w3.org/2000/svg">
<g clip-path="url(#clip0_72_3915)">
<path d="M44 20H30C27.794 20 26 21.794 26 24V32H4C1.794 32 0 33.794 0 36V39C0 43.962 4.038 48 9 48H39C43.962 48 48 43.962 48 39V24C48 21.794 46.206 20 44 20ZM30 24H44V32H30V24ZM32 36V44H16V36H32ZM4 39V36H12V44H9C6.244 44 4 41.756 4 39ZM44 39C44 41.756 41.758 44 39 44H36V36H44V39ZM2.794 16.772L12.432 22.392C13.31 22.796 14.244 22.994 15.178 22.994C16.418 22.994 17.65 22.642 18.736 21.946C20.78 20.636 22 18.358 22 15.848V14H26.538C27.23 15.194 28.522 16 30 16H40C42.206 16 44 14.206 44 12C44 9.79401 42.206 8.00001 40 8.00001H30C28.522 8.00001 27.23 8.80601 26.538 10H22V8.15201C22 5.64401 20.78 3.36401 18.736 2.05401C16.834 0.834011 14.478 0.668011 12.26 1.69801L2.828 7.21001C1.084 8.15201 0 9.98801 0 12C0 14 1.07 15.824 2.794 16.772ZM4.786 10.698L14.104 5.24401C14.49 5.06601 14.852 4.99801 15.18 4.99801C15.796 4.99801 16.286 5.23601 16.578 5.42201C17.468 5.99401 18 7.01401 18 8.15201V15.848C18 16.986 17.468 18.008 16.578 18.578C16.13 18.864 15.218 19.268 14.278 18.848L4.786 13.304C4.766 13.292 4.746 13.282 4.728 13.27C4.07 12.916 4 12.264 4 12C4 11.736 4.07 11.084 4.786 10.698Z" fill="#2078BA"/>
</g>
<defs>
<clipPath id="clip0_72_3915">
<rect width="48" height="48" fill="white"/>
</clipPath>
</defs>
</svg>
