<svg width="48" height="48" viewBox="0 0 48 48" fill="none" xmlns="http://www.w3.org/2000/svg">
<path d="M40 0C38.894 0 38 0.894 38 2V8.058L25.952 1.764C25.83 0.776 25.02 0 24 0C22.98 0 22.17 0.774 22.048 1.762L10 8.058V2C10 0.896 9.104 0 8 0C6.896 0 6 0.894 6 2V33.818C6 37.554 8.058 40.95 11.368 42.68L19.368 46.864C20.818 47.62 22.408 47.998 23.998 47.998C25.588 47.998 27.18 47.62 28.628 46.862L36.628 42.682C39.94 40.952 41.998 37.556 41.998 33.818V2C42 0.896 41.106 0 40 0ZM38 25.058L29.276 20.5L38 15.942V25.058ZM22 34.584C21.738 34.49 21.47 34.42 21.22 34.29L11.096 29L22 23.302V34.584ZM26 23.302L36.904 29L26.778 34.292C26.528 34.422 26.262 34.492 26 34.586V23.302ZM26 17.7V6.302L36.904 12L26 17.698V17.7ZM22 6.302V17.7L11.096 12.002L22 6.302ZM18.722 20.5L10 25.058V15.942L18.722 20.5ZM34.778 39.136L26.778 43.316C25.038 44.226 22.958 44.224 21.22 43.316L13.22 39.132C11.234 38.094 10 36.058 10 33.816V32.938L19.368 37.832C20.82 38.592 22.41 38.97 24 38.97C25.59 38.97 27.182 38.592 28.63 37.834L38 32.938V33.816C38 36.058 36.766 38.096 34.78 39.134L34.778 39.136Z" fill="#2078BA"/>
</svg>
