<svg width="48" height="48" viewBox="0 0 48 48" fill="none" xmlns="http://www.w3.org/2000/svg">
<g clip-path="url(#clip0_72_4072)">
<path d="M38 4H36V2C36 0.896 35.106 0 34 0C32.894 0 32 0.896 32 2V4H16V2C16 0.896 15.106 0 14 0C12.894 0 12 0.896 12 2V4H10C4.486 4 0 8.486 0 14V38C0 43.514 4.486 48 10 48H38C43.514 48 48 43.514 48 38V14C48 8.486 43.514 4 38 4ZM10 8H38C41.308 8 44 10.692 44 14V16H4V14C4 10.692 6.692 8 10 8ZM38 44H10C6.692 44 4 41.308 4 38V20H44V38C44 41.308 41.308 44 38 44ZM35.664 26.304C36.432 27.098 36.408 28.366 35.614 29.132L26.134 38.268C25.028 39.374 23.52 40 21.918 40C20.316 40 18.808 39.376 17.676 38.242L13.172 34.058C12.364 33.306 12.316 32.04 13.068 31.232C13.824 30.422 15.088 30.378 15.894 31.128L20.45 35.362C21.316 36.222 22.576 36.166 23.328 35.414L32.836 26.25C33.632 25.484 34.896 25.508 35.664 26.302V26.304Z" fill="#2078BA"/>
</g>
<defs>
<clipPath id="clip0_72_4072">
<rect width="48" height="48" fill="white"/>
</clipPath>
</defs>
</svg>
