<svg width="48" height="48" viewBox="0 0 48 48" fill="none" xmlns="http://www.w3.org/2000/svg">
<g clip-path="url(#clip0_72_4030)">
<path d="M38 8H36.984L32.616 2.336C32.0531 1.61161 31.3326 1.02483 30.5093 0.620108C29.686 0.215383 28.7814 0.00332609 27.864 0L20.136 0C19.2186 0.00332609 18.314 0.215383 17.4907 0.620108C16.6674 1.02483 15.9469 1.61161 15.384 2.336L11.016 8H10C7.34881 8.00318 4.80712 9.05776 2.93244 10.9324C1.05776 12.8071 0.00317572 15.3488 0 18L0 38C0.00317572 40.6512 1.05776 43.1929 2.93244 45.0676C4.80712 46.9422 7.34881 47.9968 10 48H38C40.6512 47.9968 43.1929 46.9422 45.0676 45.0676C46.9422 43.1929 47.9968 40.6512 48 38V18C47.9968 15.3488 46.9422 12.8071 45.0676 10.9324C43.1929 9.05776 40.6512 8.00318 38 8ZM18.552 4.78C18.7393 4.53811 18.9794 4.34213 19.2539 4.20696C19.5284 4.0718 19.83 4.00102 20.136 4H27.864C28.1699 4.00132 28.4715 4.07223 28.7459 4.20737C29.0204 4.34251 29.2605 4.53833 29.448 4.78L31.932 8H16.068L18.552 4.78ZM44 38C44 39.5913 43.3679 41.1174 42.2426 42.2426C41.1174 43.3679 39.5913 44 38 44H10C8.4087 44 6.88258 43.3679 5.75736 42.2426C4.63214 41.1174 4 39.5913 4 38V18C4 16.4087 4.63214 14.8826 5.75736 13.7574C6.88258 12.6321 8.4087 12 10 12H38C39.5913 12 41.1174 12.6321 42.2426 13.7574C43.3679 14.8826 44 16.4087 44 18V38Z" fill="#2078BA"/>
<path d="M24 16C21.6266 16 19.3066 16.7038 17.3332 18.0224C15.3598 19.3409 13.8217 21.2151 12.9135 23.4078C12.0052 25.6005 11.7676 28.0133 12.2306 30.3411C12.6936 32.6689 13.8365 34.8071 15.5147 36.4853C17.193 38.1635 19.3312 39.3064 21.6589 39.7694C23.9867 40.2324 26.3995 39.9948 28.5922 39.0866C30.7849 38.1783 32.6591 36.6402 33.9776 34.6668C35.2962 32.6935 36 30.3734 36 28C35.9968 24.8184 34.7315 21.768 32.4818 19.5182C30.232 17.2685 27.1816 16.0032 24 16ZM24 36C22.4178 36 20.871 35.5308 19.5554 34.6518C18.2399 33.7727 17.2145 32.5233 16.609 31.0615C16.0035 29.5997 15.845 27.9911 16.1537 26.4393C16.4624 24.8874 17.2243 23.462 18.3432 22.3431C19.462 21.2243 20.8874 20.4624 22.4393 20.1537C23.9911 19.845 25.5997 20.0035 27.0615 20.609C28.5233 21.2145 29.7727 22.2398 30.6518 23.5554C31.5308 24.871 32 26.4177 32 28C32 30.1217 31.1572 32.1566 29.6569 33.6569C28.1566 35.1571 26.1217 36 24 36Z" fill="#2078BA"/>
</g>
<defs>
<clipPath id="clip0_72_4030">
<rect width="48" height="48" fill="white"/>
</clipPath>
</defs>
</svg>
