<svg width="48" height="48" viewBox="0 0 48 48" fill="none" xmlns="http://www.w3.org/2000/svg">
<g clip-path="url(#clip0_72_4047)">
<path d="M28.9999 26C26.2379 26 23.9999 28.238 23.9999 31V37C23.9999 39.762 26.2379 42 28.9999 42C31.7619 42 33.9999 39.762 33.9999 37V31C33.9999 28.238 31.7619 26 28.9999 26ZM30.7999 37C30.7999 37.992 29.9919 38.8 28.9999 38.8C28.0079 38.8 27.1999 37.992 27.1999 37V31C27.1999 30.008 28.0079 29.2 28.9999 29.2C29.9919 29.2 30.7999 30.008 30.7999 31V37ZM15.1979 31.068V36.94C15.1979 37.898 15.9179 38.734 16.8739 38.798C17.6219 38.848 18.2839 38.438 18.5999 37.822C18.8639 37.306 19.4179 37.004 19.9979 37.004C21.2099 37.004 21.9759 38.298 21.4039 39.366C20.5759 40.908 18.9599 41.966 17.0959 42C14.2939 42.054 12.0019 39.692 12.0019 36.89V31.118C12.0019 28.316 14.2939 25.956 17.0959 26.008C18.9599 26.044 20.5759 27.1 21.4039 28.642C21.9779 29.71 21.2099 31.004 19.9979 31.004C19.4179 31.004 18.8639 30.702 18.5999 30.186C18.2839 29.57 17.6239 29.158 16.8739 29.208C15.9179 29.272 15.1979 30.108 15.1979 31.066V31.068ZM39.9999 45.334H42.6919C43.4139 45.334 43.9999 45.92 43.9999 46.642V46.692C43.9999 47.414 43.4139 48 42.6919 48H37.3079C36.5859 48 35.9999 47.414 35.9999 46.692C35.9999 43.68 41.3339 42 41.3339 40C41.3339 39.25 40.7139 38.644 39.9599 38.668C39.4639 38.682 39.0459 38.982 38.8279 39.4C38.8179 39.42 38.8079 39.448 38.7979 39.484C38.6159 40.172 38.0139 40.668 37.3019 40.668C36.5539 40.668 35.9739 40.004 36.0879 39.264C36.0919 39.24 36.0959 39.218 36.0999 39.2C36.4879 37.44 37.9959 36.068 39.8559 36.002C42.1319 35.922 44.0019 37.742 44.0019 40C44.0019 42.846 41.1499 44.282 39.9999 45.334ZM47.9999 25C47.9999 27.84 47.2019 30.606 45.6919 32.998C45.1019 33.932 43.8659 34.21 42.9339 33.622C41.9999 33.032 41.7199 31.796 42.3099 30.862C43.4159 29.11 44.0019 27.082 44.0019 25C44.0019 19.77 40.2859 15.234 35.1679 14.212C33.2519 13.83 31.6779 12.61 30.8519 10.866C28.4879 5.87799 23.2159 3.21199 17.7179 4.20799C12.9039 5.08999 8.97986 9.08799 8.17586 13.932C7.93186 15.402 7.94786 16.87 8.22386 18.294C8.60786 20.272 7.86986 22.39 6.29786 23.82C4.83986 25.144 4.00586 27.032 4.00586 29C4.00586 31.34 5.16986 33.518 7.11986 34.822C8.03586 35.438 8.28386 36.68 7.66786 37.598C7.04986 38.522 5.79786 38.756 4.89186 38.146C1.83186 36.098 0.00585938 32.678 0.00585938 29C0.00585938 25.908 1.31786 22.942 3.60786 20.86C4.15386 20.364 4.41786 19.674 4.29986 19.058C3.93186 17.166 3.90986 15.22 4.23386 13.278C5.31986 6.69999 10.4499 1.47399 16.9939 0.275994C24.1779 -1.04401 31.3599 2.60999 34.4639 9.15199C34.7439 9.74399 35.2839 10.158 35.9479 10.29C42.9319 11.682 47.9999 17.868 47.9999 24.998V25Z" fill="#2078BA"/>
</g>
<defs>
<clipPath id="clip0_72_4047">
<rect width="48" height="48" fill="white"/>
</clipPath>
</defs>
</svg>
