<svg width="48" height="48" viewBox="0 0 48 48" fill="none" xmlns="http://www.w3.org/2000/svg">
<g clip-path="url(#clip0_72_4061)">
<path d="M48 46C48 47.104 47.104 48 46 48H6C2.692 48 0 45.308 0 42V2C0 0.896 0.896 0 2 0C3.104 0 4 0.896 4 2V42C4 43.102 4.898 44 6 44H46C47.104 44 48 44.896 48 46ZM42 10H34C32.896 10 32 10.896 32 12C32 13.104 32.896 14 34 14H41.126L31.412 23.414C30.658 24.17 29.34 24.17 28.586 23.414C28.504 23.334 26.108 21.628 26.108 21.628C23.832 19.482 19.954 19.562 17.784 21.73L8.612 30.558C7.816 31.324 7.792 32.59 8.558 33.386C8.952 33.794 9.474 34 10 34C10.5 34 11 33.814 11.386 33.442L20.586 24.586C21.34 23.83 22.658 23.83 23.412 24.586C23.494 24.666 25.89 26.372 25.89 26.372C28.168 28.52 32.042 28.444 34.218 26.264L43.998 16.784V23.998C43.998 25.102 44.894 25.998 45.998 25.998C47.102 25.998 47.998 25.102 47.998 23.998V15.998C47.998 12.69 45.306 9.998 41.998 9.998L42 10Z" fill="#2078BA"/>
</g>
<defs>
<clipPath id="clip0_72_4061">
<rect width="48" height="48" fill="white"/>
</clipPath>
</defs>
</svg>
