<svg width="48" height="48" viewBox="0 0 48 48" fill="none" xmlns="http://www.w3.org/2000/svg">
<g clip-path="url(#clip0_72_4063)">
<path d="M44.5856 25.4L42.4136 27.572L35.2436 20.4C34.1004 19.3096 32.5813 18.7013 31.0016 18.7013C29.4218 18.7013 27.9027 19.3096 26.7596 20.4L26.4136 20.746C26.0328 21.1101 25.5263 21.3132 24.9996 21.3132C24.4728 21.3132 23.9663 21.1101 23.5856 20.746L13.4396 10.588C13.2551 10.397 13.0344 10.2446 12.7904 10.1398C12.5464 10.035 12.2839 9.9798 12.0184 9.97749C11.7528 9.97518 11.4894 10.0258 11.2436 10.1264C10.9979 10.2269 10.7745 10.3754 10.5868 10.5632C10.399 10.751 10.2505 10.9743 10.1499 11.2201C10.0493 11.4659 9.99874 11.7292 10.0011 11.9948C10.0034 12.2604 10.0585 12.5228 10.1634 12.7668C10.2682 13.0108 10.4205 13.2315 10.6116 13.416L20.7556 23.562C21.8985 24.6528 23.4176 25.2614 24.9976 25.2614C26.5775 25.2614 28.0967 24.6528 29.2396 23.562L29.5856 23.216C29.9663 22.8519 30.4728 22.6488 30.9996 22.6488C31.5263 22.6488 32.0328 22.8519 32.4136 23.216L39.5856 30.4L37.4136 32.572C37.1339 32.8517 36.9435 33.208 36.8664 33.5959C36.7893 33.9838 36.8289 34.3859 36.9802 34.7513C37.1315 35.1167 37.3878 35.429 37.7166 35.6488C38.0455 35.8686 38.4321 35.9859 38.8276 35.986H44.9996C45.7952 35.986 46.5583 35.6699 47.1209 35.1073C47.6835 34.5447 47.9996 33.7816 47.9996 32.986V26.8C47.9967 26.4057 47.8774 26.021 47.6566 25.6943C47.4357 25.3676 47.1233 25.1135 46.7584 24.9639C46.3936 24.8143 45.9927 24.7759 45.6061 24.8535C45.2195 24.9311 44.8644 25.1212 44.5856 25.4Z" fill="#2078BA"/>
<path d="M46 43.952H10C8.4087 43.952 6.88258 43.3199 5.75736 42.1946C4.63214 41.0694 4 39.5433 4 37.952V2C4 1.46957 3.78929 0.960859 3.41421 0.585786C3.03914 0.210714 2.53043 0 2 0C1.46957 0 0.960859 0.210714 0.585786 0.585786C0.210714 0.960859 0 1.46957 0 2L0 37.952C0.00317572 40.6032 1.05776 43.1449 2.93244 45.0196C4.80712 46.8942 7.34881 47.9488 10 47.952H46C46.5304 47.952 47.0391 47.7413 47.4142 47.3662C47.7893 46.9911 48 46.4824 48 45.952C48 45.4216 47.7893 44.9129 47.4142 44.5378C47.0391 44.1627 46.5304 43.952 46 43.952Z" fill="#2078BA"/>
</g>
<defs>
<clipPath id="clip0_72_4063">
<rect width="48" height="48" fill="white"/>
</clipPath>
</defs>
</svg>
