<svg width="48" height="48" viewBox="0 0 48 48" fill="none" xmlns="http://www.w3.org/2000/svg">
<g clip-path="url(#clip0_72_4056)">
<path d="M22 30C22 31.104 21.104 32 20 32C18.896 32 18 31.104 18 30H17.464C15.328 30 13.338 28.852 12.268 27.002C11.716 26.046 12.042 24.824 12.998 24.27C13.952 23.716 15.178 24.042 15.73 25C16.086 25.616 16.752 26 17.464 26H22C23.102 26 24 25.104 24 24C24 23.244 23.458 22.604 22.712 22.48L16.628 21.466C13.946 21.02 11.998 18.72 11.998 16C11.998 12.692 14.69 10 17.998 10C17.998 8.896 18.894 8 19.998 8C21.102 8 21.998 8.896 21.998 10H22.534C24.67 10 26.66 11.148 27.73 12.998C28.284 13.954 27.956 15.176 27.002 15.73C26.042 16.284 24.822 15.956 24.268 15C23.912 14.384 23.246 14 22.534 14H17.998C16.896 14 15.998 14.896 15.998 16C15.998 16.756 16.54 17.396 17.286 17.52L23.37 18.534C26.052 18.98 28 21.28 28 24C28 27.308 25.308 30 22 30ZM18.22 35.902C10.114 35.006 4 28.17 4 20C4 11.178 11.178 4 20 4C22.498 4 24.89 4.56 27.11 5.662C28.104 6.156 29.302 5.75 29.792 4.76C30.284 3.772 29.88 2.57 28.892 2.08C26.114 0.7 23.124 0 20.002 0C8.972 0 0 8.972 0 20C0 30.212 7.866 38.77 18.002 39.89C19.008 39.89 19.874 39.134 19.988 38.11C20.11 37.012 19.318 36.024 18.22 35.902ZM47.414 36.348C46.632 35.566 45.368 35.566 44.586 36.348L38 42.934V2C38 0.896 37.106 0 36 0C34.894 0 34 0.896 34 2V42.734L27.414 36.148C26.632 35.366 25.368 35.366 24.586 36.148C23.804 36.93 23.804 38.194 24.586 38.976L31.858 46.248C33.028 47.416 34.566 48 36.1 48C37.634 48 39.174 47.416 40.344 46.246L47.414 39.174C48.196 38.392 48.196 37.128 47.414 36.348Z" fill="#2078BA"/>
</g>
<defs>
<clipPath id="clip0_72_4056">
<rect width="48" height="48" fill="white"/>
</clipPath>
</defs>
</svg>
