<svg width="48" height="48" viewBox="0 0 48 48" fill="none" xmlns="http://www.w3.org/2000/svg">
<g clip-path="url(#clip0_72_3918)">
<path d="M24 48C10.76 48 0 37.24 0 24C0 10.76 10.76 0 24 0C37.24 0 48 10.76 48 24C48 37.24 37.24 48 24 48ZM24 4C12.98 4 4 12.98 4 24C4 35.02 12.98 44 24 44C35.02 44 44 35.02 44 24C44 12.98 35.02 4 24 4ZM24 38C23.66 38 23.32 37.92 23 37.74C22.04 37.2 21.7 35.96 22.26 35.02L27.42 26.02H19.24C18.22 26.02 17.26 25.54 16.64 24.72C16.02 23.9 15.84 22.84 16.14 21.86C16.18 21.72 22.26 11.04 22.26 11.04C22.8 10.08 24.02 9.74 24.98 10.3C25.94 10.84 26.28 12.06 25.72 13.02L20.58 22.02H28.78C29.96 22.02 31.04 22.66 31.6 23.72C32.16 24.78 32.1 26.02 31.44 27L25.72 37.02C25.36 37.66 24.68 38.02 23.98 38.02L24 38ZM28.06 24.88C28.06 24.88 28.06 24.9 28.04 24.92V24.88H28.06Z" fill="#2078BA"/>
</g>
<defs>
<clipPath id="clip0_72_3918">
<rect width="48" height="48" fill="white"/>
</clipPath>
</defs>
</svg>
