<svg width="48" height="48" viewBox="0 0 48 48" fill="none" xmlns="http://www.w3.org/2000/svg">
<g clip-path="url(#clip0_72_3919)">
<path d="M26 35.798V41.54C26.086 44.994 23.764 48 20 48C19.558 48 18.484 47.932 17.944 47.792C7.406 45.052 0 35.228 0 24.254C0 11.18 11 0 24 0C25.076 0 25.458 0.032 26.18 0.096C27.28 0.196 28.092 1.168 27.992 2.268C27.892 3.368 26.948 4.168 25.82 4.08C24.47 3.956 23.086 3.974 21.714 4.124C12.538 5.14 5.14 12.538 4.126 21.714C3.02 31.716 9.534 41.47 18.95 43.92C19.684 44.114 20.44 43.952 21.038 43.488C21.648 43.016 21.998 42.306 21.998 41.538V35.796C17.44 34.866 13.998 30.828 13.998 25.998V23.998C12.894 23.998 11.998 23.102 11.998 21.998C11.998 20.894 12.894 19.998 13.998 19.998H17.998V13.998C17.998 12.894 18.894 11.998 19.998 11.998C21.102 11.998 21.998 12.894 21.998 13.998V19.998H25.998C27.104 19.998 27.998 20.894 27.998 21.998C27.998 23.102 27.104 23.998 25.998 23.998H17.998V25.998C17.998 29.306 20.69 31.998 23.998 31.998C27.306 31.998 29.998 29.306 29.998 25.998C29.998 24.894 30.892 23.998 31.998 23.998C33.104 23.998 33.998 24.894 33.998 25.998C33.998 30.826 30.556 34.866 25.998 35.796L26 35.798ZM46.09 24.008C45.006 23.922 44.018 24.72 43.918 25.82C43.244 33.298 38.282 39.9 31.272 42.636C30.244 43.038 29.734 44.198 30.138 45.226C30.54 46.266 31.726 46.76 32.73 46.362C41.138 43.078 47.096 35.154 47.904 26.178C48.004 25.078 47.192 24.106 46.092 24.006L46.09 24.008ZM30.934 19.086C29.044 17.208 28 14.708 28 12.046C28 9.384 29.042 6.884 30.934 5.004L34.53 1.508C36.462 -0.372 39.54 -0.372 41.474 1.508L45.052 4.988C46.96 6.884 48.002 9.384 48.002 12.046C48.002 14.708 46.96 17.208 45.068 19.088C43.18 20.964 40.67 22 38.002 22C35.334 22 32.82 20.966 30.936 19.086H30.934ZM32 12.046C32 13.634 32.624 15.128 33.754 16.25C36.02 18.506 39.976 18.508 42.246 16.25C43.376 15.126 44 13.632 44 12.044C44 10.456 43.376 8.962 42.246 7.836L38.508 4.202C38.368 4.066 38.184 3.998 38 3.998C37.816 3.998 37.632 4.066 37.492 4.202L33.738 7.852C32.622 8.962 32 10.456 32 12.046Z" fill="#2078BA"/>
</g>
<defs>
<clipPath id="clip0_72_3919">
<rect width="48" height="48" fill="white"/>
</clipPath>
</defs>
</svg>
