<svg width="48" height="48" viewBox="0 0 48 48" fill="none" xmlns="http://www.w3.org/2000/svg">
<g clip-path="url(#clip0_75_2719)">
<path d="M24 48C10.766 48 0 37.234 0 24C0 10.766 10.766 0 24 0C37.234 0 48 10.766 48 24C48 37.234 37.234 48 24 48ZM24 4C12.972 4 4 12.972 4 24C4 35.028 12.972 44 24 44C35.028 44 44 35.028 44 24C44 12.972 35.028 4 24 4ZM34 24C34 22.894 33.106 22 32 22H26V12C26 10.894 25.104 10 24 10C22.896 10 22 10.894 22 12V24C22 25.106 22.896 26 24 26H32C33.106 26 34 25.106 34 24Z" fill="#2078BA"/>
</g>
<defs>
<clipPath id="clip0_75_2719">
<rect width="48" height="48" fill="white"/>
</clipPath>
</defs>
</svg>
