<svg width="48" height="48" viewBox="0 0 48 48" fill="none" xmlns="http://www.w3.org/2000/svg">
<g clip-path="url(#clip0_72_4024)">
<path d="M40 0H8C5.87827 0 3.84344 0.842855 2.34315 2.34315C0.842855 3.84344 0 5.87827 0 8L0 32C0 34.1217 0.842855 36.1566 2.34315 37.6569C3.84344 39.1571 5.87827 40 8 40H13.8L22.702 47.526C23.0631 47.8316 23.5209 47.9993 23.994 47.9993C24.4671 47.9993 24.9249 47.8316 25.286 47.526L34.2 40H40C42.1217 40 44.1566 39.1571 45.6569 37.6569C47.1571 36.1566 48 34.1217 48 32V8C48 5.87827 47.1571 3.84344 45.6569 2.34315C44.1566 0.842855 42.1217 0 40 0ZM44 32C44 33.0609 43.5786 34.0783 42.8284 34.8284C42.0783 35.5786 41.0609 36 40 36H34.2C33.2546 36.0003 32.3398 36.3354 31.618 36.946L24 43.38L16.386 36.946C15.6631 36.3346 14.7468 35.9993 13.8 36H8C6.93913 36 5.92172 35.5786 5.17157 34.8284C4.42143 34.0783 4 33.0609 4 32V8C4 6.93913 4.42143 5.92172 5.17157 5.17157C5.92172 4.42143 6.93913 4 8 4H40C41.0609 4 42.0783 4.42143 42.8284 5.17157C43.5786 5.92172 44 6.93913 44 8V32Z" fill="#2078BA"/>
<path d="M14 14H24C24.5304 14 25.0391 13.7893 25.4142 13.4142C25.7893 13.0391 26 12.5304 26 12C26 11.4696 25.7893 10.9609 25.4142 10.5858C25.0391 10.2107 24.5304 10 24 10H14C13.4696 10 12.9609 10.2107 12.5858 10.5858C12.2107 10.9609 12 11.4696 12 12C12 12.5304 12.2107 13.0391 12.5858 13.4142C12.9609 13.7893 13.4696 14 14 14Z" fill="#2078BA"/>
<path d="M34 18H14C13.4696 18 12.9609 18.2107 12.5858 18.5858C12.2107 18.9609 12 19.4696 12 20C12 20.5304 12.2107 21.0391 12.5858 21.4142C12.9609 21.7893 13.4696 22 14 22H34C34.5304 22 35.0391 21.7893 35.4142 21.4142C35.7893 21.0391 36 20.5304 36 20C36 19.4696 35.7893 18.9609 35.4142 18.5858C35.0391 18.2107 34.5304 18 34 18Z" fill="#2078BA"/>
<path d="M34 26H14C13.4696 26 12.9609 26.2107 12.5858 26.5858C12.2107 26.9609 12 27.4696 12 28C12 28.5304 12.2107 29.0391 12.5858 29.4142C12.9609 29.7893 13.4696 30 14 30H34C34.5304 30 35.0391 29.7893 35.4142 29.4142C35.7893 29.0391 36 28.5304 36 28C36 27.4696 35.7893 26.9609 35.4142 26.5858C35.0391 26.2107 34.5304 26 34 26Z" fill="#2078BA"/>
</g>
<defs>
<clipPath id="clip0_72_4024">
<rect width="48" height="48" fill="white"/>
</clipPath>
</defs>
</svg>
