<svg width="48" height="48" viewBox="0 0 48 48" fill="none" xmlns="http://www.w3.org/2000/svg">
<g clip-path="url(#clip0_72_4018)">
<path d="M43.888 22.956L38.886 21.298C37.672 20.896 36.33 20.896 35.11 21.298L30.11 22.956C27.652 23.772 25.998 26.06 25.998 28.652V35.026C25.998 42.162 33.426 46.432 35.704 47.57C35.704 47.57 36.106 47.982 37 47.982C37.894 47.982 38.164 47.67 38.164 47.67C40.472 46.742 47.998 43.088 47.998 35.026V28.652C47.998 26.062 46.348 23.774 43.888 22.956ZM44 35.026C44 40.19 39.152 42.876 37.09 43.782C35.258 42.8 30 39.584 30 35.026V28.652C30 27.788 30.55 27.026 31.372 26.754L36.37 25.096C36.78 24.962 37.226 24.962 37.63 25.096L42.63 26.754C43.45 27.026 44.002 27.79 44.002 28.652L44 35.026ZM26 18H10C8.896 18 8 17.104 8 16C8 14.896 8.896 14 10 14H26C27.104 14 28 14.896 28 16C28 17.104 27.104 18 26 18ZM22 24C22 25.104 21.104 26 20 26H10C8.896 26 8 25.104 8 24C8 22.896 8.896 22 10 22H20C21.104 22 22 22.896 22 24ZM22 32C22 33.104 21.104 34 20 34H10C8.896 34 8 33.104 8 32C8 30.896 8.896 30 10 30H20C21.104 30 22 30.896 22 32ZM26 46C26 47.104 25.104 48 24 48H10C4.486 48 0 43.514 0 38V14C0 8.486 4.486 4 10 4H10.342C11.168 1.672 13.392 0 16 0H20C22.608 0 24.832 1.672 25.658 4H26C31.514 4 36 8.486 36 14V16C36 17.104 35.104 18 34 18C32.896 18 32 17.104 32 16V14C32 10.692 29.308 8 26 8H24C22.896 8 22 7.104 22 6C22 4.896 21.102 4 20 4H16C14.898 4 14 4.898 14 6C14 7.102 13.104 8 12 8H10C6.692 8 4 10.692 4 14V38C4 41.308 6.692 44 10 44H24C25.104 44 26 44.896 26 46Z" fill="#2078BA"/>
</g>
<defs>
<clipPath id="clip0_72_4018">
<rect width="48" height="48" fill="white"/>
</clipPath>
</defs>
</svg>
