<svg width="48" height="48" viewBox="0 0 48 48" fill="none" xmlns="http://www.w3.org/2000/svg">
<g clip-path="url(#clip0_72_3921)">
<path d="M24 44H10C6.692 44 4 41.308 4 38V8H10V14C10 15.104 10.894 16 12 16H30V18C30 19.104 30.894 20 32 20C33.106 20 34 19.104 34 18V2C34 0.896 33.106 0 32 0C30.894 0 30 0.896 30 2V4H24V2C24 0.896 23.106 0 22 0C20.894 0 20 0.896 20 2V4H14V2C14 0.896 13.106 0 12 0C10.894 0 10 0.896 10 2V4H4V2C4 0.896 3.106 0 2 0C0.894 0 0 0.896 0 2V38C0 43.514 4.486 48 10 48H24C25.106 48 26 47.104 26 46C26 44.896 25.106 44 24 44ZM30 8V12H24V8H30ZM20 8V12H14V8H20ZM14 30C14 31.104 13.106 32 12 32H10C8.894 32 8 31.104 8 30C8 28.896 8.894 28 10 28H12C13.106 28 14 28.896 14 30ZM14 38C14 39.104 13.106 40 12 40H10C8.894 40 8 39.104 8 38C8 36.896 8.894 36 10 36H12C13.106 36 14 36.896 14 38ZM14 22C14 23.104 13.106 24 12 24H10C8.894 24 8 23.104 8 22C8 20.896 8.894 20 10 20H12C13.106 20 14 20.896 14 22ZM24 22C24 23.104 23.106 24 22 24H20C18.894 24 18 23.104 18 22C18 20.896 18.894 20 20 20H22C23.106 20 24 20.896 24 22ZM24 30C24 31.104 23.106 32 22 32H20C18.894 32 18 31.104 18 30C18 28.896 18.894 28 20 28H22C23.106 28 24 28.896 24 30ZM24 38C24 39.104 23.106 40 22 40H20C18.894 40 18 39.104 18 38C18 36.896 18.894 36 20 36H22C23.106 36 24 36.896 24 38ZM44.778 27.172C42.702 25.094 39.94 23.95 37 23.95C34.06 23.95 31.298 25.094 29.222 27.172C27.144 29.25 26 32.012 26 34.95C26 37.888 27.144 40.65 29.238 42.744L32.902 46.328C34.03 47.434 35.516 47.986 37 47.986C38.484 47.986 39.968 47.434 41.098 46.328L44.778 42.728C46.856 40.65 48 37.888 48 34.95C48 32.012 46.856 29.248 44.778 27.172ZM41.966 39.884L38.302 43.468C37.584 44.17 36.42 44.17 35.7 43.468L32.052 39.9C30.73 38.578 30.002 36.818 30.002 34.95C30.002 33.082 30.73 31.322 32.052 30C33.374 28.678 35.13 27.95 37.002 27.95C38.874 27.95 40.628 28.678 41.952 30C43.276 31.322 44.002 33.08 44.002 34.95C44.002 36.82 43.274 38.578 41.966 39.884ZM40.002 34.938C40.002 36.594 38.658 37.938 37.002 37.938C35.346 37.938 34.002 36.594 34.002 34.938C34.002 33.282 35.346 31.938 37.002 31.938C38.658 31.938 40.002 33.282 40.002 34.938Z" fill="#2078BA"/>
</g>
<defs>
<clipPath id="clip0_72_3921">
<rect width="48" height="48" fill="white"/>
</clipPath>
</defs>
</svg>
