<svg width="48" height="48" viewBox="0 0 48 48" fill="none" xmlns="http://www.w3.org/2000/svg">
<g clip-path="url(#clip0_72_3920)">
<path d="M46 32V25.102C46.002 15.398 39.248 6.704 29.628 4.32C28.182 2.888 26.194 2 24 2C21.806 2 19.82 2.888 18.372 4.32C8.752 6.704 1.998 15.398 2 25.102V32C0.896 32 0 32.896 0 34C0 35.104 0.896 36 2 36H3.958L6.182 39.174C9.172 43.448 14.072 46 19.29 46H28.712C33.928 46 38.83 43.448 41.82 39.176L44.044 36H46.002C47.106 36 48.002 35.104 48.002 34C48.002 32.896 47.104 32 46 32ZM6 25.102C6 18.348 10.008 12.286 16.062 9.382C16.046 9.586 16 9.78 16 9.986V23.998C16 25.102 16.896 25.998 18 25.998C19.104 25.998 20 25.102 20 23.998V9.986C20 7.788 21.794 5.998 24 5.998C26.206 5.998 28 7.788 28 9.986V23.998C28 25.102 28.896 25.998 30 25.998C31.104 25.998 32 25.102 32 23.998V9.986C32 9.778 31.954 9.584 31.938 9.382C37.992 12.286 42 18.348 42 25.102V32H6V25.102ZM28.71 42H19.288C15.374 42 11.7 40.086 9.458 36.88L8.842 36H39.158L38.54 36.882C36.298 40.088 32.624 42 28.71 42Z" fill="#2078BA"/>
</g>
<defs>
<clipPath id="clip0_72_3920">
<rect width="48" height="48" fill="white"/>
</clipPath>
</defs>
</svg>
