<svg width="48" height="48" viewBox="0 0 48 48" fill="none" xmlns="http://www.w3.org/2000/svg">
<path d="M18 15C18 13.34 19.34 12 21 12C22.66 12 24 13.34 24 15C24 16.66 22.66 18 21 18C19.34 18 18 16.66 18 15ZM48 14V26C48 31.52 43.52 36 38 36H20C14.48 36 10 31.52 10 26V14C10 8.48 14.48 4 20 4H38C43.52 4 48 8.48 48 14ZM14 26C14 27.54 14.58 28.94 15.54 30.02L26.02 19.54C27.98 17.58 31.4 17.58 33.36 19.54L35.44 21.62C35.9 22.08 36.68 22.08 37.14 21.62L44 14.76V14C44 10.7 41.3 8 38 8H20C16.7 8 14 10.7 14 14V26ZM44 26V20.42L39.96 24.46C38 26.42 34.58 26.42 32.62 24.46L30.54 22.38C30.08 21.92 29.32 21.92 28.84 22.38L19.26 31.96C19.5 32 19.74 32 20 32H38C41.3 32 44 29.3 44 26ZM34 40H10C6.7 40 4 37.3 4 34V22C4 20.52 4.54 19.1 5.54 18C6.28 17.18 6.2 15.92 5.38 15.18C4.56 14.44 3.3 14.52 2.56 15.34C0.92 17.18 0 19.54 0 22.02V34.02C0 39.54 4.48 44.02 10 44.02H34C35.1 44.02 36 43.12 36 42.02C36 40.92 35.1 40.02 34 40.02V40Z" fill="#2078BA"/>
</svg>
