<svg width="48" height="48" viewBox="0 0 48 48" fill="none" xmlns="http://www.w3.org/2000/svg">
<g clip-path="url(#clip0_72_3922)">
<path d="M44.84 32.712C44.33 32.436 44 31.796 44 31.078V15.998C46 15.998 47.544 15.062 47.92 13.23C48.272 11.602 47.456 9.98401 45.938 9.29801C45.87 9.26601 20.602 1.06801 20.602 1.06801C14.796 -0.907992 9.818 -0.137992 5.774 3.39801L1.732 7.14401C0.132 8.54201 -0.418 10.732 0.33 12.724C1.076 14.714 2.934 15.998 5.058 15.998H8V43.998H2C0.894 43.998 0 44.894 0 45.998C0 47.102 0.894 47.998 2 47.998H28C29.106 47.998 30 47.102 30 45.998C30 44.894 29.106 43.998 28 43.998H22V15.998H40V31.078C40 33.282 41.128 35.256 42.946 36.234C43.596 36.584 44 37.26 44 37.998C44 39.1 43.104 39.998 42 39.998C40.896 39.998 40 39.1 40 37.998C40 36.896 39.106 35.998 38 35.998C36.894 35.998 36 36.894 36 37.998C36 41.306 38.692 43.998 42 43.998C45.308 43.998 48 41.306 48 37.998C48 35.788 46.79 33.762 44.84 32.712ZM4.074 11.316C3.996 11.11 3.87 10.586 4.408 10.116L8.45 6.37001C10.27 4.78001 12.29 3.99201 14.644 3.99201C16.076 3.99201 17.632 4.28401 19.34 4.86601L41.334 11.998H5.058C4.4 11.998 4.15 11.522 4.074 11.316ZM18 40.17L12.828 34.998L18 29.826V40.17ZM12 30.17V19.826L17.172 24.998L12 30.17ZM12 39.826L16.172 43.998H12V39.826ZM18 20.17L13.828 15.998H18V20.17Z" fill="#2078BA"/>
</g>
<defs>
<clipPath id="clip0_72_3922">
<rect width="48" height="48" fill="white"/>
</clipPath>
</defs>
</svg>
