<svg width="48" height="48" viewBox="0 0 48 48" fill="none" xmlns="http://www.w3.org/2000/svg">
<g clip-path="url(#clip0_72_3932)">
<path d="M43.3536 10.734L35.7296 3.46398C33.5296 1.44598 30.1476 1.51398 28.0296 3.62198L26.6476 4.99798C24.4476 7.08598 24.4776 10.908 26.6976 12.956L28.6396 14.864L23.9976 19.506L19.3616 14.87L21.2936 12.972C23.5336 10.908 23.5636 7.09798 21.3616 4.99998L19.9756 3.62198C17.8576 1.51598 14.4776 1.44998 12.2456 3.49198L4.6516 10.734C1.5316 13.922 -0.0743991 17.636 0.00160088 21.478C0.00160088 21.512 0.0956009 24.788 0.293601 25.78C0.715601 27.814 1.7456 28.968 3.4616 29.026C4.4696 29.026 5.5176 28.488 6.5816 27.424L10.7976 23.28L15.5096 27.992L7.7576 35.756C5.4296 37.988 5.4316 42.01 7.7576 44.24C9.9916 46.568 14.0096 46.568 16.2456 44.24L23.9976 36.478L31.7596 44.24C33.9916 46.568 38.0136 46.568 40.2436 44.24C42.5716 42.008 42.5716 37.988 40.2436 35.754L32.4796 27.99L37.1976 23.272L41.4076 27.41C42.4796 28.482 43.5296 29.024 44.5376 29.024C46.2556 28.966 47.2836 27.812 47.7056 25.774C47.9056 24.786 47.9976 21.508 47.9976 21.474C48.0736 17.634 46.4676 13.922 43.3536 10.734ZM4.1416 24.216C4.0796 23.366 4.0176 22.086 4.0036 21.398C3.9496 18.622 5.1196 15.984 7.4836 13.554L14.9716 6.41398C15.5996 5.84198 16.5536 5.86398 17.1496 6.45798L18.5356 7.83798C19.1656 8.44198 19.1496 9.50598 18.4996 10.106L4.1416 24.216ZM13.4156 41.414C12.6576 42.17 11.3456 42.174 10.5876 41.414C9.8096 40.67 9.8116 39.332 10.5876 38.588L18.3396 30.826L21.1656 33.652L13.4136 41.416L13.4156 41.414ZM37.4156 38.586C38.1896 39.334 38.1936 40.67 37.4156 41.414C36.6636 42.172 35.3496 42.168 34.5896 41.414L13.6516 20.48L16.5036 17.676L37.4156 38.586ZM29.6516 25.166L26.8236 22.338L31.4916 17.67L34.3436 20.474L29.6516 25.166ZM43.8596 24.216L29.4856 10.092C28.8536 9.50798 28.8416 8.42998 29.4676 7.83798L30.8496 6.45998C31.4356 5.87598 32.3936 5.83598 32.9976 6.38798L40.5176 13.556C42.8836 15.986 44.0536 18.624 43.9976 21.398C43.9836 22.088 43.9216 23.37 43.8596 24.218V24.216Z" fill="#2078BA"/>
</g>
<defs>
<clipPath id="clip0_72_3932">
<rect width="48" height="48" fill="white"/>
</clipPath>
</defs>
</svg>
