<svg width="48" height="48" viewBox="0 0 48 48" fill="none" xmlns="http://www.w3.org/2000/svg">
<path d="M45.532 9.132C44.8012 8.82757 43.9963 8.74755 43.2198 8.90213C42.4434 9.05671 41.7305 9.43889 41.172 10L36 15.172L26.828 6C26.0779 5.25012 25.0607 4.82886 24 4.82886C22.9393 4.82886 21.9221 5.25012 21.172 6L12 15.172L6.828 10C6.26859 9.44077 5.55594 9.05994 4.78013 8.90567C4.00431 8.7514 3.20018 8.83061 2.46938 9.13329C1.73858 9.43597 1.11393 9.94853 0.674393 10.6062C0.234856 11.2638 0.000168897 12.037 0 12.828L0 34C0.00317572 36.6512 1.05776 39.1929 2.93244 41.0676C4.80712 42.9422 7.34881 43.9968 10 44H38C40.6512 43.9968 43.1929 42.9422 45.0676 41.0676C46.9422 39.1929 47.9968 36.6512 48 34V12.828C48.0002 12.0369 47.7658 11.2636 47.3265 10.6057C46.8872 9.94783 46.2627 9.43498 45.532 9.132ZM44 34C44 35.5913 43.3679 37.1174 42.2426 38.2426C41.1174 39.3679 39.5913 40 38 40H10C8.4087 40 6.88258 39.3679 5.75736 38.2426C4.63214 37.1174 4 35.5913 4 34V12.828L10.586 19.414C10.9611 19.7889 11.4697 19.9996 12 19.9996C12.5303 19.9996 13.0389 19.7889 13.414 19.414L24 8.828L34.586 19.414C34.9611 19.7889 35.4697 19.9996 36 19.9996C36.5303 19.9996 37.0389 19.7889 37.414 19.414L44 12.828V34Z" fill="#2078BA"/>
</svg>
