<svg width="48" height="48" viewBox="0 0 48 48" fill="none" xmlns="http://www.w3.org/2000/svg">
<path d="M34 0H22C16.486 0 12 4.486 12 10V30C12 35.514 16.486 40 22 40H34C39.514 40 44 35.514 44 30V10C44 4.486 39.514 0 34 0ZM40 30C40 33.308 37.308 36 34 36H22C18.692 36 16 33.308 16 30V10C16 6.692 18.692 4 22 4H34C37.308 4 40 6.692 40 10V30ZM34 46C34 47.106 33.104 48 32 48H14C8.486 48 4 43.514 4 38V14C4 12.894 4.896 12 6 12C7.104 12 8 12.894 8 14V38C8 41.308 10.692 44 14 44H32C33.104 44 34 44.894 34 46ZM24 28V30C24 31.106 23.104 32 22 32C20.896 32 20 31.106 20 30V28C20 26.894 20.896 26 22 26C23.104 26 24 26.894 24 28ZM36 26V30C36 31.106 35.104 32 34 32C32.896 32 32 31.106 32 30V26C32 24.894 32.896 24 34 24C35.104 24 36 24.894 36 26ZM30 24V30C30 31.106 29.104 32 28 32C26.896 32 26 31.106 26 30V24C26 22.894 26.896 22 28 22C29.104 22 30 22.894 30 24ZM36 10V14.606C36 15.846 34.5 16.468 33.624 15.59L32.432 14.398L29.414 17.416C29.024 17.806 28.512 18.002 28 18.002C27.488 18.002 26.976 17.806 26.586 17.416L25 15.83L23.414 17.416C22.632 18.198 21.368 18.198 20.586 17.416C19.804 16.634 19.804 15.37 20.586 14.588L23.586 11.588C24.368 10.806 25.632 10.806 26.414 11.588L28 13.174L29.604 11.57L28.412 10.378C27.536 9.502 28.156 8.002 29.396 8.002H34.002C35.106 8.002 36.002 8.898 36.002 10.002L36 10Z" fill="#2078BA"/>
</svg>
