<svg width="48" height="48" viewBox="0 0 48 48" fill="none" xmlns="http://www.w3.org/2000/svg">
<g clip-path="url(#clip0_72_3995)">
<path d="M20 48C14.7034 47.9748 9.63102 45.8596 5.88575 42.1143C2.14048 38.369 0.0252421 33.2966 0 28C0 17.326 13 3.50204 13.542 2.91804C14.3495 1.99784 15.3448 1.26128 16.4608 0.757949C17.5768 0.254616 18.7877 -0.00381694 20.012 4.26007e-05C21.2526 9.74702e-05 22.4786 0.268192 23.606 0.785977C24.7333 1.30376 25.7356 2.05901 26.544 3.00004C32.086 9.04604 48.544 27.972 34.144 42.146C32.2906 44.0086 30.0862 45.4851 27.6584 46.4899C25.2306 47.4948 22.6276 48.008 20 48ZM20.012 4.00004C19.3473 3.9992 18.6901 4.14169 18.0855 4.4178C17.4808 4.69391 16.9427 5.09716 16.508 5.60004C16.322 5.80004 4 18.918 4 28C3.77 42.018 21.566 49.388 31.314 39.314C43.75 27.3 27.426 10.114 23.582 5.67604C23.1448 5.15417 22.5991 4.73387 21.9829 4.44442C21.3667 4.15497 20.6948 4.00332 20.014 4.00004H20.012ZM42 12C40.4087 12 38.8826 11.3679 37.7574 10.2427C36.6321 9.11747 36 7.59134 36 6.00004C36 4.40874 36.6321 2.88262 37.7574 1.7574C38.8826 0.632184 40.4087 4.26007e-05 42 4.26007e-05C43.5913 4.26007e-05 45.1174 0.632184 46.2426 1.7574C47.3679 2.88262 48 4.40874 48 6.00004C48 7.59134 47.3679 9.11747 46.2426 10.2427C45.1174 11.3679 43.5913 12 42 12ZM42 4.00004C41.4696 4.00004 40.9609 4.21076 40.5858 4.58583C40.2107 4.9609 40 5.46961 40 6.00004C40 6.53048 40.2107 7.03918 40.5858 7.41426C40.9609 7.78933 41.4696 8.00004 42 8.00004C42.5304 8.00004 43.0391 7.78933 43.4142 7.41426C43.7893 7.03918 44 6.53048 44 6.00004C44 5.46961 43.7893 4.9609 43.4142 4.58583C43.0391 4.21076 42.5304 4.00004 42 4.00004Z" fill="#2078BA"/>
</g>
<defs>
<clipPath id="clip0_72_3995">
<rect width="48" height="48" fill="white"/>
</clipPath>
</defs>
</svg>
