<svg width="48" height="48" viewBox="0 0 48 48" fill="none" xmlns="http://www.w3.org/2000/svg">
<path d="M21 5C21 3.344 22.344 2 24 2C25.656 2 27 3.344 27 5C27 6.656 25.656 8 24 8C22.344 8 21 6.656 21 5ZM38 26C38 33.72 31.72 40 24 40C16.28 40 10 33.72 10 26C10 18.28 16.28 12 24 12C31.72 12 38 18.28 38 26ZM34 26C34 23.964 33.388 22.07 32.34 20.488L25.414 27.414C25.024 27.804 24.512 28 24 28C23.488 28 22.976 27.804 22.586 27.414C21.804 26.632 21.804 25.368 22.586 24.586L29.512 17.66C27.93 16.612 26.036 16 24 16C18.486 16 14 20.486 14 26C14 31.514 18.486 36 24 36C29.514 36 34 31.514 34 26ZM3 23C1.344 23 0 24.344 0 26C0 27.656 1.344 29 3 29C4.656 29 6 27.656 6 26C6 24.344 4.656 23 3 23ZM45 23C43.344 23 42 24.344 42 26C42 27.656 43.344 29 45 29C46.656 29 48 27.656 48 26C48 24.344 46.656 23 45 23ZM9 14C10.656 14 12 12.656 12 11C12 9.344 10.656 8 9 8C7.344 8 6 9.344 6 11C6 12.656 7.344 14 9 14ZM39 38C37.344 38 36 39.344 36 41C36 42.656 37.344 44 39 44C40.656 44 42 42.656 42 41C42 39.344 40.656 38 39 38ZM9 38C7.344 38 6 39.344 6 41C6 42.656 7.344 44 9 44C10.656 44 12 42.656 12 41C12 39.344 10.656 38 9 38ZM39 14C40.656 14 42 12.656 42 11C42 9.344 40.656 8 39 8C37.344 8 36 9.344 36 11C36 12.656 37.344 14 39 14Z" fill="#2078BA"/>
</svg>
