<svg width="48" height="48" viewBox="0 0 48 48" fill="none" xmlns="http://www.w3.org/2000/svg">
<g clip-path="url(#clip0_72_3933)">
<path d="M47.5027 40.16L42.4847 29.102C41.6487 27.26 39.9427 26.048 37.9227 25.856C35.8807 25.662 33.9927 26.542 32.8247 28.196L29.1407 33.416L13.0127 23.454L15.2107 17.326C15.4027 16.788 15.8187 16.36 16.3487 16.146C16.5807 16.046 16.8307 15.998 17.0847 15.998C17.3887 15.998 17.6967 16.068 17.9807 16.21L18.9207 16.564C20.2947 17.248 21.3427 18.422 21.8687 19.868L24.0547 26.228C24.4187 27.286 25.5787 27.84 26.6307 27.458C27.6567 27.086 28.1947 25.958 27.8387 24.926L25.6287 18.5C24.7527 16.086 23.0047 14.126 20.7067 12.982L19.7667 12.628C18.2327 11.864 16.4447 11.792 14.8547 12.432C13.2647 13.07 12.0227 14.362 11.4447 15.974L9.53271 21.302L3.05071 17.298C2.11071 16.718 0.878711 17.006 0.298711 17.948C-0.281289 18.888 0.00871146 20.12 0.948711 20.7L26.8287 36.688L25.0207 39.25C23.8207 40.946 23.6707 43.144 24.6247 44.986C25.5867 46.844 27.4907 47.998 29.5887 47.998H42.4107C44.3227 47.998 46.0807 47.04 47.1127 45.44C48.1367 43.85 48.2807 41.876 47.5007 40.158L47.5027 40.16ZM43.7507 43.276C43.6127 43.494 43.2007 44 42.4127 44H29.5907C28.7147 44 28.3107 43.404 28.1787 43.148C28.0507 42.9 27.8027 42.248 28.2907 41.558L36.0947 30.5C36.4987 29.928 37.0607 29.832 37.3927 29.832C37.4507 29.832 37.5047 29.832 37.5447 29.838C37.8227 29.866 38.5027 30.006 38.8407 30.754L43.8587 41.814C44.1687 42.498 43.8867 43.064 43.7487 43.274L43.7507 43.276ZM18.0007 5C18.0007 2.238 20.2387 0 23.0007 0C25.7627 0 28.0007 2.238 28.0007 5C28.0007 7.762 25.7627 10 23.0007 10C20.2387 10 18.0007 7.762 18.0007 5ZM20.0007 38V46C20.0007 47.106 19.1067 48 18.0007 48C16.8947 48 16.0007 47.106 16.0007 46V38C16.0007 36.894 16.8947 36 18.0007 36C19.1067 36 20.0007 36.894 20.0007 38ZM9.71871 32.406L4.65471 46.67C4.36271 47.488 3.59271 48 2.77071 48C2.54871 48 2.32271 47.962 2.10071 47.884C1.05871 47.514 0.516711 46.37 0.886711 45.33L5.95071 31.066C6.32071 30.024 7.45671 29.484 8.50471 29.852C9.54671 30.222 10.0887 31.366 9.71871 32.406Z" fill="#2078BA"/>
</g>
<defs>
<clipPath id="clip0_72_3933">
<rect width="48" height="48" fill="white"/>
</clipPath>
</defs>
</svg>
