<svg width="48" height="48" viewBox="0 0 48 48" fill="none" xmlns="http://www.w3.org/2000/svg">
<path d="M38 10H32V8C32 6.4087 31.3679 4.88258 30.2426 3.75736C29.1174 2.63214 27.5913 2 26 2H22C20.4087 2 18.8826 2.63214 17.7574 3.75736C16.6321 4.88258 16 6.4087 16 8V10H10C7.34881 10.0032 4.80712 11.0578 2.93244 12.9324C1.05776 14.8071 0.00317572 17.3488 0 20L0 36C0.00317572 38.6512 1.05776 41.1929 2.93244 43.0676C4.80712 44.9422 7.34881 45.9968 10 46H38C40.6512 45.9968 43.1929 44.9422 45.0676 43.0676C46.9422 41.1929 47.9968 38.6512 48 36V20C47.9968 17.3488 46.9422 14.8071 45.0676 12.9324C43.1929 11.0578 40.6512 10.0032 38 10ZM20 8C20 7.46957 20.2107 6.96086 20.5858 6.58579C20.9609 6.21071 21.4696 6 22 6H26C26.5304 6 27.0391 6.21071 27.4142 6.58579C27.7893 6.96086 28 7.46957 28 8V10H20V8ZM44 36C44 37.5913 43.3679 39.1174 42.2426 40.2426C41.1174 41.3679 39.5913 42 38 42H10C8.4087 42 6.88258 41.3679 5.75736 40.2426C4.63214 39.1174 4 37.5913 4 36V20C4 18.4087 4.63214 16.8826 5.75736 15.7574C6.88258 14.6321 8.4087 14 10 14H38C39.5913 14 41.1174 14.6321 42.2426 15.7574C43.3679 16.8826 44 18.4087 44 20V36ZM32 28C32 28.5304 31.7893 29.0391 31.4142 29.4142C31.0391 29.7893 30.5304 30 30 30H26V34C26 34.5304 25.7893 35.0391 25.4142 35.4142C25.0391 35.7893 24.5304 36 24 36C23.4696 36 22.9609 35.7893 22.5858 35.4142C22.2107 35.0391 22 34.5304 22 34V30H18C17.4696 30 16.9609 29.7893 16.5858 29.4142C16.2107 29.0391 16 28.5304 16 28C16 27.4696 16.2107 26.9609 16.5858 26.5858C16.9609 26.2107 17.4696 26 18 26H22V22C22 21.4696 22.2107 20.9609 22.5858 20.5858C22.9609 20.2107 23.4696 20 24 20C24.5304 20 25.0391 20.2107 25.4142 20.5858C25.7893 20.9609 26 21.4696 26 22V26H30C30.5304 26 31.0391 26.2107 31.4142 26.5858C31.7893 26.9609 32 27.4696 32 28Z" fill="#2078BA"/>
</svg>
