<svg width="48" height="48" viewBox="0 0 48 48" fill="none" xmlns="http://www.w3.org/2000/svg">
<g clip-path="url(#clip0_72_3989)">
<path d="M34 28C34 28.5304 33.7893 29.0391 33.4142 29.4142C33.0391 29.7893 32.5304 30 32 30H16C15.4696 30 14.9609 29.7893 14.5858 29.4142C14.2107 29.0391 14 28.5304 14 28C14 27.4696 14.2107 26.9608 14.5858 26.5858C14.9609 26.2107 15.4696 26 16 26H32C32.5304 26 33.0391 26.2107 33.4142 26.5858C33.7893 26.9608 34 27.4696 34 28ZM26 34H16C15.4696 34 14.9609 34.2107 14.5858 34.5858C14.2107 34.9608 14 35.4696 14 36C14 36.5304 14.2107 37.0391 14.5858 37.4142C14.9609 37.7893 15.4696 38 16 38H26C26.5304 38 27.0391 37.7893 27.4142 37.4142C27.7893 37.0391 28 36.5304 28 36C28 35.4696 27.7893 34.9608 27.4142 34.5858C27.0391 34.2107 26.5304 34 26 34ZM44 20.97V38C43.9968 40.6512 42.9422 43.1929 41.0676 45.0675C39.1929 46.9422 36.6512 47.9968 34 48H14C11.3488 47.9968 8.80712 46.9422 6.93244 45.0675C5.05776 43.1929 4.00318 40.6512 4 38V9.99998C4.00318 7.34879 5.05776 4.8071 6.93244 2.93242C8.80712 1.05775 11.3488 0.00316078 14 -1.49378e-05H23.03C24.8692 -0.00474879 26.6912 0.355161 28.3904 1.0589C30.0897 1.76265 31.6327 2.79626 32.93 4.09999L39.898 11.072C41.2025 12.3685 42.2367 13.9109 42.9409 15.6099C43.645 17.309 44.005 19.1308 44 20.97ZM30.102 6.92799C29.4726 6.31831 28.7659 5.79383 28 5.36799V14C28 14.5304 28.2107 15.0391 28.5858 15.4142C28.9609 15.7893 29.4696 16 30 16H38.632C38.2059 15.2344 37.6807 14.5283 37.07 13.9L30.102 6.92799ZM40 20.97C40 20.64 39.936 20.324 39.906 20H30C28.4087 20 26.8826 19.3678 25.7574 18.2426C24.6321 17.1174 24 15.5913 24 14V4.09399C23.676 4.06398 23.358 3.99999 23.03 3.99999H14C12.4087 3.99999 10.8826 4.63213 9.75736 5.75734C8.63214 6.88256 8 8.40869 8 9.99998V38C8 39.5913 8.63214 41.1174 9.75736 42.2426C10.8826 43.3678 12.4087 44 14 44H34C35.5913 44 37.1174 43.3678 38.2426 42.2426C39.3679 41.1174 40 39.5913 40 38V20.97Z" fill="#2078BA"/>
</g>
<defs>
<clipPath id="clip0_72_3989">
<rect width="48" height="48" fill="white"/>
</clipPath>
</defs>
</svg>
