<svg width="48" height="48" viewBox="0 0 48 48" fill="none" xmlns="http://www.w3.org/2000/svg">
<g clip-path="url(#clip0_72_3934)">
<path d="M38 0H10C4.486 0 0 4.486 0 10V38C0 43.514 4.486 48 10 48H38C43.514 48 48 43.514 48 38V10C48 4.486 43.514 0 38 0ZM18 4H30V18.682C26.61 20.104 22.614 21.406 18 22.372V4ZM4 10C4 6.692 6.692 4 10 4H14V23.086C10.908 23.556 7.576 23.854 4 23.94V10ZM44 38C44 41.308 41.308 44 38 44H10C6.692 44 4 41.308 4 38V27.94C25.202 27.468 38.254 19.788 44 15.378V38ZM44 10.152C42.804 11.26 39.518 14.048 34 16.856V4H38C41.364 3.996 44.084 6.79 44 10.152ZM21 37C21 35.344 22.344 34 24 34C25.656 34 27 35.344 27 37C27 38.656 25.656 40 24 40C22.344 40 21 38.656 21 37ZM34 37C34 35.344 35.344 34 37 34C38.656 34 40 35.344 40 37C40 38.656 38.656 40 37 40C35.344 40 34 38.656 34 37ZM8 37C8 35.344 9.344 34 11 34C12.656 34 14 35.344 14 37C14 38.656 12.656 40 11 40C9.344 40 8 38.656 8 37Z" fill="#2078BA"/>
</g>
<defs>
<clipPath id="clip0_72_3934">
<rect width="48" height="48" fill="white"/>
</clipPath>
</defs>
</svg>
