<svg width="48" height="48" viewBox="0 0 48 48" fill="none" xmlns="http://www.w3.org/2000/svg">
<g clip-path="url(#clip0_72_4032)">
<path d="M47.9996 19.002C47.9996 25.136 45.0096 30.924 40.0036 34.488C38.0056 35.908 36.3336 38.084 34.7396 41.338C33.8236 43.208 32.3976 44.828 30.6176 46.018C28.6496 47.336 26.3296 47.988 24.0116 47.988C21.4816 47.988 18.9496 47.21 16.8736 45.662C15.9216 44.952 15.0896 44.124 14.3956 43.198C13.7336 42.314 13.9136 41.062 14.7976 40.398C15.6836 39.736 16.9356 39.916 17.5976 40.8C18.0616 41.42 18.6236 41.976 19.2656 42.456C21.9076 44.422 25.6616 44.52 28.3916 42.692C29.6036 41.88 30.5296 40.832 31.1456 39.576C33.0436 35.7 35.1216 33.048 37.6836 31.226C41.6396 28.414 43.9996 23.844 43.9996 19C43.9996 14.736 42.1736 10.658 38.9916 7.812C35.7636 4.928 31.6056 3.612 27.2516 4.098C23.5176 4.518 20.0816 6.364 17.5776 9.296C16.8596 10.134 15.5976 10.234 14.7576 9.516C13.9196 8.798 13.8196 7.536 14.5376 6.696C17.7016 2.996 22.0596 0.660001 26.8036 0.126001C32.2336 -0.489999 37.6296 1.234 41.6576 4.832C45.6876 8.434 47.9996 13.6 47.9996 19.002ZM28.9996 12.002C32.8596 12.002 35.9996 15.142 35.9996 19.002C35.9996 20.106 36.8936 21.002 37.9996 21.002C39.1056 21.002 39.9996 20.106 39.9996 19.002C39.9996 12.936 35.0636 8.002 28.9996 8.002C23.3516 8.002 18.6276 12.206 18.0116 17.78C18.0036 17.852 17.9996 17.926 17.9996 18C17.9996 20.596 20.0596 22 21.9996 22.002C23.1016 22.002 23.9996 22.9 23.9996 24.002C23.9996 25.104 23.1016 26.002 21.9996 26.002C20.8976 26.002 19.9996 26.898 19.9996 28.002C19.9996 29.106 20.8956 30.002 21.9996 30.002C25.3076 30.002 27.9996 27.31 27.9996 24.002C27.9996 20.694 25.3176 18.01 22.0156 18C22.5056 14.566 25.4696 12.002 28.9996 12.002ZM9.40558 9.578C8.61758 8.802 7.35558 8.81 6.57558 9.594C5.79958 10.38 5.80758 11.646 6.59158 12.424C10.0776 15.868 11.9976 20.384 11.9976 25.138C11.9976 29.806 10.1276 34.224 6.73558 37.578C5.94958 38.354 5.94358 39.62 6.71958 40.408C7.11158 40.804 7.62758 41.002 8.14158 41.002C8.64958 41.002 9.15758 40.81 9.54758 40.424C13.7076 36.312 15.9976 30.884 15.9976 25.138C15.9976 19.306 13.6576 13.78 9.40558 9.578ZM3.86958 14.988C3.08758 14.206 1.82358 14.206 1.04158 14.988C0.259578 15.77 0.259578 17.034 1.04158 17.816C4.98758 21.762 4.98758 28.184 1.04158 32.13C0.259578 32.912 0.259578 34.176 1.04158 34.958C1.43158 35.348 1.94358 35.544 2.45558 35.544C2.96758 35.544 3.47958 35.348 3.86958 34.958C9.37558 29.452 9.37558 20.494 3.86958 14.988Z" fill="#2078BA"/>
</g>
<defs>
<clipPath id="clip0_72_4032">
<rect width="48" height="48" fill="white"/>
</clipPath>
</defs>
</svg>
