<svg width="48" height="48" viewBox="0 0 48 48" fill="none" xmlns="http://www.w3.org/2000/svg">
<path d="M46.4101 11.576C45.2541 10.426 43.6601 9.858 42.0541 10.03C39.8441 10.262 32.3641 11.28 28.9681 14.666C25.608 18.034 24.854 23.786 27.9601 27.568C26.6861 29.504 25.998 31.77 25.998 34.142V38C25.998 41.308 23.306 44 19.998 44C16.69 44 13.998 41.308 13.998 38V25.798C18.556 24.868 21.998 20.83 21.998 16V12C23.104 12 23.998 11.104 23.998 10C23.998 8.896 23.104 8 21.998 8H17.998V2C17.998 0.896 17.104 0 15.998 0C14.892 0 13.998 0.896 13.998 2V8H9.99802V2C9.99802 0.896 9.10402 0 7.99802 0C6.89201 0 5.99801 0.896 5.99801 2V8H2C0.894002 8 0 8.896 0 10C0 11.104 0.894002 12 2 12V16C2 20.828 5.44201 24.868 10 25.798V38C10 43.514 14.486 48 20 48C25.514 48 30.0001 43.514 30.0001 38V34.142C30.0001 32.826 30.3501 31.574 30.9461 30.442C34.7481 33.046 40.0881 32.26 43.3421 29.026C46.7541 25.612 47.7461 18.166 47.9741 15.918C48.1321 14.306 47.5621 12.724 46.4101 11.576ZM6.00001 16V12H18V16C18 19.308 15.308 22 12 22C8.69202 22 6.00001 19.308 6.00001 16ZM40.5201 26.192C38.6621 28.032 35.8761 28.498 33.5121 27.382C33.5021 27.374 33.4861 27.362 33.4761 27.352L39.4141 21.412C40.1961 20.63 40.1961 19.364 39.4141 18.584C38.6321 17.802 37.3681 17.802 36.5861 18.584L30.6461 24.524C30.6461 24.524 30.6321 24.506 30.6261 24.498C29.5001 22.138 29.9621 19.342 31.8021 17.488C33.6341 15.66 38.4821 14.422 42.4721 14.004C43.5621 14.066 43.9401 14.452 43.9901 15.56C43.5901 19.524 42.3601 24.35 40.5221 26.188L40.5201 26.192Z" fill="#2078BA"/>
</svg>
