<svg width="48" height="48" viewBox="0 0 48 48" fill="none" xmlns="http://www.w3.org/2000/svg">
<path d="M20.334 16.816C18.358 19.03 16 22.422 16 26C16 29.716 18.56 32.822 22 33.716V36C22 37.104 22.896 38 24 38C25.104 38 26 37.104 26 36V33.716C29.442 32.822 32 29.716 32 26C32 22.422 29.642 19.032 27.666 16.816C25.798 14.728 22.204 14.728 20.334 16.816ZM26 29.444V27C26 25.896 25.104 25 24 25C22.896 25 22 25.896 22 27V29.444C20.81 28.75 20 27.474 20 26C20 24.192 21.178 21.876 23.318 19.482C23.844 19.044 24.156 19.044 24.682 19.482C26.822 21.878 28 24.194 28 26.002C28 27.476 27.19 28.75 26 29.444ZM32 4.202V2C32 0.896 31.104 0 30 0H18C16.896 0 16 0.896 16 2V4.202C11.442 5.132 8 9.17 8 14V38C8 43.514 12.486 48 18 48H30C35.514 48 40 43.514 40 38V14C40 9.172 36.558 5.132 32 4.202ZM36 38C36 41.308 33.308 44 30 44H18C14.692 44 12 41.308 12 38V14C12 10.692 14.692 8 18 8H30C33.308 8 36 10.692 36 14V38Z" fill="#2078BA"/>
</svg>
