<svg width="48" height="48" viewBox="0 0 48 48" fill="none" xmlns="http://www.w3.org/2000/svg">
<path d="M38.234 8.31C37.142 5.79 34.746 4.096 32 4.016V2C32 0.894 31.104 0 30 0C28.896 0 28 0.894 28 2V4H16.248C13.4 3.984 10.892 5.712 9.768 8.31C8.612 10.618 8 13.208 8 15.794V36.204C8 38.79 8.612 41.38 9.766 43.688C10.892 46.286 13.398 48.014 16.248 47.998H31.752C34.6 48.014 37.108 46.286 38.232 43.688C39.388 41.38 40 38.79 40 36.204V15.794C40 13.208 39.388 10.618 38.234 8.31ZM36 36.204C36 38.172 35.536 40.142 34.656 41.9C34.178 43.112 33.094 44.02 31.752 44H16.248C14.906 44.022 13.824 43.112 13.344 41.9C12.466 40.142 12 38.174 12 36.204V15.794C12 13.826 12.464 11.856 13.344 10.098C13.822 8.886 14.906 7.978 16.248 7.998H31.752C33.094 7.976 34.176 8.886 34.656 10.098C35.534 11.856 36 13.824 36 15.794V36.204ZM30.762 26.052L23.778 35.404C22.906 36.668 20.936 35.738 21.358 34.262L23 30.086H18.436C17.474 30.086 16.784 29.156 17.062 28.236L20.53 19.046C20.746 18.418 21.338 17.998 22 17.998H24.946C26.038 17.998 26.79 19.092 26.398 20.112L24.778 23.866H29.59C30.714 23.866 31.384 25.116 30.764 26.052H30.762Z" fill="#2078BA"/>
</svg>
