<svg width="48" height="48" viewBox="0 0 48 48" fill="none" xmlns="http://www.w3.org/2000/svg">
<path d="M38 2H10C7.34881 2.00318 4.80712 3.05776 2.93244 4.93244C1.05776 6.80712 0.00317572 9.34881 0 12L0 36C0.00317572 38.6512 1.05776 41.1929 2.93244 43.0676C4.80712 44.9422 7.34881 45.9968 10 46H38C40.6512 45.9968 43.1929 44.9422 45.0676 43.0676C46.9422 41.1929 47.9968 38.6512 48 36V12C47.9968 9.34881 46.9422 6.80712 45.0676 4.93244C43.1929 3.05776 40.6512 2.00318 38 2ZM10 6H38C39.1976 6.00236 40.367 6.36303 41.3579 7.03561C42.3488 7.70819 43.1157 8.66189 43.56 9.774L28.244 25.092C27.1169 26.2146 25.5908 26.8449 24 26.8449C22.4092 26.8449 20.8831 26.2146 19.756 25.092L4.44 9.774C4.8843 8.66189 5.65123 7.70819 6.64209 7.03561C7.63296 6.36303 8.80243 6.00236 10 6ZM38 42H10C8.4087 42 6.88258 41.3679 5.75736 40.2426C4.63214 39.1174 4 37.5913 4 36V15L16.928 27.92C18.8053 29.7925 21.3485 30.8441 24 30.8441C26.6515 30.8441 29.1947 29.7925 31.072 27.92L44 15V36C44 37.5913 43.3679 39.1174 42.2426 40.2426C41.1174 41.3679 39.5913 42 38 42Z" fill="#2078BA"/>
</svg>
