<svg width="48" height="48" viewBox="0 0 48 48" fill="none" xmlns="http://www.w3.org/2000/svg">
<g clip-path="url(#clip0_72_3937)">
<path d="M14.0005 36C14.0005 37.656 12.6565 39 11.0005 39C9.34447 39 8.00047 37.656 8.00047 36C8.00047 34.344 9.34447 33 11.0005 33C12.6565 33 14.0005 34.344 14.0005 36ZM21.0005 33C19.3445 33 18.0005 34.344 18.0005 36C18.0005 37.656 19.3445 39 21.0005 39C22.6565 39 24.0005 37.656 24.0005 36C24.0005 34.344 22.6565 33 21.0005 33ZM48.0005 8.75198V27C48.0005 30.86 44.8605 34 41.0005 34H38.1225C35.8505 34 34.0005 32.152 34.0005 29.878C34.0005 28.794 34.4405 27.73 35.2085 26.964L44.0005 18.172V9.61598L31.9985 20.868L31.9905 23.994C31.9945 25.59 31.3705 27.1 30.2385 28.238C29.9165 28.56 29.5565 28.83 29.1805 29.068C30.9185 30.868 32.0005 33.306 32.0005 36C32.0005 41.514 27.5145 46 22.0005 46H10.0005C4.48647 46 0.00046875 41.514 0.00046875 36C0.00046875 33.31 1.08047 30.874 2.81447 29.076C1.12047 28.014 -0.0195312 26.144 -0.0195312 24C-0.00353125 20.676 2.68247 17.998 5.96847 17.992L10.0165 17.984L10.0045 7.98798C10.0045 6.38398 10.6265 4.87598 11.7585 3.73998C12.8905 2.60398 14.3985 1.97998 16.0045 1.97998C19.7205 1.97998 23.1025 4.17198 24.6205 7.56398L29.2625 17.948L41.8945 6.10598C42.9505 5.11798 44.4905 4.85198 45.8145 5.42398C47.1425 5.99998 48.0005 7.30398 48.0005 8.75198ZM14.0045 7.98198L14.0165 17.98H24.8945L20.9685 9.19798C20.0945 7.24198 18.1465 5.97998 16.0045 5.97998C15.4685 5.97998 14.9665 6.18798 14.5885 6.56598C14.2105 6.94398 14.0025 7.44598 14.0045 7.98198ZM3.98047 23.982C3.98047 25.102 4.87847 26 5.98047 26H25.9985C27.1045 26 28.0005 25.104 27.9985 23.998V21.99L12.0225 21.98L5.97647 21.992C4.88047 21.992 3.98447 22.886 3.98047 23.982ZM28.0005 36C28.0005 32.692 25.3085 30 22.0005 30H10.0005C6.69247 30 4.00047 32.692 4.00047 36C4.00047 39.308 6.69247 42 10.0005 42H22.0005C25.3085 42 28.0005 39.308 28.0005 36ZM44.0005 23.828L38.0365 29.792L38.1225 30H41.0005C42.6545 30 44.0005 28.654 44.0005 27V23.828Z" fill="#2078BA"/>
</g>
<defs>
<clipPath id="clip0_72_3937">
<rect width="48" height="48" fill="white"/>
</clipPath>
</defs>
</svg>
