<svg width="48" height="48" viewBox="0 0 48 48" fill="none" xmlns="http://www.w3.org/2000/svg">
<g clip-path="url(#clip0_72_4033)">
<path d="M45.8819 19.5102C44.4059 17.8642 42.3739 16.8902 40.1659 16.7722C36.3179 16.5642 31.8839 17.8282 28.8099 18.9382C28.4379 18.5842 28.0239 18.2822 27.5819 18.0182C30.0699 15.4122 33.1199 12.2162 33.3079 8.72824C33.4279 6.52024 32.6799 4.39624 31.2019 2.75024C29.7259 1.10424 27.6959 0.132242 25.4879 0.0122417C23.2639 -0.109758 21.1559 0.640242 19.5099 2.11624C17.8659 3.59424 16.8919 5.62224 16.7739 7.83024C16.5619 11.6782 17.8279 16.1142 18.9399 19.1882C18.5859 19.5602 18.2839 19.9742 18.0179 20.4162C15.4119 17.9282 12.2139 14.8782 8.72786 14.6902C6.50386 14.5682 4.39586 15.3182 2.74986 16.7942C1.10586 18.2742 0.131856 20.3042 0.0138563 22.5122C-0.108144 24.7202 0.639856 26.8442 2.11786 28.4902C3.59586 30.1362 5.70186 31.2502 8.69386 31.2502C12.3299 31.2502 16.3419 30.0902 19.1899 29.0602C19.5619 29.4142 19.9759 29.7162 20.4179 29.9822C17.9299 32.5882 14.8799 35.7842 14.6919 39.2722C14.5719 41.4802 15.3199 43.6042 16.7979 45.2502C18.2739 46.8962 20.3059 47.8702 22.5139 47.9882C22.6639 47.9962 22.8139 48.0002 22.9659 48.0002C27.3279 48.0002 30.9899 44.5742 31.2279 40.1682C31.4399 36.3202 30.1739 31.8842 29.0619 28.8102C29.4159 28.4382 29.7179 28.0242 29.9839 27.5822C32.5899 30.0702 35.7879 33.1202 39.2759 33.3082C39.4259 33.3162 39.5759 33.3202 39.7279 33.3202C44.0899 33.3202 47.7519 29.8942 47.9899 25.4882C48.1119 23.2802 47.3639 21.1562 45.8859 19.5102H45.8819ZM8.04786 27.2322C6.90786 27.1702 5.85586 26.6682 5.09186 25.8162C4.32986 24.9642 3.94386 23.8682 4.00586 22.7262C4.06586 21.5842 4.56786 20.5342 5.41986 19.7722C6.21186 19.0622 6.92586 18.6842 8.50986 18.6842C10.5239 18.6842 12.9039 21.0682 15.0079 23.0762C15.6939 23.7322 16.3979 24.3882 17.0999 24.9982C17.1259 25.1722 17.1379 25.3482 17.1759 25.5182C14.5059 26.4382 10.9919 27.3822 8.04786 27.2302V27.2322ZM22.1819 5.09424C22.9739 4.38424 23.9779 4.00024 25.0339 4.00024C26.4279 4.00024 27.4639 4.57224 28.2279 5.42224C28.9899 6.27224 29.3759 7.37024 29.3139 8.51224C29.2059 10.5222 26.9299 12.9082 24.9219 15.0122C24.2679 15.6982 23.6099 16.4002 22.9999 17.1022C22.8259 17.1282 22.6499 17.1402 22.4799 17.1782C21.5579 14.5082 20.6099 10.9902 20.7699 8.04824C20.8299 6.90624 21.3319 5.85624 22.1839 5.09424H22.1819ZM26.9999 24.0002C26.9999 25.6542 25.6539 27.0002 23.9999 27.0002C22.3459 27.0002 20.9999 25.6542 20.9999 24.0002C20.9999 22.3462 22.3459 21.0002 23.9999 21.0002C25.6539 21.0002 26.9999 22.3462 26.9999 24.0002ZM25.8179 42.9062C24.9659 43.6702 23.8559 44.0502 22.7279 43.9942C21.5879 43.9322 20.5359 43.4302 19.7719 42.5782C19.0099 41.7282 18.6239 40.6302 18.6859 39.4882C18.7939 37.4782 21.0699 35.0922 23.0779 32.9882C23.7319 32.3022 24.3899 31.6002 24.9999 30.8982C25.1739 30.8722 25.3499 30.8602 25.5199 30.8222C26.4419 33.4922 27.3899 37.0102 27.2299 39.9522C27.1699 41.0942 26.6679 42.1422 25.8159 42.9062H25.8179ZM39.4879 29.3142C37.4759 29.2062 35.0939 26.9302 32.9899 24.9222C32.3039 24.2662 31.5999 23.6102 30.8979 23.0002C30.8719 22.8262 30.8599 22.6502 30.8219 22.4802C33.4919 21.5582 36.9979 20.6082 39.9499 20.7682C41.0899 20.8302 42.1419 21.3322 42.9059 22.1842C43.6679 23.0362 44.0539 24.1322 43.9919 25.2742C43.8659 27.6322 41.8199 29.4322 39.4879 29.3162V29.3142Z" fill="#2078BA"/>
</g>
<defs>
<clipPath id="clip0_72_4033">
<rect width="48" height="48" fill="white"/>
</clipPath>
</defs>
</svg>
