<svg width="48" height="48" viewBox="0 0 48 48" fill="none" xmlns="http://www.w3.org/2000/svg">
<path d="M46.656 16.8501L40.654 7.84549C39.79 6.55141 38.578 5.54335 37.15 4.92931L27.152 0.64504C25.148 -0.215013 22.85 -0.215013 20.848 0.64504L10.852 4.92931C9.422 5.54335 8.21 6.55141 7.348 7.84549L1.344 16.8501C0.466 18.1681 0 19.7022 0 21.2883V37.9994C0 43.5137 4.486 48 10 48H38C43.514 48 48 43.5137 48 37.9994V21.2883C48 19.7042 47.536 18.1681 46.656 16.8501ZM27.158 36.1813L34 30.5829V41.7796L27.158 36.1813ZM30.396 43.9997H17.602L24 38.7654L30.398 43.9997H30.396ZM23.998 33.5971L17.156 27.9987H30.84L23.998 33.5971ZM13.998 30.5829L20.84 36.1813L13.998 41.7796V30.5829ZM43.998 37.9994C43.998 41.3076 41.306 43.9997 37.998 43.9997V29.9989C37.998 26.6907 35.306 23.9985 31.998 23.9985H16C12.692 23.9985 10 26.6907 10 29.9989V43.9997C6.692 43.9997 4 41.3076 4 37.9994V21.2883C4 20.4963 4.232 19.7282 4.672 19.0702L10.674 10.0656C11.106 9.41959 11.712 8.91356 12.426 8.60754L22.424 4.32327C22.924 4.10926 23.462 4.00125 23.998 4.00125C24.534 4.00125 25.072 4.10926 25.574 4.32327L35.572 8.60754C36.286 8.91356 36.894 9.41959 37.324 10.0656L43.326 19.0702C43.766 19.7302 43.998 20.4963 43.998 21.2883V37.9994ZM24 7.9975C20.692 7.9975 18 10.6897 18 13.9979C18 17.3061 20.692 19.9982 24 19.9982C27.308 19.9982 30 17.3061 30 13.9979C30 10.6897 27.308 7.9975 24 7.9975ZM24 15.998C22.898 15.998 22 15.0999 22 13.9979C22 12.8958 22.898 11.9977 24 11.9977C25.102 11.9977 26 12.8958 26 13.9979C26 15.0999 25.102 15.998 24 15.998Z" fill="#2078BA"/>
</svg>
