<svg width="48" height="48" viewBox="0 0 48 48" fill="none" xmlns="http://www.w3.org/2000/svg">
<path d="M30 16H22V10H30C31.106 10 32 9.106 32 8C32 6.894 31.106 6 30 6H10C8.896 6 8 6.894 8 8C8 9.106 8.896 10 10 10H18V16H2C0.896 16 0 16.894 0 18C0 19.106 0.896 20 2 20H18V28H2C0.896 28 0 28.894 0 30C0 31.106 0.896 32 2 32H30C31.104 32 32 32.896 32 34C32 36.206 33.794 38 36 38H44C46.206 38 48 36.206 48 34C48 24.074 39.926 16 30 16ZM36 34C36 30.692 33.308 28 30 28H22V20H30C37.718 20 44 26.282 44 34H36Z" fill="#2078BA"/>
</svg>
