<svg width="48" height="48" viewBox="0 0 48 48" fill="none" xmlns="http://www.w3.org/2000/svg">
<g clip-path="url(#clip0_72_4043)">
<path d="M41.304 36.532C41.304 36.532 45 41 45 43C45 44.28 44.512 45.56 43.536 46.536C42.56 47.512 41.28 48 40 48C38.72 48 37.44 47.512 36.464 46.536C35.488 45.56 35 44.28 35 43C35 41 38.696 36.532 38.696 36.532C39.42 35.824 40.58 35.824 41.304 36.532ZM48 28C48 30.206 46.206 32 44 32H36C33.794 32 32 30.206 32 28C32 26.896 31.102 26 30 26H2C0.896 26 0 25.106 0 24C0 22.894 0.896 22 2 22H18V14H2C0.896 14 0 13.106 0 12C0 10.894 0.896 10 2 10H18V4H10C8.896 4 8 3.106 8 2C8 0.894 8.896 0 10 0H30C31.104 0 32 0.894 32 2C32 3.106 31.104 4 30 4H22V10H30C39.924 10 48 18.074 48 28ZM44 28C44 20.282 37.72 14 30 14H22V22H30C33.308 22 36 24.692 36 28H44Z" fill="#2078BA"/>
</g>
<defs>
<clipPath id="clip0_72_4043">
<rect width="48" height="48" fill="white"/>
</clipPath>
</defs>
</svg>
