<svg width="48" height="48" viewBox="0 0 48 48" fill="none" xmlns="http://www.w3.org/2000/svg">
<g clip-path="url(#clip0_72_4036)">
<path d="M37.32 41.8C36.5 41.06 35.22 41.14 34.5 41.98C33.36 43.28 31.72 44.02 30 44.02H10C6.7 44.02 4 41.32 4 38.02V10C4 6.7 6.7 4 10 4H19.02C19.34 4 19.68 4 20 4.04V14C20 17.3 22.7 20 26 20H37.62C38.24 20 38.82 19.72 39.2 19.22C39.58 18.72 39.7 18.1 39.56 17.5C38.94 15.06 37.68 12.84 35.9 11.06L28.94 4.1C26.3 1.46 22.78 0 19.04 0H10C4.48 0 0 4.48 0 10V38C0 43.52 4.48 48 10 48H30C32.86 48 35.6 46.76 37.5 44.62C38.24 43.8 38.16 42.52 37.32 41.8ZM24 5.32C24.76 5.76 25.46 6.3 26.1 6.94L33.06 13.9C33.68 14.52 34.22 15.24 34.66 16H25.98C24.88 16 23.98 15.1 23.98 14V5.32H24ZM46.26 36.18L43.04 39.4C42.64 39.8 42.14 39.98 41.62 39.98C41.1 39.98 40.6 39.78 40.2 39.4C39.42 38.62 39.42 37.36 40.2 36.58L42.78 34H27.98C26.88 34 25.98 33.1 25.98 32C25.98 30.9 26.88 30 27.98 30H42.78L40.2 27.42C39.42 26.64 39.42 25.38 40.2 24.6C40.98 23.82 42.24 23.82 43.02 24.6L46.24 27.82C48.54 30.12 48.54 33.88 46.24 36.2L46.26 36.18Z" fill="#2078BA"/>
</g>
<defs>
<clipPath id="clip0_72_4036">
<rect width="48" height="48" fill="white"/>
</clipPath>
</defs>
</svg>
