<svg width="48" height="48" viewBox="0 0 48 48" fill="none" xmlns="http://www.w3.org/2000/svg">
<path d="M44.4201 1.878C43.6881 0.7 42.4261 0 41.0421 0H35.0241C31.9561 0 29.2061 1.708 27.8501 4.46L24.1281 12.006C24.0861 12.006 24.0461 12 24.0041 12C23.9761 12 23.9501 12.004 23.9221 12.004L20.2001 4.46C18.8421 1.708 16.0941 0 13.0261 0H7.00808C5.62408 0 4.36008 0.702 3.63008 1.876C2.89808 3.054 2.82808 4.498 3.44008 5.74L9.90408 18.844C7.47008 21.914 6.00408 25.786 6.00408 30C6.00408 39.926 14.0801 48 24.0041 48C33.9281 48 42.0041 39.926 42.0041 30C42.0041 25.802 40.5481 21.944 38.1301 18.88L44.6141 5.74C45.2261 4.498 45.1561 3.054 44.4241 1.878H44.4201ZM13.0221 4C14.5561 4 15.9301 4.856 16.6081 6.23L19.7181 12.536C17.1901 13.156 14.8701 14.304 12.8861 15.868L7.00408 4H13.0221ZM24.0001 44C16.2801 44 10.0001 37.718 10.0001 30C10.0001 22.68 15.6501 16.664 22.8161 16.06C22.8201 16.06 22.8221 16.06 22.8261 16.06C23.2141 16.028 23.6041 16 24.0001 16C31.7201 16 38.0001 22.282 38.0001 30C38.0001 37.718 31.7201 44 24.0001 44ZM35.1401 15.89C33.1601 14.322 30.8441 13.172 28.3181 12.546L31.4341 6.23C32.1121 4.854 33.4861 4 35.0201 4L41.0201 3.97L35.1401 15.888V15.89ZM26.0001 23.892V38.002C26.0001 39.108 25.1041 40.002 24.0001 40.002C22.8961 40.002 22.0001 39.108 22.0001 38.002V26.576L21.4141 27.162C20.6341 27.944 19.3681 27.944 18.5861 27.162C17.8041 26.38 17.8041 25.116 18.5861 24.334L21.0701 21.85C21.9001 21.022 23.1361 20.778 24.2181 21.226C25.3021 21.676 26.0001 22.72 26.0001 23.892Z" fill="#2078BA"/>
</svg>
