<svg width="48" height="48" viewBox="0 0 48 48" fill="none" xmlns="http://www.w3.org/2000/svg">
<g clip-path="url(#clip0_72_4004)">
<path d="M40.716 15L47.19 6.406C48.108 5.188 48.256 3.58 47.574 2.214C46.892 0.848 45.522 0 43.994 0H8C3.588 0 0 3.588 0 8V46C0 47.106 0.896 48 2 48C3.104 48 4 47.106 4 46V30H43.996C45.524 30 46.894 29.15 47.576 27.786C48.258 26.422 48.11 24.814 47.192 23.594L40.716 15ZM4 26V8C4 5.794 5.794 4 8 4H43.996L36.616 13.796C36.08 14.508 36.08 15.49 36.616 16.202L43.996 25.998H4V26Z" fill="#2078BA"/>
</g>
<defs>
<clipPath id="clip0_72_4004">
<rect width="48" height="48" fill="white"/>
</clipPath>
</defs>
</svg>
