<svg width="48" height="48" viewBox="0 0 48 48" fill="none" xmlns="http://www.w3.org/2000/svg">
<g clip-path="url(#clip0_72_4046)">
<path d="M35.858 19.782C34.678 18.662 34 17.08 34 15.442V4H36C37.106 4 38 3.104 38 2C38 0.896 37.106 0 36 0H12C10.894 0 10 0.896 10 2C10 3.104 10.894 4 12 4H14V15.442C14 17.08 13.322 18.662 12.142 19.78C7.608 24.078 0 32.38 0 39.714C0 41.438 0.46 43.01 1.37 44.382C2.864 46.646 5.488 48 8.386 48H39.616C42.514 48 45.138 46.648 46.63 44.384C47.54 43.008 48.002 41.438 48.002 39.714C48.002 32.38 40.392 24.078 35.858 19.782ZM43.292 42.18C42.552 43.304 41.144 44 39.616 44H8.384C6.856 44 5.448 43.302 4.706 42.178C4.23 41.46 3.998 40.652 3.998 39.714C3.998 37.912 4.672 35.95 5.706 34H33.998C35.104 34 35.998 33.104 35.998 32C35.998 30.896 35.104 30 33.998 30H8.288C10.586 26.926 13.272 24.22 14.892 22.684C16.866 20.812 18 18.174 18 15.442V4H30V15.442C30 18.174 31.132 20.814 33.108 22.686C36.384 25.79 44 33.662 44 39.716C44 40.654 43.77 41.46 43.292 42.18Z" fill="#2078BA"/>
</g>
<defs>
<clipPath id="clip0_72_4046">
<rect width="48" height="48" fill="white"/>
</clipPath>
</defs>
</svg>
