<svg width="48" height="48" viewBox="0 0 48 48" fill="none" xmlns="http://www.w3.org/2000/svg">
<g clip-path="url(#clip0_72_3938)">
<path d="M46 36H43C42.448 36 42 35.55 42 35V9C42 7.894 41.104 7 40 7C38.896 7 38 7.894 38 9V26H31.84L28.248 8.04C27.316 3.382 23.192 0 18.442 0H10C4.486 0 0 4.486 0 10V41C0 44.86 3.14 48 7 48C10.86 48 14 44.86 14 41V40H20V41C20 44.86 23.14 48 27 48C30.86 48 34 44.86 34 41V37C34 36.87 33.988 36.736 33.96 36.608L32.638 30H37.998V35C37.998 37.758 40.242 40 42.998 40H45.998C47.102 40 47.998 39.106 47.998 38C47.998 36.894 47.104 36 46 36ZM10 4H18.442C21.292 4 23.766 6.03 24.326 8.824L27.762 26H21.202C20.21 26 19.328 25.332 19.062 24.376C18.338 21.8 15.962 20 13.284 20H4V10C4 6.692 6.692 4 10 4ZM10 41C10 42.654 8.654 44 7 44C5.346 44 4 42.654 4 41V40H10V41ZM27 44C25.346 44 24 42.654 24 41V40H30V41C30 42.654 28.654 44 27 44ZM29.76 36H4V24H13.284C14.176 24 14.968 24.6 15.21 25.458C15.96 28.132 18.424 30 21.202 30H28.562L29.76 36Z" fill="#2078BA"/>
</g>
<defs>
<clipPath id="clip0_72_3938">
<rect width="48" height="48" fill="white"/>
</clipPath>
</defs>
</svg>
