<svg width="48" height="48" viewBox="0 0 48 48" fill="none" xmlns="http://www.w3.org/2000/svg">
<path d="M44.4 1.8C43.6 0.6 42.4 0 41 0H35C32 0 29.2 1.6 27.8 4.4L24 12L20.2 4.4C18.8 1.6 16 0 13 0H7C5.6 0 4.4 0.6 3.6 1.8C2.8 3 2.8 4.4 3.6 5.6L10 18.8C7.6 21.8 6 25.8 6 30C6 40 14 48 24 48C34 48 42 40 42 30C42 20 40.6 22 38.2 18.8L44.6 5.6C45.2 4.4 45.2 3 44.6 1.8H44.4ZM7 4H13C14.6 4 16 4.8 16.6 6.2L19.6 12.6C17 13.2 14.8 14.4 12.8 16L7 4ZM24 44C16.2 44 10 37.8 10 30C10 22.2 11.4 23 13.8 20.4C16.2 18 19.4 16.2 22.8 16C23.2 16 23.6 16 24 16C31.8 16 38 22.2 38 30C38 37.8 31.8 44 24 44ZM35.2 15.8C33.2 14.2 30.8 13.2 28.4 12.4L31.6 6C32.2 4.6 33.6 3.8 35.2 3.8H41.2L35.4 15.6L35.2 15.8Z" fill="#2078BA"/>
<path d="M28.8 31.8H27.6V22C27.6 21.6 27.6 21 27.2 20.8C26.8 20.4 26.4 20.4 26 20.4C25.6 20.4 25 20.6 24.6 21.2L15.4 32.4C15 32.8 15 33.2 15 33.6C15 34 15 34.4 15.6 34.8C16 35.2 16.4 35.2 16.8 35.2H24.4V39C24.4 39.4 24.4 40 24.8 40.2C25.2 40.6 25.6 40.6 26 40.6C26.4 40.6 27 40.6 27.2 40.2C27.6 39.8 27.6 39.4 27.6 39V35.2H28.8C29.2 35.2 29.6 35.2 30 34.8C30.4 34.4 30.4 34.2 30.4 33.6C30.4 33 30.4 32.8 30 32.4C29.6 32 29.4 32 28.8 32V31.8ZM24.2 31.8H19.6L24.2 26V31.8Z" fill="#2078BA"/>
</svg>
