<svg width="48" height="48" viewBox="0 0 48 48" fill="none" xmlns="http://www.w3.org/2000/svg">
<path d="M36.0001 24C29.3722 24 24.0002 29.372 24.0002 36C24.0002 42.628 29.3722 48 36.0001 48C42.6281 48 48 42.628 48 36C48 29.372 42.6281 24 36.0001 24ZM42.6021 39.87C42.2961 42.03 40.3861 43.6 38.2041 43.6H37.6441V44.416C37.6441 45.29 36.9381 46 36.0641 46H36.0241C35.1521 46 34.4461 45.288 34.4461 44.416V43.6H34.0461C32.6242 43.6 31.3502 42.95 30.5062 41.934C29.6702 40.926 30.3802 39.402 31.6902 39.402C32.1442 39.402 32.7102 39.616 33.0182 39.95C33.2742 40.228 33.6422 40.402 34.0481 40.402H38.2541C38.8101 40.402 39.3181 40.028 39.4261 39.482C39.5521 38.846 39.1341 38.252 38.5241 38.128L32.9422 37.01C30.7182 36.564 29.1662 34.448 29.4922 32.132C29.7962 29.972 31.7082 28.4 33.8901 28.4H34.4501V27.6C34.4501 26.716 35.1661 26 36.0501 26C36.9341 26 37.6501 26.716 37.6501 27.6V28.4H38.0501C39.4721 28.4 40.7461 29.048 41.5901 30.066C42.4261 31.074 41.7161 32.598 40.4061 32.598C39.9521 32.598 39.3861 32.384 39.0781 32.05C38.8221 31.772 38.4541 31.598 38.0481 31.598H33.8441C33.2882 31.598 32.7802 31.97 32.6702 32.514C32.5422 33.15 32.9622 33.748 33.5681 33.87L39.1521 34.988C41.3761 35.432 42.9301 37.552 42.6021 39.866V39.87ZM48 4V12C48 13.104 47.106 14 46 14C44.894 14 44 13.104 44 12V6.828L35.8761 14.952C33.1882 17.64 28.8142 17.642 26.1262 14.952L21.0483 9.876C19.9203 8.748 18.0823 8.748 16.9523 9.876L3.41446 23.414C3.02447 23.804 2.51247 24 2.00048 24C1.48848 24 0.97649 23.804 0.586494 23.414C-0.195498 22.632 -0.195498 21.368 0.586494 20.586L14.1244 7.048C16.8123 4.358 21.1883 4.358 23.8762 7.048L28.9542 12.124C30.0842 13.256 31.9222 13.25 33.0482 12.124L41.1721 4H36.0001C34.8941 4 34.0001 3.104 34.0001 2C34.0001 0.896 34.8941 0 36.0001 0H44C46.206 0 48 1.794 48 4ZM6.00044 30V46C6.00044 47.106 5.10445 48 4.00046 48C2.89647 48 2.00048 47.106 2.00048 46V30C2.00048 28.894 2.89647 28 4.00046 28C5.10445 28 6.00044 28.894 6.00044 30ZM16.0003 21V46C16.0003 47.106 15.1043 48 14.0004 48C12.8964 48 12.0004 47.106 12.0004 46V21C12.0004 19.896 12.8964 19 14.0004 19C15.1043 19 16.0003 19.896 16.0003 21ZM24.0002 26C22.8963 26 22.0003 25.104 22.0003 24V20C22.0003 18.896 22.8963 18 24.0002 18C25.1042 18 26.0002 18.896 26.0002 20V24C26.0002 25.104 25.1042 26 24.0002 26Z" fill="#2078BA"/>
</svg>
