<svg width="48" height="48" viewBox="0 0 48 48" fill="none" xmlns="http://www.w3.org/2000/svg">
<path d="M31.6498 13.3222H33.9315C36.0133 13.3222 37.9285 11.8883 38.245 9.83743C38.4948 8.28679 37.8619 6.8862 36.796 5.98583C37.2291 5.33556 37.4789 4.5519 37.4622 3.71822C37.3956 1.60067 35.5136 0 33.3985 0H31.6331C30.7172 0 29.9677 0.750313 29.9677 1.66736V11.6715C29.9677 12.5886 30.7172 13.3389 31.6331 13.3389L31.6498 13.3222ZM32.6491 2.6511H33.6483C34.2979 2.6511 34.8142 3.16799 34.8142 3.81826C34.8142 4.46853 34.2979 4.98541 33.6483 4.98541H32.6491V2.6511ZM32.6491 7.65319H34.148C34.9807 7.65319 35.6469 8.32013 35.6469 9.15381C35.6469 9.98749 34.9807 10.6544 34.148 10.6544H32.6491V7.65319ZM2.9708 18.3243C3.58701 18.3243 4.1033 17.9075 4.23654 17.3072L4.51966 15.99H8.48343L8.7499 17.2739C8.88314 17.8908 9.41608 18.3243 10.0489 18.3243C10.8983 18.3243 11.5312 17.5406 11.348 16.7236L9.44939 7.70321C9.21623 6.58608 8.58335 5.6857 7.73398 5.26886C7.35092 5.08545 6.93456 4.98541 6.53485 4.98541C6.06853 4.98541 5.6022 5.1188 5.16919 5.35223C4.38643 5.81909 3.82018 6.65277 3.62032 7.61984L1.6884 16.757C1.52186 17.5573 2.13807 18.3243 2.95414 18.3243H2.9708ZM6.25173 8.1534C6.30169 7.90329 6.43493 7.73656 6.55151 7.65319H6.58482C6.58482 7.65319 6.78467 7.85327 6.86794 8.25344L7.93383 13.3222H5.11922L6.26838 8.1534H6.25173ZM38.0118 15.8566L1.37197 22.5261C0.472626 22.6928 -0.126936 23.5598 0.0229548 24.4602C0.172845 25.2605 0.872333 25.8274 1.65509 25.8274C1.75502 25.8274 17.76 22.9262 17.76 22.9262L13.4964 34.8812C13.1134 36.1984 13.3632 37.599 14.146 38.6494C14.7955 39.5165 15.7448 40 16.7607 40H23.2226C24.2386 40 25.1879 39.4998 25.8374 38.6494C26.6202 37.599 26.87 36.1984 26.4536 34.7812L21.9569 22.1759L38.628 19.1413C39.5274 18.9746 40.1269 18.1075 39.977 17.2072C39.8105 16.3068 38.9445 15.7065 38.0451 15.8566H38.0118ZM23.2226 36.6653H16.8606C16.7607 36.6319 16.5775 36.2484 16.6774 35.8983L19.9917 26.6111L23.2893 35.7982C23.4225 36.2484 23.2226 36.6153 23.2393 36.6653H23.2226Z" fill="#2078BA"/>
</svg>
