<svg width="48" height="48" viewBox="0 0 48 48" fill="none" xmlns="http://www.w3.org/2000/svg">
<g clip-path="url(#clip0_72_3939)">
<path d="M47.274 8.56399L41.436 2.72399C40.468 1.75599 38.9 1.75599 37.932 2.72399C35.964 4.68999 35.512 7.59399 36.548 10.008C34.166 10.054 32.046 11.486 31.128 13.69L28.182 20.762L20.874 10.28C19.004 7.59999 15.938 5.99799 12.67 5.99799H11.998C8.69005 5.99799 5.99805 8.68999 5.99805 11.998V22.282C2.55605 23.176 -0.00195312 26.28 -0.00195312 29.998V33.998C-0.00195312 35.472 0.808047 36.748 1.99805 37.442V38.998C1.99805 42.858 5.13805 45.998 8.99805 45.998C12.858 45.998 15.998 42.858 15.998 38.998V37.998H19.998V38.998C19.998 42.858 23.138 45.998 26.998 45.998C30.858 45.998 33.998 42.858 33.998 38.998V37.442C35.188 36.748 35.998 35.472 35.998 33.998V29.998C35.998 26.896 34.206 24.232 31.62 22.904L34.818 15.228C35.13 14.48 35.856 13.998 36.664 13.998H42.602C44.294 13.998 45.986 13.354 47.274 12.066C48.242 11.098 48.242 9.53199 47.274 8.56399ZM12 9.99999H12.672C14.632 9.99999 16.472 10.96 17.594 12.57L24.168 22H10V12C10 10.896 10.896 9.99999 12 9.99999ZM12 39C12 40.654 10.654 42 9.00005 42C7.34605 42 6.00005 40.654 6.00005 39V38H12V39ZM27 42C25.346 42 24 40.654 24 39V38H30V39C30 40.654 28.654 42 27 42ZM32 34H4.00005V30C4.00005 27.794 5.79405 26 8.00005 26H28C30.206 26 32 27.794 32 30V34Z" fill="#2078BA"/>
</g>
<defs>
<clipPath id="clip0_72_3939">
<rect width="48" height="48" fill="white"/>
</clipPath>
</defs>
</svg>
