<svg width="48" height="48" viewBox="0 0 48 48" fill="none" xmlns="http://www.w3.org/2000/svg">
<g clip-path="url(#clip0_72_3941)">
<path d="M38 32C39.106 32 40 32.894 40 34V38C40 39.106 39.106 40 38 40H34C32.894 40 32 39.106 32 38C32 36.894 32.894 36 34 36H36V34C36 32.894 36.894 32 38 32ZM24 22V19.656C24 16.986 25.042 14.474 26.93 12.586L37.758 1.75799C40.098 -0.582009 43.902 -0.582009 46.242 1.75799C48.582 4.09799 48.582 7.90199 46.242 10.242L35.414 21.07C33.526 22.958 31.014 24 28.344 24H26C24.894 24 24 23.106 24 22ZM28 20C29.692 20.072 31.388 19.45 32.586 18.242L43.414 7.41399C44.194 6.63399 44.194 5.36599 43.414 4.58599C42.634 3.80599 41.368 3.80399 40.586 4.58599L29.758 15.414C28.55 16.612 27.928 18.308 28 20ZM48 19V38C48 43.514 43.514 48 38 48H10C4.486 48 0 43.514 0 38V20C0 14.486 4.486 9.99999 10 9.99999H20C21.106 9.99999 22 10.894 22 12C22 13.106 21.106 14 20 14H12V44H38C41.308 44 44 41.308 44 38V19C44 17.894 44.894 17 46 17C47.106 17 48 17.894 48 19ZM8 14.368C5.678 15.196 4 17.396 4 20V38C4 40.604 5.678 42.804 8 43.632V14.368ZM18 26C19.106 26 20 25.106 20 24V20C20 18.894 19.106 18 18 18C16.894 18 16 18.894 16 20V24C16 25.106 16.894 26 18 26ZM20 36V34C20 32.894 19.106 32 18 32C16.894 32 16 32.894 16 34V38C16 39.106 16.894 40 18 40H22C23.106 40 24 39.106 24 38C24 36.894 23.106 36 22 36H20Z" fill="#2078BA"/>
</g>
<defs>
<clipPath id="clip0_72_3941">
<rect width="48" height="48" fill="white"/>
</clipPath>
</defs>
</svg>
