<svg width="48" height="48" viewBox="0 0 48 48" fill="none" xmlns="http://www.w3.org/2000/svg">
<g clip-path="url(#clip0_72_3942)">
<path d="M48 14C48 14 48 13.98 48 13.96C47.96 10.82 46.72 7.87999 44.5 5.65999L39.42 0.579995C38.64 -0.200005 37.38 -0.200005 36.6 0.579995C35.82 1.36 35.82 2.62 36.6 3.4L40.02 6.81999V12C40.02 14.2 41.82 16 44.02 16V36C44.02 37.1 43.12 38 42.02 38C40.92 38 40.02 37.1 40.02 36V34C40.02 30.7 37.32 28 34.02 28H32.02V9.99999C32.02 4.47999 27.54 -4.88805e-06 22.02 -4.88805e-06H10.02C4.48 -4.88805e-06 0 4.47999 0 9.99999V38C0 43.52 4.48 48 10 48H22C27.52 48 32 43.52 32 38V32H34C35.1 32 36 32.9 36 34V36C36 39.3 38.7 42 42 42C45.3 42 48 39.3 48 36C48 35.8 48 14.18 48 14ZM28 38C28 41.3 25.3 44 22 44H10C6.7 44 4 41.3 4 38V22H6.88C6.34 23.28 6 24.62 6 26C6 30.82 9.44 34.86 14 35.8V38C14 39.1 14.9 40 16 40C17.1 40 18 39.1 18 38V35.8C22.56 34.88 26 30.84 26 26C26 24.62 25.66 23.28 25.12 22H28V38ZM16 24C14.9 24 14 24.9 14 26V31.64C11.68 30.82 10 28.62 10 26C10 22.74 13.24 19.18 15.18 17.34C15.42 17.12 15.7 17.02 16 17.02C16.3 17.02 16.58 17.12 16.82 17.34C18.76 19.18 22 22.74 22 26C22 28.6 20.32 30.8 18 31.64V26C18 24.9 17.1 24 16 24ZM28 18H22.8C21.78 16.66 20.64 15.44 19.58 14.44C17.58 12.54 14.44 12.54 12.44 14.44C11.38 15.44 10.24 16.66 9.22 18H4.02V9.99999C4.02 6.7 6.72 3.99999 10.02 3.99999H22.02C25.32 3.99999 28.02 6.7 28.02 9.99999V18H28Z" fill="#2078BA"/>
</g>
<defs>
<clipPath id="clip0_72_3942">
<rect width="48" height="48" fill="white"/>
</clipPath>
</defs>
</svg>
