<svg width="48" height="48" viewBox="0 0 48 48" fill="none" xmlns="http://www.w3.org/2000/svg">
<g clip-path="url(#clip0_72_3943)">
<path d="M36.4022 18.858L37.3102 17.11C38.0562 15.67 38.1922 14.032 37.6922 12.49C37.1922 10.948 36.1182 9.70198 34.7442 9.01798L22.4262 2.18398C14.5342 -1.91802 8.60423 0.685982 5.77423 2.60198C4.58023 3.40798 3.92023 4.74598 4.00823 6.17998C4.09423 7.59598 4.90023 8.82798 6.16023 9.47998L14.2082 13.816L0.628231 39.33C-0.817769 42.24 0.350231 45.824 3.23423 47.324C4.10223 47.776 5.04423 48.002 5.99223 48.002C6.61823 48.002 7.24823 47.904 7.86223 47.704C9.40423 47.2 10.6522 46.122 11.3462 44.72L24.7602 19.502L28.3542 21.438C29.2202 21.88 30.1462 22.09 31.0622 22.09C33.2342 22.09 35.3382 20.908 36.4042 18.86L36.4022 18.858ZM7.78823 42.89C7.54823 43.374 7.13423 43.732 6.62023 43.9C6.10423 44.068 5.55823 44.024 5.07823 43.774C4.11823 43.276 3.72823 42.08 4.18423 41.16L17.7302 15.714L21.2382 17.604L7.78823 42.89ZM33.7602 15.266L32.8542 17.014C32.3482 17.984 31.1402 18.37 30.2122 17.892L8.04023 5.94998C8.02823 5.94398 8.03023 5.91998 8.01623 5.91398C9.50423 4.90598 11.5682 3.99798 14.1542 3.99798C16.0162 3.99798 18.1482 4.46798 20.5342 5.70598L32.8802 12.554C33.3622 12.796 33.7202 13.21 33.8882 13.724C34.0542 14.238 34.0102 14.784 33.7602 15.266ZM48.0002 12C48.0002 13.106 47.1062 14 46.0002 14H44.0002C42.8942 14 42.0002 13.106 42.0002 12C42.0002 10.894 42.8942 9.99998 44.0002 9.99998H46.0002C47.1062 9.99998 48.0002 10.894 48.0002 12ZM40.1062 26.768C40.7882 27.638 40.6362 28.892 39.7642 29.574C39.3982 29.862 38.9662 30 38.5342 30C37.9402 30 37.3522 29.736 36.9582 29.232L35.3922 27.232C34.7102 26.362 34.8622 25.108 35.7342 24.426C36.6022 23.742 37.8582 23.896 38.5402 24.768L40.1062 26.768ZM45.9822 21.982C45.6142 22.632 44.9382 23 44.2382 23C43.9062 23 43.5682 22.918 43.2582 22.742L41.4822 21.742C40.5222 21.2 40.1802 19.98 40.7222 19.018C41.2642 18.06 42.4822 17.712 43.4462 18.258L45.2222 19.258C46.1822 19.8 46.5242 21.02 45.9822 21.982Z" fill="#2078BA"/>
</g>
<defs>
<clipPath id="clip0_72_3943">
<rect width="48" height="48" fill="white"/>
</clipPath>
</defs>
</svg>
