<svg width="48" height="48" viewBox="0 0 48 48" fill="none" xmlns="http://www.w3.org/2000/svg">
<g clip-path="url(#clip0_72_4028)">
<path d="M46.04 17.58C44.86 16.5 43.32 15.96 41.7 16.02C40.1 16.1 38.62 16.8 37.52 17.98L31.08 25.04C29.98 23.22 27.98 22 25.7 22H8C3.58 22 0 25.58 0 30V40C0 44.42 3.58 48 8 48H17.92C23.62 48 29.06 45.56 32.86 41.3L46.48 26.02C48.66 23.56 48.46 19.78 46.04 17.56V17.58ZM43.5 23.38L29.88 38.66C26.84 42.06 22.5 44.02 17.94 44.02H8C5.8 44.02 4 42.22 4 40.02V30.02C4 27.82 5.8 26.02 8 26.02H25.72C26.98 26.02 28 27.04 28 28.3C28 29.42 27.16 30.4 26.04 30.56L15.72 32.04C14.62 32.2 13.86 33.2 14.02 34.3C14.18 35.4 15.2 36.16 16.28 36L26.6 34.52C28.96 34.18 30.86 32.54 31.62 30.4L40.48 20.68C40.84 20.28 41.34 20.04 41.88 20.02C42.42 20.02 42.94 20.18 43.34 20.54C44.16 21.28 44.22 22.56 43.48 23.38H43.5Z" fill="#2078BA"/>
<path d="M17.9999 20H18.7599C21.6599 20 23.9999 17.64 23.9999 14.76C23.9999 12.18 22.1599 9.99998 19.6199 9.57998L13.0599 8.47998C12.4599 8.37998 12.0199 7.85998 12.0199 7.23998C12.0199 6.55998 12.5799 5.99998 13.2599 5.99998H18.5399C19.2599 5.99998 19.9199 6.37998 20.2799 6.99998C20.8199 7.95998 22.0399 8.27998 23.0199 7.71998C23.9799 7.15998 24.2999 5.93998 23.7399 4.97998C22.6799 3.13998 20.6799 1.97998 18.5399 1.97998H17.9999C17.9999 0.87998 17.0999 -0.0200195 15.9999 -0.0200195C14.8999 -0.0200195 13.9999 0.87998 13.9999 1.97998H13.2399C10.3399 1.97998 7.99993 4.33998 7.99993 7.21998C7.99993 9.79998 9.83993 11.98 12.3799 12.4L18.9399 13.5C19.5399 13.6 19.9799 14.12 19.9799 14.74C19.9799 15.42 19.4199 15.98 18.7399 15.98H13.4599C12.7399 15.98 12.0799 15.6 11.7199 14.98C11.1599 14.02 9.93993 13.7 8.97993 14.26C8.01993 14.82 7.69993 16.04 8.25993 17C9.31993 18.84 11.3199 20 13.4599 20H13.9999C13.9999 21.1 14.8999 22 15.9999 22C17.0999 22 17.9999 21.1 17.9999 20Z" fill="#2078BA"/>
</g>
<defs>
<clipPath id="clip0_72_4028">
<rect width="48" height="48" fill="white"/>
</clipPath>
</defs>
</svg>
