<svg width="48" height="48" viewBox="0 0 48 48" fill="none" xmlns="http://www.w3.org/2000/svg">
<path d="M45.9981 36.0007H37.6244C37.1405 36.0007 36.6645 36.0807 36.1985 36.1947L25.7709 26.8993L28.0388 24.8074C28.5908 24.2874 29.3148 23.9995 30.0767 23.9995C30.7487 23.9995 32.5206 24.6454 34.0926 25.3314C35.1005 25.7714 36.1885 25.9993 37.2884 25.9993H46.0001C47.104 25.9993 48 25.1034 48 23.9995C48 22.8955 47.104 21.9996 46.0001 21.9996H36.4625C35.6505 21.6116 34.0746 20.9037 32.5246 20.4417C35.2605 17.6798 36.6665 13.6001 35.6925 9.23636C34.6986 4.78863 31.0787 1.21885 26.6189 0.276907C18.8492 -1.36499 12.0035 4.51865 12.0035 12.0002C12.0035 15.294 13.3334 18.2758 15.4814 20.4457C13.9254 20.9077 12.3515 21.6136 11.5415 21.9996H1.99992C0.895963 21.9996 0 22.8955 0 23.9995C0 25.1034 0.895963 25.9993 1.99992 25.9993H10.7136C11.8215 25.9993 12.9135 25.7654 13.9294 25.3234C15.4154 24.6774 17.2293 23.9995 17.9993 23.9995C18.7412 23.9995 19.4532 24.2754 20.0012 24.7754L21.0931 25.7694L16.9553 29.5851C15.8313 30.7091 15.6713 32.4349 16.5773 33.6949C17.1213 34.4508 17.9653 34.9268 18.8892 34.9988C18.9732 35.0048 19.0572 35.0088 19.1432 35.0088C19.9772 35.0088 20.7711 34.6828 21.3171 34.1348L24.525 31.149L32.5766 38.3266L26.3429 43.1923C25.009 44.2342 22.985 44.2322 21.6511 43.1923L14.0634 37.2707C13.0155 36.4507 11.7035 36.0007 10.3716 36.0007H1.99992C0.895963 36.0007 0 36.8967 0 38.0006C0 39.1045 0.895963 40.0005 1.99992 40.0005H10.3736C10.8175 40.0005 11.2535 40.1505 11.6035 40.4225L19.1912 46.3461C20.5591 47.412 22.2651 48 23.997 48C25.7289 48 27.4369 47.414 28.8028 46.3461L36.3905 40.4245C36.7405 40.1525 37.1785 40.0025 37.6204 40.0025H45.9941C47.098 40.0025 47.994 39.1065 47.994 38.0026C47.994 36.8987 47.098 36.0027 45.9941 36.0027L45.9981 36.0007ZM17.9972 17.9358C17.1613 16.9279 17.8713 15.404 19.1812 15.404C19.6352 15.404 20.2012 15.618 20.5091 15.952C20.7651 16.2299 21.1331 16.4039 21.5391 16.4039H26.2069C26.7629 16.4039 27.2709 16.0299 27.3789 15.484C27.5049 14.848 27.0869 14.2541 26.4769 14.1301L20.8951 13.0121C18.6712 12.5662 17.1193 10.4503 17.4453 8.13443C17.7493 5.97456 19.6612 4.40266 21.8431 4.40266H22.4031V3.6027C22.4031 2.71876 23.119 2.0028 24.003 2.0028C24.887 2.0028 25.6029 2.71876 25.6029 3.6027V4.40266H26.4129C27.8348 4.40266 29.1088 5.05062 29.9528 6.06855C30.7887 7.07649 30.0787 8.6004 28.7688 8.6004C28.3148 8.6004 27.7488 8.38641 27.4409 8.05243C27.1849 7.77445 26.8169 7.60046 26.4109 7.60046H21.7971C21.2411 7.60046 20.7331 7.97244 20.6231 8.51641C20.4951 9.15237 20.9151 9.75033 21.5211 9.87232L27.1049 10.9903C29.3288 11.4342 30.8827 13.5541 30.5547 15.868C30.2487 18.0278 28.3388 19.5977 26.1569 19.5977H25.5969V20.3977C25.5969 21.2816 24.881 21.9976 23.997 21.9976C23.113 21.9976 22.3971 21.2816 22.3971 20.3977V19.5977H21.5351C20.1132 19.5977 18.8392 18.9478 17.9953 17.9318L17.9972 17.9358Z" fill="#2078BA"/>
</svg>
