<svg width="48" height="48" viewBox="0 0 48 48" fill="none" xmlns="http://www.w3.org/2000/svg">
<path d="M46 32V25.84C46 16.372 39.634 8.004 30.44 5.254C28.982 3.282 26.638 2 24 2C21.362 2 19.018 3.282 17.56 5.254C8.364 8.004 2 16.372 2 25.84V32C0.896 32 0 32.894 0 34C0 35.106 0.896 36 2 36H2.95C4.954 38.696 11.536 46 24 46C36.464 46 43.044 38.696 45.05 36H46C47.106 36 48 35.106 48 34C48 32.894 47.106 32 46 32ZM42 25.84V32H32V10.138C38.022 13.052 42 19.106 42 25.84ZM24 6C26.206 6 28 7.79 28 9.988V32H20V9.988C20 7.788 21.794 6 24 6ZM16 10.138V32H6V25.84C6 19.106 9.976 13.052 16 10.138ZM8.282 36H39.69C36.912 38.624 31.818 42 24 42C16.122 42 11.042 38.626 8.282 36Z" fill="#2078BA"/>
</svg>
