<svg width="48" height="48" viewBox="0 0 48 48" fill="none" xmlns="http://www.w3.org/2000/svg">
<g clip-path="url(#clip0_72_4040)">
<path d="M24 10.9996C24 9.34362 25.344 7.99962 27 7.99962C28.656 7.99962 30 9.34362 30 10.9996C30 12.6556 28.656 13.9996 27 13.9996C25.344 13.9996 24 12.6556 24 10.9996ZM1.236 13.8236C-0.316 12.2696 -0.32 9.73762 1.224 8.17962L4.022 5.35562C4.588 4.78562 5.342 4.46962 6.146 4.46762H6.154C6.952 4.46762 7.706 4.77962 8.274 5.34362L8.97 6.03762L9.696 5.32162C10.87 4.16562 12.766 4.17562 13.924 5.33562L14.928 6.24162L15.356 5.81562C17.61 2.05562 20.75 0.0996212 24.694 0.0036212C29.56 -0.120379 34.014 2.95162 35.444 7.46162C36.554 10.9636 35.984 14.6196 33.88 17.4916C31.814 20.3156 28.496 21.9996 25.002 21.9996C21.698 21.9996 18.602 20.5216 16.52 17.9996H7.898C6.294 17.9996 4.788 17.3756 3.656 16.2436L1.236 13.8236ZM4.064 10.9956L6.484 13.4136C6.86 13.7896 7.362 13.9976 7.898 13.9976H17.52C18.188 13.9976 18.812 14.3316 19.182 14.8836C20.486 16.8336 22.662 17.9976 25 17.9976C27.222 17.9976 29.336 16.9236 30.652 15.1276C31.994 13.2956 32.35 10.9416 31.63 8.66962C30.75 5.88962 27.882 3.97162 24.79 4.00162C22.182 4.06562 20.242 5.35362 18.678 8.05162C18.592 8.20362 16.412 10.4136 16.412 10.4136C15.66 11.1656 14.446 11.1976 13.658 10.4836L11.83 8.83362L10.362 10.2816C9.582 11.0556 8.32 11.0516 7.544 10.2716L6.156 8.88562L4.064 10.9956ZM46.472 28.0276L34.644 41.3036C30.854 45.5596 25.412 47.9996 19.71 47.9996H8C3.588 47.9996 0 44.4116 0 39.9996V31.9996C0 27.5876 3.588 23.9996 8 23.9996H25.714C27.992 23.9996 29.992 25.2176 31.092 27.0376L37.526 19.9696C39.648 17.5276 43.7 17.3416 46.034 19.5716C48.46 21.7836 48.658 25.5776 46.472 28.0296V28.0276ZM43.34 22.5276C42.554 21.7916 41.196 21.8376 40.486 22.6596L31.632 32.3896C30.86 34.5296 28.954 36.1696 26.604 36.5056L16.282 37.9796C15.186 38.1316 14.174 37.3756 14.018 36.2836C13.862 35.1896 14.622 34.1776 15.716 34.0216L26.038 32.5476C27.156 32.3876 27.998 31.4156 27.998 30.2856C27.998 29.0256 26.972 28.0016 25.712 28.0016H8C5.794 28.0016 4 29.7956 4 32.0016V40.0016C4 42.2076 5.794 44.0016 8 44.0016H19.71C24.27 44.0016 28.624 42.0496 31.656 38.6456L43.486 25.3676C44.22 24.5436 44.154 23.2716 43.34 22.5296V22.5276Z" fill="#2078BA"/>
</g>
<defs>
<clipPath id="clip0_72_4040">
<rect width="48" height="48" fill="white"/>
</clipPath>
</defs>
</svg>
