<svg width="48" height="48" viewBox="0 0 48 48" fill="none" xmlns="http://www.w3.org/2000/svg">
<g clip-path="url(#clip0_72_4029)">
<path d="M46.242 18.138L31.072 2.96598C29.1945 1.09396 26.6514 0.0427246 24 0.0427246C21.3487 0.0427246 18.8055 1.09396 16.928 2.96598L1.75802 18.138C1.19888 18.6935 0.755564 19.3546 0.453789 20.0827C0.152014 20.8109 -0.0022208 21.5918 2.4159e-05 22.38V42.014C2.4159e-05 43.6053 0.632165 45.1314 1.75738 46.2566C2.8826 47.3818 4.40873 48.014 6.00003 48.014H42C43.5913 48.014 45.1175 47.3818 46.2427 46.2566C47.3679 45.1314 48 43.6053 48 42.014V22.38C48.0023 21.5918 47.848 20.8109 47.5463 20.0827C47.2445 19.3546 46.8012 18.6935 46.242 18.138ZM30 44.014H18V36.146C18 34.5547 18.6322 33.0286 19.7574 31.9033C20.8826 30.7781 22.4087 30.146 24 30.146C25.5913 30.146 27.1175 30.7781 28.2427 31.9033C29.3679 33.0286 30 34.5547 30 36.146V44.014ZM44 42.014C44 42.5444 43.7893 43.0531 43.4142 43.4282C43.0392 43.8033 42.5305 44.014 42 44.014H34V36.146C34 33.4938 32.9465 30.9503 31.0711 29.0749C29.1957 27.1995 26.6522 26.146 24 26.146C21.3479 26.146 18.8043 27.1995 16.929 29.0749C15.0536 30.9503 14 33.4938 14 36.146V44.014H6.00003C5.46959 44.014 4.96088 43.8033 4.58581 43.4282C4.21074 43.0531 4.00002 42.5444 4.00002 42.014V22.38C4.00188 21.8499 4.2124 21.3419 4.58602 20.966L19.756 5.79998C20.8834 4.67783 22.4094 4.04786 24 4.04786C25.5907 4.04786 27.1166 4.67783 28.244 5.79998L43.414 20.972C43.7862 21.3465 43.9966 21.852 44 22.38V42.014Z" fill="#2078BA"/>
</g>
<defs>
<clipPath id="clip0_72_4029">
<rect width="48" height="48" fill="white"/>
</clipPath>
</defs>
</svg>
