<svg width="48" height="48" viewBox="0 0 48 48" fill="none" xmlns="http://www.w3.org/2000/svg">
<g clip-path="url(#clip0_72_4067)">
<path d="M40 12.202V10C40 4.486 35.514 0 30 0H18C12.486 0 8 4.486 8 10V12.202C3.442 13.132 0 17.172 0 22V38C0 43.514 4.486 48 10 48H38C43.514 48 48 43.514 48 38V22C48 17.172 44.558 13.13 40 12.202ZM4 38V22C4 19.392 5.672 17.17 8 16.344V43.656C5.672 42.83 4 40.608 4 38ZM12 10C12 6.692 14.692 4 18 4H30C33.308 4 36 6.692 36 10V44H12V10ZM44 38C44 40.608 42.328 42.83 40 43.656V16.344C42.328 17.17 44 19.392 44 22V38ZM22 28C22 29.104 21.106 30 20 30H18C16.894 30 16 29.104 16 28C16 26.896 16.894 26 18 26H20C21.106 26 22 26.896 22 28ZM32 28C32 29.104 31.106 30 30 30H28C26.894 30 26 29.104 26 28C26 26.896 26.894 26 28 26H30C31.106 26 32 26.896 32 28ZM22 36C22 37.104 21.106 38 20 38H18C16.894 38 16 37.104 16 36C16 34.896 16.894 34 18 34H20C21.106 34 22 34.896 22 36ZM32 36C32 37.104 31.106 38 30 38H28C26.894 38 26 37.104 26 36C26 34.896 26.894 34 28 34H30C31.106 34 32 34.896 32 36ZM26 18C26 19.104 25.106 20 24 20C22.894 20 22 19.104 22 18V16H20C18.894 16 18 15.104 18 14C18 12.896 18.894 12 20 12H22V10C22 8.896 22.894 8 24 8C25.106 8 26 8.896 26 10V12H28C29.106 12 30 12.896 30 14C30 15.104 29.106 16 28 16H26V18Z" fill="#2078BA"/>
</g>
<defs>
<clipPath id="clip0_72_4067">
<rect width="48" height="48" fill="white"/>
</clipPath>
</defs>
</svg>
