<svg width="48" height="48" viewBox="0 0 48 48" fill="none" xmlns="http://www.w3.org/2000/svg">
<g clip-path="url(#clip0_72_3945)">
<path d="M48 10V38C48 43.514 43.514 48 38 48H10C4.486 48 0 43.514 0 38V10C0 4.486 4.486 0 10 0H12C13.106 0 14 0.896 14 2C14 3.104 13.106 4 12 4H10C6.692 4 4 6.692 4 10V38C4 41.308 6.692 44 10 44H22V26H14C12.894 26 12 25.106 12 24C12 22.894 12.894 22 14 22H34C35.106 22 36 22.894 36 24C36 25.106 35.106 26 34 26H26V44H38C41.308 44 44 41.308 44 38V10C44 6.692 41.308 4 38 4H28C26.896 4 26 4.896 26 6V12C26 13.106 25.106 14 24 14C22.894 14 22 13.106 22 12V6C22 2.692 24.692 0 28 0H38C43.514 0 48 4.486 48 10Z" fill="#2078BA"/>
</g>
<defs>
<clipPath id="clip0_72_3945">
<rect width="48" height="48" fill="white"/>
</clipPath>
</defs>
</svg>
