<svg width="48" height="48" viewBox="0 0 48 48" fill="none" xmlns="http://www.w3.org/2000/svg">
<g clip-path="url(#clip0_72_3997)">
<path d="M28 20H20C17.794 20 16 21.794 16 24V32C16 34.206 17.794 36 20 36H28C30.206 36 32 34.206 32 32V24C32 21.794 30.206 20 28 20ZM20 32V24H28V32H20ZM44 11.448V4.00003C44 2.89403 43.104 2.00003 42 2.00003C40.896 2.00003 40 2.89403 40 4.00003V8.73403L29.594 1.71003C26.196 -0.581972 21.804 -0.581972 18.406 1.71003L4.408 11.158C1.648 13.02 0 16.116 0 19.448V38C0 43.514 4.486 48 10 48H38C43.514 48 48 43.514 48 38V19.448C48 16.286 46.512 13.33 44 11.448ZM44 38C44 41.308 41.308 44 38 44H10C6.692 44 4 41.308 4 38V19.448C4 17.45 4.988 15.592 6.644 14.476L20.644 5.02803C21.664 4.33803 22.832 3.99403 24 3.99403C25.168 3.99403 26.336 4.33803 27.356 5.02803L41.356 14.476C43.012 15.594 44 17.45 44 19.448V38Z" fill="#2078BA"/>
</g>
<defs>
<clipPath id="clip0_72_3997">
<rect width="48" height="48" fill="white"/>
</clipPath>
</defs>
</svg>
