<svg width="50" height="50" viewBox="0 0 50 50" fill="none" xmlns="http://www.w3.org/2000/svg">
<g clip-path="url(#clip0_72_4057)">
<path d="M35.4167 20.8333C27.3771 20.8333 20.8333 27.3771 20.8333 35.4166C20.8333 43.4562 27.3771 50 35.4167 50C43.4562 50 50 43.4562 50 35.4166C50 27.3771 43.4562 20.8333 35.4167 20.8333ZM35.4167 45.8333C29.6729 45.8333 25 41.1604 25 35.4166C25 29.6729 29.6729 25 35.4167 25C41.1604 25 45.8333 29.6729 45.8333 35.4166C45.8333 41.1604 41.1604 45.8333 35.4167 45.8333ZM33.3333 33.3333V29.1666C33.3333 28.0146 34.2646 27.0833 35.4167 27.0833C36.5687 27.0833 37.5 28.0146 37.5 29.1666V33.3333C37.5 34.4854 36.5687 35.4166 35.4167 35.4166C34.2646 35.4166 33.3333 34.4854 33.3333 33.3333ZM38.5417 40.625C38.5417 42.35 37.1417 43.75 35.4167 43.75C33.6917 43.75 32.2917 42.35 32.2917 40.625C32.2917 38.9 33.6917 37.5 35.4167 37.5C37.1417 37.5 38.5417 38.9 38.5417 40.625ZM20.8333 47.9166C20.8333 49.0687 19.9 50 18.75 50H10.4167C4.67292 50 0 45.3271 0 39.5833V20.2583C0 16.7896 1.71667 13.5625 4.59167 11.6229L19.1729 1.78123C22.7125 -0.606274 27.2875 -0.606274 30.8271 1.78123L45.8333 11.975C47.8958 13.5333 49.3583 15.8166 49.8292 18.3708C50.0396 19.5021 49.2896 20.5875 48.1583 20.7979C47.0312 21.0125 45.9396 20.2583 45.7312 19.1271C45.4271 17.4854 44.4625 16.0083 43.0812 15.0771L28.4958 5.23539C26.3708 3.79998 23.6292 3.79998 21.5062 5.23539L6.92083 15.0771C5.19583 16.2416 4.16667 18.175 4.16667 20.2562V39.5812C4.16667 43.0271 6.97083 45.8312 10.4167 45.8312H18.75C19.9 45.8312 20.8333 46.7646 20.8333 47.9166Z" fill="#2078BA"/>
</g>
<defs>
<clipPath id="clip0_72_4057">
<rect width="50" height="50" fill="white"/>
</clipPath>
</defs>
</svg>
