<svg width="48" height="48" viewBox="0 0 48 48" fill="none" xmlns="http://www.w3.org/2000/svg">
<path d="M45.94 12.502C44.666 11.794 43.11 11.84 41.74 12.704L32 20.002V16C32 14.546 31.21 13.206 29.94 12.502C28.666 11.794 27.108 11.84 25.74 12.704L16 20.002V4C17.106 4 18 3.104 18 2C18 0.896 17.106 0 16 0H2C0.894 0 0 0.896 0 2C0 3.104 0.894 4 2 4V38C2 43.514 6.486 48 12 48H38C43.514 48 48 43.514 48 38V16C48 14.546 47.21 13.206 45.94 12.502ZM44 38C44 41.308 41.308 44 38 44H12C8.692 44 6 41.308 6 38V4H12V23.982C12 23.996 12 24.01 12 24.022V36C12 37.104 12.894 38 14 38C15.106 38 16 37.104 16 36V25L28 16V24C28 24.758 28.428 25.45 29.106 25.79C29.784 26.13 30.592 26.058 31.2 25.602L44 16.002V38ZM28 34V36C28 37.104 27.104 38 26 38H24C22.896 38 22 37.104 22 36V34C22 32.896 22.896 32 24 32H26C27.104 32 28 32.896 28 34ZM32 36V34C32 32.896 32.896 32 34 32H36C37.104 32 38 32.896 38 34V36C38 37.104 37.104 38 36 38H34C32.896 38 32 37.104 32 36Z" fill="#2078BA"/>
</svg>
