<svg width="48" height="48" viewBox="0 0 48 48" fill="none" xmlns="http://www.w3.org/2000/svg">
<g clip-path="url(#clip0_72_4070)">
<path d="M29.0046 23.972C29.0046 26.834 26.6846 29.154 23.8226 29.154C20.9606 29.154 18.6426 26.834 18.6426 23.972C18.6426 21.11 20.9626 18.79 23.8226 18.79C26.6826 18.79 29.0046 21.11 29.0046 23.972Z" fill="#2078BA"/>
<path d="M24 0C10.746 0 0 10.746 0 24C0 37.254 10.746 48 24 48C37.254 48 48 37.254 48 24C48 10.746 37.254 0 24 0ZM39.274 30.38C39.2 32.034 38.936 33.164 38.552 34.152C38.154 35.174 37.622 36.042 36.758 36.906C35.894 37.77 35.026 38.302 34.006 38.698C33.018 39.082 31.886 39.344 30.232 39.42C28.574 39.496 28.044 39.514 23.822 39.514C19.6 39.514 19.072 39.496 17.414 39.42C15.76 39.344 14.63 39.082 13.64 38.698C12.618 38.302 11.752 37.768 10.886 36.906C10.022 36.042 9.49 35.174 9.092 34.152C8.708 33.164 8.446 32.034 8.37 30.38C8.294 28.722 8.276 28.192 8.276 23.97C8.276 19.748 8.294 19.22 8.37 17.562C8.446 15.908 8.708 14.778 9.092 13.788C9.49 12.766 10.022 11.9 10.886 11.036C11.75 10.172 12.618 9.64 13.64 9.242C14.628 8.858 15.76 8.596 17.414 8.52C19.072 8.444 19.602 8.426 23.822 8.426C28.042 8.426 28.574 8.444 30.232 8.52C31.886 8.594 33.016 8.858 34.006 9.242C35.028 9.638 35.894 10.172 36.758 11.036C37.622 11.9 38.154 12.768 38.552 13.788C38.936 14.776 39.198 15.908 39.274 17.562C39.35 19.22 39.368 19.748 39.368 23.97C39.368 28.192 39.35 28.72 39.274 30.38ZM35.942 14.804C35.66 14.078 35.324 13.56 34.778 13.016C34.234 12.472 33.716 12.134 32.99 11.852C32.442 11.64 31.62 11.386 30.104 11.318C28.464 11.242 27.972 11.228 23.822 11.228C19.672 11.228 19.18 11.244 17.54 11.318C16.026 11.386 15.202 11.64 14.654 11.852C13.928 12.134 13.41 12.47 12.866 13.016C12.322 13.56 11.984 14.078 11.702 14.804C11.49 15.352 11.236 16.174 11.168 17.69C11.092 19.328 11.078 19.82 11.078 23.972C11.078 28.124 11.094 28.614 11.168 30.254C11.238 31.768 11.49 32.592 11.702 33.14C11.984 33.866 12.32 34.384 12.866 34.928C13.41 35.472 13.928 35.808 14.654 36.09C15.202 36.304 16.024 36.556 17.54 36.626C19.178 36.702 19.67 36.716 23.822 36.716C27.974 36.716 28.466 36.7 30.104 36.626C31.62 36.556 32.442 36.304 32.99 36.09C33.716 35.808 34.234 35.472 34.778 34.928C35.322 34.384 35.66 33.866 35.942 33.14C36.154 32.592 36.408 31.77 36.476 30.254C36.552 28.614 36.568 28.122 36.568 23.972C36.568 19.822 36.552 19.33 36.476 17.69C36.406 16.174 36.154 15.352 35.942 14.804ZM23.824 31.952C19.416 31.952 15.842 28.378 15.842 23.97C15.842 19.562 19.416 15.988 23.824 15.988C28.232 15.988 31.806 19.562 31.806 23.97C31.806 28.378 28.232 31.952 23.824 31.952ZM32.122 17.538C31.092 17.538 30.256 16.704 30.256 15.674C30.256 14.644 31.09 13.808 32.122 13.808C33.154 13.808 33.988 14.644 33.988 15.674C33.988 16.704 33.152 17.538 32.122 17.538Z" fill="#2078BA"/>
</g>
<defs>
<clipPath id="clip0_72_4070">
<rect width="48" height="48" fill="white"/>
</clipPath>
</defs>
</svg>
