<svg width="48" height="48" viewBox="0 0 48 48" fill="none" xmlns="http://www.w3.org/2000/svg">
<g clip-path="url(#clip0_72_4016)">
<path d="M47.4137 44.586L35.4877 32.66C38.3117 29.21 40.0117 24.806 40.0117 20.012C40.0117 8.98402 31.0397 0.0120239 20.0117 0.0120239C8.98372 0.0120239 0.0117188 8.98402 0.0117188 20.012C0.0117188 31.04 8.98372 40.012 20.0117 40.012C24.8077 40.012 29.2117 38.312 32.6597 35.488L44.5857 47.414C44.9757 47.804 45.4877 48 45.9997 48C46.5117 48 47.0237 47.804 47.4137 47.414C48.1957 46.632 48.1957 45.368 47.4137 44.586ZM4.01172 20.012C4.01172 11.19 11.1897 4.01202 20.0117 4.01202C28.8337 4.01202 36.0117 11.19 36.0117 20.012C36.0117 28.834 28.8337 36.012 20.0117 36.012C11.1897 36.012 4.01172 28.834 4.01172 20.012ZM22.9997 29C22.9997 30.656 21.6557 32 19.9997 32C18.3437 32 16.9997 30.656 16.9997 29C16.9997 27.344 18.3437 26 19.9997 26C21.6557 26 22.9997 27.344 22.9997 29ZM25.9997 14C25.9997 16.25 24.7577 18.292 22.7577 19.33C22.4097 19.51 22.1497 19.904 22.0477 20.406C22.0157 20.554 22.0017 20.706 22.0017 20.86V22.002C22.0017 23.106 21.1077 24.002 20.0017 24.002C18.8957 24.002 18.0017 23.106 18.0017 22.002V20.86C18.0017 20.434 18.0437 20.008 18.1317 19.594C18.4797 17.91 19.4957 16.518 20.9177 15.78C21.5877 15.434 22.0017 14.752 22.0017 14.002C22.0017 12.9 21.1057 12.002 20.0017 12.002C18.8977 12.002 18.0017 12.9 18.0017 14.002C18.0017 15.104 17.1077 16.002 16.0017 16.002C14.8957 16.002 14.0017 15.106 14.0017 14.002C14.0017 10.694 16.6937 8.00202 20.0017 8.00202C23.3097 8.00202 26.0017 10.694 26.0017 14.002L25.9997 14Z" fill="#2078BA"/>
</g>
<defs>
<clipPath id="clip0_72_4016">
<rect width="48" height="48" fill="white"/>
</clipPath>
</defs>
</svg>
