<svg width="48" height="48" viewBox="0 0 48 48" fill="none" xmlns="http://www.w3.org/2000/svg">
<g clip-path="url(#clip0_72_3999)">
<path d="M36 31.982C36 36.112 33.916 39.902 30.424 42.118C30.158 42.286 30 42.584 30 42.918V45.998C30 47.104 29.104 47.998 28 47.998C26.896 47.998 26 47.104 26 45.998V42.918C26 41.208 26.852 39.644 28.282 38.738C30.61 37.262 32 34.734 32 31.98C32 30.02 31.282 28.15 30 26.698V27.448C30 30.762 27.944 33.414 24.998 33.898C23.24 34.174 21.464 33.696 20.12 32.554C18.772 31.41 18 29.744 18 27.98V26.698C16.718 28.148 16 30.018 16 31.98C16 34.734 17.39 37.262 19.72 38.738C21.148 39.644 22 41.206 22 42.918V45.998C22 47.104 21.104 47.998 20 47.998C18.896 47.998 18 47.104 18 45.998V42.918C18 42.584 17.842 42.286 17.576 42.118C14.084 39.902 12 36.112 12 31.982C12 28.442 13.554 25.104 16.266 22.818C17.31 21.938 18.732 21.75 19.976 22.33C21.224 22.91 22 24.122 22 25.496V27.982C22 28.568 22.258 29.124 22.708 29.508C23.164 29.894 23.75 30.056 24.348 29.954C25.32 29.794 25.998 28.766 25.998 27.452V25.494C25.998 24.12 26.774 22.908 28.022 22.328C29.264 21.752 30.688 21.94 31.73 22.818C34.442 25.104 35.998 28.444 35.998 31.984L36 31.982ZM9 6C7.344 6 6 7.344 6 9C6 10.656 7.344 12 9 12C10.656 12 12 10.656 12 9C12 7.344 10.656 6 9 6ZM17 6C15.344 6 14 7.344 14 9C14 10.656 15.344 12 17 12C18.656 12 20 10.656 20 9C20 7.344 18.656 6 17 6ZM48 10V34C48 39.514 43.514 44 38 44C36.896 44 36 43.106 36 42C36 40.894 36.896 40 38 40C41.308 40 44 37.308 44 34V18H4V34C4 37.308 6.692 40 10 40C11.104 40 12 40.894 12 42C12 43.106 11.104 44 10 44C4.486 44 0 39.514 0 34V10C0 4.486 4.486 0 10 0H38C43.514 0 48 4.486 48 10ZM44 14V10C44 6.692 41.308 4 38 4H10C6.692 4 4 6.692 4 10V14H44Z" fill="#2078BA"/>
</g>
<defs>
<clipPath id="clip0_72_3999">
<rect width="48" height="48" fill="white"/>
</clipPath>
</defs>
</svg>
