<svg width="48" height="48" viewBox="0 0 48 48" fill="none" xmlns="http://www.w3.org/2000/svg">
<g clip-path="url(#clip0_72_3924)">
<path d="M44.8211 13.18C45.3411 12.42 45.6411 11.48 45.6211 10.46C45.5411 7.94 43.2611 6 40.7411 6H38.6211C37.5011 6 36.6211 6.9 36.6211 8V20C36.6211 21.1 37.5011 22 38.6211 22H41.3611C43.8611 22 46.1611 20.28 46.5411 17.82C46.8411 15.94 46.1011 14.26 44.8211 13.18ZM39.8211 9.2H41.0211C41.7811 9.2 42.4211 9.82 42.4211 10.6C42.4211 11.38 41.7811 12 41.0211 12H39.8211V9.2ZM41.6211 18.8H39.8211V15.2H41.6211C42.6011 15.2 43.4211 16 43.4211 17C43.4211 18 42.6011 18.8 41.6211 18.8Z" fill="#2078BA"/>
<path d="M11.9799 3.26C11.6999 1.92 10.9199 0.82 9.89986 0.34C9.43986 0.12 8.93986 0 8.45986 0C7.89986 0 7.33986 0.14 6.83986 0.44C5.89986 1 5.21986 2 4.97986 3.16L2.65986 14.12C2.43986 15.08 3.15986 15.98 4.15986 16H4.17986C4.91986 16 5.51986 15.5 5.67986 14.78L6.03986 13.2H10.7999L11.1199 14.72C11.2799 15.46 11.9199 16 12.6799 16C13.6999 16 14.4599 15.06 14.2399 14.08L11.9799 3.26ZM6.73986 10L8.11986 3.8C8.17986 3.5 8.31986 3.28 8.45986 3.2H8.49986C8.49986 3.2 8.73986 3.44 8.83986 3.92L10.1199 10H6.73986Z" fill="#2078BA"/>
<path d="M0.64076 20.64C0.44076 21.74 1.16076 22.78 2.26076 22.98L22.2608 26.62L16.8608 41.74C16.3608 43.42 16.6608 45.12 17.6008 46.38C18.3808 47.42 19.5208 48 20.7208 48H28.5008C29.7008 48 30.8408 47.42 31.6208 46.38C32.5608 45.12 32.8608 43.42 32.4008 41.86L27.2808 27.52C27.2808 27.52 46.5008 31 46.6208 31C47.5608 31 48.4008 30.32 48.5808 29.36C48.7808 28.28 48.0608 27.24 46.9608 27.04L2.96076 19.04C1.88076 18.84 0.84076 19.56 0.64076 20.64ZM24.6008 31.94L28.6008 43.08C28.7208 43.5 28.4808 43.96 28.3608 44.04L20.7208 44C20.7208 44 20.5008 43.5 20.6608 42.96L24.6008 31.94Z" fill="#2078BA"/>
</g>
<defs>
<clipPath id="clip0_72_3924">
<rect width="48" height="48" fill="white"/>
</clipPath>
</defs>
</svg>
