<svg width="48" height="48" viewBox="0 0 48 48" fill="none" xmlns="http://www.w3.org/2000/svg">
<g clip-path="url(#clip0_72_4062)">
<path d="M38.9998 28C41.7618 28 43.9998 30.238 43.9998 33C43.9998 35.762 41.7618 38 38.9998 38C36.2378 38 33.9998 35.762 33.9998 33C33.9998 30.238 36.2378 28 38.9998 28ZM18.9998 33C18.9998 35.762 21.2378 38 23.9998 38C26.7618 38 28.9998 35.762 28.9998 33C28.9998 30.238 26.7618 28 23.9998 28C21.2378 28 18.9998 30.238 18.9998 33ZM8.99976 28C6.23776 28 3.99976 30.238 3.99976 33C3.99976 35.762 6.23776 38 8.99976 38C11.7618 38 13.9998 35.762 13.9998 33C13.9998 30.238 11.7618 28 8.99976 28ZM38.9998 40C36.2358 40 33.6878 41.06 31.8738 42.866C29.7958 41.042 27.0038 40 23.9998 40C20.9958 40 18.2038 41.042 16.1258 42.866C14.3118 41.06 11.7638 40 8.99976 40C5.24976 40 1.88976 41.94 0.231757 45.062C-0.286243 46.038 0.0857574 47.248 1.06176 47.768C2.03776 48.284 3.24976 47.914 3.76776 46.938C4.71376 45.152 6.76776 44 8.99976 44C11.2318 44 13.2878 45.152 14.2318 46.938C14.2498 46.972 14.7718 48 16.0018 48C17.2318 48 17.6398 47.142 17.6558 47.12C18.9558 45.196 21.3878 44 23.9998 44C26.6118 44 29.0418 45.196 30.3438 47.12C30.3638 47.15 30.8498 48 32.0018 48C33.1538 48 33.7518 46.966 33.7678 46.938C34.7138 45.152 36.7678 44 38.9998 44C41.2318 44 43.2878 45.152 44.2318 46.938C44.5918 47.616 45.2838 48 46.0018 48C46.3178 48 46.6378 47.926 46.9378 47.768C47.9138 47.248 48.2858 46.04 47.7678 45.062C46.1098 41.938 42.7498 40 38.9998 40ZM13.4698 16.758L15.4358 15.626C15.1778 14.79 14.9998 13.92 14.9998 13C14.9998 12.08 15.1778 11.21 15.4358 10.374L13.4698 9.242C12.5118 8.692 12.1818 7.468 12.7358 6.512C13.2838 5.554 14.5098 5.222 15.4658 5.778L17.4198 6.904C18.6298 5.6 20.2058 4.652 21.9978 4.242V2C21.9978 0.894 22.8918 0 23.9978 0C25.1038 0 25.9978 0.894 25.9978 2V4.242C27.7898 4.652 29.3678 5.598 30.5758 6.904L32.5298 5.778C33.4878 5.224 34.7098 5.556 35.2598 6.512C35.8118 7.47 35.4818 8.692 34.5258 9.242L32.5598 10.374C32.8178 11.21 32.9958 12.08 32.9958 13C32.9958 13.92 32.8178 14.79 32.5598 15.626L34.5258 16.758C35.4838 17.308 35.8138 18.532 35.2598 19.488C34.8898 20.13 34.2178 20.49 33.5258 20.49C33.1878 20.49 32.8438 20.404 32.5298 20.222L30.5758 19.096C29.3658 20.4 27.7898 21.348 25.9978 21.758V24C25.9978 25.106 25.1038 26 23.9978 26C22.8918 26 21.9978 25.106 21.9978 24V21.758C20.2058 21.348 18.6278 20.402 17.4198 19.096L15.4658 20.222C15.1518 20.404 14.8078 20.49 14.4698 20.49C13.7778 20.49 13.1038 20.13 12.7358 19.488C12.1838 18.53 12.5138 17.308 13.4698 16.758ZM18.9998 13C18.9998 15.758 21.2418 18 23.9998 18C26.7578 18 28.9998 15.758 28.9998 13C28.9998 10.242 26.7578 8 23.9998 8C21.2418 8 18.9998 10.242 18.9998 13ZM1.99976 28C3.10576 28 3.99976 27.106 3.99976 26V20C3.99976 17.794 5.79376 16 7.99976 16C9.10576 16 9.99976 15.106 9.99976 14C9.99976 12.894 9.10576 12 7.99976 12C3.58776 12 -0.000242585 15.588 -0.000242585 20V26C-0.000242585 27.106 0.893758 28 1.99976 28ZM39.9998 12C38.8938 12 37.9998 12.894 37.9998 14C37.9998 15.106 38.8938 16 39.9998 16C42.2058 16 43.9998 17.794 43.9998 20V26C43.9998 27.106 44.8938 28 45.9998 28C47.1058 28 47.9998 27.106 47.9998 26V20C47.9998 15.588 44.4118 12 39.9998 12Z" fill="#2078BA"/>
</g>
<defs>
<clipPath id="clip0_72_4062">
<rect width="48" height="48" fill="white"/>
</clipPath>
</defs>
</svg>
