<svg width="48" height="48" viewBox="0 0 48 48" fill="none" xmlns="http://www.w3.org/2000/svg">
<g clip-path="url(#clip0_72_4053)">
<path d="M23.7284 8.00202C15.3604 8.14002 8.31043 15.054 8.01243 23.412C7.83643 28.268 9.84043 32.878 13.5124 36.064C15.0944 37.438 16.0004 39.55 16.0004 42C16.0004 45.308 18.6924 48 22.0004 48H26.0004C29.3084 48 32.0004 45.308 32.0004 42V41.25C32.0004 39.318 32.9104 37.454 34.5644 35.998C38.0204 32.962 40.0004 28.59 40.0004 24C40.0004 19.678 38.3024 15.626 35.2204 12.594C32.1384 9.56202 28.0544 7.90402 23.7284 8.00202ZM28.0004 42C28.0004 43.104 27.1044 44 26.0004 44H22.0004C20.8964 44 20.0004 43.104 20.0004 41.862C20.0004 41.23 19.9384 40.61 19.8464 40H28.0824C28.0324 40.412 28.0004 40.83 28.0004 41.25V42ZM31.9244 32.994C30.9024 33.892 30.0784 34.908 29.4444 36H26.0004V27.632C28.3224 26.804 30.0004 24.604 30.0004 22C30.0004 20.894 29.1064 20 28.0004 20C26.8944 20 26.0004 20.894 26.0004 22C26.0004 23.106 25.1044 24 24.0004 24C22.8964 24 22.0004 23.104 22.0004 22C22.0004 20.896 21.1064 20 20.0004 20C18.8944 20 18.0004 20.894 18.0004 22C18.0004 24.604 19.6784 26.804 22.0004 27.632V36H18.5084C17.8884 34.884 17.0944 33.88 16.1324 33.044C13.3804 30.654 11.8764 27.196 12.0084 23.556C12.2324 17.288 17.5204 12.104 23.7964 12.002C23.8644 12.002 23.9304 12.002 24.0004 12.002C27.1724 12.002 30.1544 13.22 32.4164 15.448C34.7284 17.722 36.0024 20.76 36.0024 24.002C36.0024 27.442 34.5164 30.718 31.9264 32.996L31.9244 32.994ZM33.5704 4.94802L36.0404 0.928016C36.6164 -0.0159841 37.8484 -0.309984 38.7904 0.272016C39.7324 0.850016 40.0264 2.08002 39.4464 3.02202L36.9764 7.04202C36.6004 7.65802 35.9424 7.99602 35.2704 7.99602C34.9124 7.99602 34.5524 7.90002 34.2264 7.70002C33.2844 7.12202 32.9904 5.89002 33.5704 4.94802ZM46.8264 13.244L42.9604 14.988C42.6944 15.11 42.4144 15.166 42.1404 15.166C41.3764 15.166 40.6504 14.728 40.3164 13.988C39.8604 12.982 40.3084 11.796 41.3164 11.344L45.1824 9.60002C46.1944 9.14202 47.3744 9.59402 47.8264 10.6C48.2824 11.606 47.8344 12.792 46.8264 13.244ZM8.38843 3.02002C7.81043 2.07802 8.10643 0.846016 9.04843 0.270016C9.99443 -0.305984 11.2224 -0.00998408 11.7984 0.930016L14.2624 4.95202C14.8404 5.89402 14.5444 7.12602 13.6024 7.70202C13.2764 7.90202 12.9144 7.99602 12.5604 7.99602C11.8864 7.99602 11.2304 7.65602 10.8524 7.04002L8.38843 3.01802V3.02002ZM7.42243 14.122C7.08043 14.84 6.36443 15.258 5.61843 15.258C5.32843 15.258 5.03443 15.196 4.75643 15.06L1.16043 13.338C0.164434 12.862 -0.257566 11.668 0.220434 10.672C0.694434 9.67402 1.89443 9.24802 2.88643 9.73202L6.48243 11.454C7.47843 11.93 7.90043 13.126 7.42243 14.122Z" fill="#2078BA"/>
</g>
<defs>
<clipPath id="clip0_72_4053">
<path d="M0 8C0 3.58172 3.58172 0 8 0H48V48H0V8Z" fill="white"/>
</clipPath>
</defs>
</svg>
