<svg width="48" height="48" viewBox="0 0 48 48" fill="none" xmlns="http://www.w3.org/2000/svg">
<g clip-path="url(#clip0_72_3986)">
<path d="M24 34C18.48 34 14 29.52 14 24C14 18.48 18.48 14 24 14C29.52 14 34 18.48 34 24C34 29.52 29.52 34 24 34ZM24 18C20.7 18 18 20.7 18 24C18 27.3 20.7 30 24 30C27.3 30 30 27.3 30 24C30 20.7 27.3 18 24 18ZM26 8V2C26 0.9 25.1 0 24 0C22.9 0 22 0.9 22 2V8C22 9.1 22.9 10 24 10C25.1 10 26 9.1 26 8ZM26 46V40C26 38.9 25.1 38 24 38C22.9 38 22 38.9 22 40V46C22 47.1 22.9 48 24 48C25.1 48 26 47.1 26 46ZM10 24C10 22.9 9.1 22 8 22H2C0.9 22 0 22.9 0 24C0 25.1 0.9 26 2 26H8C9.1 26 10 25.1 10 24ZM48 24C48 22.9 47.1 22 46 22H40C38.9 22 38 22.9 38 24C38 25.1 38.9 26 40 26H46C47.1 26 48 25.1 48 24ZM13.42 13.42C14.2 12.64 14.2 11.38 13.42 10.6L9.42 6.6C8.64 5.82 7.38 5.82 6.6 6.6C5.82 7.38 5.82 8.64 6.6 9.42L10.6 13.42C11 13.82 11.5 14 12.02 14C12.54 14 13.04 13.8 13.44 13.42H13.42ZM41.42 41.42C42.2 40.64 42.2 39.38 41.42 38.6L37.42 34.6C36.64 33.82 35.38 33.82 34.6 34.6C33.82 35.38 33.82 36.64 34.6 37.42L38.6 41.42C39 41.82 39.5 42 40.02 42C40.54 42 41.04 41.8 41.44 41.42H41.42ZM9.42 41.42L13.42 37.42C14.2 36.64 14.2 35.38 13.42 34.6C12.64 33.82 11.38 33.82 10.6 34.6L6.6 38.6C5.82 39.38 5.82 40.64 6.6 41.42C7 41.82 7.5 42 8.02 42C8.54 42 9.04 41.8 9.44 41.42H9.42ZM37.42 13.42L41.42 9.42C42.2 8.64 42.2 7.38 41.42 6.6C40.64 5.82 39.38 5.82 38.6 6.6L34.6 10.6C33.82 11.38 33.82 12.64 34.6 13.42C35 13.82 35.5 14 36.02 14C36.54 14 37.04 13.8 37.44 13.42H37.42Z" fill="#2078BA"/>
</g>
<defs>
<clipPath id="clip0_72_3986">
<rect width="48" height="48" fill="white"/>
</clipPath>
</defs>
</svg>
