<svg width="48" height="48" viewBox="0 0 48 48" fill="none" xmlns="http://www.w3.org/2000/svg">
<path d="M34 0H14C8.486 0 4 4.486 4 10V38C4 43.514 8.486 48 14 48H34C39.514 48 44 43.514 44 38V10C44 4.486 39.514 0 34 0ZM40 38C40 41.308 37.308 44 34 44H14C10.692 44 8 41.308 8 38V10C8 6.692 10.692 4 14 4H34C37.308 4 40 6.692 40 10V38ZM30 8H18C15.794 8 14 9.794 14 12C14 12 14 34.07 14.002 34.104C14.058 37.364 16.726 40 20 40H28C31.274 40 33.942 37.364 33.998 34.104C33.998 34.07 34 12 34 12C34 9.794 32.206 8 30 8ZM18 32V26H30V32H18ZM30 12V22H18V12H30Z" fill="#2078BA"/>
</svg>
