<svg width="48" height="48" viewBox="0 0 48 48" fill="none" xmlns="http://www.w3.org/2000/svg">
<g clip-path="url(#clip0_72_4042)">
<path d="M24.0002 28C21.7902 28 20.0002 26.21 20.0002 24C20.0002 23.644 20.0622 23.306 20.1482 22.976L12.5862 15.414C11.8042 14.632 11.8042 13.368 12.5862 12.586C13.3682 11.804 14.6322 11.804 15.4142 12.586L22.9762 20.148C23.3042 20.06 23.6442 20 24.0002 20C26.2102 20 28.0002 21.79 28.0002 24C28.0002 26.21 26.2102 28 24.0002 28ZM39.9922 6.10402C34.9062 1.55602 28.0562 -0.617985 21.2342 0.154015C10.4162 1.37002 1.57019 10.082 0.198195 20.874C-0.755805 28.39 1.76419 35.738 7.1102 41.032C8.2622 42.172 9.78819 42.748 11.3182 42.748C12.7202 42.748 14.1262 42.264 15.2562 41.29L17.3082 39.514C18.1422 38.792 18.2342 37.528 17.5122 36.692C16.7902 35.856 15.5262 35.768 14.6902 36.486L12.6382 38.264C11.8462 38.946 10.6562 38.912 9.92419 38.188C5.46819 33.776 3.37019 27.648 4.16619 21.378C5.3082 12.394 12.6722 5.14002 21.6782 4.13002C27.4702 3.47002 33.0242 5.24002 37.3242 9.08602C41.5662 12.878 43.9982 18.314 43.9982 24C43.9982 26.178 43.6502 28.32 42.9642 30.366C42.6142 31.412 43.1782 32.546 44.2242 32.898C45.2722 33.248 46.4062 32.688 46.7562 31.636C47.5802 29.18 47.9962 26.612 47.9962 24.002C47.9962 17.18 45.0782 10.656 39.9882 6.10602L39.9922 6.10402ZM45.8902 43.314C47.1022 45.392 45.6042 48 43.1982 48H24.8022C22.3962 48 20.8982 45.39 22.1102 43.314L31.3082 27.546C32.5102 25.484 35.4902 25.484 36.6922 27.546L45.8902 43.314ZM36.0002 44C36.0002 42.896 35.1042 42 34.0002 42C32.8962 42 32.0002 42.896 32.0002 44C32.0002 45.104 32.8962 46 34.0002 46C35.1042 46 36.0002 45.104 36.0002 44ZM36.0002 34C36.0002 32.896 35.1042 32 34.0002 32C32.8962 32 32.0002 32.896 32.0002 34V38C32.0002 39.104 32.8962 40 34.0002 40C35.1042 40 36.0002 39.104 36.0002 38V34Z" fill="#2078BA"/>
</g>
<defs>
<clipPath id="clip0_72_4042">
<rect width="48" height="48" fill="white"/>
</clipPath>
</defs>
</svg>
