<svg width="48" height="48" viewBox="0 0 48 48" fill="none" xmlns="http://www.w3.org/2000/svg">
<g clip-path="url(#clip0_72_4071)">
<path d="M17.7996 20.3999H13.5996V33.9999H17.7996V20.3999Z" fill="#2078BA"/>
<path d="M15.8004 13.3999C14.4004 13.3999 13.4004 14.5999 13.4004 15.7999C13.4004 16.9999 14.6004 18.1999 15.8004 18.1999C17.0004 18.1999 18.2004 16.9999 18.2004 15.7999C18.2004 14.5999 17.0004 13.3999 15.8004 13.3999Z" fill="#2078BA"/>
<path d="M24 0C10.8 0 0 10.8 0 24C0 37.2 10.8 48 24 48C37.2 48 48 37.2 48 24C48 10.8 37.2 0 24 0ZM38.2 36.2C38.2 37.4 37.2 38.2 36 38.2H11.6C10.4 38.2 9.4 37.2 9.4 36.2V11.6C9.4 10.4 10.4 9.6 11.6 9.6H36C37.2 9.6 38.2 10.6 38.2 11.6V36.2Z" fill="#2078BA"/>
<path d="M28.7998 20C27.5998 20 25.5998 20.8 24.7998 22.2V20.4H20.7998V34H24.9998V27.2C24.9998 25.4 25.3998 23.6 27.5998 23.6C29.7998 23.6 29.7998 25.6 29.7998 27.2V33.8H33.9998V26.2C33.9998 22.8 33.1998 20 28.7998 20Z" fill="#2078BA"/>
</g>
<defs>
<clipPath id="clip0_72_4071">
<rect width="48" height="48" fill="white"/>
</clipPath>
</defs>
</svg>
