<svg width="48" height="48" viewBox="0 0 48 48" fill="none" xmlns="http://www.w3.org/2000/svg">
<g clip-path="url(#clip0_72_3946)">
<path d="M41 0H39C35.14 0 32 3.14 32 7V23.57C32 27.89 28.834 31.576 24.792 31.962C22.5 32.178 20.306 31.456 18.62 29.92C16.954 28.404 16 26.248 16 23.998V7C16 3.14 12.86 0 9.00001 0H7.00001C3.14001 0 6.88662e-06 3.14 6.88662e-06 7V23.274C-0.00999311 36.83 10.872 48 24.006 48C30.336 48 36.288 45.572 40.812 41.13C45.446 36.58 48 30.498 48 24.004V7C48 3.14 44.86 0 41 0ZM39 4H41C42.654 4 44 5.346 44 7V10H36V7C36 5.346 37.346 4 39 4ZM7.00001 4H9.00001C10.654 4 12 5.346 12 7V10H4.00001V7C4.00001 5.346 5.34601 4 7.00001 4ZM38.01 38.278C34.15 42.068 29.08 44.106 23.624 44C12.804 43.802 4.00001 34.506 4.00001 23.274V14H12V24C12 27.374 13.432 30.61 15.928 32.88C18.424 35.148 21.786 36.268 25.172 35.942C31.244 35.364 36 29.928 36 23.568V13.998H44V24.002C44 29.414 41.874 34.484 38.01 38.278ZM17.874 8.444L20.538 0.99C20.75 0.396 21.314 0 21.944 0H25.178C26 0 26.562 0.83 26.256 1.592L24.892 5H28.892C29.86 5 30.542 6.074 30.006 6.88L22.794 15.746C22.664 15.906 22.468 16 22.262 16C21.798 16 21.468 15.55 21.606 15.108L23.188 10H19.06C18.23 10 17.634 9.24 17.874 8.444Z" fill="#2078BA"/>
</g>
<defs>
<clipPath id="clip0_72_3946">
<rect width="48" height="48" fill="white"/>
</clipPath>
</defs>
</svg>
