<svg width="48" height="48" viewBox="0 0 48 48" fill="none" xmlns="http://www.w3.org/2000/svg">
<g clip-path="url(#clip0_72_4014)">
<path d="M47.414 44.586L35.476 32.648C38.3 29.198 40 24.794 40 20C40 8.972 31.028 0 20 0C8.972 0 0 8.972 0 20C0 31.028 8.972 40 20 40C24.794 40 29.198 38.3 32.648 35.476L44.586 47.414C44.976 47.804 45.488 48 46 48C46.512 48 47.024 47.804 47.414 47.414C48.196 46.632 48.196 45.368 47.414 44.586ZM4 20C4 11.178 11.178 4 20 4C28.822 4 36 11.178 36 20C36 28.822 28.822 36 20 36C11.178 36 4 28.822 4 20ZM31.866 17.478C30.216 15.058 26.484 11 20 11C13.516 11 9.784 15.06 8.134 17.478C7.09 19.01 7.09 20.988 8.134 22.52C9.784 24.94 13.518 29 20 29C26.482 29 30.216 24.94 31.866 22.522C32.91 20.99 32.91 19.01 31.866 17.478ZM28.562 20.268C27.092 22.428 24.412 25 20.002 25C15.592 25 12.914 22.426 11.442 20.266C11.33 20.104 11.33 19.896 11.442 19.732C12.912 17.572 15.592 15 20.002 15C24.412 15 27.092 17.574 28.562 19.732C28.674 19.896 28.674 20.104 28.562 20.268ZM23.002 20C23.002 21.658 21.66 23 20.002 23C18.344 23 17.002 21.658 17.002 20C17.002 18.342 18.344 17 20.002 17C21.66 17 23.002 18.342 23.002 20Z" fill="#2078BA"/>
</g>
<defs>
<clipPath id="clip0_72_4014">
<rect width="48" height="48" fill="white"/>
</clipPath>
</defs>
</svg>
