<svg width="48" height="48" viewBox="0 0 48 48" fill="none" xmlns="http://www.w3.org/2000/svg">
<g clip-path="url(#clip0_75_2720)">
<path d="M24 12C22.4178 12 20.871 12.4692 19.5554 13.3482C18.2399 14.2273 17.2145 15.4767 16.609 16.9385C16.0035 18.4003 15.845 20.0089 16.1537 21.5607C16.4624 23.1126 17.2243 24.538 18.3431 25.6569C19.462 26.7757 20.8874 27.5376 22.4393 27.8463C23.9911 28.155 25.5997 27.9965 27.0615 27.391C28.5233 26.7855 29.7727 25.7602 30.6518 24.4446C31.5308 23.129 32 21.5823 32 20C32 17.8783 31.1572 15.8434 29.6569 14.3431C28.1566 12.8429 26.1217 12 24 12ZM24 24C23.2089 24 22.4355 23.7654 21.7777 23.3259C21.1199 22.8864 20.6072 22.2616 20.3045 21.5307C20.0017 20.7998 19.9225 19.9956 20.0769 19.2196C20.2312 18.4437 20.6122 17.731 21.1716 17.1716C21.731 16.6122 22.4437 16.2312 23.2196 16.0769C23.9956 15.9225 24.7998 16.0017 25.5307 16.3045C26.2616 16.6072 26.8864 17.1199 27.3259 17.7777C27.7654 18.4355 28 19.2089 28 20C28 21.0609 27.5786 22.0783 26.8284 22.8284C26.0783 23.5786 25.0609 24 24 24Z" fill="#2078BA"/>
<path d="M23.9996 48C22.3155 48.0086 20.6539 47.6136 19.1538 46.8481C17.6537 46.0825 16.3588 44.9688 15.3776 43.6C7.75565 33.086 3.88965 25.182 3.88965 20.106C3.88965 14.7725 6.00837 9.65741 9.77973 5.88605C13.5511 2.1147 18.6661 -0.00402832 23.9996 -0.00402832C29.3332 -0.00402832 34.4482 2.1147 38.2196 5.88605C41.9909 9.65741 44.1096 14.7725 44.1096 20.106C44.1096 25.182 40.2437 33.086 32.6217 43.6C31.6405 44.9688 30.3456 46.0825 28.8455 46.8481C27.3454 47.6136 25.6838 48.0086 23.9996 48ZM23.9996 4.36197C19.8245 4.36674 15.8217 6.02743 12.8694 8.97972C9.9171 11.932 8.25641 15.9348 8.25165 20.11C8.25165 24.13 12.0376 31.564 18.9096 41.042C19.493 41.8455 20.2584 42.4995 21.1431 42.9505C22.0278 43.4015 23.0067 43.6366 23.9996 43.6366C24.9926 43.6366 25.9715 43.4015 26.8562 42.9505C27.7409 42.4995 28.5063 41.8455 29.0896 41.042C35.9617 31.564 39.7477 24.13 39.7477 20.11C39.7429 15.9348 38.0822 11.932 35.1299 8.97972C32.1776 6.02743 28.1748 4.36674 23.9996 4.36197Z" fill="#2078BA"/>
</g>
<defs>
<clipPath id="clip0_75_2720">
<rect width="48" height="48" fill="white"/>
</clipPath>
</defs>
</svg>
