<svg width="48" height="48" viewBox="0 0 48 48" fill="none" xmlns="http://www.w3.org/2000/svg">
<g clip-path="url(#clip0_72_4003)">
<path d="M44.4203 1.878C43.6903 0.702 42.4263 0 41.0423 0H35.0243C31.9563 0 29.2063 1.708 27.8503 4.46L24.1283 12.006C24.0863 12.006 24.0443 12 24.0023 12C23.9743 12 23.9483 12.004 23.9203 12.004L20.1983 4.46C18.8403 1.708 16.0923 0 13.0243 0H7.00631C5.62231 0 4.35831 0.702 3.62631 1.878C2.89631 3.054 2.82631 4.498 3.43831 5.74L9.90231 18.846C7.46831 21.916 6.00231 25.788 6.00231 30.002C6.00231 39.926 14.0783 48.002 24.0023 48.002C33.9263 48.002 42.0023 39.926 42.0023 30.002C42.0023 25.804 40.5463 21.948 38.1283 18.882L44.6103 5.742C45.2243 4.5 45.1523 3.056 44.4223 1.88L44.4203 1.878ZM13.0223 4C14.5563 4 15.9303 4.854 16.6083 6.23L19.7183 12.536C17.1903 13.156 14.8703 14.304 12.8863 15.868L7.00431 4H13.0223ZM24.0003 44C16.2803 44 10.0003 37.72 10.0003 30C10.0003 22.68 15.6503 16.664 22.8183 16.06C22.8203 16.06 22.8223 16.06 22.8263 16.06C23.2143 16.028 23.6063 16 24.0023 16C31.7223 16 38.0023 22.28 38.0023 30C38.0023 37.72 31.7223 44 24.0023 44H24.0003ZM35.1403 15.89C33.1603 14.322 30.8443 13.172 28.3203 12.546L31.4363 6.23C32.1143 4.854 33.4883 4 35.0223 4L41.0223 3.97L35.1403 15.89ZM32.3143 28.82C32.3143 29.542 31.8123 30.15 31.2363 30.47L28.2563 32.126L29.5783 35.732C29.8343 36.43 29.6023 37.214 29.0083 37.662C28.4003 38.12 27.5623 38.114 26.9623 37.648L23.9983 35.356L21.0343 37.648C20.4323 38.112 19.5943 38.118 18.9883 37.662C18.3943 37.214 18.1623 36.432 18.4183 35.732L19.7403 32.126L16.7603 30.47C16.1843 30.15 15.6823 29.542 15.6823 28.82C15.6823 28.208 16.2143 27.532 17.0743 27.532H21.3543L22.4883 23.182C22.6683 22.492 23.2863 22.012 23.9983 22C24.7083 22.014 25.3283 22.492 25.5083 23.182L26.6423 27.532H30.9223C31.7823 27.532 32.3143 28.206 32.3143 28.82Z" fill="#2078BA"/>
</g>
<defs>
<clipPath id="clip0_72_4003">
<rect width="48" height="48" fill="white"/>
</clipPath>
</defs>
</svg>
