<svg width="48" height="48" viewBox="0 0 48 48" fill="none" xmlns="http://www.w3.org/2000/svg">
<g clip-path="url(#clip0_72_4060)">
<path d="M29.8561 18H30.0001C33.3081 18 36.0001 15.308 36.0001 12V6C36.0001 2.692 33.3081 0 30.0001 0H18.0001C14.6921 0 12.0001 2.692 12.0001 6V12C12.0001 15.308 14.6921 18 18.0001 18H18.4041L22.0721 21.234C22.6521 21.746 23.3781 22.002 24.1041 22.002C24.8201 22.002 25.5361 21.75 26.1001 21.25L29.8561 18.002V18ZM24.1021 17.688L20.4821 14.5C20.1161 14.178 19.6461 14 19.1601 14H18.0001C16.8961 14 16.0001 13.102 16.0001 12V6C16.0001 4.898 16.8961 4 18.0001 4H30.0001C31.1041 4 32.0001 4.898 32.0001 6V12C32.0001 13.102 31.1041 14 30.0001 14H29.1121C28.6321 14 28.1661 14.172 27.8041 14.488L24.1021 17.69V17.688ZM11.0001 36C14.8601 36 18.0001 32.86 18.0001 29C18.0001 25.14 14.8601 22 11.0001 22C7.14014 22 4.00014 25.14 4.00014 29C4.00014 32.86 7.14014 36 11.0001 36ZM11.0001 26C12.6541 26 14.0001 27.346 14.0001 29C14.0001 30.654 12.6541 32 11.0001 32C9.34614 32 8.00014 30.654 8.00014 29C8.00014 27.346 9.34614 26 11.0001 26ZM30.0001 29C30.0001 32.86 33.1401 36 37.0001 36C40.8601 36 44.0001 32.86 44.0001 29C44.0001 25.14 40.8601 22 37.0001 22C33.1401 22 30.0001 25.14 30.0001 29ZM37.0001 26C38.6541 26 40.0001 27.346 40.0001 29C40.0001 30.654 38.6541 32 37.0001 32C35.3461 32 34.0001 30.654 34.0001 29C34.0001 27.346 35.3461 26 37.0001 26ZM21.8741 45.298C22.2601 46.332 21.7381 47.486 20.7041 47.874C20.4721 47.96 20.2361 48.002 20.0001 48.002C19.1921 48.002 18.4281 47.506 18.1261 46.704C17.0721 43.892 14.2081 42.002 11.0001 42.002C7.79214 42.002 4.92814 43.892 3.87414 46.704C3.48614 47.74 2.33214 48.256 1.29814 47.874C0.264141 47.486 -0.257859 46.332 0.128141 45.298C1.76414 40.932 6.13414 38 11.0021 38C15.8701 38 20.2361 40.932 21.8741 45.298ZM46.7041 47.874C46.4721 47.96 46.2361 48.002 46.0001 48.002C45.1921 48.002 44.4281 47.506 44.1261 46.704C43.0721 43.892 40.2081 42.002 37.0001 42.002C33.7921 42.002 30.9281 43.892 29.8741 46.704C29.4861 47.74 28.3321 48.256 27.2981 47.874C26.2641 47.486 25.7421 46.332 26.1281 45.298C27.7641 40.932 32.1341 38 37.0021 38C41.8701 38 46.2381 40.932 47.8761 45.298C48.2621 46.332 47.7401 47.486 46.7061 47.874H46.7041Z" fill="#2078BA"/>
</g>
<defs>
<clipPath id="clip0_72_4060">
<rect width="48" height="48" fill="white"/>
</clipPath>
</defs>
</svg>
