<svg width="48" height="48" viewBox="0 0 48 48" fill="none" xmlns="http://www.w3.org/2000/svg">
<g clip-path="url(#clip0_72_4005)">
<path d="M20 46C20 47.106 19.106 48 18 48H10C4.486 48 0 43.514 0 38V10C0 4.486 4.486 0 10 0H26C31.514 0 36 4.486 36 10V14C36 15.106 35.106 16 34 16C32.894 16 32 15.106 32 14V10C32 6.692 29.308 4 26 4H10C6.692 4 4 6.692 4 10V38C4 41.308 6.692 44 10 44H18C19.106 44 20 44.894 20 46ZM28 12C28 10.894 27.106 10 26 10H10C8.894 10 8 10.894 8 12C8 13.106 8.894 14 10 14H26C27.106 14 28 13.106 28 12ZM20 22C20 20.894 19.106 20 18 20H10C8.894 20 8 20.894 8 22C8 23.106 8.894 24 10 24H18C19.106 24 20 23.106 20 22ZM10 30C8.894 30 8 30.894 8 32C8 33.106 8.894 34 10 34H14C15.106 34 16 33.106 16 32C16 30.894 15.106 30 14 30H10ZM48 34C48 41.718 41.718 48 34 48C26.282 48 20 41.718 20 34C20 26.282 26.282 20 34 20C41.718 20 48 26.282 48 34ZM44 34C44 28.486 39.514 24 34 24C28.486 24 24 28.486 24 34C24 39.514 28.486 44 34 44C39.514 44 44 39.514 44 34ZM37.616 31.518L33.17 35.786C32.882 36.068 32.412 36.074 32.126 35.79L29.864 33.574C29.072 32.798 27.808 32.81 27.036 33.602C26.262 34.392 26.274 35.656 27.064 36.43L29.328 38.648C30.248 39.546 31.452 39.996 32.654 39.996C33.856 39.996 35.056 39.546 35.96 38.654L40.386 34.406C41.182 33.64 41.208 32.374 40.444 31.578C39.678 30.778 38.41 30.756 37.616 31.52V31.518Z" fill="#2078BA"/>
</g>
<defs>
<clipPath id="clip0_72_4005">
<rect width="48" height="48" fill="white"/>
</clipPath>
</defs>
</svg>
