<svg width="48" height="48" viewBox="0 0 48 48" fill="none" xmlns="http://www.w3.org/2000/svg">
<path d="M46 22H2C0.89543 22 0 22.8954 0 24C0 25.1046 0.89543 26 2 26H46C47.1046 26 48 25.1046 48 24C48 22.8954 47.1046 22 46 22Z" fill="#2078BA"/>
<path d="M46 8H2C0.89543 8 0 8.89543 0 10C0 11.1046 0.89543 12 2 12H46C47.1046 12 48 11.1046 48 10C48 8.89543 47.1046 8 46 8Z" fill="#2078BA"/>
<path d="M46 36H2C0.89543 36 0 36.8954 0 38C0 39.1046 0.89543 40 2 40H46C47.1046 40 48 39.1046 48 38C48 36.8954 47.1046 36 46 36Z" fill="#2078BA"/>
</svg>
