<svg width="48" height="48" viewBox="0 0 48 48" fill="none" xmlns="http://www.w3.org/2000/svg">
<g clip-path="url(#clip0_72_3947)">
<path d="M33.864 43.772C34.266 44.802 33.758 45.962 32.728 46.364C29.948 47.45 27.012 48 24 48C10.766 48 0 37.234 0 24C0 10.766 10.766 0 24 0C33.062 0 41.254 5.016 45.382 13.09C45.884 14.072 45.494 15.278 44.51 15.782C43.526 16.282 42.322 15.894 41.818 14.91C38.378 8.18 31.55 4 23.998 4C12.972 4 4 12.972 4 24C4 35.028 12.972 44 24 44C26.51 44 28.958 43.542 31.272 42.636C32.302 42.234 33.462 42.744 33.862 43.77L33.864 43.772ZM10 16V20C10 21.106 10.896 22 12 22C13.104 22 14 21.106 14 20V16C14 14.894 13.104 14 12 14C10.896 14 10 14.894 10 16ZM18 16V20C18 21.106 18.896 22 20 22C21.104 22 22 21.106 22 20V16C22 14.894 21.104 14 20 14C18.896 14 18 14.894 18 16ZM26 16V20C26 21.106 26.896 22 28 22C29.104 22 30 21.106 30 20V16C30 14.894 29.104 14 28 14C26.896 14 26 14.894 26 16ZM47.536 33.368C46.99 32.508 46.056 31.996 45.038 31.996H36.73L41.75 22.972C42.288 22.006 41.94 20.788 40.974 20.252C40.012 19.714 38.792 20.064 38.254 21.028L32.314 31.712C31.854 32.638 31.902 33.716 32.446 34.594C32.99 35.47 33.932 35.996 34.964 35.996H43.27L38.252 45.03C37.714 45.994 38.064 47.212 39.028 47.748C39.336 47.92 39.67 48 39.998 48C40.702 48 41.382 47.628 41.748 46.97L47.722 36.208C48.152 35.286 48.082 34.226 47.536 33.368Z" fill="#2078BA"/>
</g>
<defs>
<clipPath id="clip0_72_3947">
<rect width="48" height="48" fill="white"/>
</clipPath>
</defs>
</svg>
