<svg width="48" height="48" viewBox="0 0 48 48" fill="none" xmlns="http://www.w3.org/2000/svg">
<g clip-path="url(#clip0_72_3956)">
<path d="M21.966 45.998C21.788 46.962 20.948 47.636 20.002 47.636C19.882 47.636 19.762 47.626 19.638 47.602C8.26 45.514 0 35.586 0 24C0 10.766 10.766 0 24 0C34.694 0 44.19 7.178 47.096 17.456C47.396 18.52 46.78 19.624 45.718 19.924C44.666 20.228 43.548 19.61 43.25 18.546C40.828 9.982 32.912 4.002 24.002 4.002C12.972 4 4 12.972 4 24C4 33.656 10.88 41.928 20.362 43.67C21.448 43.87 22.166 44.912 21.968 45.998H21.966ZM10 16V20C10 21.106 10.894 22 12 22C13.106 22 14 21.106 14 20V16C14 14.894 13.106 14 12 14C10.894 14 10 14.894 10 16ZM20 14C18.894 14 18 14.894 18 16V20C18 21.106 18.894 22 20 22C21.106 22 22 21.106 22 20V16C22 14.894 21.106 14 20 14ZM26 16V20C26 21.106 26.894 22 28 22C29.106 22 30 21.106 30 20V16C30 14.894 29.106 14 28 14C26.894 14 26 14.894 26 16ZM46.248 41.846C43.954 45.644 40.046 47.934 35.932 47.934C29.026 47.934 24 42.276 24 35.936C24 33.534 25.474 29.394 26.49 27.598C27.114 26.492 28.156 25.902 29.246 25.94C30.37 26.008 31.342 26.772 31.846 27.986C31.92 28.164 32.246 29.086 32.348 29.346C32.586 28.626 32.802 27.446 32.946 26.648C33.218 25.168 33.522 23.488 34.162 21.994C34.758 20.602 35.762 20.188 36.308 20.066C36.864 19.944 37.964 19.89 39.13 20.926C47.668 28.488 50.062 35.528 46.248 41.846ZM37.428 24.782C37.204 25.602 37.042 26.494 36.882 27.368C36.378 30.14 35.684 33.936 32.052 33.936C30.528 33.936 29.614 32.85 29.03 31.714C28.47 33.244 28 34.998 28 35.936C28 38.992 29.726 41.672 32.276 43.018C31.746 41.53 32.17 39.766 33.346 38.59L34.886 36.398C35.502 35.782 36.5 35.782 37.116 36.398L38.654 38.592C39.776 39.716 40.212 41.374 39.788 42.816C40.99 42.098 42.05 41.06 42.822 39.78C45.444 35.44 43.73 30.656 37.428 24.782Z" fill="#2078BA"/>
</g>
<defs>
<clipPath id="clip0_72_3956">
<rect width="48" height="48" fill="white"/>
</clipPath>
</defs>
</svg>
