<svg width="48" height="48" viewBox="0 0 48 48" fill="none" xmlns="http://www.w3.org/2000/svg">
<g clip-path="url(#clip0_72_3948)">
<path d="M23.992 46.09C23.898 47.13 23.026 47.91 22.002 47.91C21.942 47.91 21.882 47.91 21.82 47.902C9.38 46.782 0 36.506 0 24C0 10.766 10.766 0 24 0C36.506 0 46.782 9.38 47.902 21.82C48.002 22.92 47.19 23.892 46.09 23.992C45.01 24.104 44.018 23.282 43.918 22.18C42.984 11.816 34.422 4 24 4C12.972 4 4 12.972 4 24C4 34.422 11.816 42.984 22.18 43.918C23.28 44.018 24.092 44.99 23.992 46.09ZM10 16V20C10 21.106 10.896 22 12 22C13.104 22 14 21.106 14 20V16C14 14.894 13.104 14 12 14C10.896 14 10 14.894 10 16ZM18 16V20C18 21.106 18.896 22 20 22C21.104 22 22 21.106 22 20V16C22 14.894 21.104 14 20 14C18.896 14 18 14.894 18 16ZM26 16V20C26 21.106 26.894 22 28 22C29.106 22 30 21.106 30 20V16C30 14.894 29.106 14 28 14C26.894 14 26 14.894 26 16ZM34 16V20C34 21.106 34.894 22 36 22C37.106 22 38 21.106 38 20V16C38 14.894 37.106 14 36 14C34.894 14 34 14.894 34 16ZM48 37.2C48 40.138 46.856 42.902 44.778 44.978C42.7 47.056 39.938 48.2 37 48.2C34.062 48.2 31.298 47.056 29.222 44.978C27.144 42.902 26 40.14 26 37.2C26 34.26 27.144 31.498 29.222 29.422L33.022 25.704C35.214 23.56 38.784 23.56 40.976 25.704L44.762 29.408C46.856 31.5 48 34.264 48 37.2ZM44 37.2C44 35.33 43.272 33.574 41.95 32.25L38.18 28.562C37.85 28.238 37.424 28.078 37 28.078C36.576 28.078 36.15 28.238 35.82 28.562L32.034 32.266C30.728 33.572 29.998 35.33 29.998 37.2C29.998 39.07 30.726 40.826 32.048 42.15C34.692 44.794 39.302 44.796 41.946 42.15C43.268 40.828 43.996 39.07 43.996 37.2H44Z" fill="#2078BA"/>
</g>
<defs>
<clipPath id="clip0_72_3948">
<rect width="48" height="48" fill="white"/>
</clipPath>
</defs>
</svg>
