<svg width="48" height="48" viewBox="0 0 48 48" fill="none" xmlns="http://www.w3.org/2000/svg">
<path d="M34.9542 20.652L38.5522 17.054L39.6242 26.018L35.0482 21.44L34.9542 20.652ZM9.45017 17.054L8.37817 26.018L12.9542 21.44L13.0482 20.652L9.45017 17.054ZM41.9762 38.976C41.6722 39.28 41.3222 39.506 40.9522 39.674C41.0202 41.716 40.3542 43.724 38.9902 45.272C37.4622 47.006 35.2582 48 32.9482 48H15.0542C12.7422 48 10.5402 47.006 9.01217 45.272C7.64017 43.714 6.97217 41.692 7.05217 39.636C6.69217 39.468 6.35017 39.248 6.05217 38.95C4.68617 37.584 4.68617 35.368 6.05217 34L14.2442 25.808C15.0842 24.968 16.2442 24.65 17.3322 24.842L21.1742 21L17.2562 17.082C16.1682 17.274 15.0082 16.956 14.1682 16.116L6.03817 7.98797C4.67217 6.62197 4.67217 4.40597 6.03817 3.03797C7.40417 1.66997 9.62017 1.67197 10.9882 3.03797L13.9682 6.01797L19.2522 1.69397C22.0022 -0.55603 25.9962 -0.55603 28.7462 1.69397L34.0302 6.01797L37.0102 3.03797C38.3762 1.67197 40.5922 1.67197 41.9602 3.03797C43.3282 4.40397 43.3262 6.61997 41.9602 7.98797L33.8322 16.116C32.9922 16.956 31.8322 17.274 30.7442 17.082L26.8262 21L30.6682 24.842C31.7562 24.65 32.9162 24.968 33.7562 25.808L41.9742 34.026C43.3402 35.392 43.3402 37.608 41.9742 38.976H41.9762ZM24.0002 18.172L27.9182 14.254C27.7262 13.166 28.0442 12.006 28.8842 11.166L31.1882 8.86197L26.2122 4.78997C24.9282 3.74197 23.0682 3.74197 21.7842 4.78997L16.8082 8.86197L19.1122 11.166C19.9522 12.006 20.2702 13.166 20.0782 14.254L23.9962 18.172H24.0002ZM36.9662 39.436L36.8902 38.842L28.8062 30.758C27.9662 29.918 27.6462 28.758 27.8402 27.67L23.9982 23.828L20.1562 27.67C20.3482 28.758 20.0302 29.918 19.1902 30.758L11.1062 38.842L11.0302 39.436C10.8802 40.608 11.2302 41.74 12.0102 42.628C12.7922 43.512 13.8722 44.002 15.0522 44.002H19.9982V38.002C19.9982 35.792 21.7882 34.002 23.9982 34.002C26.2082 34.002 27.9982 35.792 27.9982 38.002V44.002H32.9442C34.1242 44.002 35.2042 43.514 35.9862 42.628C36.7662 41.742 37.1142 40.608 36.9662 39.436Z" fill="#2078BA"/>
</svg>
