<svg width="48" height="48" viewBox="0 0 48 48" fill="none" xmlns="http://www.w3.org/2000/svg">
<path d="M36.0001 13.9999H41.3321C37.4461 7.22195 29.9382 3.24998 21.7802 4.11797C12.6403 5.09197 5.19639 12.4939 4.1384 21.6239C2.73841 33.7078 12.1903 43.9997 24.0002 43.9997C35.0281 43.9997 44 35.0278 44 23.9998C44 22.8939 44.894 21.9999 46 21.9999C47.106 21.9999 48 22.8939 48 23.9998C48 37.5478 36.7181 48.5097 23.0542 47.9817C10.7103 47.5037 0.496435 37.2918 0.0184396 24.9498C-0.511555 11.2839 10.4523 0 24.0002 0C32.2081 0 39.6101 4.06797 43.99 10.6899L44 5.99996C44 4.89397 44.894 3.99997 46 3.99997C47.106 3.99997 48 4.89397 48 5.99996V13.9819C48 16.1999 46.202 17.9999 43.982 17.9999H36.0001C34.8941 17.9999 34.0001 17.1059 34.0001 15.9999C34.0001 14.8939 34.8941 13.9999 36.0001 13.9999ZM24.0002 37.9998C25.1042 37.9998 26.0002 37.1058 26.0002 35.9998V33.9998C29.3082 33.9998 32.0001 31.3078 32.0001 27.9998C32.0001 25.2818 30.0522 22.9799 27.3702 22.5339L21.2882 21.5219C20.5423 21.3979 20.0003 20.7579 20.0003 19.9999C20.0003 18.8959 20.8983 17.9999 22.0002 17.9999H26.5362C27.2482 17.9999 27.9122 18.3819 28.2702 19.0019C28.8182 19.9579 30.0422 20.2859 31.0022 19.7299C31.9582 19.1779 32.2861 17.9539 31.7302 16.9979C30.6622 15.1479 28.6702 13.9999 26.5342 13.9999H25.9982V11.9999C25.9982 10.8939 25.1022 9.99994 23.9982 9.99994C22.8942 9.99994 21.9982 10.8939 21.9982 11.9999V13.9999C18.6903 13.9999 15.9983 16.6919 15.9983 19.9999C15.9983 22.7179 17.9463 25.0198 20.6283 25.4658L26.7082 26.4778C27.4562 26.6018 27.9982 27.2418 27.9982 27.9998C27.9982 29.1038 27.1022 29.9998 25.9982 29.9998H21.4622C20.7503 29.9998 20.0863 29.6178 19.7283 28.9978C19.1743 28.0398 17.9503 27.7118 16.9963 28.2698C16.0383 28.8218 15.7123 30.0458 16.2663 31.0018C17.3363 32.8518 19.3283 33.9998 21.4622 33.9998H21.9982V35.9998C21.9982 37.1058 22.8942 37.9998 23.9982 37.9998H24.0002Z" fill="#2078BA"/>
</svg>
