<svg width="48" height="48" viewBox="0 0 48 48" fill="none" xmlns="http://www.w3.org/2000/svg">
<g clip-path="url(#clip0_72_4055)">
<path d="M36.1243 17C35.5703 16.042 34.3503 15.714 33.3923 16.268L31.4463 17.392C30.0363 15.804 28.1583 14.642 26.0003 14.204V12.002C26.0003 10.898 25.1043 10.002 24.0003 10.002C22.8963 10.002 22.0003 10.898 22.0003 12.002V14.204C19.8423 14.644 17.9643 15.806 16.5543 17.392L14.6083 16.268C13.6503 15.716 12.4283 16.044 11.8763 17C11.3243 17.956 11.6523 19.18 12.6083 19.732L14.5563 20.856C14.2243 21.85 14.0003 22.894 14.0003 24C14.0003 25.106 14.2223 26.15 14.5563 27.144L12.6083 28.268C11.6523 28.82 11.3243 30.044 11.8763 31C12.2483 31.642 12.9183 32 13.6103 32C13.9483 32 14.2923 31.914 14.6083 31.732L16.5543 30.608C17.9643 32.196 19.8423 33.358 22.0003 33.796V35.998C22.0003 37.102 22.8963 37.998 24.0003 37.998C25.1043 37.998 26.0003 37.102 26.0003 35.998V33.796C28.1583 33.356 30.0363 32.194 31.4463 30.608L33.3923 31.732C33.7083 31.914 34.0523 32 34.3903 32C35.0823 32 35.7543 31.642 36.1243 31C36.6763 30.042 36.3483 28.82 35.3923 28.268L33.4443 27.144C33.7763 26.15 34.0003 25.106 34.0003 24C34.0003 22.894 33.7783 21.85 33.4443 20.856L35.3923 19.732C36.3483 19.18 36.6763 17.956 36.1243 17ZM24.0003 30C20.6923 30 18.0003 27.308 18.0003 24C18.0003 20.692 20.6923 18 24.0003 18C27.3083 18 30.0003 20.692 30.0003 24C30.0003 27.308 27.3083 30 24.0003 30ZM3.99233 22.18C3.89833 23.22 3.02633 24 2.00233 24C1.94233 24 1.88233 23.998 1.82033 23.992C0.72033 23.892 -0.0916705 22.92 0.00832952 21.82C1.11233 9.584 11.6503 0 24.0003 0C29.9423 0 35.6343 2.258 40.0003 6.16V2C40.0003 0.896 40.8963 0 42.0003 0C43.1043 0 44.0003 0.896 44.0003 2V10C44.0003 12.206 42.2063 14 40.0003 14H32.0003C30.8963 14 30.0003 13.104 30.0003 12C30.0003 10.896 30.8963 10 32.0003 10H38.2463C34.5123 6.214 29.3763 4 24.0003 4C13.7003 4 4.91233 11.986 3.99233 22.18ZM47.9923 26.18C46.8883 38.416 36.3503 48 24.0003 48C18.0583 48 12.3663 45.742 8.00033 41.84V46C8.00033 47.104 7.10433 48 6.00033 48C4.89633 48 4.00033 47.104 4.00033 46V38C4.00033 35.794 5.79433 34 8.00033 34H16.0003C17.1043 34 18.0003 34.896 18.0003 36C18.0003 37.104 17.1043 38 16.0003 38H9.75433C13.4883 41.786 18.6243 44 24.0003 44C34.3003 44 43.0883 36.014 44.0083 25.82C44.1083 24.72 45.0583 23.928 46.1803 24.008C47.2803 24.108 48.0923 25.08 47.9923 26.18Z" fill="#2078BA"/>
</g>
<defs>
<clipPath id="clip0_72_4055">
<rect width="48" height="48" fill="white"/>
</clipPath>
</defs>
</svg>
