<svg width="48" height="48" viewBox="0 0 48 48" fill="none" xmlns="http://www.w3.org/2000/svg">
<g clip-path="url(#clip0_72_3958)">
<path d="M40 6C40 2.692 37.308 0 34 0H6C2.692 0 0 2.692 0 6V10C0 13.308 2.692 16 6 16H34C37.308 16 40 13.308 40 10C42.206 10 44 11.794 44 14V16C44 18.206 42.206 20 40 20H26C21.588 20 18 23.588 18 28V28.368C15.678 29.196 14 31.396 14 34V42C14 45.308 16.692 48 20 48C23.308 48 26 45.308 26 42V34C26 31.396 24.322 29.196 22 28.368V28C22 25.794 23.794 24 26 24H40C44.412 24 48 20.412 48 16V14C48 9.588 44.412 6 40 6ZM36 10C36 11.104 35.102 12 34 12H6C4.898 12 4 11.104 4 10V6C4 4.896 4.898 4 6 4H34C35.102 4 36 4.896 36 6V10ZM22 42C22 43.104 21.102 44 20 44C18.898 44 18 43.104 18 42V34C18 32.896 18.898 32 20 32C21.102 32 22 32.896 22 34V42Z" fill="#2078BA"/>
</g>
<defs>
<clipPath id="clip0_72_3958">
<rect width="48" height="48" fill="white"/>
</clipPath>
</defs>
</svg>
