<svg width="48" height="48" viewBox="0 0 48 48" fill="none" xmlns="http://www.w3.org/2000/svg">
<path d="M10.9584 22C14.8227 22 17.9662 18.86 17.9662 15C17.9662 11.14 14.8227 8 10.9584 8C7.09402 8 3.95049 11.14 3.95049 15C3.95049 18.86 7.09402 22 10.9584 22ZM10.9584 12C12.6142 12 13.9617 13.346 13.9617 15C13.9617 16.654 12.6142 18 10.9584 18C9.3025 18 7.95499 16.654 7.95499 15C7.95499 13.346 9.3025 12 10.9584 12ZM17.6279 28.628C17.0092 29.546 15.7678 29.792 14.8487 29.176C13.6974 28.404 12.3519 27.998 10.9584 27.998C7.38034 27.998 4.38698 30.672 3.99253 34.218C3.87841 35.24 3.01143 35.998 2.0043 35.998C1.93222 35.998 1.85814 35.994 1.78205 35.986C0.682814 35.864 -0.108075 34.874 0.0120601 33.778C0.630756 28.204 5.33604 23.998 10.9584 23.998C13.1488 23.998 15.2632 24.638 17.0792 25.852C17.9983 26.468 18.2446 27.71 17.6279 28.628ZM30.9809 14C34.8452 14 37.9887 10.86 37.9887 7C37.9887 3.14 34.8452 0 30.9809 0C27.1165 0 23.973 3.14 23.973 7C23.973 10.86 27.1165 14 30.9809 14ZM30.9809 4C32.6367 4 33.9842 5.346 33.9842 7C33.9842 8.654 32.6367 10 30.9809 10C29.325 10 27.9775 8.654 27.9775 7C27.9775 5.346 29.325 4 30.9809 4ZM33.9842 20C26.2576 20 19.9685 26.282 19.9685 34C19.9685 41.718 26.2576 48 33.9842 48C41.7109 48 48 41.718 48 34C48 26.282 41.7109 20 33.9842 20ZM33.9842 44C28.464 44 23.973 39.514 23.973 34C23.973 28.486 28.464 24 33.9842 24C39.5045 24 43.9955 28.486 43.9955 34C43.9955 39.514 39.5045 44 33.9842 44ZM40.4355 31.576C41.2004 32.372 41.1743 33.638 40.3774 34.404L35.9464 38.652C35.0414 39.544 33.8401 39.994 32.6367 39.994C31.4334 39.994 30.228 39.544 29.307 38.646L27.0404 36.428C26.2496 35.654 26.2395 34.388 27.0124 33.6C27.7853 32.81 29.0527 32.798 29.8436 33.572L32.1081 35.788C32.3965 36.072 32.867 36.066 33.1533 35.784L37.6043 31.516C38.3992 30.754 39.6686 30.776 40.4355 31.574V31.576Z" fill="#2078BA"/>
</svg>
