<svg width="48" height="48" viewBox="0 0 48 48" fill="none" xmlns="http://www.w3.org/2000/svg">
<g clip-path="url(#clip0_72_4069)">
<path d="M26 2.00002C26 1.46959 26.2107 0.960879 26.5858 0.585807C26.9608 0.210734 27.4695 2.01077e-05 28 2.01077e-05C33.3025 0.0058433 38.3862 2.11485 42.1357 5.86432C45.8851 9.61378 47.9941 14.6975 48 20C48 20.5305 47.7893 21.0392 47.4142 21.4142C47.0391 21.7893 46.5304 22 46 22C45.4695 22 44.9608 21.7893 44.5858 21.4142C44.2107 21.0392 44 20.5305 44 20C43.9952 15.758 42.308 11.6911 39.3084 8.69157C36.3089 5.69202 32.242 4.00478 28 4.00002C27.4695 4.00002 26.9608 3.78931 26.5858 3.41423C26.2107 3.03916 26 2.53045 26 2.00002ZM28 12C30.1217 12 32.1565 12.8429 33.6568 14.3432C35.1571 15.8435 36 17.8783 36 20C36 20.5305 36.2107 21.0392 36.5858 21.4142C36.9608 21.7893 37.4695 22 38 22C38.5304 22 39.0391 21.7893 39.4142 21.4142C39.7893 21.0392 40 20.5305 40 20C39.9968 16.8184 38.7315 13.768 36.4817 11.5182C34.232 9.2685 31.1816 8.0032 28 8.00002C27.4695 8.00002 26.9608 8.21074 26.5858 8.58581C26.2107 8.96088 26 9.46959 26 10C26 10.5305 26.2107 11.0392 26.5858 11.4142C26.9608 11.7893 27.4695 12 28 12ZM46.186 33.478C47.345 34.6403 47.9959 36.2146 47.9959 37.856C47.9959 39.4974 47.345 41.0718 46.186 42.234L44.366 44.332C27.986 60.014 -11.874 20.164 3.56597 3.73202L5.86597 1.73202C7.02951 0.605375 8.58983 -0.0178817 10.2094 -0.00291021C11.8289 0.0120613 13.3775 0.664057 14.52 1.81202C14.582 1.87402 18.288 6.68802 18.288 6.68802C19.3876 7.84328 19.9998 9.37788 19.9972 10.9728C19.9946 12.5678 19.3774 14.1004 18.274 15.252L15.958 18.164C17.2397 21.2782 19.1241 24.1085 21.503 26.4922C23.8819 28.8759 26.7083 30.766 29.82 32.054L32.75 29.724C33.9018 28.6215 35.4341 28.005 37.0286 28.0028C38.623 28.0005 40.1571 28.6127 41.312 29.712C41.312 29.712 46.124 33.416 46.186 33.478ZM43.434 36.386C43.434 36.386 38.648 32.704 38.586 32.642C38.1739 32.2335 37.6172 32.0043 37.037 32.0043C36.4567 32.0043 35.9 32.2335 35.488 32.642C35.434 32.698 31.4 35.912 31.4 35.912C31.1281 36.1284 30.8046 36.2702 30.4613 36.3235C30.1179 36.3769 29.7666 36.3398 29.442 36.216C25.4109 34.7152 21.7494 32.3655 18.7056 29.3262C15.6618 26.2869 13.3068 22.6289 11.8 18.6C11.6664 18.2709 11.6228 17.9122 11.6738 17.5607C11.7247 17.2092 11.8684 16.8776 12.09 16.6C12.09 16.6 15.304 12.564 15.358 12.512C15.7665 12.1 15.9957 11.5433 15.9957 10.963C15.9957 10.3828 15.7665 9.82605 15.358 9.41402C15.296 9.35402 11.614 4.56402 11.614 4.56402C11.1958 4.18903 10.65 3.98821 10.0885 4.00271C9.52695 4.01722 8.99226 4.24595 8.59397 4.64202L6.29397 6.64202C-4.99003 20.21 29.552 52.836 41.442 41.6L43.264 39.5C43.6909 39.1045 43.9474 38.5585 43.9791 37.9774C44.0108 37.3963 43.8153 36.8256 43.434 36.386Z" fill="#2078BA"/>
</g>
<defs>
<clipPath id="clip0_72_4069">
<rect width="48" height="48" fill="white"/>
</clipPath>
</defs>
</svg>
