<svg width="48" height="48" viewBox="0 0 48 48" fill="none" xmlns="http://www.w3.org/2000/svg">
<g clip-path="url(#clip0_72_4068)">
<path d="M44.3399 3.64001L42.2399 1.82001C39.8199 -0.599995 35.8999 -0.599995 33.4799 1.82001C33.4199 1.88001 29.7199 6.70001 29.7199 6.70001C27.4399 9.10001 27.4399 12.88 29.7199 15.26L32.0399 18.18C29.1199 24.8 24.5799 29.36 18.1799 32.08L15.2599 29.74C12.8799 27.44 9.07989 27.44 6.69989 29.74C6.69989 29.74 1.87989 33.44 1.81989 33.5C-0.600115 35.92 -0.600115 39.84 1.71989 42.16L3.71989 44.46C6.01989 46.76 9.11989 48.02 12.4799 48.02C27.7599 48.02 47.9999 27.76 47.9999 12.5C47.9999 9.16001 46.7399 6.04001 44.3399 3.66001V3.64001ZM12.4799 44C10.1999 44 8.09989 43.16 6.65989 41.7L4.65989 39.4C3.83989 38.58 3.79989 37.24 4.57989 36.38C4.57989 36.38 9.35989 32.7 9.41989 32.64C10.2399 31.82 11.6799 31.82 12.5199 32.64C12.5799 32.7 16.5999 35.92 16.5999 35.92C17.1599 36.36 17.8999 36.48 18.5599 36.22C26.8399 33.06 32.7799 27.14 36.1999 18.6C36.4599 17.94 36.3599 17.18 35.8999 16.6C35.8999 16.6 32.6799 12.56 32.6399 12.52C31.7799 11.66 31.7799 10.28 32.6399 9.42001C32.6999 9.36001 36.3799 4.58001 36.3799 4.58001C37.2399 3.80001 38.5799 3.82 39.4999 4.74001L41.5999 6.56001C43.1399 8.10001 43.9999 10.2 43.9999 12.48C43.9999 26.4 24.4599 44 12.4799 44Z" fill="#2078BA"/>
</g>
<defs>
<clipPath id="clip0_72_4068">
<rect width="48" height="48" fill="white"/>
</clipPath>
</defs>
</svg>
