<svg width="48" height="48" viewBox="0 0 48 48" fill="none" xmlns="http://www.w3.org/2000/svg">
<g clip-path="url(#clip0_72_4066)">
<path d="M38 0H10C7.34881 0.00317572 4.80712 1.05776 2.93244 2.93244C1.05776 4.80712 0.00317572 7.34881 0 10L0 38C0.00317572 40.6512 1.05776 43.1929 2.93244 45.0676C4.80712 46.9422 7.34881 47.9968 10 48H38C40.6512 47.9968 43.1929 46.9422 45.0676 45.0676C46.9422 43.1929 47.9968 40.6512 48 38V10C47.9968 7.34881 46.9422 4.80712 45.0676 2.93244C43.1929 1.05776 40.6512 0.00317572 38 0ZM10 4H38C39.5913 4 41.1174 4.63214 42.2426 5.75736C43.3679 6.88258 44 8.4087 44 10V38C43.9966 38.891 43.7914 39.7696 43.4 40.57L25.074 22.244C24.1454 21.3151 23.0429 20.5783 21.8294 20.0756C20.616 19.5729 19.3154 19.3141 18.002 19.3141C16.6886 19.3141 15.388 19.5729 14.1746 20.0756C12.9611 20.5783 11.8586 21.3151 10.93 22.244L4 29.172V10C4 8.4087 4.63214 6.88258 5.75736 5.75736C6.88258 4.63214 8.4087 4 10 4ZM10 44C8.4087 44 6.88258 43.3679 5.75736 42.2426C4.63214 41.1174 4 39.5913 4 38V34.828L13.756 25.072C14.3132 24.5144 14.9748 24.0721 15.703 23.7704C16.4312 23.4686 17.2117 23.3133 18 23.3133C18.7883 23.3133 19.5688 23.4686 20.297 23.7704C21.0252 24.0721 21.6868 24.5144 22.244 25.072L40.57 43.4C39.7696 43.7914 38.891 43.9966 38 44H10Z" fill="#2078BA"/>
<path d="M32 21C33.3845 21 34.7378 20.5895 35.889 19.8203C37.0401 19.0511 37.9373 17.9579 38.4672 16.6788C38.997 15.3997 39.1356 13.9922 38.8655 12.6344C38.5954 11.2765 37.9287 10.0292 36.9497 9.05026C35.9708 8.07129 34.7235 7.4046 33.3656 7.13451C32.0078 6.86441 30.6003 7.00303 29.3212 7.53285C28.0421 8.06266 26.9489 8.95987 26.1797 10.111C25.4105 11.2622 25 12.6155 25 14C25 15.8565 25.7375 17.637 27.0503 18.9498C28.363 20.2625 30.1435 21 32 21ZM32 11C32.5933 11 33.1734 11.176 33.6667 11.5056C34.1601 11.8352 34.5446 12.3038 34.7716 12.852C34.9987 13.4001 35.0581 14.0033 34.9424 14.5853C34.8266 15.1672 34.5409 15.7018 34.1213 16.1213C33.7018 16.5409 33.1672 16.8266 32.5853 16.9424C32.0033 17.0581 31.4001 16.9987 30.852 16.7716C30.3038 16.5446 29.8352 16.1601 29.5056 15.6667C29.1759 15.1734 29 14.5933 29 14C29 13.2044 29.3161 12.4413 29.8787 11.8787C30.4413 11.3161 31.2044 11 32 11Z" fill="#2078BA"/>
</g>
<defs>
<clipPath id="clip0_72_4066">
<rect width="48" height="48" fill="white"/>
</clipPath>
</defs>
</svg>
