<svg width="48" height="48" viewBox="0 0 48 48" fill="none" xmlns="http://www.w3.org/2000/svg">
<g clip-path="url(#clip0_72_3959)">
<path d="M0.24 4.08012C-0.242 3.12212 0.15 1.95412 1.124 1.50612C3.764 0.292117 9.728 -1.30588 15.378 1.81012C18.446 3.50212 19.74 7.09012 18.626 10.2541C18.924 11.0461 19.184 11.8941 19.386 12.8261C20.206 12.0701 21.134 11.4161 22.094 10.8361C21.952 8.40812 23.49 6.01012 25.914 4.95412C29.972 3.18412 34.64 4.27612 36.878 5.17612C37.882 5.58012 38.32 6.75412 37.834 7.72012C36.288 10.8021 33.384 13.6241 30.416 15.2821C28.212 16.5141 25.554 16.0861 23.812 14.4381C21.85 15.7181 20.352 17.5021 19.852 18.7461C19.544 19.5121 18.802 19.9981 17.998 19.9981C16.664 19.9981 16.038 19.0221 15.998 18.0801C15.918 16.1181 15.668 14.4081 15.282 12.9601C14.666 11.2341 12.422 8.20812 12.29 7.97212C9.032 4.51612 5.03 4.00012 5.03 4.00012C9.388 8.98012 11.03 11.0001 11.972 14.9681C10.762 14.9841 9.536 14.7261 8.404 14.1021C4.59 11.9981 1.982 7.54212 0.24 4.08012ZM46.47 26.0321L32.862 41.3061C29.07 45.5621 23.626 48.0021 17.928 48.0021H8C3.588 48.0021 0 44.4141 0 40.0021V30.0021C0 25.5901 3.588 22.0021 8 22.0021H25.714C27.994 22.0021 29.992 23.2201 31.092 25.0401L37.526 17.9701C38.606 16.7801 40.088 16.0821 41.696 16.0081C43.32 15.9301 44.844 16.4881 46.034 17.5721C48.462 19.7861 48.658 23.5821 46.47 26.0321ZM43.34 20.5281C42.942 20.1661 42.426 19.9861 41.884 20.0041C41.344 20.0301 40.846 20.2621 40.486 20.6621L31.632 30.3921C30.862 32.5321 28.954 34.1721 26.604 34.5081L16.282 35.9821C15.186 36.1341 14.174 35.3761 14.018 34.2841C13.862 33.1901 14.622 32.1761 15.716 32.0201L26.038 30.5461C27.158 30.3881 27.998 29.4161 27.998 28.2861C27.998 27.0261 26.972 26.0001 25.712 26.0001H8C5.794 26.0001 4 27.7941 4 30.0001V40.0001C4 42.2061 5.794 44.0001 8 44.0001H17.93C22.488 44.0001 26.842 42.0461 29.878 38.6441L43.486 23.3681C44.222 22.5441 44.156 21.2701 43.342 20.5261L43.34 20.5281Z" fill="#2078BA"/>
</g>
<defs>
<clipPath id="clip0_72_3959">
<rect width="48" height="48" fill="white"/>
</clipPath>
</defs>
</svg>
