<svg width="48" height="48" viewBox="0 0 48 48" fill="none" xmlns="http://www.w3.org/2000/svg">
<g clip-path="url(#clip0_72_3960)">
<path d="M46 14H40V10H46C47.106 10 48 9.106 48 8C48 6.894 47.106 6 46 6H40V2C40 0.894 39.106 0 38 0C36.894 0 36 0.894 36 2H30C25.172 2 21.132 5.442 20.202 10H10C4.486 10 0 14.486 0 20V40.708C0 43.146 0.888 45.496 2.5 47.322C3.234 48.154 4.498 48.228 5.322 47.5C6.152 46.77 6.23 45.506 5.5 44.678C4.534 43.58 4 42.172 4 40.71V20.002C4 16.694 6.692 14.002 10 14.002H20.202C21.132 18.56 25.17 22.002 30 22.002H36C36 23.108 36.894 24.002 38 24.002C39.106 24.002 40 23.108 40 22.002V18.002H46C47.106 18.002 48 17.108 48 16.002C48 14.896 47.106 14 46 14ZM30 18C26.692 18 24 15.308 24 12C24 8.692 26.692 6 30 6H36V18H30ZM42 28C38.692 28 36 30.692 36 34V42C36 45.308 38.692 48 42 48C45.308 48 48 45.308 48 42V34C48 30.692 45.308 28 42 28ZM44 42C44 43.104 43.104 44 42 44C40.896 44 40 43.104 40 42V34C40 32.896 40.896 32 42 32C43.104 32 44 32.896 44 34V42ZM26 34V42C26 43.104 26.896 44 28 44C29.104 44 30 43.104 30 42C30 40.896 30.894 40 32 40C33.106 40 34 40.894 34 42C34 45.308 31.308 48 28 48C24.692 48 22 45.308 22 42V34C22 30.692 24.692 28 28 28C31.308 28 34 30.692 34 34C34 35.106 33.106 36 32 36C30.894 36 30 35.106 30 34C30 32.894 29.104 32 28 32C26.896 32 26 32.896 26 34ZM14 32V36H16C17.106 36 18 36.894 18 38C18 39.106 17.106 40 16 40H14V44H18C19.106 44 20 44.894 20 46C20 47.106 19.106 48 18 48H14C11.794 48 10 46.206 10 44V32C10 29.794 11.794 28 14 28H18C19.106 28 20 28.894 20 30C20 31.106 19.106 32 18 32H14Z" fill="#2078BA"/>
</g>
<defs>
<clipPath id="clip0_72_3960">
<rect width="48" height="48" fill="white"/>
</clipPath>
</defs>
</svg>
