<svg width="48" height="48" viewBox="0 0 48 48" fill="none" xmlns="http://www.w3.org/2000/svg">
<g clip-path="url(#clip0_72_3961)">
<path d="M48.0001 37C48.0001 43.064 43.0641 48 37.0001 48H34.0001C32.8941 48 32.0001 47.106 32.0001 46C32.0001 44.894 32.8941 44 34.0001 44H37.0001C40.8601 44 44.0001 40.86 44.0001 37C44.0001 34.488 42.6101 32.156 40.3741 30.912C39.4761 30.414 39.1001 29.314 39.5081 28.37C39.8341 27.616 40.0001 26.82 40.0001 26C40.0001 23.76 38.7401 21.722 36.7101 20.686C35.7821 20.212 35.3741 19.106 35.7701 18.144C35.9221 17.776 35.9981 17.392 35.9981 17.002C35.9981 15.348 34.6521 14.002 32.9981 14.002H31.9981C30.8921 14.002 29.9981 13.108 29.9981 12.002C29.9981 9.58001 27.9821 6.03401 25.7961 4.62001C24.6421 11.81 18.9001 13.81 18.6301 13.9C18.4241 13.968 18.2121 14.004 17.9981 14.004H14.9981C13.3441 14.004 11.9981 15.35 11.9981 17.004C11.9981 17.394 12.0741 17.78 12.2261 18.146C12.6221 19.108 12.2141 20.214 11.2861 20.688C9.25609 21.726 7.99609 23.762 7.99609 26.002C7.99609 26.82 8.16209 27.618 8.48809 28.372C8.89609 29.318 8.52209 30.416 7.62209 30.914C5.38609 32.158 3.99609 34.49 3.99609 37.002C3.99609 40.862 7.13609 44.002 10.9961 44.002H11.9961C13.1021 44.002 13.9961 44.896 13.9961 46.002C13.9961 47.108 13.1021 48.002 11.9961 48.002H10.9961C4.93209 48.002 -0.00390625 43.066 -0.00390625 37.002C-0.00390625 33.6 1.60209 30.41 4.27609 28.344C4.09009 27.58 3.99609 26.798 3.99609 26.002C3.99609 22.802 5.52209 19.856 8.06609 17.988C8.02009 17.662 7.99609 17.334 7.99609 17.002C7.99609 13.142 11.1361 10.002 14.9961 10.002H17.6081C18.5721 9.55801 21.9961 7.58601 21.9961 2.00201C21.9961 0.896014 22.8901 0.00201416 23.9961 0.00201416C28.7961 0.00201416 32.8121 5.49601 33.7761 10.044C37.2701 10.432 39.9961 13.406 39.9961 17.002C39.9961 17.334 39.9721 17.662 39.9261 17.988C42.4701 19.856 43.9961 22.802 43.9961 26.002C43.9961 26.796 43.9021 27.58 43.7161 28.344C46.3901 30.41 47.9961 33.6 47.9961 37.002L48.0001 37ZM34.3621 33.892L25.8381 46.364C25.1061 47.424 23.9701 48.002 22.7841 48.002C22.2421 48.002 21.6861 47.88 21.1561 47.63C19.4621 46.832 18.6401 45.016 19.1521 43.216L20.2301 39.972H16.8481C15.6201 39.972 14.4941 39.406 13.7621 38.422C13.0301 37.434 12.8121 36.194 13.1681 35.016L17.4321 22.668C17.9861 21.056 19.5041 19.972 21.2121 19.972H25.0021C26.3201 19.972 27.5521 20.62 28.2981 21.708C29.0441 22.794 29.2081 24.178 28.7361 25.408L27.8301 27.972H31.1921C32.5981 27.972 33.8841 28.742 34.5501 29.982C35.2141 31.222 35.1441 32.72 34.3661 33.89L34.3621 33.892ZM30.8961 31.876L25.0021 31.974C24.3541 31.974 23.7441 31.66 23.3701 31.128C22.9941 30.598 22.9021 29.92 23.1161 29.308L24.9821 24.026L21.2121 23.974L17.0461 36.036L23.0041 35.974C23.6461 35.974 24.2501 36.282 24.6261 36.804C25.0021 37.326 25.1061 37.996 24.9041 38.604L23.5781 42.588L30.9001 31.876H30.8961Z" fill="#2078BA"/>
</g>
<defs>
<clipPath id="clip0_72_3961">
<rect width="48" height="48" fill="white"/>
</clipPath>
</defs>
</svg>
