<svg width="48" height="48" viewBox="0 0 48 48" fill="none" xmlns="http://www.w3.org/2000/svg">
<g clip-path="url(#clip0_72_4027)">
<path d="M47.414 44.586L42.334 39.506C43.382 37.924 44 36.034 44 34C44 28.486 39.514 24 34 24C28.486 24 24 28.486 24 34C24 39.514 28.486 44 34 44C36.034 44 37.924 43.382 39.506 42.334L44.586 47.414C44.976 47.804 45.488 48 46 48C46.512 48 47.024 47.804 47.414 47.414C48.196 46.632 48.196 45.368 47.414 44.586ZM28 34C28 30.692 30.692 28 34 28C37.308 28 40 30.692 40 34C40 37.308 37.308 40 34 40C30.692 40 28 37.308 28 34ZM23 26C23 27.656 21.656 29 20 29C18.344 29 17 27.656 17 26C17 24.344 18.344 23 20 23C21.656 23 23 24.344 23 26ZM22 12V18C22 19.104 21.106 20 20 20C18.894 20 18 19.104 18 18V12C18 10.896 18.894 10 20 10C21.106 10 22 10.896 22 12ZM20 34C20 35.104 19.106 36 18 36H6.158C3.934 36 1.942 34.848 0.830001 32.918C-0.281999 30.986 -0.273999 28.686 0.846001 26.76L14.602 3.062C15.718 1.144 17.706 0 19.924 0C22.138 0 24.126 1.144 25.236 3.058L33.304 16.998C33.858 17.954 33.53 19.178 32.576 19.732C31.616 20.282 30.396 19.958 29.844 19.002L21.778 5.066C20.992 3.714 18.854 3.71 18.062 5.072L4.304 28.77C3.906 29.454 3.902 30.24 4.296 30.924C4.688 31.606 5.368 32 6.158 32H18C19.106 32 20 32.896 20 34Z" fill="#2078BA"/>
</g>
<defs>
<clipPath id="clip0_72_4027">
<rect width="48" height="48" fill="white"/>
</clipPath>
</defs>
</svg>
