<svg width="48" height="48" viewBox="0 0 48 48" fill="none" xmlns="http://www.w3.org/2000/svg">
<g clip-path="url(#clip0_72_4022)">
<path d="M26 48C22.8184 47.9968 19.768 46.7315 17.5182 44.4818C15.2685 42.232 14.0032 39.1816 14 36C14 32.88 16.4 27.91 21.104 21.224C21.6625 20.4461 22.3982 19.8123 23.2503 19.3751C24.1024 18.9379 25.0463 18.7098 26.004 18.7098C26.9617 18.7098 27.9056 18.9379 28.7577 19.3751C29.6098 19.8123 30.3455 20.4461 30.904 21.224C35.61 27.91 38 32.88 38 36C37.9968 39.1816 36.7315 42.232 34.4818 44.4818C32.232 46.7315 29.1816 47.9968 26 48ZM26 22.686C25.6807 22.6836 25.3657 22.7593 25.0823 22.9064C24.7989 23.0535 24.5558 23.2675 24.374 23.53C18.622 31.688 18 34.968 18 36C18 38.1218 18.8429 40.1566 20.3431 41.6569C21.8434 43.1572 23.8783 44 26 44C28.1217 44 30.1566 43.1572 31.6569 41.6569C33.1571 40.1566 34 38.1218 34 36C34 34.968 33.378 31.688 27.626 23.53C27.4442 23.2675 27.2011 23.0535 26.9177 22.9064C26.6343 22.7593 26.3193 22.6836 26 22.686Z" fill="#2078BA"/>
<path d="M10 22C7.34881 21.9968 4.80712 20.9422 2.93244 19.0675C1.05776 17.1929 0.00317572 14.6512 0 12C0 9.47997 1.684 6.28997 5.148 2.24597C5.74882 1.54747 6.49337 0.986933 7.33077 0.602667C8.16816 0.218402 9.07865 0.0194702 10 0.0194702C10.9214 0.0194702 11.8318 0.218402 12.6692 0.602667C13.5066 0.986933 14.2512 1.54747 14.852 2.24597C18.316 6.28597 20 9.47597 20 12C19.9968 14.6512 18.9422 17.1929 17.0676 19.0675C15.1929 20.9422 12.6512 21.9968 10 22ZM10 3.99997C9.65461 3.99828 9.31311 4.07287 8.99988 4.21842C8.68665 4.36397 8.40942 4.57689 8.188 4.84197C4.302 9.37797 4 11.464 4 12C4 13.5913 4.63214 15.1174 5.75736 16.2426C6.88258 17.3678 8.4087 18 10 18C11.5913 18 13.1174 17.3678 14.2426 16.2426C15.3679 15.1174 16 13.5913 16 12C16 11.468 15.698 9.38197 11.812 4.84797C11.5913 4.58158 11.3144 4.36738 11.0011 4.22075C10.6878 4.07413 10.3459 3.99873 10 3.99997Z" fill="#2078BA"/>
<path d="M39 19.928C36.6139 19.9254 34.3262 18.9763 32.639 17.2891C30.9517 15.6018 30.0026 13.3142 30 10.928C30 8.74602 31.4 5.91602 34.292 2.27602C34.858 1.57174 35.5748 1.00341 36.3896 0.612921C37.2044 0.222428 38.0965 0.0197144 39 0.0197144C39.9035 0.0197144 40.7956 0.222428 41.6104 0.612921C42.4252 1.00341 43.142 1.57174 43.708 2.27602C46.6 5.91602 48 8.74602 48 10.928C47.9974 13.3142 47.0483 15.6018 45.361 17.2891C43.6738 18.9763 41.3861 19.9254 39 19.928ZM39 4.00002C38.6971 3.99953 38.398 4.06787 38.1253 4.19987C37.8526 4.33188 37.6135 4.5241 37.426 4.76202C34.246 8.77002 34 10.494 34 10.928C34 12.2541 34.5268 13.5259 35.4645 14.4636C36.4021 15.4012 37.6739 15.928 39 15.928C40.3261 15.928 41.5979 15.4012 42.5355 14.4636C43.4732 13.5259 44 12.2541 44 10.928C44 10.494 43.754 8.77002 40.574 4.76402C40.3867 4.52573 40.1477 4.33313 39.875 4.20077C39.6023 4.06842 39.3031 3.99977 39 4.00002Z" fill="#2078BA"/>
</g>
<defs>
<clipPath id="clip0_72_4022">
<rect width="48" height="48" fill="white"/>
</clipPath>
</defs>
</svg>
