<svg width="48" height="48" viewBox="0 0 48 48" fill="none" xmlns="http://www.w3.org/2000/svg">
<g clip-path="url(#clip0_72_3962)">
<path d="M20.7137 5.84202L17.8817 10.442C17.59 10.8625 17.1483 11.1551 16.6474 11.2597C16.1465 11.3643 15.6245 11.273 15.1889 11.0044C14.7533 10.7359 14.4372 10.3106 14.3057 9.81613C14.1741 9.32162 14.2371 8.79549 14.4817 8.34602L17.3137 3.74602C18.0239 2.61204 19.0105 1.67713 20.1811 1.02904C21.3517 0.380957 22.6677 0.0409546 24.0057 0.0409546C25.3437 0.0409546 26.6597 0.380957 27.8303 1.02904C29.0009 1.67713 29.9875 2.61204 30.6977 3.74602L39.0977 17.414L39.9797 12.684C40.0768 12.1623 40.3771 11.7006 40.8146 11.4003C41.2521 11.1001 41.791 10.986 42.3127 11.083C42.8344 11.1801 43.2961 11.4804 43.5964 11.9179C43.8966 12.3555 44.0108 12.8943 43.9137 13.416L42.9137 18.756C42.6578 20.1307 41.9298 21.3729 40.8555 22.2679C39.7812 23.1629 38.428 23.6546 37.0297 23.658C36.6397 23.658 30.5957 22.506 30.5957 22.506C30.0841 22.3948 29.6364 22.0874 29.3489 21.6498C29.0614 21.2122 28.957 20.6793 29.0581 20.1656C29.1591 19.6518 29.4577 19.1982 29.8895 18.9021C30.3213 18.606 30.8521 18.4911 31.3677 18.582L35.6337 19.424L27.2857 5.84202C26.9386 5.28308 26.4547 4.82191 25.8797 4.50213C25.3047 4.18234 24.6576 4.01451 23.9997 4.01451C23.3418 4.01451 22.6947 4.18234 22.1197 4.50213C21.5447 4.82191 21.0608 5.28308 20.7137 5.84202ZM46.8177 29.96L44.8817 26.816C44.7518 26.5773 44.5746 26.3676 44.361 26.1996C44.1474 26.0317 43.9017 25.909 43.6391 25.8392C43.3765 25.7693 43.1024 25.7537 42.8335 25.7933C42.5647 25.8329 42.3067 25.9269 42.0754 26.0695C41.8441 26.2121 41.6442 26.4003 41.4881 26.6227C41.3319 26.8451 41.2228 27.097 41.1672 27.3631C41.1116 27.6291 41.1109 27.9036 41.1649 28.1699C41.219 28.4362 41.3268 28.6887 41.4817 28.912L43.4177 32.056C43.787 32.6474 43.9896 33.3276 44.004 34.0247C44.0185 34.7218 43.8442 35.4098 43.4997 36.016C43.1684 36.6206 42.6796 37.1242 42.0853 37.4735C41.4909 37.8228 40.8131 38.0047 40.1237 38H25.3517L27.8937 35.462C28.2586 35.0853 28.4609 34.5804 28.4571 34.056C28.4533 33.5316 28.2437 33.0296 27.8734 32.6583C27.5031 32.2869 27.0017 32.0759 26.4773 32.0706C25.9529 32.0653 25.4474 32.2662 25.0697 32.63L21.6857 36C20.6296 37.0502 20.0247 38.4709 19.9997 39.96C19.9997 39.96 19.9997 39.98 19.9997 39.988C19.9997 39.996 19.9997 40.014 19.9997 40.028C19.994 40.7976 20.1424 41.5605 20.436 42.2719C20.7297 42.9832 21.1628 43.6286 21.7097 44.17L25.0737 47.474C25.2591 47.6672 25.4813 47.8213 25.7273 47.927C25.9733 48.0327 26.238 48.0879 26.5058 48.0894C26.7735 48.0909 27.0388 48.0387 27.286 47.9357C27.5331 47.8328 27.7571 47.6812 27.9446 47.4901C28.1321 47.299 28.2793 47.0722 28.3775 46.8231C28.4758 46.574 28.523 46.3077 28.5163 46.0401C28.5097 45.7724 28.4494 45.5088 28.3391 45.2649C28.2287 45.0209 28.0704 44.8017 27.8737 44.62L25.2177 42H40.1237C41.5268 41.9952 42.9032 41.6166 44.1114 40.9032C45.3196 40.1897 46.3159 39.1673 46.9977 37.9409C47.6795 36.7146 48.0222 35.3288 47.9906 33.9261C47.9589 32.5233 47.5541 31.1543 46.8177 29.96ZM13.5597 14.426C12.9043 13.9797 12.1664 13.6684 11.3893 13.5104C10.6122 13.3525 9.8114 13.351 9.0337 13.506L3.7757 14.542C3.51377 14.5882 3.26369 14.6862 3.04008 14.8302C2.81647 14.9742 2.62383 15.1613 2.47343 15.3807C2.32303 15.6 2.21789 15.8472 2.16417 16.1077C2.11045 16.3682 2.10922 16.6368 2.16057 16.8977C2.21191 17.1587 2.31479 17.4068 2.46318 17.6275C2.61157 17.8482 2.8025 18.0371 3.02478 18.1832C3.24707 18.3292 3.49625 18.4295 3.75775 18.478C4.01925 18.5266 4.2878 18.5225 4.5477 18.466L8.7637 17.636L1.1817 29.96C0.445405 31.1542 0.0405712 32.523 0.00885449 33.9256C-0.0228622 35.3281 0.319684 36.7138 1.00125 37.9401C1.68281 39.1663 2.67878 40.1888 3.88668 40.9024C5.09458 41.616 6.47078 41.9948 7.8737 42H14.1597C14.6901 42 15.1988 41.7893 15.5739 41.4142C15.949 41.0392 16.1597 40.5305 16.1597 40C16.1597 39.4696 15.949 38.9609 15.5739 38.5858C15.1988 38.2107 14.6901 38 14.1597 38H7.8737C7.18567 38.0033 6.50954 37.8207 5.91671 37.4714C5.32389 37.1222 4.83638 36.6194 4.5057 36.016C4.16119 35.4098 3.98694 34.7218 4.00137 34.0247C4.0158 33.3276 4.21839 32.6474 4.5877 32.056L12.2637 19.58L13.1557 24.368C13.2533 24.8897 13.5541 25.3512 13.992 25.6511C14.4299 25.951 14.969 26.0646 15.4907 25.967C16.0124 25.8694 16.4739 25.5686 16.7738 25.1307C17.0737 24.6928 17.1873 24.1537 17.0897 23.632L16.0897 18.292C15.946 17.5118 15.6483 16.7681 15.2139 16.1043C14.7795 15.4406 14.2171 14.87 13.5597 14.426Z" fill="#2078BA"/>
</g>
<defs>
<clipPath id="clip0_72_3962">
<rect width="48" height="48" fill="white"/>
</clipPath>
</defs>
</svg>
