<svg width="48" height="48" viewBox="0 0 48 48" fill="none" xmlns="http://www.w3.org/2000/svg">
<g clip-path="url(#clip0_72_4023)">
<path d="M47.9997 14C47.9997 15.104 47.1037 16 45.9997 16C44.8957 16 43.9997 15.104 43.9997 14C43.9997 8.486 39.5137 4 33.9997 4C32.8957 4 31.9997 3.104 31.9997 2C31.9997 0.896 32.8957 0 33.9997 0C41.7197 0 47.9997 6.28 47.9997 14ZM33.9997 8C32.8957 8 31.9997 8.896 31.9997 10C31.9997 11.104 32.8957 12 33.9997 12C35.1037 12 35.9997 12.898 35.9997 14C35.9997 15.102 36.8957 16 37.9997 16C39.1037 16 39.9997 15.104 39.9997 14C39.9997 10.692 37.3077 8 33.9997 8ZM21.9997 23C23.6557 23 24.9997 21.656 24.9997 20C24.9997 18.344 23.6557 17 21.9997 17C20.3437 17 18.9997 18.344 18.9997 20C18.9997 21.656 20.3437 23 21.9997 23ZM27.9997 23C26.3437 23 24.9997 24.344 24.9997 26C24.9997 27.656 26.3437 29 27.9997 29C29.6557 29 30.9997 27.656 30.9997 26C30.9997 24.344 29.6557 23 27.9997 23ZM15.9997 23C14.3437 23 12.9997 24.344 12.9997 26C12.9997 27.656 14.3437 29 15.9997 29C17.6557 29 18.9997 27.656 18.9997 26C18.9997 24.344 17.6557 23 15.9997 23ZM21.9997 29C20.3437 29 18.9997 30.344 18.9997 32C18.9997 33.656 20.3437 35 21.9997 35C23.6557 35 24.9997 33.656 24.9997 32C24.9997 30.344 23.6557 29 21.9997 29ZM35.0637 18.602C38.9457 22.32 38.9517 29.018 35.0777 32.744L22.7657 45.064C19.0457 48.946 12.3457 48.954 8.62168 45.074L2.93168 39.392C-0.968317 35.498 -0.974316 29.154 2.91968 25.254L15.2297 12.938C18.9477 9.054 25.6457 9.046 29.3737 12.922L35.0657 18.602H35.0637ZM32.2377 21.434L26.5457 15.754C24.3097 13.428 20.2917 13.432 18.0597 15.762L5.75168 28.082C3.41768 30.42 3.41968 34.226 5.75968 36.564L11.4497 42.246C13.6837 44.574 17.7077 44.57 19.9377 42.238L32.2497 29.918C34.5857 27.578 34.5817 23.772 32.2397 21.436L32.2377 21.434Z" fill="#2078BA"/>
</g>
<defs>
<clipPath id="clip0_72_4023">
<rect width="48" height="48" fill="white"/>
</clipPath>
</defs>
</svg>
