<svg width="48" height="48" viewBox="0 0 48 48" fill="none" xmlns="http://www.w3.org/2000/svg">
<g clip-path="url(#clip0_72_3963)">
<path d="M48 24C48 25.104 47.106 26 46 26C44.894 26 44 25.104 44 24C44 12.972 35.028 4 24 4C17.692 4 11.77 7.02 8.018 12H14C15.106 12 16 12.896 16 14C16 15.104 15.106 16 14 16H6C3.794 16 2 14.206 2 12V4C2 2.896 2.894 2 4 2C5.106 2 6 2.896 6 4V8.208C10.512 3.084 17.048 0 24 0C37.234 0 48 10.766 48 24ZM42 32H34C32.894 32 32 32.894 32 34C32 35.106 32.894 36 34 36H39.982C36.228 40.98 30.308 44 24 44C12.972 44 4 35.028 4 24C4 22.896 3.106 22 2 22C0.894 22 0 22.896 0 24C0 37.234 10.766 48 24 48C30.952 48 37.488 44.916 42 39.792V44C42 45.106 42.894 46 44 46C45.106 46 46 45.106 46 44V36C46 33.794 44.206 32 42 32ZM24.992 10.264C24.03 9.714 22.81 10.05 22.264 11.008C22.264 11.008 16.182 21.692 16.14 21.836C15.846 22.81 16.032 23.878 16.638 24.696C17.246 25.514 18.214 26 19.232 26H27.422L22.266 35.006C21.718 35.964 22.05 37.188 23.008 37.736C23.322 37.916 23.664 38 24 38C24.694 38 25.37 37.638 25.738 36.994L31.466 26.978C32.118 25.992 32.176 24.732 31.616 23.688C31.058 22.646 29.976 21.998 28.792 21.998H20.592L25.736 12.99C26.284 12.03 25.95 10.81 24.992 10.264Z" fill="#2078BA"/>
</g>
<defs>
<clipPath id="clip0_72_3963">
<rect width="48" height="48" fill="white"/>
</clipPath>
</defs>
</svg>
