<svg width="48" height="48" viewBox="0 0 48 48" fill="none" xmlns="http://www.w3.org/2000/svg">
<g clip-path="url(#clip0_72_3964)">
<path d="M40 28H20V8C20 3.588 16.412 0 12 0H8C3.588 0 0 3.588 0 8V38C0 43.514 4.486 48 10 48H40C44.412 48 48 44.412 48 40V36C48 31.588 44.412 28 40 28ZM44 40C44 42.206 42.206 44 40 44H10C6.692 44 4 41.308 4 38V8C4 5.794 5.794 4 8 4H12C14.206 4 16 5.794 16 8V12H12C10.896 12 10 12.894 10 14C10 15.106 10.896 16 12 16H16V20H12C10.896 20 10 20.894 10 22C10 23.106 10.896 24 12 24H16V28H12C10.896 28 10 28.894 10 30C10 31.106 10.896 32 12 32H16V36C16 37.106 16.896 38 18 38C19.104 38 20 37.106 20 36V32H24V36C24 37.106 24.896 38 26 38C27.104 38 28 37.106 28 36V32H32V36C32 37.106 32.894 38 34 38C35.106 38 36 37.106 36 36V32H40C42.206 32 44 33.794 44 36V40Z" fill="#2078BA"/>
</g>
<defs>
<clipPath id="clip0_72_3964">
<rect width="48" height="48" fill="white"/>
</clipPath>
</defs>
</svg>
