<svg width="48" height="48" viewBox="0 0 48 48" fill="none" xmlns="http://www.w3.org/2000/svg">
<g clip-path="url(#clip0_72_3965)">
<path d="M38 37C38 38.656 36.656 40 35 40C33.344 40 32 38.656 32 37C32 35.344 33.344 34 35 34C36.656 34 38 35.344 38 37ZM24 5.536C24 7.014 23.424 8.406 22.378 9.45L18 13.828V38.686C18 41.356 16.96 43.868 15.072 45.756L13.414 47.414C13.024 47.804 12.512 48 12 48C11.488 48 10.976 47.804 10.586 47.414L8.928 45.756C7.074 43.902 6.052 41.448 6.014 38.834L6 13.828L1.622 9.45C0.576 8.406 0 7.014 0 5.536C0 2.484 2.484 0 5.536 0H18.466C21.518 0 24.002 2.484 24.002 5.536H24ZM14 34.954L10.038 39.06C10.132 40.506 10.73 41.9 11.758 42.928L12.002 43.172L12.246 42.928C13.362 41.81 14.002 40.264 14.002 38.686V34.952L14 34.954ZM14 23.828L10 27.828V33.338L14 29.192V23.828ZM14 14H10V22.172L14 18.172V14ZM20 5.536C20 4.69 19.312 4 18.464 4H5.536C4.69 4 4 4.688 4 5.536C4 5.946 4.16 6.332 4.45 6.622L7.828 10H16.172L19.55 6.622C19.84 6.332 20 5.946 20 5.536ZM45.954 40.002L43.068 45.002C41.998 46.852 40.008 48.002 37.872 48.002H32.098C29.962 48.002 27.972 46.852 26.9 45.002L24.014 40.002C22.946 38.152 22.946 35.852 24.014 34.002L26.9 29.002C27.97 27.152 29.96 26.002 32.098 26.002H37.872C40.006 26.002 41.996 27.152 43.068 29.002L45.954 34.002C47.022 35.852 47.022 38.152 45.954 40.002ZM42.49 36.002L39.604 31.002C39.248 30.386 38.584 30.002 37.874 30.002H32.1C31.388 30.002 30.724 30.386 30.368 31.002L27.482 36.002C27.124 36.62 27.124 37.384 27.482 38.002L30.368 43.002C30.724 43.618 31.388 44.002 32.1 44.002H37.874C38.584 44.002 39.25 43.618 39.604 43.002L42.49 38.002C42.848 37.384 42.848 36.62 42.49 36.002Z" fill="#2078BA"/>
</g>
<defs>
<clipPath id="clip0_72_3965">
<rect width="48" height="48" fill="white"/>
</clipPath>
</defs>
</svg>
