<svg width="48" height="48" viewBox="0 0 48 48" fill="none" xmlns="http://www.w3.org/2000/svg">
<path d="M30.464 0H17.534C14.482 0 11.998 2.484 11.998 5.536C11.998 7.014 12.574 8.406 13.62 9.45L17.998 13.828C17.998 13.828 17.944 38.548 18.012 38.834C18.05 41.448 19.074 43.904 20.926 45.756L22.584 47.414C22.974 47.804 23.486 48 23.998 48C24.51 48 25.022 47.804 25.412 47.414L27.07 45.756C28.958 43.868 29.998 41.356 29.998 38.686V13.828L34.376 9.45C35.422 8.406 35.998 7.014 35.998 5.536C35.998 2.484 33.516 0 30.464 0ZM26 38.686C26 40.266 25.36 41.81 24.244 42.928L24 43.172L23.756 42.928C22.728 41.9 22.13 40.506 22.036 39.06L25.998 34.954V38.688L26 38.686ZM26 29.192L22 33.338V27.828L26 23.828V29.192ZM26 18.172L22 22.172V14H26V18.172ZM31.55 6.622L28.172 10H19.828L16.45 6.622C16.16 6.332 16 5.946 16 5.536C16 4.69 16.688 4 17.536 4H30.466C31.312 4 32.002 4.688 32.002 5.536C32.002 5.946 31.842 6.332 31.552 6.622H31.55Z" fill="#2078BA"/>
</svg>
