<svg width="48" height="48" viewBox="0 0 48 48" fill="none" xmlns="http://www.w3.org/2000/svg">
<g clip-path="url(#clip0_72_4013)">
<path d="M47.414 44.586L35.522 32.694C38.346 29.244 40.044 24.838 40.044 20.044C40.042 9.01599 31.07 0.0419922 20.042 0.0419922C9.01399 0.0419922 0.0419922 9.01599 0.0419922 20.042C0.0419922 31.068 9.01399 40.042 20.042 40.042C24.838 40.042 29.244 38.344 32.692 35.52L44.584 47.412C44.974 47.802 45.486 47.998 45.998 47.998C46.51 47.998 47.022 47.802 47.412 47.412C48.194 46.63 48.194 45.366 47.412 44.584L47.414 44.586ZM4.04199 20.042C4.04199 11.22 11.22 4.04199 20.042 4.04199C28.864 4.04199 36.042 11.22 36.042 20.042C36.042 28.864 28.864 36.042 20.042 36.042C11.22 36.042 4.04199 28.866 4.04199 20.042ZM20 7.99999C17.328 7.99999 14.816 9.04199 12.93 10.93C11.042 12.816 9.99999 15.328 9.99999 18C9.99999 20.672 11.042 23.184 12.946 25.086L16.57 28.632C17.518 29.558 18.758 30.018 20 30.018C21.242 30.018 22.482 29.558 23.428 28.632L27.07 25.07C28.958 23.184 30 20.672 30 18C30 15.328 28.958 12.818 27.07 10.93C25.182 9.04199 22.67 7.99999 20 7.99999ZM24.258 22.226L20.632 25.772C20.284 26.112 19.716 26.112 19.368 25.772L15.758 22.24C14.626 21.108 14 19.602 14 17.998C14 16.394 14.624 14.888 15.76 13.756C16.89 12.622 18.396 11.998 20 11.998C21.604 11.998 23.11 12.622 24.242 13.756C25.374 14.888 26 16.394 26 17.998C26 19.602 25.374 21.11 24.258 22.226ZM22 17.986C22 19.09 21.104 19.986 20 19.986C18.896 19.986 18 19.09 18 17.986C18 16.882 18.896 15.986 20 15.986C21.104 15.986 22 16.882 22 17.986Z" fill="#2078BA"/>
</g>
<defs>
<clipPath id="clip0_72_4013">
<rect width="48" height="48" fill="white"/>
</clipPath>
</defs>
</svg>
