<svg width="48" height="48" viewBox="0 0 48 48" fill="none" xmlns="http://www.w3.org/2000/svg">
<path d="M30.022 38C30.022 39.106 29.128 40 28.022 40H21.502C20.05 40 18.778 39.126 18.258 37.778C17.732 36.414 18.098 34.896 19.186 33.91C19.642 33.5 20.204 33.042 20.816 32.546C23.122 30.68 26.28 28.128 25.998 25.588C25.9 24.698 25.032 24 24.022 24C22.918 24 22.022 24.896 22.022 26C22.022 27.104 21.128 28 20.022 28C18.916 28 18.022 27.106 18.022 26C18.022 22.692 20.714 20 24.022 20C27.09 20 29.648 22.212 29.976 25.146C30.5 29.862 26.186 33.35 23.334 35.658C23.19 35.774 23.048 35.888 22.91 36H28.024C29.13 36 30.024 36.894 30.024 38H30.022ZM44.61 5.738L38.126 18.878C40.544 21.942 42 25.8 42 30C42 39.926 33.926 48 24 48C14.074 48 6.00001 39.926 6.00001 30C6.00001 25.786 7.46601 21.914 9.90201 18.842L3.43601 5.738C2.82201 4.496 2.89401 3.054 3.62601 1.878C4.35601 0.7 5.62001 0 7.00401 0H13.022C16.09 0 18.84 1.708 20.198 4.46L23.918 12.004C23.946 12.004 23.972 12 24 12C24.042 12 24.082 12.006 24.124 12.006L27.846 4.46C29.204 1.708 31.954 0 35.02 0H41.04C42.424 0 43.688 0.702 44.418 1.878C45.15 3.054 45.222 4.496 44.61 5.738ZM7.00401 4L12.888 15.868C14.872 14.304 17.192 13.156 19.72 12.536L16.61 6.23C15.93 4.854 14.558 4 13.022 4H7.00401ZM38 30C38 22.282 31.718 16 24 16C23.602 16 23.21 16.026 22.82 16.06C15.654 16.664 10.002 22.68 10.002 30C10.002 37.718 16.284 44 24.002 44C31.72 44 38 37.718 38 30ZM41.024 3.968L35.022 4C33.488 4 32.114 4.856 31.434 6.23L28.318 12.544C30.844 13.17 33.16 14.32 35.142 15.888L41.024 3.968Z" fill="#2078BA"/>
</svg>
