<svg width="48" height="48" viewBox="0 0 48 48" fill="none" xmlns="http://www.w3.org/2000/svg">
<g clip-path="url(#clip0_72_4054)">
<path d="M38 48H10C4.486 48 0 43.514 0 38V10C0 4.486 4.486 0 10 0H38C43.514 0 48 4.486 48 10V38C48 43.514 43.514 48 38 48ZM10 4C6.692 4 4 6.692 4 10V38C4 41.308 6.692 44 10 44H38C41.308 44 44 41.308 44 38V10C44 6.692 41.308 4 38 4H10ZM10 8C8.896 8 8 8.896 8 10C8 11.104 8.896 12 10 12C11.104 12 12 11.104 12 10C12 8.896 11.104 8 10 8ZM18 8C16.896 8 16 8.896 16 10C16 11.104 16.896 12 18 12C19.104 12 20 11.104 20 10C20 8.896 19.104 8 18 8Z" fill="#2078BA"/>
</g>
<defs>
<clipPath id="clip0_72_4054">
<rect width="48" height="48" fill="white"/>
</clipPath>
</defs>
</svg>
