<svg width="48" height="48" viewBox="0 0 48 48" fill="none" xmlns="http://www.w3.org/2000/svg">
<g clip-path="url(#clip0_72_4051)">
<path d="M43.996 48H38C36.894 48 36 47.104 36 46C36 44.896 36.894 44 38 44H43.996L32.014 23.99L19.992 44.02L26 44C27.106 44 28 44.896 28 46C28 47.104 27.106 48 26 48H20.002C18.552 48 17.256 47.25 16.534 45.992C15.812 44.736 15.816 43.238 16.546 41.984L28.552 21.934C29.268 20.71 30.56 19.97 31.998 19.97C33.436 19.97 34.726 20.712 35.454 21.954L47.438 41.966C48.182 43.238 48.186 44.736 47.464 45.994C46.742 47.252 45.444 48 43.996 48ZM34 40V34C34 32.896 33.106 32 32 32C30.894 32 30 32.896 30 34V40C30 41.104 30.894 42 32 42C33.106 42 34 41.104 34 40ZM12 46C12 44.896 11.104 44 10 44C6.692 44 4 41.308 4 38V10C4 6.692 6.692 4 10 4H38C41.308 4 44 6.692 44 10V28C44 29.104 44.894 30 46 30C47.106 30 48 29.104 48 28V10C48 4.486 43.514 0 38 0H10C4.486 0 0 4.486 0 10V38C0 43.514 4.486 48 10 48C11.104 48 12 47.104 12 46ZM10 8C8.896 8 8 8.896 8 10C8 11.104 8.896 12 10 12C11.104 12 12 11.104 12 10C12 8.896 11.104 8 10 8ZM18 8C16.896 8 16 8.896 16 10C16 11.104 16.896 12 18 12C19.104 12 20 11.104 20 10C20 8.896 19.104 8 18 8ZM32 44C30.896 44 30 44.896 30 46C30 47.104 30.896 48 32 48C33.104 48 34 47.104 34 46C34 44.896 33.104 44 32 44Z" fill="#2078BA"/>
</g>
<defs>
<clipPath id="clip0_72_4051">
<rect width="48" height="48" fill="white"/>
</clipPath>
</defs>
</svg>
