<svg width="48" height="48" viewBox="0 0 48 48" fill="none" xmlns="http://www.w3.org/2000/svg">
<g clip-path="url(#clip0_72_4012)">
<path d="M22 48H10C4.486 48 0 43.514 0 38V26C0 20.486 4.486 16 10 16H22C27.514 16 32 20.486 32 26V38C32 43.514 27.514 48 22 48ZM10 20C6.692 20 4 22.692 4 26V38C4 41.308 6.692 44 10 44H22C25.308 44 28 41.308 28 38V26C28 22.692 25.308 20 22 20H10ZM48 22C48 9.87 38.13 0 26 0C24.894 0 24 0.896 24 2C24 3.104 24.894 4 26 4C35.926 4 44 12.076 44 22C44 23.104 44.894 24 46 24C47.106 24 48 23.104 48 22ZM40 22C40 14.28 33.718 8 26 8C24.894 8 24 8.896 24 10C24 11.104 24.894 12 26 12C31.514 12 36 16.486 36 22C36 23.104 36.894 24 38 24C39.106 24 40 23.104 40 22ZM10 24C8.896 24 8 24.896 8 26C8 27.104 8.896 28 10 28C11.104 28 12 27.104 12 26C12 24.896 11.104 24 10 24Z" fill="#2078BA"/>
</g>
<defs>
<clipPath id="clip0_72_4012">
<rect width="48" height="48" fill="white"/>
</clipPath>
</defs>
</svg>
