<svg width="48" height="48" viewBox="0 0 48 48" fill="none" xmlns="http://www.w3.org/2000/svg">
<g clip-path="url(#clip0_72_4007)">
<path d="M37.162 4.27999L24.632 0.101993C24.2217 -0.0346488 23.7783 -0.0346488 23.368 0.101993L10.838 4.27999C8.84581 4.94176 7.11283 6.21451 5.88529 7.91741C4.65775 9.62032 3.99808 11.6668 4 13.766V24C4 39.126 22.4 47.48 23.188 47.828C23.4436 47.9416 23.7203 48.0003 24 48.0003C24.2797 48.0003 24.5564 47.9416 24.812 47.828C25.6 47.48 44 39.126 44 24V13.766C44.0019 11.6668 43.3423 9.62032 42.1147 7.91741C40.8872 6.21451 39.1542 4.94176 37.162 4.27999ZM40 24C40 34.91 27.362 42.066 24 43.778C20.634 42.072 8 34.938 8 24V13.766C8.00012 12.5065 8.39655 11.2791 9.13313 10.2575C9.86972 9.23589 10.9091 8.47198 12.104 8.07399L24 4.10799L35.896 8.07399C37.0909 8.47198 38.1303 9.23589 38.8669 10.2575C39.6035 11.2791 39.9999 12.5065 40 13.766V24Z" fill="#2078BA"/>
<path d="M30.5996 16.6L22.2236 25L17.7356 20.32C17.5555 20.1231 17.3378 19.9642 17.0953 19.8527C16.8528 19.7412 16.5905 19.6794 16.3238 19.6709C16.057 19.6623 15.7913 19.7072 15.5422 19.803C15.2931 19.8987 15.0657 20.0434 14.8733 20.2284C14.681 20.4134 14.5276 20.635 14.4222 20.8802C14.3169 21.1254 14.2617 21.3892 14.2598 21.656C14.258 21.9229 14.3096 22.1874 14.4115 22.4341C14.5135 22.6807 14.6638 22.9044 14.8536 23.092L19.4656 27.892C19.8095 28.2635 20.2253 28.5614 20.6876 28.7677C21.15 28.9739 21.6494 29.0843 22.1556 29.092H22.2216C22.7177 29.0937 23.2092 28.9967 23.6675 28.8069C24.1259 28.617 24.542 28.338 24.8916 27.986L33.4356 19.442C33.6222 19.2558 33.7703 19.0347 33.8714 18.7912C33.9726 18.5478 34.0248 18.2868 34.0251 18.0231C34.0253 17.7595 33.9737 17.4984 33.8731 17.2548C33.7724 17.0111 33.6248 16.7896 33.4386 16.603C33.2524 16.4164 33.0312 16.2683 32.7878 16.1672C32.5443 16.066 32.2833 16.0138 32.0197 16.0136C31.7561 16.0133 31.495 16.0649 31.2513 16.1655C31.0077 16.2662 30.7862 16.4138 30.5996 16.6Z" fill="#2078BA"/>
</g>
<defs>
<clipPath id="clip0_72_4007">
<rect width="48" height="48" fill="white"/>
</clipPath>
</defs>
</svg>
