<svg width="48" height="48" viewBox="0 0 48 48" fill="none" xmlns="http://www.w3.org/2000/svg">
<g clip-path="url(#clip0_72_4037)">
<path d="M34 20C26.28 20 20 26.282 20 34C20 41.718 26.28 48 34 48C41.72 48 48 41.718 48 34C48 26.282 41.72 20 34 20ZM34 44C28.486 44 24 39.514 24 34C24 28.486 28.486 24 34 24C39.514 24 44 28.486 44 34C44 39.514 39.514 44 34 44ZM32 32V28C32 26.894 32.896 26 34 26C35.104 26 36 26.894 36 28V32C36 33.106 35.104 34 34 34C32.896 34 32 33.106 32 32ZM37 39C37 40.656 35.656 42 34 42C32.344 42 31 40.656 31 39C31 37.344 32.344 36 34 36C35.656 36 37 37.344 37 39ZM20.79 46.894C20.44 47.596 19.734 48 18.998 48C18.698 48 18.392 47.932 18.106 47.79C15.082 46.278 0 38.046 0 24.388V13.746C0 9.426 2.754 5.612 6.852 4.252L19.37 0.102C19.78 -0.034 20.22 -0.034 20.63 0.102L33.148 4.252C37.246 5.612 40 9.426 40 13.744V14C40 15.106 39.104 16 38 16C36.896 16 36 15.106 36 14V13.744C36 11.154 34.348 8.866 31.888 8.048L20 4.106L8.112 8.048C5.652 8.864 4 11.154 4 13.744V24.386C4 35.69 17.24 42.884 19.894 44.21C20.882 44.704 21.282 45.906 20.788 46.894H20.79Z" fill="#2078BA"/>
</g>
<defs>
<clipPath id="clip0_72_4037">
<rect width="48" height="48" fill="white"/>
</clipPath>
</defs>
</svg>
