<svg width="48" height="48" viewBox="0 0 48 48" fill="none" xmlns="http://www.w3.org/2000/svg">
<path d="M48 20.0001C48.0001 19.8541 47.984 19.7085 47.952 19.5661L45.352 7.83014C44.8689 5.60262 43.6347 3.60892 41.8562 2.18332C40.0778 0.757728 37.8633 -0.0130727 35.584 0.000167777H12.416C10.1381 -0.0112328 7.92546 0.760408 6.14866 2.18585C4.37185 3.6113 3.13879 5.60397 2.656 7.83014L0.0480027 19.5661C0.0160189 19.7085 -7.93198e-05 19.8541 2.7388e-06 20.0001V22.0001C-0.00161088 23.9473 0.709845 25.8276 2 27.2861V38C2.00318 40.6512 3.05777 43.1929 4.93244 45.0676C6.80712 46.9422 9.34881 47.9968 12 48H36C38.6512 47.9968 41.1929 46.9422 43.0676 45.0676C44.9422 43.1929 45.9968 40.6512 46 38V27.2861C47.2902 25.8276 48.0016 23.9473 48 22.0001V20.0001ZM4 20.2181L6.56 8.69814C6.85009 7.36265 7.59004 6.16729 8.65603 5.3121C9.72202 4.45691 11.0494 3.99376 12.416 4.00015H14V10.0001C14 10.5306 14.2107 11.0393 14.5858 11.4143C14.9609 11.7894 15.4696 12.0001 16 12.0001C16.5304 12.0001 17.0391 11.7894 17.4142 11.4143C17.7893 11.0393 18 10.5306 18 10.0001V4.00015H30V10.0001C30 10.5306 30.2107 11.0393 30.5858 11.4143C30.9609 11.7894 31.4696 12.0001 32 12.0001C32.5304 12.0001 33.0391 11.7894 33.4142 11.4143C33.7893 11.0393 34 10.5306 34 10.0001V4.00015H35.584C36.9506 3.99376 38.278 4.45691 39.344 5.3121C40.41 6.16729 41.1499 7.36265 41.44 8.69814L44 20.2181V22.0001C44 23.061 43.5786 24.0784 42.8284 24.8285C42.0783 25.5786 41.0609 26.0001 40 26.0001H38C36.9391 26.0001 35.9217 25.5786 35.1716 24.8285C34.4214 24.0784 34 23.061 34 22.0001C34 21.4697 33.7893 20.961 33.4142 20.5859C33.0391 20.2108 32.5304 20.0001 32 20.0001C31.4696 20.0001 30.9609 20.2108 30.5858 20.5859C30.2107 20.961 30 21.4697 30 22.0001C30 23.061 29.5786 24.0784 28.8284 24.8285C28.0783 25.5786 27.0609 26.0001 26 26.0001H22C20.9391 26.0001 19.9217 25.5786 19.1716 24.8285C18.4214 24.0784 18 23.061 18 22.0001C18 21.4697 17.7893 20.961 17.4142 20.5859C17.0391 20.2108 16.5304 20.0001 16 20.0001C15.4696 20.0001 14.9609 20.2108 14.5858 20.5859C14.2107 20.961 14 21.4697 14 22.0001C14 23.061 13.5786 24.0784 12.8284 24.8285C12.0783 25.5786 11.0609 26.0001 10 26.0001H8C6.93914 26.0001 5.92172 25.5786 5.17158 24.8285C4.42143 24.0784 4 23.061 4 22.0001V20.2181ZM36 44H12C10.4087 44 8.88258 43.3679 7.75736 42.2427C6.63214 41.1174 6 39.5913 6 38V29.7461C6.6532 29.9152 7.32526 30.0005 8 30.0001H10C11.1356 30.0007 12.2583 29.7589 13.293 29.2908C14.3277 28.8228 15.2506 28.1393 16 27.2861C16.7494 28.1393 17.6723 28.8228 18.707 29.2908C19.7417 29.7589 20.8644 30.0007 22 30.0001H26C27.1356 30.0007 28.2583 29.7589 29.293 29.2908C30.3277 28.8228 31.2506 28.1393 32 27.2861C32.7494 28.1393 33.6723 28.8228 34.707 29.2908C35.7417 29.7589 36.8644 30.0007 38 30.0001H40C40.6747 30.0005 41.3468 29.9152 42 29.7461V38C42 39.5913 41.3679 41.1174 40.2426 42.2427C39.1174 43.3679 37.5913 44 36 44Z" fill="#2078BA"/>
</svg>
