<svg width="48" height="48" viewBox="0 0 48 48" fill="none" xmlns="http://www.w3.org/2000/svg">
<g clip-path="url(#clip0_72_3967)">
<path d="M47.414 11.5863L36.414 0.586256C35.632 -0.195744 34.368 -0.195744 33.586 0.586256C32.804 1.36826 32.804 2.63226 33.586 3.41426L37.672 7.50026L19.944 25.2283L17.562 22.8463C15.14 20.4223 10.91 20.4223 8.484 22.8463L5.272 26.0583C1.872 29.4563 0 33.9763 0 38.7863V41.0003C0 44.8603 3.14 48.0003 7 48.0003H9.214C14.022 48.0003 18.544 46.1283 21.942 42.7283L25.154 39.5163C26.366 38.3043 27.034 36.6923 27.034 34.9783C27.034 33.2643 26.368 31.6503 25.154 30.4383L22.772 28.0563L40.5 10.3283L44.586 14.4143C44.976 14.8043 45.488 15.0003 46 15.0003C46.512 15.0003 47.024 14.8043 47.414 14.4143C48.196 13.6323 48.196 12.3683 47.414 11.5863ZM22.326 33.2663C23.27 34.2103 23.27 35.7443 22.326 36.6863L19.114 39.8983C16.47 42.5423 12.954 43.9983 9.214 43.9983H7C5.346 43.9983 4 42.6523 4 40.9983V38.7843C4 35.0443 5.456 31.5283 8.1 28.8843L11.312 25.6723C11.784 25.2003 12.402 24.9643 13.022 24.9643C13.642 24.9643 14.26 25.2003 14.732 25.6723L17.114 28.0543L12.584 32.5843C11.802 33.3663 11.802 34.6303 12.584 35.4123C12.974 35.8023 13.486 35.9983 13.998 35.9983C14.51 35.9983 15.022 35.8023 15.412 35.4123L19.942 30.8823L22.324 33.2643L22.326 33.2663Z" fill="#2078BA"/>
</g>
<defs>
<clipPath id="clip0_72_3967">
<rect width="48" height="48" fill="white"/>
</clipPath>
</defs>
</svg>
