<svg width="48" height="48" viewBox="0 0 48 48" fill="none" xmlns="http://www.w3.org/2000/svg">
<g clip-path="url(#clip0_72_3994)">
<path d="M46.8418 33.166L40.2598 26.584C40.0763 26.3887 39.8555 26.2322 39.6104 26.1238C39.3652 26.0155 39.1009 25.9575 38.8329 25.9534C38.5649 25.9492 38.2989 25.9989 38.0505 26.0996C37.8021 26.2003 37.5766 26.3498 37.3871 26.5394C37.1977 26.729 37.0483 26.9547 36.9478 27.2031C36.8473 27.4515 36.7977 27.7176 36.8021 27.9856C36.8064 28.2536 36.8646 28.5179 36.9731 28.7629C37.0816 29.008 37.2383 29.2287 37.4338 29.412L42.0138 34C39.524 34.0057 37.0583 33.5131 34.7618 32.5514C32.4653 31.5897 30.3845 30.1782 28.6418 28.4C28.4482 28.2218 28.2209 28.0843 27.9732 27.9956C27.7255 27.907 27.4625 27.869 27.1999 27.8839C26.9372 27.8988 26.6803 27.9664 26.4442 28.0825C26.2082 28.1987 25.9979 28.361 25.8258 28.56L25.7998 28.6C25.4635 28.9912 25.2914 29.4971 25.3193 30.0122C25.3473 30.5272 25.5732 31.0116 25.9498 31.364C28.0494 33.4874 30.5531 35.1686 33.3132 36.3084C36.0733 37.4481 39.0337 38.0233 42.0198 38L37.4338 42.586C37.2248 42.7658 37.0552 42.9868 36.9357 43.2351C36.8162 43.4835 36.7493 43.7539 36.7393 44.0294C36.7292 44.3048 36.7762 44.5794 36.8773 44.8358C36.9784 45.0923 37.1314 45.325 37.3268 45.5195C37.5221 45.714 37.7555 45.866 38.0123 45.966C38.2692 46.066 38.544 46.1119 38.8194 46.1006C39.0948 46.0894 39.3649 46.0214 39.6128 45.9008C39.8606 45.7803 40.0809 45.6098 40.2598 45.4L46.8418 38.818C47.5904 38.0681 48.0109 37.0517 48.0109 35.992C48.0109 34.9323 47.5904 33.916 46.8418 33.166Z" fill="#2078BA"/>
<path d="M42.0137 14L37.4337 18.58C37.3947 18.6326 37.3587 18.6874 37.3257 18.744C37.003 19.1375 36.8438 19.64 36.8811 20.1475C36.9184 20.6551 37.1493 21.1289 37.5261 21.471C37.9028 21.8131 38.3967 21.9974 38.9055 21.9856C39.4143 21.9739 39.8991 21.7671 40.2597 21.408L43.6717 18L46.8437 14.83C47.38 14.2895 47.7509 13.6072 47.9128 12.8632C48.0747 12.1192 48.0209 11.3445 47.7577 10.63C47.5634 10.0831 47.2506 9.58588 46.8417 9.17398L40.2597 2.59998C40.0771 2.4016 39.8563 2.24219 39.6105 2.13132C39.3648 2.02045 39.0991 1.96042 38.8296 1.95484C38.56 1.94925 38.2921 1.99823 38.042 2.09882C37.7918 2.19941 37.5646 2.34954 37.3739 2.54019C37.1833 2.73084 37.0331 2.95807 36.9326 3.20822C36.832 3.45837 36.783 3.72627 36.7886 3.99583C36.7942 4.26539 36.8542 4.53104 36.9651 4.77681C37.0759 5.02258 37.2353 5.24339 37.4337 5.42598L42.0197 10.01C32.1537 10.034 26.7457 15.358 21.8417 20.958C17.3377 15.874 11.9997 10.8 2.97372 10.092L2.01172 9.99998C1.48129 9.99998 0.972578 10.2107 0.597505 10.5858C0.222432 10.9608 0.0117188 11.4695 0.0117188 12C0.021959 12.5272 0.23596 13.03 0.608836 13.4029C0.981712 13.7757 1.48449 13.9897 2.01172 14C2.15572 14 2.58572 14.066 2.58572 14.066C10.3777 14.656 14.8497 19.044 19.1997 24C14.8757 28.932 10.4337 33.4 2.70572 33.92L1.90572 33.962C1.37926 33.9949 0.887436 34.2355 0.538431 34.6311C0.189425 35.0266 0.0118319 35.5445 0.0447187 36.071C0.0776056 36.5974 0.318279 37.0893 0.713793 37.4383C1.10931 37.7873 1.62726 37.9649 2.15372 37.932C2.46572 37.918 2.97372 37.906 3.22372 37.886C13.2637 37.112 18.7097 30.686 23.5657 25.068C28.4697 19.4 33.1017 14.036 42.0137 14Z" fill="#2078BA"/>
</g>
<defs>
<clipPath id="clip0_72_3994">
<rect width="48" height="48" fill="white"/>
</clipPath>
</defs>
</svg>
