<svg width="48" height="48" viewBox="0 0 48 48" fill="none" xmlns="http://www.w3.org/2000/svg">
<path d="M36 22.284V18C36 13.588 32.412 10 28 10H26V2C26 0.896 25.104 0 24 0C22.896 0 22 0.896 22 2V10H20C15.588 10 12 13.588 12 18V22.284C8.56 23.178 6 26.284 6 30V46C6 47.104 6.896 48 8 48C9.104 48 10 47.104 10 46V30C10 27.794 11.794 26 14 26H34C36.206 26 38 27.794 38 30V46C38 47.104 38.896 48 40 48C41.104 48 42 47.104 42 46V30C42 26.284 39.44 23.178 36 22.284ZM16 22V18C16 15.794 17.794 14 20 14H28C30.206 14 32 15.794 32 18V22H16ZM26 34V36C26 37.104 25.104 38 24 38C22.896 38 22 37.104 22 36V34C22 32.896 22.896 32 24 32C25.104 32 26 32.896 26 34ZM26 44V46C26 47.104 25.104 48 24 48C22.896 48 22 47.104 22 46V44C22 42.896 22.896 42 24 42C25.104 42 26 42.896 26 44ZM34 34V36C34 37.104 33.104 38 32 38C30.896 38 30 37.104 30 36V34C30 32.896 30.896 32 32 32C33.104 32 34 32.896 34 34ZM34 44V46C34 47.104 33.104 48 32 48C30.896 48 30 47.104 30 46V44C30 42.896 30.896 42 32 42C33.104 42 34 42.896 34 44ZM18 34V36C18 37.104 17.104 38 16 38C14.896 38 14 37.104 14 36V34C14 32.896 14.896 32 16 32C17.104 32 18 32.896 18 34ZM18 44V46C18 47.104 17.104 48 16 48C14.896 48 14 47.104 14 46V44C14 42.896 14.896 42 16 42C17.104 42 18 42.896 18 44Z" fill="#2078BA"/>
</svg>
