<svg width="48" height="48" viewBox="0 0 48 48" fill="none" xmlns="http://www.w3.org/2000/svg">
<g clip-path="url(#clip0_72_4002)">
<path d="M16 26C16 24.896 16.894 24 18 24H20C21.106 24 22 24.896 22 26C22 27.104 21.106 28 20 28H18C16.894 28 16 27.106 16 26ZM28 28H30C31.106 28 32 27.106 32 26C32 24.894 31.106 24 30 24H28C26.894 24 26 24.896 26 26C26 27.104 26.894 28 28 28ZM18 12H20C21.106 12 22 11.104 22 10C22 8.896 21.106 8 20 8H18C16.894 8 16 8.896 16 10C16 11.104 16.894 12 18 12ZM28 12H30C31.106 12 32 11.104 32 10C32 8.896 31.106 8 30 8H28C26.894 8 26 8.896 26 10C26 11.104 26.894 12 28 12ZM18 20H20C21.106 20 22 19.104 22 18C22 16.896 21.106 16 20 16H18C16.894 16 16 16.896 16 18C16 19.104 16.894 20 18 20ZM28 20H30C31.106 20 32 19.104 32 18C32 16.896 31.106 16 30 16H28C26.894 16 26 16.896 26 18C26 19.104 26.894 20 28 20ZM48 44C48 46.21 46.21 48 44 48C42.524 48 41.248 47.19 40.554 46H38C34.692 46 32 43.308 32 40V36H26V40.554C27.19 41.246 28 42.522 28 44C28 46.21 26.21 48 24 48C21.79 48 20 46.21 20 44C20 42.524 20.81 41.248 22 40.554V36H16V40C16 43.308 13.308 46 10 46H7.446C6.754 47.19 5.478 48 4 48C1.79 48 0 46.21 0 44C0 41.79 1.79 40 4 40C5.476 40 6.752 40.81 7.446 42H10C11.104 42 12 41.104 12 40V36H2C0.894 36 0 35.106 0 34C0 32.894 0.894 32 2 32H8V10C8 4.486 12.486 0 18 0H30C35.514 0 40 4.486 40 10V32H46C47.106 32 48 32.894 48 34C48 35.106 47.106 36 46 36H36V40C36 41.104 36.896 42 38 42H40.554C41.246 40.81 42.522 40 44 40C46.21 40 48 41.79 48 44ZM12 32H36V10C36 6.692 33.308 4 30 4H18C14.692 4 12 6.692 12 10V32Z" fill="#2078BA"/>
</g>
<defs>
<clipPath id="clip0_72_4002">
<rect width="48" height="48" fill="white"/>
</clipPath>
</defs>
</svg>
