<svg width="48" height="48" viewBox="0 0 48 48" fill="none" xmlns="http://www.w3.org/2000/svg">
<path d="M47.3112 42.9218C44.7593 40.3745 43.333 36.9118 43.3506 33.3061V16.1239C43.3506 15.0356 42.4684 14.1534 41.3802 14.1534C40.2919 14.1534 39.4097 15.0356 39.4097 16.1239V24.0056H33.4787V23.9859C33.4695 21.2509 31.5853 18.8792 28.923 18.2519L24.259 7.81836C21.7506 1.30611 10.3259 -0.295796 9.85307 8.22636V12.183C5.50007 12.183 1.97132 15.7117 1.97132 20.0647C1.97132 20.068 1.97132 20.0713 1.97132 20.0746L1.98313 29.8992C-1.25696 34.3138 -0.304929 40.5192 4.10966 43.7593C5.77691 44.983 7.78504 45.6547 9.85307 45.6804H25.6166C31.0911 45.6138 35.4751 41.1217 35.4084 35.6472C35.3833 33.5849 34.7156 31.5818 33.4983 29.9169V27.9465H39.4096V33.3061C39.3932 37.9559 41.238 42.419 44.5328 45.7001C45.2406 46.5267 46.4846 46.6229 47.3111 45.9151C48.1377 45.2073 48.2339 43.9633 47.526 43.1368C47.4601 43.0597 47.3882 42.9879 47.3112 42.9218ZM15.7644 6.25199C17.8788 6.25311 19.7957 7.49502 20.6609 9.42439L24.5368 18.0943H15.7762C14.6879 18.0943 13.8058 17.2121 13.8058 16.1239L13.7939 8.22242C13.7939 7.13417 14.6761 6.25199 15.7644 6.25199ZM7.07076 17.2865C7.80566 16.5428 8.80757 16.1242 9.85298 16.1239V16.1337C9.85841 19.3946 12.5034 22.0352 15.7643 22.0352H27.5672C28.6501 22.0352 29.5301 22.9089 29.5377 23.9918V26.7958C28.301 26.2556 26.966 25.9765 25.6165 25.976H9.85307C8.50251 25.9747 7.1662 26.2524 5.92795 26.7918L5.9122 20.0646C5.91023 19.019 6.3276 18.016 7.07085 17.2804L7.07076 17.2865ZM25.6166 41.7396H9.85307C6.58832 41.7396 3.94176 39.0931 3.94176 35.8283C3.94176 32.5636 6.58832 29.917 9.85307 29.917H25.6166C28.8813 29.917 31.5279 32.5636 31.5279 35.8283C31.5279 39.0931 28.8813 41.7396 25.6166 41.7396ZM11.8235 35.8283C11.8235 36.9166 10.9413 37.7988 9.85307 37.7988C8.76482 37.7988 7.88263 36.9166 7.88263 35.8283C7.88263 34.7401 8.76482 33.8579 9.85307 33.8579C10.9413 33.8579 11.8235 34.7401 11.8235 35.8283ZM27.587 35.8283C27.587 36.9166 26.7048 37.7988 25.6166 37.7988C24.5283 37.7988 23.6461 36.9166 23.6461 35.8283C23.6461 34.7401 24.5283 33.8579 25.6166 33.8579C26.7048 33.8578 27.587 34.7401 27.587 35.8283ZM19.7053 35.8283C19.7053 36.9166 18.8231 37.7988 17.7348 37.7988C16.6466 37.7988 15.7644 36.9166 15.7644 35.8283C15.7644 34.7401 16.6466 33.8579 17.7348 33.8579C18.8231 33.8579 19.7053 34.7401 19.7053 35.8283Z" fill="#2078BA"/>
</svg>
