<svg width="48" height="48" viewBox="0 0 48 48" fill="none" xmlns="http://www.w3.org/2000/svg">
<g clip-path="url(#clip0_72_4045)">
<path d="M23 48C21.5169 48.0004 20.0677 47.5557 18.8401 46.7235C17.6125 45.8913 16.6628 44.7098 16.114 43.332C16.0265 43.0843 15.9887 42.8218 16.0027 42.5595C16.0167 42.2973 16.0822 42.0403 16.1955 41.8033C16.3088 41.5663 16.4676 41.354 16.663 41.1784C16.8583 41.0028 17.0863 40.8674 17.334 40.78C17.5817 40.6925 17.8441 40.6547 18.1064 40.6687C18.3687 40.6827 18.6257 40.7482 18.8627 40.8614C19.0996 40.9747 19.312 41.1336 19.4876 41.3289C19.6632 41.5243 19.7985 41.7523 19.886 42C21.004 44.954 26.032 44.498 26 41C26 40.2043 25.6839 39.4413 25.1213 38.8787C24.5587 38.3161 23.7956 38 23 38H2C1.46957 38 0.960859 37.7893 0.585786 37.4142C0.210714 37.0391 0 36.5304 0 36C0 35.4696 0.210714 34.9608 0.585786 34.5858C0.960859 34.2107 1.46957 34 2 34H23C24.8565 34 26.637 34.7375 27.9497 36.0502C29.2625 37.363 30 39.1435 30 41C30 42.8565 29.2625 44.637 27.9497 45.9497C26.637 47.2625 24.8565 48 23 48ZM40 38C38.3027 38.0022 36.6437 37.4951 35.2378 36.5441C33.8319 35.5932 32.7437 34.2422 32.114 32.666C31.9374 32.1658 31.9667 31.6159 32.1955 31.1373C32.4243 30.6587 32.8338 30.2906 33.334 30.114C33.8342 29.9373 34.3841 29.9667 34.8627 30.1954C35.3413 30.4242 35.7094 30.8338 35.886 31.334C37.44 35.298 43.982 34.674 44 30C44 28.9391 43.5786 27.9217 42.8284 27.1716C42.0783 26.4214 41.0609 26 40 26H34C33.4696 26 32.9609 25.7893 32.5858 25.4142C32.2107 25.0391 32 24.5304 32 24C32 23.4695 32.2107 22.9608 32.5858 22.5858C32.9609 22.2107 33.4696 22 34 22H40C50.552 22.278 50.544 37.726 40 38ZM19.52 30C18.9896 29.9999 18.481 29.7891 18.106 29.414L16 27.3L13.838 29.414C13.4608 29.7783 12.9556 29.9799 12.4312 29.9753C11.9068 29.9708 11.4052 29.7604 11.0344 29.3896C10.6635 29.0188 10.4532 28.5172 10.4487 27.9928C10.4441 27.4684 10.6457 26.9632 11.01 26.586L13.124 24.472C13.384 24.2091 13.6787 23.983 14 23.8V21.708C13.0045 21.4107 12.0877 20.8956 11.316 20.2L9.4 21.314C9.40253 21.6717 9.35747 22.0282 9.266 22.374L8.5 25.262C8.43672 25.5201 8.32263 25.763 8.1644 25.9765C8.00617 26.19 7.80697 26.3699 7.57844 26.5055C7.34992 26.6412 7.09665 26.7299 6.83344 26.7666C6.57022 26.8033 6.30234 26.7871 6.04545 26.7191C5.78855 26.651 5.54779 26.5324 5.33724 26.3703C5.12668 26.2081 4.95055 26.0057 4.81915 25.7747C4.68774 25.5437 4.60368 25.2888 4.57189 25.025C4.5401 24.7611 4.56122 24.4936 4.634 24.238L5.4 21.348L2.492 20.548C2.23141 20.4873 1.98564 20.375 1.76925 20.2176C1.55286 20.0602 1.37024 19.8611 1.23221 19.6319C1.09418 19.4026 1.00355 19.1481 0.96567 18.8832C0.927794 18.6183 0.943447 18.3486 1.0117 18.0899C1.07996 17.8312 1.19943 17.5888 1.36305 17.3771C1.52666 17.1654 1.73109 16.9886 1.96423 16.8574C2.19737 16.7261 2.45448 16.6429 2.72034 16.6128C2.9862 16.5827 3.2554 16.6062 3.512 16.682L6.4 17.448C6.74507 17.5366 7.07669 17.6712 7.386 17.848L9.228 16.776C8.91659 15.5811 8.92348 14.3254 9.248 13.134L7.386 12.05C7.07762 12.2273 6.7466 12.3618 6.402 12.45L3.508 13.214C3.2514 13.2898 2.9822 13.3133 2.71634 13.2832C2.45048 13.253 2.19337 13.1699 1.96023 13.0386C1.72709 12.9073 1.52266 12.7306 1.35905 12.5189C1.19543 12.3072 1.07596 12.0648 1.0077 11.8061C0.939447 11.5474 0.923794 11.2776 0.96167 11.0128C0.999547 10.7479 1.09018 10.4933 1.22821 10.2641C1.36624 10.0349 1.54886 9.83572 1.76525 9.67836C1.98164 9.521 2.22741 9.40865 2.488 9.34798L5.38 8.59998L4.634 5.67598C4.56122 5.42039 4.5401 5.15285 4.57189 4.889C4.60368 4.62515 4.68774 4.37029 4.81915 4.1393C4.95055 3.9083 5.12668 3.70582 5.33724 3.54367C5.54779 3.38152 5.78855 3.26295 6.04545 3.19491C6.30234 3.12686 6.57022 3.1107 6.83344 3.14736C7.09665 3.18402 7.34992 3.27277 7.57844 3.40843C7.80697 3.54409 8.00617 3.72393 8.1644 3.93744C8.32263 4.15096 8.43672 4.39387 8.5 4.65198L9.266 7.54198C9.35729 7.88716 9.40235 8.24294 9.4 8.59998L11.374 9.74798C12.1333 9.07784 13.0294 8.581 14 8.29198V6.19998C13.6787 6.0194 13.3839 5.79528 13.124 5.53398L11.01 3.41398C10.6457 3.03678 10.4441 2.53157 10.4487 2.00718C10.4532 1.48278 10.6635 0.981158 11.0344 0.610342C11.4052 0.239526 11.9068 0.029188 12.4312 0.0246312C12.9556 0.0200743 13.4608 0.221663 13.838 0.585979L15.954 2.69998L18.106 0.585979C18.2905 0.394959 18.5112 0.242594 18.7552 0.137776C18.9992 0.0329585 19.2616 -0.022214 19.5272 -0.0245217C19.7928 -0.0268293 20.0561 0.0237741 20.3019 0.124336C20.5477 0.224898 20.771 0.373404 20.9588 0.561189C21.1466 0.748975 21.2951 0.972279 21.3956 1.21807C21.4962 1.46386 21.5468 1.72722 21.5445 1.99278C21.5422 2.25834 21.487 2.52078 21.3822 2.76479C21.2774 3.0088 21.125 3.22949 20.934 3.41398L18.82 5.52798C18.5752 5.77383 18.2996 5.98694 18 6.16198V8.29198C18.9708 8.5816 19.8669 9.07912 20.626 9.74998L22.6 8.59998C22.5975 8.24227 22.6425 7.88581 22.734 7.53998L23.5 4.64998C23.5633 4.39187 23.6774 4.14896 23.8356 3.93544C23.9938 3.72193 24.193 3.54209 24.4216 3.40643C24.6501 3.27077 24.9033 3.18202 25.1666 3.14536C25.4298 3.1087 25.6977 3.12486 25.9546 3.19291C26.2115 3.26095 26.4522 3.37951 26.6628 3.54167C26.8733 3.70382 27.0494 3.9063 27.1809 4.1373C27.3123 4.36829 27.3963 4.62315 27.4281 4.887C27.4599 5.15085 27.4388 5.41839 27.366 5.67398L26.6 8.56598L29.508 9.36598C29.7686 9.42665 30.0144 9.539 30.2307 9.69636C30.4471 9.85372 30.6298 10.0529 30.7678 10.2821C30.9058 10.5113 30.9965 10.7659 31.0343 11.0308C31.0722 11.2956 31.0566 11.5654 30.9883 11.8241C30.92 12.0828 30.8006 12.3252 30.637 12.5369C30.4733 12.7486 30.2689 12.9253 30.0358 13.0566C29.8026 13.1879 29.5455 13.271 29.2797 13.3012C29.0138 13.3313 28.7446 13.3078 28.488 13.232L25.6 12.466C25.2546 12.3782 24.9229 12.2436 24.614 12.066L22.752 13.15C23.0765 14.3414 23.0834 15.5971 22.772 16.792L24.614 17.864C24.9228 17.6875 25.2537 17.553 25.598 17.464L28.492 16.7C28.7486 16.6242 29.0178 16.6007 29.2837 16.6308C29.5495 16.6609 29.8066 16.7441 30.0398 16.8754C30.2729 17.0066 30.4773 17.1834 30.641 17.3951C30.8046 17.6068 30.924 17.8492 30.9923 18.1079C31.0606 18.3666 31.0762 18.6363 31.0383 18.9012C31.0005 19.1661 30.9098 19.4206 30.7718 19.6499C30.6338 19.8791 30.4511 20.0782 30.2347 20.2356C30.0184 20.393 29.7726 20.5053 29.512 20.566L26.622 21.33L27.368 24.254C27.4408 24.5096 27.4619 24.7771 27.4301 25.041C27.3983 25.3048 27.3143 25.5597 27.1829 25.7907C27.0514 26.0217 26.8753 26.2241 26.6648 26.3863C26.4542 26.5484 26.2135 26.667 25.9566 26.7351C25.6997 26.8031 25.4318 26.8193 25.1686 26.7826C24.9053 26.7459 24.6521 26.6572 24.4236 26.5215C24.195 26.3859 23.9958 26.206 23.8376 25.9925C23.6794 25.779 23.5653 25.5361 23.502 25.278L22.736 22.388C22.6445 22.0422 22.5995 21.6857 22.602 21.328L20.686 20.214C19.9124 20.9048 18.995 21.4151 18 21.708V23.838C18.2994 24.0142 18.5755 24.2272 18.822 24.472L20.934 26.586C21.2136 26.8657 21.404 27.222 21.4812 27.6099C21.5583 27.9978 21.5187 28.3999 21.3674 28.7653C21.216 29.1307 20.9597 29.443 20.6309 29.6628C20.3021 29.8826 19.9155 29.9999 19.52 30ZM16 12C15.2044 12 14.4413 12.3161 13.8787 12.8787C13.3161 13.4413 13 14.2043 13 15C13 15.7956 13.3161 16.5587 13.8787 17.1213C14.4413 17.6839 15.2044 18 16 18C16.7956 18 17.5587 17.6839 18.1213 17.1213C18.6839 16.5587 19 15.7956 19 15C19 14.2043 18.6839 13.4413 18.1213 12.8787C17.5587 12.3161 16.7956 12 16 12ZM41 18H36C35.4696 18 34.9609 17.7893 34.5858 17.4142C34.2107 17.0391 34 16.5304 34 16C34 15.4695 34.2107 14.9608 34.5858 14.5858C34.9609 14.2107 35.4696 14 36 14H41C41.7957 14 42.5587 13.6839 43.1213 13.1213C43.6839 12.5587 44 11.7956 44 11C43.9632 10.3523 43.7286 9.73153 43.3278 9.22141C42.9271 8.7113 42.3794 8.33642 41.7589 8.14737C41.1383 7.95833 40.4747 7.96422 39.8576 8.16425C39.2405 8.36429 38.6996 8.74883 38.308 9.26598C37.9722 9.6768 37.487 9.93741 36.9591 9.99049C36.4312 10.0436 35.9038 9.88474 35.493 9.54898C35.0822 9.21322 34.8216 8.72801 34.7685 8.20009C34.7154 7.67218 34.8742 7.1448 35.21 6.73398C39.232 1.57998 48.088 4.27798 48 11C48 12.8565 47.2625 14.637 45.9497 15.9497C44.637 17.2625 42.8565 18 41 18Z" fill="#2078BA"/>
</g>
<defs>
<clipPath id="clip0_72_4045">
<rect width="48" height="48" fill="white"/>
</clipPath>
</defs>
</svg>
