<svg width="48" height="48" viewBox="0 0 48 48" fill="none" xmlns="http://www.w3.org/2000/svg">
<g clip-path="url(#clip0_72_3969)">
<path d="M47.798 32.4642L46.074 25.9522C45.146 22.4462 41.964 19.9982 38.34 19.9982H9.66004C6.03404 19.9982 2.85404 22.4462 1.92604 25.9522L0.202045 32.4642C-0.277955 34.2782 0.102045 36.1722 1.24804 37.6602C2.39204 39.1462 4.12404 40.0002 6.00204 40.0002H22V44.0002H14C12.896 44.0002 12 44.8942 12 46.0002C12 47.1062 12.896 48.0002 14 48.0002H34C35.106 48.0002 36 47.1062 36 46.0002C36 44.8942 35.106 44.0002 34 44.0002H26V40.0002H41.998C43.874 40.0002 45.608 39.1462 46.754 37.6602C47.898 36.1722 48.28 34.2802 47.798 32.4642ZM42.206 26.9762L42.476 28.0002H33.36L33.074 24.0002H38.338C40.15 24.0002 41.74 25.2242 42.206 26.9762ZM18.076 36.0002L18.362 32.0002H29.638L29.924 36.0002H18.076ZM18.648 28.0002L18.934 24.0002H29.068L29.354 28.0002H18.648ZM9.65804 24.0002H14.922L14.636 28.0002H5.52204L5.79204 26.9762C6.25404 25.2242 7.84604 24.0002 9.65804 24.0002ZM4.41604 35.2202C4.03404 34.7242 3.90804 34.0942 4.06804 33.4882L4.46204 32.0002H14.35L14.064 36.0002H6.00204C5.37804 36.0002 4.79804 35.7142 4.41804 35.2202H4.41604ZM43.582 35.2202C43.2 35.7162 42.622 36.0022 41.996 36.0022H33.93L33.644 32.0022H43.534L43.928 33.4902C44.088 34.0962 43.964 34.7262 43.582 35.2202ZM8.00004 14.0002C8.00004 12.8942 8.89604 12.0002 10 12.0002H14.202C14.578 10.1542 15.482 8.51022 16.724 7.18422L14.022 3.10422C13.412 2.18422 13.664 0.944222 14.584 0.332222C15.502 -0.277778 16.744 -0.0277783 17.356 0.896222L19.992 4.87622C21.224 4.33222 22.57 4.00022 24 4.00022C25.43 4.00022 26.778 4.33222 28.012 4.87822L30.668 0.892222C31.28 -0.0257783 32.518 -0.273778 33.442 0.338222C34.36 0.950222 34.61 2.19222 33.996 3.11222L31.278 7.19022C32.518 8.51422 33.422 10.1582 33.798 12.0022H38C39.106 12.0022 40 12.8962 40 14.0022C40 15.1082 39.106 16.0022 38 16.0022H32C30.894 16.0022 30 15.1082 30 14.0022C30 10.6942 27.308 8.00222 24 8.00222C20.692 8.00222 18 10.6942 18 14.0022C18 15.1082 17.104 16.0022 16 16.0022H10C8.89604 16.0022 8.00004 15.1062 8.00004 14.0002Z" fill="#2078BA"/>
</g>
<defs>
<clipPath id="clip0_72_3969">
<rect width="48" height="48" fill="white"/>
</clipPath>
</defs>
</svg>
