<svg width="48" height="48" viewBox="0 0 48 48" fill="none" xmlns="http://www.w3.org/2000/svg">
<g clip-path="url(#clip0_72_3970)">
<path d="M47.9616 24.732L45.9196 8.732C45.2836 3.754 41.0196 0 35.9996 0H12.0436C7.02557 0 2.76157 3.754 2.12557 8.732L0.0815733 24.732C-0.282427 27.582 0.597573 30.452 2.49757 32.608C4.39557 34.764 7.12957 36 10.0016 36H22.0016V44H14.0016C12.8976 44 12.0016 44.894 12.0016 46C12.0016 47.106 12.8976 48 14.0016 48H34.0016C35.1056 48 36.0016 47.106 36.0016 46C36.0016 44.894 35.1056 44 34.0016 44H26.0016V36H38.0456C40.9176 36 43.6536 34.764 45.5496 32.608C47.4476 30.454 48.3256 27.582 47.9616 24.732ZM41.9516 9.24L42.8156 16H32.8796L32.1296 4H36.0016C39.0136 4 41.5696 6.252 41.9516 9.24ZM18.1276 32L18.8776 20H29.1196L29.8696 32H18.1276ZM19.1276 16L19.8776 4H28.1196L28.8696 16H19.1276ZM12.0436 4H15.8696L15.1196 16H5.22957L6.09357 9.24C6.47557 6.252 9.03357 4 12.0436 4ZM5.49757 29.964C4.35957 28.672 3.83157 26.948 4.04757 25.24L4.71757 20H14.8696L14.1196 32H9.99957C8.27757 32 6.63557 31.258 5.49757 29.964ZM42.5456 29.964C41.4076 31.256 39.7656 32 38.0436 32H33.8776L33.1276 20H43.3256L43.9956 25.24C44.2136 26.948 43.6836 28.672 42.5456 29.964Z" fill="#2078BA"/>
</g>
<defs>
<clipPath id="clip0_72_3970">
<rect width="48" height="48" fill="white"/>
</clipPath>
</defs>
</svg>
