<svg width="48" height="48" viewBox="0 0 48 48" fill="none" xmlns="http://www.w3.org/2000/svg">
<g clip-path="url(#clip0_72_3987)">
<path d="M48 26C48.0071 29.147 47.3908 32.2643 46.1866 35.1718C44.9824 38.0794 43.2142 40.7196 40.984 42.94C39.9064 44.0243 38.4595 44.6624 36.9321 44.7269C35.4047 44.7914 33.9092 44.2776 32.744 43.288L30.692 41.514C30.4932 41.3422 30.3301 41.133 30.2122 40.8982C30.0942 40.6634 30.0237 40.4077 30.0045 40.1457C29.9659 39.6164 30.1391 39.0935 30.486 38.692C30.6578 38.4932 30.867 38.3301 31.1018 38.2122C31.3366 38.0942 31.5923 38.0237 31.8543 38.0045C32.3836 37.9659 32.9065 38.1391 33.308 38.486L35.362 40.262C35.7576 40.5994 36.2677 40.772 36.7869 40.7441C37.3062 40.7162 37.7948 40.4899 38.152 40.112C40.0591 38.1814 41.5553 35.8844 42.5502 33.3596C43.5451 30.8349 44.0182 28.1347 43.9408 25.422C43.8634 22.7094 43.2372 20.0406 42.1 17.5767C40.9627 15.1127 39.3381 12.9047 37.324 11.086C35.2215 9.1907 32.7375 7.76774 30.039 6.91287C27.3405 6.05799 24.4903 5.79105 21.68 6.12999C17.9395 6.56344 14.3977 8.04485 11.4625 10.4035C8.52726 12.7622 6.31817 15.9022 5.08974 19.4617C3.8613 23.0211 3.66352 26.8552 4.51916 30.5222C5.37481 34.1892 7.24907 37.5398 9.92599 40.188C10.2857 40.5392 10.7646 40.7421 11.2671 40.7561C11.7697 40.7702 12.2591 40.5945 12.638 40.264L14.692 38.486C14.8908 38.3142 15.1215 38.1833 15.3709 38.1007C15.6204 38.0181 15.8836 37.9854 16.1457 38.0045C16.4077 38.0237 16.6634 38.0942 16.8982 38.2122C17.133 38.3301 17.3422 38.4932 17.514 38.692C17.6858 38.8908 17.8167 39.1215 17.8993 39.3709C17.9819 39.6204 18.0146 39.8836 17.9954 40.1457C17.9763 40.4077 17.9058 40.6634 17.7878 40.8982C17.6699 41.133 17.5068 41.3422 17.308 41.514L15.256 43.29C14.1121 44.2741 12.6406 44.7934 11.1324 44.7453C9.62416 44.6971 8.18884 44.0851 7.10999 43.03C4.30194 40.2484 2.22434 36.8164 1.06174 33.0387C-0.100871 29.2611 -0.312493 25.2547 0.445668 21.3756C1.20383 17.4965 2.9083 13.8647 5.40769 10.8028C7.90707 7.74084 11.124 5.34359 14.7727 3.82397C18.4214 2.30434 22.3889 1.70938 26.3229 2.09193C30.2568 2.47448 34.0354 3.82271 37.323 6.01684C40.6106 8.21098 43.3053 11.1831 45.168 14.6692C47.0306 18.1553 48.0034 22.0475 48 26ZM36.102 33.496C36.344 33.6107 36.6066 33.6755 36.8742 33.6868C37.1418 33.6981 37.4089 33.6555 37.6597 33.5616C37.9105 33.4676 38.1399 33.3243 38.3343 33.1401C38.5286 32.9558 38.684 32.7344 38.7912 32.489C38.8983 32.2435 38.9551 31.9791 38.9582 31.7113C38.9612 31.4435 38.9104 31.1778 38.8089 30.93C38.7073 30.6822 38.557 30.4573 38.3668 30.2687C38.1767 30.0801 37.9506 29.9316 37.702 29.832L27.976 25.56C27.8779 24.6848 27.4938 23.8665 26.8832 23.232C26.2726 22.5974 25.4696 22.1821 24.5989 22.0504C23.7281 21.9188 22.8383 22.0781 22.0674 22.5038C21.2965 22.9295 20.6876 23.5977 20.3351 24.4047C19.9827 25.2118 19.9065 26.1125 20.1182 26.9673C20.33 27.8221 20.8179 28.5831 21.5063 29.1323C22.1947 29.6815 23.0451 29.9882 23.9256 30.0048C24.8061 30.0213 25.6674 29.7469 26.376 29.224L36.102 33.496Z" fill="#2078BA"/>
</g>
<defs>
<clipPath id="clip0_72_3987">
<rect width="48" height="48" fill="white"/>
</clipPath>
</defs>
</svg>
