<svg width="48" height="48" viewBox="0 0 48 48" fill="none" xmlns="http://www.w3.org/2000/svg">
<g clip-path="url(#clip0_72_3971)">
<path d="M24 38C23.66 38 23.32 37.92 23 37.74C22.04 37.2 21.7 35.96 22.26 35.02L27.42 26.02H19.24C18.22 26.02 17.26 25.54 16.64 24.72C16.04 23.9 15.84 22.84 16.14 21.86C16.18 21.72 22.26 11.04 22.26 11.04C22.8 10.08 24.02 9.74 24.98 10.3C25.94 10.84 26.28 12.06 25.72 13.02L20.58 22.02H28.78C29.96 22.02 31.04 22.66 31.6 23.7C32.16 24.74 32.1 26 31.44 26.98L25.72 37C25.36 37.64 24.68 38 23.98 38H24ZM38 48H10C4.48 48 0 43.52 0 38V10C0 4.48 4.48 0 10 0H38C43.52 0 48 4.48 48 10V38C48 43.52 43.52 48 38 48ZM10 4C6.7 4 4 6.7 4 10V38C4 41.3 6.7 44 10 44H38C41.3 44 44 41.3 44 38V10C44 6.7 41.3 4 38 4H10Z" fill="#2078BA"/>
</g>
<defs>
<clipPath id="clip0_72_3971">
<rect width="48" height="48" fill="white"/>
</clipPath>
</defs>
</svg>
