<svg width="48" height="48" viewBox="0 0 48 48" fill="none" xmlns="http://www.w3.org/2000/svg">
<g clip-path="url(#clip0_72_3985)">
<path d="M34 48C21.844 48.234 15.332 32.724 24 24.222V10C24.422 -3.218 43.582 -3.2 44 10V24.222C52.67 32.726 46.154 48.234 34 48ZM34 4C32.4087 4 30.8826 4.63214 29.7574 5.75736C28.6321 6.88258 28 8.4087 28 10V25.074C28 25.3547 27.9408 25.6323 27.8264 25.8887C27.712 26.1451 27.5449 26.3745 27.336 26.562C25.8258 27.9118 24.761 29.6885 24.2828 31.6567C23.8045 33.625 23.9352 35.6921 24.6576 37.5845C25.3801 39.4768 26.6601 41.1052 28.3284 42.254C29.9966 43.4028 31.9744 44.0179 34 44.0179C36.0256 44.0179 38.0034 43.4028 39.6716 42.254C41.3399 41.1052 42.6199 39.4768 43.3424 37.5845C44.0648 35.6921 44.1955 33.625 43.7172 31.6567C43.239 29.6885 42.1742 27.9118 40.664 26.562C40.4551 26.3745 40.288 26.1451 40.1736 25.8887C40.0592 25.6323 40 25.3547 40 25.074V10C40 8.4087 39.3679 6.88258 38.2426 5.75736C37.1174 4.63214 35.5913 4 34 4ZM34 40C32.5944 39.9823 31.2394 39.4728 30.1704 38.5601C29.1014 37.6473 28.3859 36.3888 28.1482 35.0034C27.9105 33.6179 28.1657 32.1929 28.8693 30.976C29.573 29.7591 30.6807 28.8271 32 28.342V16C32 15.4696 32.2107 14.9609 32.5858 14.5858C32.9609 14.2107 33.4696 14 34 14C34.5304 14 35.0391 14.2107 35.4142 14.5858C35.7893 14.9609 36 15.4696 36 16V28.342C37.3193 28.8271 38.427 29.7591 39.1307 30.976C39.8344 32.1929 40.0895 33.6179 39.8518 35.0034C39.6141 36.3888 38.8986 37.6473 37.8296 38.5601C36.7606 39.4728 35.4056 39.9823 34 40ZM34 32C33.4696 32 32.9609 32.2107 32.5858 32.5858C32.2107 32.9609 32 33.4696 32 34C32 34.5304 32.2107 35.0391 32.5858 35.4142C32.9609 35.7893 33.4696 36 34 36C34.5304 36 35.0391 35.7893 35.4142 35.4142C35.7893 35.0391 36 34.5304 36 34C36 33.4696 35.7893 32.9609 35.4142 32.5858C35.0391 32.2107 34.5304 32 34 32ZM10 34C9.64944 33.9989 9.30532 33.9058 9.00212 33.7298C8.69892 33.5538 8.4473 33.3012 8.27248 32.9974C8.09766 32.6935 8.00578 32.3491 8.00605 31.9985C8.00631 31.6479 8.09872 31.3036 8.274 31L10.424 27.3C9.8129 26.7992 9.25224 26.2399 8.75 25.63L4.976 27.744C4.74638 27.8843 4.49081 27.9769 4.22458 28.0161C3.95835 28.0553 3.68694 28.0404 3.42661 27.9723C3.16628 27.9042 2.92237 27.7842 2.7095 27.6195C2.49663 27.4549 2.31917 27.249 2.18775 27.0142C2.05634 26.7794 1.97366 26.5204 1.94467 26.2529C1.91569 25.9853 1.94099 25.7147 2.01907 25.4572C2.09715 25.1997 2.2264 24.9605 2.39907 24.7541C2.57175 24.5477 2.7843 24.3783 3.024 24.256L6.752 22.166C6.48899 21.4642 6.29344 20.7389 6.168 20H2C1.46957 20 0.960859 19.7893 0.585787 19.4142C0.210714 19.0391 0 18.5304 0 18C0 17.4696 0.210714 16.9609 0.585787 16.5858C0.960859 16.2107 1.46957 16 2 16H6.164C6.28399 15.2843 6.46806 14.5808 6.714 13.898L3 11.728C2.75638 11.6057 2.54034 11.4348 2.36515 11.2259C2.18997 11.0171 2.05933 10.7746 1.98127 10.5134C1.90321 10.2522 1.87938 9.97777 1.91123 9.70702C1.94308 9.43628 2.02995 9.1749 2.1665 8.93894C2.30304 8.70299 2.48639 8.49745 2.70527 8.33493C2.92414 8.17242 3.17394 8.05636 3.4393 7.9939C3.70466 7.93144 3.97999 7.92389 4.24838 7.97172C4.51677 8.01954 4.77254 8.12173 5 8.272L8.686 10.416C9.18626 9.80074 9.74634 9.23664 10.358 8.732L8.256 4.976C8.11567 4.74638 8.02312 4.49081 7.98389 4.22458C7.94466 3.95835 7.95957 3.68694 8.02771 3.42661C8.09585 3.16628 8.21583 2.92237 8.38045 2.7095C8.54508 2.49663 8.75098 2.31917 8.98581 2.18775C9.22064 2.05633 9.47958 1.97366 9.74711 1.94467C10.0147 1.91569 10.2853 1.94099 10.5428 2.01907C10.8003 2.09715 11.0395 2.2264 11.2459 2.39907C11.4523 2.57175 11.6217 2.7843 11.744 3.024L13.828 6.742C14.5196 6.48728 15.2333 6.29714 15.96 6.174L16 2C16 1.46957 16.2107 0.960859 16.5858 0.585786C16.9609 0.210714 17.4696 0 18 0C18.5304 0 19.0391 0.210714 19.4142 0.585786C19.7893 0.960859 20 1.46957 20 2V6.178C19.9954 7.12587 19.6553 8.04147 19.0398 8.76237C18.4243 9.48326 17.5734 9.96284 16.638 10.116C14.8167 10.4542 13.1685 11.4123 11.9733 12.8277C10.7782 14.2431 10.1097 16.0285 10.0815 17.8808C10.0532 19.733 10.6669 21.538 11.8183 22.9892C12.9697 24.4404 14.5878 25.4484 16.398 25.842C16.9069 25.9587 17.3499 26.2698 17.6325 26.7088C17.9151 27.1478 18.0148 27.6799 17.9104 28.1915C17.8059 28.703 17.5056 29.1534 17.0735 29.4465C16.6415 29.7396 16.1119 29.8521 15.598 29.76C15.0197 29.6426 14.4508 29.4829 13.896 29.282L11.728 33C11.5528 33.3034 11.301 33.5555 10.9977 33.731C10.6944 33.9065 10.3504 33.9993 10 34Z" fill="#2078BA"/>
</g>
<defs>
<clipPath id="clip0_72_3985">
<rect width="48" height="48" fill="white"/>
</clipPath>
</defs>
</svg>
