<svg width="48" height="48" viewBox="0 0 48 48" fill="none" xmlns="http://www.w3.org/2000/svg">
<g clip-path="url(#clip0_72_4020)">
<path d="M38 0H34C32.894 0 32 0.894 32 2C32 3.106 32.894 4 34 4H38C41.308 4 44 6.692 44 10V25.454C43.396 25.806 42.71 26 42 26C40.222 26 38.414 24.828 37.884 23.334C37.602 22.534 36.846 22 36 22C35.154 22 34.396 22.534 34.116 23.334C33.586 24.828 31.778 26 30 26C28.222 26 26.414 24.828 25.886 23.334C25.604 22.536 24.848 22 24 22C23.152 22 22.396 22.536 22.114 23.334C21.586 24.828 19.78 26 18 26C16.22 26 14.414 24.828 13.886 23.334C13.604 22.536 12.848 22 12 22C11.152 22 10.396 22.536 10.114 23.334C9.586 24.828 7.78 26 6 26C5.29 26 4.604 25.806 4 25.454V10C4 6.692 6.692 4 10 4H14C15.104 4 16 3.106 16 2C16 0.894 15.104 0 14 0H10C4.486 0 0 4.486 0 10V38C0 43.514 4.486 48 10 48H38C43.514 48 48 43.514 48 38V10C48 4.486 43.514 0 38 0ZM38 44H10C6.692 44 4 41.308 4 38V29.714C4.65 29.882 5.316 30 6 30C8.254 30 10.444 29.056 12 27.55C13.556 29.056 15.746 30 18 30C20.254 30 22.444 29.056 24 27.55C25.556 29.056 27.744 30 30 30C32.256 30 34.444 29.056 36 27.548C37.556 29.056 39.744 30 42 30C42.684 30 43.35 29.882 44 29.714V38C44 41.308 41.308 44 38 44ZM24 18C25.87 18 27.626 17.272 28.95 15.95C31.678 13.222 31.678 8.78 29.028 6.134L26.352 3.136C25.158 1.792 22.842 1.794 21.648 3.136L19.048 6.054C16.32 8.782 16.32 13.224 19.048 15.952C20.37 17.274 22.128 18.002 23.998 18.002L24 18Z" fill="#2078BA"/>
</g>
<defs>
<clipPath id="clip0_72_4020">
<rect width="48" height="48" fill="white"/>
</clipPath>
</defs>
</svg>
