<svg width="48" height="48" viewBox="0 0 48 48" fill="none" xmlns="http://www.w3.org/2000/svg">
<path d="M46 30C44.894 30 44 30.894 44 32V36C44 37.104 43.104 38 42 38H36V24C36 14.074 27.926 6 18 6C8.074 6 0 14.074 0 24C0 33.926 8.074 42 18 42H42C45.308 42 48 39.308 48 36V32C48 30.894 47.106 30 46 30ZM32 38H18C10.282 38 4 31.718 4 24C4 16.282 10.282 10 18 10C25.718 10 32 16.282 32 24V38ZM18 14C12.486 14 8 18.486 8 24C8 29.514 12.486 34 18 34C23.514 34 28 29.514 28 24C28 18.486 23.514 14 18 14ZM18 30C14.692 30 12 27.308 12 24C12 20.692 14.692 18 18 18C21.308 18 24 20.692 24 24C24 27.308 21.308 30 18 30Z" fill="#2078BA"/>
</svg>
