<svg width="48" height="48" viewBox="0 0 48 48" fill="none" xmlns="http://www.w3.org/2000/svg">
<path d="M32 24C32 18.486 27.514 14 22 14C16.486 14 12 18.486 12 24C12 29.514 16.486 34 22 34C27.514 34 32 29.514 32 24ZM16 24C16 20.692 18.692 18 22 18C25.308 18 28 20.692 28 24C28 27.308 25.308 30 22 30C18.692 30 16 27.308 16 24ZM46 42H34.634C40.294 38.016 44 31.432 44 24C44 11.87 34.13 2 22 2C9.87 2 0 11.87 0 24C0 36.13 9.87 46 22 46H46C47.106 46 48 45.106 48 44C48 42.894 47.106 42 46 42ZM4 24C4 14.074 12.074 6 22 6C31.926 6 40 14.074 40 24C40 33.926 31.926 42 22 42C12.074 42 4 33.926 4 24Z" fill="#2078BA"/>
</svg>
