<svg width="48" height="48" viewBox="0 0 48 48" fill="none" xmlns="http://www.w3.org/2000/svg">
<g clip-path="url(#clip0_72_3991)">
<path d="M46.242 1.758C43.902 -0.582 40.098 -0.582 37.758 1.758L24.344 15.172C22.832 16.682 22 18.692 22 20.828V24C22 25.104 22.894 26 24 26H27.172C29.308 26 31.318 25.166 32.828 23.656L46.242 10.242C48.57 8.008 48.57 3.992 46.242 1.758ZM43.414 7.414L30 20.828C29.244 21.584 28.24 22 27.172 22H26V20.828C26 19.776 26.428 18.744 27.172 18L40.586 4.586C41.368 3.806 42.632 3.806 43.414 4.586C44.19 5.33 44.19 6.67 43.414 7.414ZM24 36C22.894 36 22 35.106 22 34C22 32.894 22.894 32 24 32H30C31.106 32 32 32.894 32 34C32 35.106 31.106 36 30 36H24ZM40 28V38C40 43.514 35.514 48 30 48H10C4.486 48 0 43.514 0 38V10C0 4.486 4.486 0 10 0H28C29.106 0 30 0.896 30 2C30 3.104 29.106 4 28 4H10C6.692 4 4 6.692 4 10V38C4 41.308 6.692 44 10 44H30C33.308 44 36 41.308 36 38V28C36 26.894 36.894 26 38 26C39.106 26 40 26.894 40 28ZM18.334 23.334L14.96 26.708C14.098 27.57 12.97 28.004 11.838 28.004C10.772 28.004 9.706 27.618 8.856 26.84L7.518 25.682C6.684 24.958 6.594 23.694 7.316 22.86C8.042 22.022 9.304 21.938 10.138 22.658L11.516 23.854C11.722 24.04 11.972 24.038 12.13 23.88L15.504 20.506C16.286 19.724 17.55 19.724 18.332 20.506C19.114 21.288 19.116 22.552 18.334 23.334ZM18.334 13.414L14.96 16.788C14.098 17.65 12.97 18.084 11.838 18.084C10.772 18.084 9.706 17.698 8.856 16.92L7.518 15.762C6.684 15.038 6.594 13.774 7.316 12.94C8.042 12.104 9.304 12.018 10.138 12.738L11.516 13.934C11.722 14.122 11.972 14.118 12.13 13.96L15.504 10.586C16.286 9.804 17.55 9.804 18.332 10.586C19.114 11.368 19.116 12.632 18.334 13.414ZM18.334 30.506C19.116 31.288 19.116 32.552 18.334 33.334L14.96 36.708C14.098 37.57 12.97 38.004 11.838 38.004C10.772 38.004 9.706 37.618 8.856 36.84L7.518 35.682C6.684 34.958 6.594 33.696 7.316 32.86C8.042 32.026 9.304 31.936 10.138 32.658L11.516 33.854C11.722 34.04 11.972 34.038 12.13 33.88L15.504 30.506C16.286 29.724 17.552 29.724 18.334 30.506Z" fill="#2078BA"/>
</g>
<defs>
<clipPath id="clip0_72_3991">
<rect width="48" height="48" fill="white"/>
</clipPath>
</defs>
</svg>
