<svg width="48" height="48" viewBox="0 0 48 48" fill="none" xmlns="http://www.w3.org/2000/svg">
<g clip-path="url(#clip0_72_4031)">
<path d="M22.0001 48C9.84407 48.234 3.33207 32.724 12.0001 24.222V10C12.4221 -3.218 31.5821 -3.2 32.0001 10V24.222C40.6701 32.726 34.1541 48.234 22.0001 48ZM22.0001 4C20.4088 4 18.8826 4.63214 17.7574 5.75736C16.6322 6.88258 16.0001 8.4087 16.0001 10V25.074C16 25.3547 15.9409 25.6323 15.8265 25.8887C15.7121 26.1451 15.545 26.3745 15.3361 26.562C13.8512 27.9213 12.8095 29.6957 12.3461 31.6547C11.8828 33.6137 12.0193 35.6668 12.7379 37.5472C13.4565 39.4277 14.724 41.0485 16.3758 42.1993C18.0275 43.35 19.9871 43.9774 22.0001 44C24.013 43.9774 25.9726 43.35 27.6244 42.1993C29.2761 41.0485 30.5436 39.4277 31.2622 37.5472C31.9808 35.6668 32.1173 33.6137 31.654 31.6547C31.1907 29.6957 30.1489 27.9213 28.6641 26.562C28.4552 26.3745 28.2881 26.1451 28.1737 25.8887C28.0593 25.6323 28.0001 25.3547 28.0001 25.074V10C28.0001 8.4087 27.3679 6.88258 26.2427 5.75736C25.1175 4.63214 23.5914 4 22.0001 4ZM22.0001 40C20.5945 39.9823 19.2395 39.4729 18.1705 38.5601C17.1014 37.6473 16.3859 36.3888 16.1483 35.0034C15.9106 33.6179 16.1657 32.1929 16.8694 30.976C17.573 29.7591 18.6807 28.8271 20.0001 28.342V10C20.0001 9.46957 20.2108 8.96086 20.5859 8.58579C20.9609 8.21072 21.4696 8 22.0001 8C22.5305 8 23.0392 8.21072 23.4143 8.58579C23.7894 8.96086 24.0001 9.46957 24.0001 10V28.342C25.3194 28.8271 26.4271 29.7591 27.1308 30.976C27.8344 32.1929 28.0896 33.6179 27.8519 35.0034C27.6142 36.3888 26.8987 37.6473 25.8297 38.5601C24.7607 39.4729 23.4057 39.9823 22.0001 40ZM22.0001 32C21.4696 32 20.9609 32.2107 20.5859 32.5858C20.2108 32.9609 20.0001 33.4696 20.0001 34C20.0001 34.5304 20.2108 35.0391 20.5859 35.4142C20.9609 35.7893 21.4696 36 22.0001 36C22.5305 36 23.0392 35.7893 23.4143 35.4142C23.7894 35.0391 24.0001 34.5304 24.0001 34C24.0001 33.4696 23.7894 32.9609 23.4143 32.5858C23.0392 32.2107 22.5305 32 22.0001 32ZM42.0001 12C40.4088 12 38.8826 11.3679 37.7574 10.2426C36.6322 9.11742 36.0001 7.5913 36.0001 6C36.0001 4.4087 36.6322 2.88258 37.7574 1.75736C38.8826 0.632141 40.4088 0 42.0001 0C43.5914 0 45.1175 0.632141 46.2427 1.75736C47.3679 2.88258 48.0001 4.4087 48.0001 6C48.0001 7.5913 47.3679 9.11742 46.2427 10.2426C45.1175 11.3679 43.5914 12 42.0001 12ZM42.0001 4C41.4696 4 40.9609 4.21071 40.5858 4.58579C40.2108 4.96086 40.0001 5.46957 40.0001 6C40.0001 6.53043 40.2108 7.03914 40.5858 7.41421C40.9609 7.78929 41.4696 8 42.0001 8C42.5305 8 43.0392 7.78929 43.4143 7.41421C43.7894 7.03914 44.0001 6.53043 44.0001 6C44.0001 5.46957 43.7894 4.96086 43.4143 4.58579C43.0392 4.21071 42.5305 4 42.0001 4Z" fill="#2078BA"/>
</g>
<defs>
<clipPath id="clip0_72_4031">
<rect width="48" height="48" fill="white"/>
</clipPath>
</defs>
</svg>
