<svg width="48" height="48" viewBox="0 0 48 48" fill="none" xmlns="http://www.w3.org/2000/svg">
<g clip-path="url(#clip0_72_4039)">
<path d="M22 46C22 47.104 21.104 48 20 48H10C4.486 48 0 43.514 0 38V10C0 4.486 4.486 0 10 0H26C31.514 0 36 4.486 36 10V36C36 37.104 35.106 38 34 38C32.894 38 32 37.104 32 36V10C32 6.692 29.308 4 26 4H10C6.692 4 4 6.692 4 10V38C4 41.308 6.692 44 10 44H20C21.104 44 22 44.896 22 46ZM26 10H10C8.896 10 8 10.896 8 12C8 13.104 8.896 14 10 14H26C27.106 14 28 13.104 28 12C28 10.896 27.106 10 26 10ZM26 20H10C8.896 20 8 20.896 8 22C8 23.104 8.896 24 10 24H26C27.106 24 28 23.104 28 22C28 20.896 27.106 20 26 20ZM20 30H10C8.896 30 8 30.896 8 32C8 33.104 8.896 34 10 34H20C21.104 34 22 33.104 22 32C22 30.896 21.104 30 20 30ZM47.39 32.564C46.598 31.796 45.332 31.816 44.562 32.608L34.348 43.16C33.258 44.296 31.292 44.266 30.236 43.1L25.454 38.03C24.698 37.226 23.43 37.19 22.626 37.946C21.822 38.702 21.786 39.97 22.542 40.774L27.324 45.844C29.868 48.648 34.566 48.712 37.198 45.966L47.436 35.39C48.204 34.596 48.184 33.332 47.39 32.564Z" fill="#2078BA"/>
</g>
<defs>
<clipPath id="clip0_72_4039">
<rect width="48" height="48" fill="white"/>
</clipPath>
</defs>
</svg>
