<svg width="48" height="48" viewBox="0 0 48 48" fill="none" xmlns="http://www.w3.org/2000/svg">
<path d="M31.334 34C31.334 37.308 28.642 40 25.334 40H20C18.894 40 18 39.106 18 38C18 36.894 18.894 36 20 36H25.334C26.438 36 27.334 35.104 27.334 34C27.334 32.896 26.438 32 25.334 32H22C20.894 32 20 31.106 20 30C20 28.894 20.894 28 22 28H24C25.104 28 26 27.104 26 26C26 24.896 25.104 24 24 24H20C18.894 24 18 23.106 18 22C18 20.894 18.894 20 20 20H24C27.308 20 30 22.692 30 26C30 27.216 29.632 28.344 29.008 29.292C30.414 30.392 31.334 32.082 31.334 34ZM44.612 5.738L38.126 18.878C40.544 21.942 42 25.8 42 29.998C42 39.924 33.926 47.998 24 47.998C14.074 47.998 6.00001 39.926 6.00001 30C6.00001 25.786 7.46601 21.914 9.90201 18.842L3.43601 5.74C2.82201 4.496 2.89401 3.052 3.62601 1.876C4.35601 0.7 5.62001 0 7.00401 0H13.022C16.09 0 18.84 1.708 20.198 4.46L23.918 12.004C23.946 12.004 23.972 12 24 12C24.042 12 24.082 12.006 24.124 12.006L27.846 4.46C29.204 1.708 31.954 0 35.02 0H41.04C42.424 0 43.688 0.702 44.418 1.876C45.148 3.05 45.222 4.496 44.612 5.738ZM7.00401 4L12.888 15.868C14.872 14.304 17.192 13.156 19.72 12.536L16.61 6.23C15.93 4.854 14.558 4 13.022 4H7.00401ZM38 30C38 22.282 31.718 16 24 16C23.602 16 23.212 16.028 22.822 16.06C22.82 16.06 22.818 16.06 22.816 16.06C15.65 16.664 10 22.68 10 30C10 37.718 16.282 44 24 44C31.718 44 38 37.718 38 30ZM41.024 3.97L35.022 4C33.488 4 32.114 4.856 31.434 6.23L28.318 12.544C30.844 13.17 33.162 14.32 35.142 15.888L41.024 3.97Z" fill="#2078BA"/>
</svg>
