<svg width="48" height="48" viewBox="0 0 48 48" fill="none" xmlns="http://www.w3.org/2000/svg">
<g clip-path="url(#clip0_72_3974)">
<path d="M38 0H10C4.486 0 0 4.486 0 10V38C0 43.514 4.486 48 10 48H38C43.514 48 48 43.514 48 38V10C48 4.486 43.514 0 38 0ZM44 10V22H26V4H38C41.308 4 44 6.692 44 10ZM10 4H22V22H4V10C4 6.692 6.692 4 10 4ZM4 38V26H22V44H10C6.692 44 4 41.308 4 38ZM38 44H26V26H44V38C44 41.308 41.308 44 38 44ZM7 12.904C7.012 12.29 7.396 11.746 7.968 11.53L10.566 10.546L11.606 7.944C11.834 7.374 12.386 7 13 7C13.614 7 14.166 7.374 14.394 7.944L15.44 10.56L18.056 11.606C18.626 11.834 19 12.386 19 13C19 13.614 18.626 14.166 18.056 14.394L15.44 15.44L14.394 18.056C14.166 18.626 13.614 19 13 19C12.386 19 11.834 18.626 11.606 18.056L10.554 15.424L7.918 14.314C7.352 14.076 6.99 13.518 7 12.904ZM29 12.904C29.012 12.29 29.396 11.746 29.968 11.53L32.566 10.546L33.606 7.944C33.834 7.374 34.386 7 35 7C35.614 7 36.166 7.374 36.394 7.944L37.44 10.56L40.056 11.606C40.626 11.834 41 12.386 41 13C41 13.614 40.626 14.166 40.056 14.394L37.44 15.44L36.394 18.056C36.166 18.626 35.614 19 35 19C34.386 19 33.834 18.626 33.606 18.056L32.554 15.424L29.918 14.314C29.352 14.076 28.99 13.518 29 12.904ZM19 35C19 35.614 18.626 36.166 18.056 36.394L15.44 37.44L14.394 40.056C14.166 40.626 13.614 41 13 41C12.386 41 11.834 40.626 11.606 40.056L10.554 37.424L7.918 36.314C7.352 36.076 6.99 35.518 7 34.904C7.012 34.29 7.396 33.746 7.968 33.53L10.566 32.546L11.606 29.944C11.834 29.374 12.386 29 13 29C13.614 29 14.166 29.374 14.394 29.944L15.44 32.56L18.056 33.606C18.626 33.834 19 34.386 19 35ZM41 35C41 35.614 40.626 36.166 40.056 36.394L37.44 37.44L36.394 40.056C36.166 40.626 35.614 41 35 41C34.386 41 33.834 40.626 33.606 40.056L32.554 37.424L29.918 36.314C29.352 36.076 28.99 35.518 29 34.904C29.012 34.29 29.396 33.746 29.968 33.53L32.566 32.546L33.606 29.944C33.834 29.374 34.386 29 35 29C35.614 29 36.166 29.374 36.394 29.944L37.44 32.56L40.056 33.606C40.626 33.834 41 34.386 41 35Z" fill="#2078BA"/>
</g>
<defs>
<clipPath id="clip0_72_3974">
<rect width="48" height="48" fill="white"/>
</clipPath>
</defs>
</svg>
