<svg width="48" height="48" viewBox="0 0 48 48" fill="none" xmlns="http://www.w3.org/2000/svg">
<g clip-path="url(#clip0_72_3992)">
<path d="M48 24C48 24.5304 47.7893 25.0391 47.4142 25.4142C47.0391 25.7893 46.5304 26 46 26C45.4696 26 44.9609 25.7893 44.5858 25.4142C44.2107 25.0391 44 24.5304 44 24C43.9942 18.6975 41.8852 13.6138 38.1357 9.8643C34.3862 6.11483 29.3025 4.00582 24 4C23.4696 4 22.9609 3.78929 22.5858 3.41421C22.2107 3.03914 22 2.53043 22 2C22 1.46957 22.2107 0.960859 22.5858 0.585786C22.9609 0.210714 23.4696 0 24 0C30.3631 0.00688216 36.4636 2.53766 40.963 7.03704C45.4623 11.5364 47.9931 17.6369 48 24ZM32 26C32.5304 26 33.0391 25.7893 33.4142 25.4142C33.7893 25.0391 34 24.5304 34 24C34 23.4696 33.7893 22.9609 33.4142 22.5858C33.0391 22.2107 32.5304 22 32 22H27.446C27.0974 21.4009 26.5991 20.9026 26 20.554V14C26 13.4696 25.7893 12.9609 25.4142 12.5858C25.0391 12.2107 24.5304 12 24 12C23.4696 12 22.9609 12.2107 22.5858 12.5858C22.2107 12.9609 22 13.4696 22 14V20.554C21.4695 20.8594 21.0165 21.2829 20.676 21.7915C20.3355 22.3002 20.1166 22.8804 20.0364 23.4872C19.9561 24.094 20.0166 24.7112 20.2132 25.2908C20.4098 25.8705 20.7372 26.3972 21.17 26.83C21.6028 27.2628 22.1295 27.5902 22.7092 27.7868C23.2888 27.9834 23.906 28.0439 24.5128 27.9636C25.1196 27.8834 25.6998 27.6645 26.2085 27.324C26.7171 26.9835 27.1406 26.5305 27.446 26H32ZM3.654 13.568C3.25844 13.568 2.87176 13.6853 2.54286 13.9051C2.21396 14.1248 1.95762 14.4372 1.80624 14.8026C1.65487 15.1681 1.61526 15.5702 1.69243 15.9582C1.7696 16.3461 1.96008 16.7025 2.23979 16.9822C2.51949 17.2619 2.87586 17.4524 3.26382 17.5296C3.65178 17.6067 4.05392 17.5671 4.41937 17.4158C4.78482 17.2644 5.09718 17.008 5.31694 16.6791C5.5367 16.3502 5.654 15.9636 5.654 15.568C5.654 15.0376 5.44329 14.5289 5.06821 14.1538C4.69314 13.7787 4.18443 13.568 3.654 13.568ZM4 24C4 23.6044 3.8827 23.2178 3.66294 22.8889C3.44318 22.56 3.13082 22.3036 2.76537 22.1522C2.39992 22.0009 1.99778 21.9613 1.60982 22.0384C1.22186 22.1156 0.865492 22.3061 0.585787 22.5858C0.306082 22.8655 0.115601 23.2219 0.0384303 23.6098C-0.0387401 23.9978 0.000866562 24.3999 0.152242 24.7654C0.303617 25.1308 0.559962 25.4432 0.88886 25.6629C1.21776 25.8827 1.60444 26 2 26C2.53043 26 3.03914 25.7893 3.41421 25.4142C3.78929 25.0391 4 24.5304 4 24ZM24 44C23.6044 44 23.2178 44.1173 22.8889 44.3371C22.56 44.5568 22.3036 44.8692 22.1522 45.2346C22.0009 45.6001 21.9613 46.0022 22.0384 46.3902C22.1156 46.7781 22.3061 47.1345 22.5858 47.4142C22.8655 47.6939 23.2219 47.8844 23.6098 47.9616C23.9978 48.0387 24.3999 47.9991 24.7654 47.8478C25.1308 47.6964 25.4432 47.44 25.6629 47.1111C25.8827 46.7822 26 46.3956 26 46C26 45.4696 25.7893 44.9609 25.4142 44.5858C25.0391 44.2107 24.5304 44 24 44ZM8.442 6.414C8.04644 6.414 7.65976 6.5313 7.33086 6.75106C7.00196 6.97082 6.74562 7.28318 6.59424 7.64863C6.44287 8.01408 6.40326 8.41622 6.48043 8.80418C6.5576 9.19214 6.74808 9.54851 7.02779 9.82821C7.30749 10.1079 7.66386 10.2984 8.05182 10.3756C8.43978 10.4527 8.84192 10.4131 9.20737 10.2618C9.57282 10.1104 9.88518 9.85404 10.1049 9.52514C10.3247 9.19624 10.442 8.80956 10.442 8.414C10.442 7.88357 10.2313 7.37486 9.85621 6.99979C9.48114 6.62471 8.97243 6.414 8.442 6.414ZM15.558 1.682C15.1624 1.682 14.7758 1.7993 14.4469 2.01906C14.118 2.23882 13.8616 2.55118 13.7102 2.91663C13.5589 3.28209 13.5193 3.68422 13.5964 4.07218C13.6736 4.46014 13.8641 4.81651 14.1438 5.09621C14.4235 5.37592 14.7799 5.5664 15.1678 5.64357C15.5558 5.72074 15.9579 5.68113 16.3234 5.52976C16.6888 5.37838 17.0012 5.12204 17.2209 4.79314C17.4407 4.46424 17.558 4.07756 17.558 3.682C17.558 3.15157 17.3473 2.64286 16.9722 2.26779C16.5971 1.89271 16.0884 1.682 15.558 1.682ZM3.654 30.432C3.25844 30.432 2.87176 30.5493 2.54286 30.7691C2.21396 30.9888 1.95762 31.3012 1.80624 31.6666C1.65487 32.0321 1.61526 32.4342 1.69243 32.8222C1.7696 33.2101 1.96008 33.5665 2.23979 33.8462C2.51949 34.1259 2.87586 34.3164 3.26382 34.3936C3.65178 34.4707 4.05392 34.4311 4.41937 34.2798C4.78482 34.1284 5.09718 33.872 5.31694 33.5431C5.5367 33.2142 5.654 32.8276 5.654 32.432C5.654 31.9016 5.44329 31.3929 5.06821 31.0178C4.69314 30.6427 4.18443 30.432 3.654 30.432ZM8.442 37.586C8.04644 37.586 7.65976 37.7033 7.33086 37.9231C7.00196 38.1428 6.74562 38.4552 6.59424 38.8206C6.44287 39.1861 6.40326 39.5882 6.48043 39.9762C6.5576 40.3641 6.74808 40.7205 7.02779 41.0002C7.30749 41.2799 7.66386 41.4704 8.05182 41.5476C8.43978 41.6247 8.84192 41.5851 9.20737 41.4338C9.57282 41.2824 9.88518 41.026 10.1049 40.6971C10.3247 40.3682 10.442 39.9816 10.442 39.586C10.442 39.0556 10.2313 38.5469 9.85621 38.1718C9.48114 37.7967 8.97243 37.586 8.442 37.586ZM15.558 42.318C15.1624 42.318 14.7758 42.4353 14.4469 42.6551C14.118 42.8748 13.8616 43.1872 13.7102 43.5526C13.5589 43.9181 13.5193 44.3202 13.5964 44.7082C13.6736 45.0961 13.8641 45.4525 14.1438 45.7322C14.4235 46.0119 14.7799 46.2024 15.1678 46.2796C15.5558 46.3567 15.9579 46.3171 16.3234 46.1658C16.6888 46.0144 17.0012 45.758 17.2209 45.4291C17.4407 45.1002 17.558 44.7136 17.558 44.318C17.558 43.7876 17.3473 43.2789 16.9722 42.9038C16.5971 42.5287 16.0884 42.318 15.558 42.318ZM44.346 30.432C43.9504 30.432 43.5638 30.5493 43.2349 30.7691C42.906 30.9888 42.6496 31.3012 42.4982 31.6666C42.3469 32.0321 42.3073 32.4342 42.3844 32.8222C42.4616 33.2101 42.6521 33.5665 42.9318 33.8462C43.2115 34.1259 43.5679 34.3164 43.9558 34.3936C44.3438 34.4707 44.7459 34.4311 45.1114 34.2798C45.4768 34.1284 45.7892 33.872 46.0089 33.5431C46.2287 33.2142 46.346 32.8276 46.346 32.432C46.346 31.9016 46.1353 31.3929 45.7602 31.0178C45.3851 30.6427 44.8764 30.432 44.346 30.432ZM39.558 37.586C39.1624 37.586 38.7758 37.7033 38.4469 37.9231C38.118 38.1428 37.8616 38.4552 37.7102 38.8206C37.5589 39.1861 37.5193 39.5882 37.5964 39.9762C37.6736 40.3641 37.8641 40.7205 38.1438 41.0002C38.4235 41.2799 38.7799 41.4704 39.1678 41.5476C39.5558 41.6247 39.9579 41.5851 40.3234 41.4338C40.6888 41.2824 41.0012 41.026 41.2209 40.6971C41.4407 40.3682 41.558 39.9816 41.558 39.586C41.558 39.0556 41.3473 38.5469 40.9722 38.1718C40.5971 37.7967 40.0884 37.586 39.558 37.586ZM32.442 42.318C32.0464 42.318 31.6598 42.4353 31.3309 42.6551C31.002 42.8748 30.7456 43.1872 30.5942 43.5526C30.4429 43.9181 30.4033 44.3202 30.4804 44.7082C30.5576 45.0961 30.7481 45.4525 31.0278 45.7322C31.3075 46.0119 31.6639 46.2024 32.0518 46.2796C32.4398 46.3567 32.8419 46.3171 33.2074 46.1658C33.5728 46.0144 33.8852 45.758 34.1049 45.4291C34.3247 45.1002 34.442 44.7136 34.442 44.318C34.442 43.7876 34.2313 43.2789 33.8562 42.9038C33.4811 42.5287 32.9724 42.318 32.442 42.318Z" fill="#2078BA"/>
</g>
<defs>
<clipPath id="clip0_72_3992">
<rect width="48" height="48" fill="white"/>
</clipPath>
</defs>
</svg>
