<svg width="48" height="48" viewBox="0 0 48 48" fill="none" xmlns="http://www.w3.org/2000/svg">
<g clip-path="url(#clip0_72_3976)">
<path d="M35.9585 26.048C33.7205 23.816 30.3324 23.412 27.6784 24.834L18.0144 15.17V8.99801C18.0144 6.97201 16.9244 5.08601 15.1704 4.07401L9.20845 0.636006C7.34645 -0.439994 4.98445 -0.125994 3.46045 1.39401L1.41045 3.44801C-0.111555 4.96601 -0.421555 7.33001 0.652445 9.19201L4.09045 15.154C5.10245 16.91 6.99045 18 9.01445 18H15.1864L24.8384 27.652C24.2824 28.668 23.9864 29.81 23.9864 31C23.9864 32.872 24.7164 34.628 26.0424 35.952L36.0704 45.952C37.3865 47.264 39.1785 48 41.0304 48C43.0005 48 45.2065 46.958 46.4664 45.422C48.7185 42.678 48.4185 38.472 45.7845 35.848L35.9585 26.048ZM7.55445 13.158L4.11645 7.19401C3.94445 6.89801 3.99445 6.52001 4.23845 6.27601L6.28845 4.22401C6.53245 3.98201 6.91045 3.93001 7.20845 4.10201L13.1684 7.54201C13.6884 7.84201 14.0124 8.40201 14.0124 9.00001V14H9.01245C8.41245 14 7.85445 13.678 7.55445 13.158ZM43.3745 42.884C42.8225 43.558 42.0424 43.952 41.1805 43.996C40.3385 44.036 39.4985 43.718 38.8965 43.12L28.8684 33.12C28.3004 32.554 27.9884 31.802 27.9884 31C27.9884 30.198 28.3024 29.448 28.8684 28.88C29.4564 28.294 30.2304 28 31.0024 28C31.7744 28 32.5464 28.294 33.1344 28.88L42.9625 38.678C44.1545 39.868 44.3345 41.714 43.3745 42.884ZM20.8744 34.198C21.6544 34.982 21.6524 36.246 20.8704 37.026L11.9164 45.95C10.6004 47.262 8.81045 47.998 6.95645 47.998C5.19445 47.998 2.78045 46.956 1.52045 45.418C-0.729555 42.676 -0.431555 38.47 2.20445 35.846L13.5404 24.536C14.3204 23.756 15.5884 23.756 16.3684 24.54C17.1484 25.322 17.1464 26.588 16.3644 27.368L5.02645 38.678C3.83445 39.868 3.65045 41.714 4.61045 42.882C5.16445 43.558 5.94445 43.952 6.80645 43.996C7.65845 44.034 8.48845 43.718 9.09045 43.12L18.0464 34.196C18.8284 33.416 20.0924 33.416 20.8764 34.2L20.8744 34.198ZM19.7864 9.26801C21.6264 4.58201 25.8344 1.12001 30.7684 0.234006C32.4944 -0.0739937 34.2285 -0.0799937 35.9264 0.222006C37.2584 0.458006 38.3325 1.39801 38.7304 2.67001C39.1884 4.12801 38.7304 5.73201 37.5065 6.96001L32.8364 11.444C31.8664 12.414 31.7085 13.966 32.5065 14.942C32.9664 15.504 33.6124 15.832 34.3284 15.87C35.0265 15.904 35.7164 15.646 36.2225 15.14L41.4505 10.098C42.4225 9.12601 43.8765 8.76401 45.2365 9.19801C46.5645 9.61601 47.5385 10.722 47.7804 12.08C48.0805 13.776 48.0765 15.514 47.7685 17.242C47.2065 20.386 45.5685 23.314 43.1564 25.488C42.7744 25.832 42.2945 26.002 41.8185 26.002C41.2725 26.002 40.7265 25.78 40.3325 25.342C39.5925 24.522 39.6585 23.256 40.4785 22.516C42.2325 20.936 43.4225 18.812 43.8305 16.54C44.0265 15.444 44.0545 14.35 43.9165 13.276L39.0265 17.994C37.7565 19.268 35.9664 19.962 34.1305 19.866C32.2985 19.774 30.5784 18.904 29.4104 17.476C27.3264 14.928 27.6024 11.024 30.0384 8.59001L34.7065 4.10601L34.7244 4.08801C33.6544 3.95201 32.5625 3.98001 31.4744 4.17601C27.8984 4.81601 24.8484 7.33001 23.5104 10.734C23.1084 11.762 21.9464 12.268 20.9184 11.864C19.8904 11.46 19.3824 10.3 19.7884 9.27201L19.7864 9.26801Z" fill="#2078BA"/>
</g>
<defs>
<clipPath id="clip0_72_3976">
<rect width="48" height="48" fill="white"/>
</clipPath>
</defs>
</svg>
