<svg width="48" height="48" viewBox="0 0 48 48" fill="none" xmlns="http://www.w3.org/2000/svg">
<g clip-path="url(#clip0_72_3975)">
<path d="M38 8H35.798C34.868 3.442 30.828 0 26 0H22C17.172 0 13.13 3.442 12.202 8H10C4.486 8 0 12.486 0 18V38C0 43.514 4.486 48 10 48H38C43.514 48 48 43.514 48 38V18C48 12.486 43.514 8 38 8ZM22 4H26C28.608 4 30.83 5.672 31.656 8H16.344C17.17 5.672 19.392 4 22 4ZM10 12H38C41.308 12 44 14.692 44 18V20H38V18C38 16.896 37.106 16 36 16C34.894 16 34 16.896 34 18V20H14V18C14 16.896 13.106 16 12 16C10.894 16 10 16.896 10 18V20H4V18C4 14.692 6.692 12 10 12ZM38 44H10C6.692 44 4 41.308 4 38V24H10V26C10 27.104 10.894 28 12 28C13.106 28 14 27.104 14 26V24H34V26C34 27.104 34.894 28 36 28C37.106 28 38 27.104 38 26V24H44V38C44 41.308 41.308 44 38 44Z" fill="#2078BA"/>
</g>
<defs>
<clipPath id="clip0_72_3975">
<rect width="48" height="48" fill="white"/>
</clipPath>
</defs>
</svg>
