<svg width="48" height="48" viewBox="0 0 48 48" fill="none" xmlns="http://www.w3.org/2000/svg">
<g clip-path="url(#clip0_72_3978)">
<path d="M46.7964 31.84L30.7124 5.766C29.2144 3.338 26.8364 2 24.0184 2C21.1704 2 18.7764 3.338 17.2784 5.766L1.19435 31.84C-0.347646 34.34 -0.413646 37.368 1.01835 39.934C2.43835 42.48 5.02035 44 7.92635 44H40.0664C42.9704 44 45.5524 42.48 46.9744 39.934C48.4064 37.366 48.3404 34.34 46.7964 31.84ZM43.4784 37.984C42.7744 39.246 41.4984 40 40.0644 40H7.92635C6.49235 40 5.21635 39.246 4.51235 37.984C3.79635 36.7 3.82835 35.19 4.59835 33.94L12.5464 21.056L28.5504 31.966L27.5344 33.432C26.7824 34.518 27.5604 36.002 28.8804 36.002H36.4024C37.8724 36.002 38.8304 34.454 38.1724 33.138L35.0564 26.906C34.5024 25.8 32.9704 25.682 32.2564 26.692L30.4884 29.196L19.9684 21.938L20.7444 19.94C20.8744 19.576 21.1444 19.294 21.5064 19.144C21.8604 18.998 22.2664 19.012 22.6184 19.186L22.9404 19.34C23.7644 19.75 24.3924 20.454 24.7104 21.322L24.8064 21.626C24.9064 21.942 25.1124 22.212 25.3884 22.394C26.4884 23.118 27.9044 22.112 27.5824 20.836L27.4344 20.25C26.8924 18.756 25.8104 17.544 24.3884 16.836L23.6344 16.46C22.6264 15.96 21.4524 15.912 20.4104 16.332C19.3684 16.75 18.5524 17.598 18.1724 18.656L17.5204 20.266L14.3344 18.16L20.6844 7.868C21.4484 6.63 22.5704 6.002 24.0204 6.002C25.4604 6.002 26.5364 6.612 27.3104 7.868L43.3944 33.942C44.1644 35.192 44.1984 36.704 43.4804 37.986L43.4784 37.984ZM26.0004 12C26.0004 13.104 25.1044 14 24.0004 14C22.8964 14 22.0004 13.104 22.0004 12C22.0004 10.896 22.8964 10 24.0004 10C25.1044 10 26.0004 10.896 26.0004 12ZM15.2924 26.824L17.9164 28.62L15.6244 35.008C15.4104 35.604 14.8464 36.002 14.2124 36.002H14.1304C13.0924 36.002 12.3684 34.972 12.7184 33.996L15.2904 26.826L15.2924 26.824ZM20.0004 30.074L23.0004 32.254V34.5C23.0004 35.328 22.3284 36 21.5004 36C20.6724 36 20.0004 35.328 20.0004 34.5V30.074Z" fill="#2078BA"/>
</g>
<defs>
<clipPath id="clip0_72_3978">
<rect width="48" height="48" fill="white"/>
</clipPath>
</defs>
</svg>
