<svg width="48" height="48" viewBox="0 0 48 48" fill="none" xmlns="http://www.w3.org/2000/svg">
<path d="M22.0939 34.004C21.4059 34.006 20.9199 33.334 21.1379 32.682L22.2379 28.006H18.4379C17.6679 28.01 17.1099 27.27 17.3299 26.53L20.1119 19.148C20.3759 18.46 21.0379 18.006 21.7759 18.006H25.0319C25.7779 18.006 26.2799 18.77 25.9839 19.456L24.4679 23.006H28.8599C29.7599 23.002 30.3019 24 29.8079 24.752L22.8879 33.612C22.6979 33.858 22.4059 34.002 22.0939 34.004ZM14.3059 14.824C15.2379 15.412 16.4739 15.138 17.0659 14.206L21.5759 7.09201C21.9999 6.40801 22.7519 6.00201 23.6239 6.00201C24.3759 6.03201 25.0719 6.37801 25.5059 7.05601L31.3559 15.912C30.5659 16.416 29.7999 16.904 29.1239 17.336C28.0679 18.01 28.3159 19.618 29.5259 19.944L35.7299 21.618C36.5479 21.838 37.3879 21.354 37.6099 20.538C37.6399 20.434 38.2579 16.842 38.7359 14.062C38.9479 12.828 37.5959 11.93 36.5419 12.604C35.9839 12.96 35.3679 13.354 34.7259 13.762L28.8559 4.87601C27.7039 3.07801 25.7599 2.00401 23.6859 2.00401C21.3499 1.93601 19.3439 3.08801 18.1819 4.97201L13.6839 12.066C13.0919 13 13.3699 14.234 14.3039 14.826L14.3059 14.824ZM46.9599 32.264L42.6599 25.736C42.0539 24.816 40.8119 24.56 39.8899 25.166C38.9659 25.774 38.7119 27.014 39.3199 27.936L43.6219 34.472C44.0779 35.158 44.1219 36.032 43.7399 36.752C43.3339 37.516 42.5459 37.992 41.6639 37.992L30.0139 38V35.606C30.0139 34.216 28.3659 33.486 27.3419 34.424L22.5359 38.818C21.8819 39.414 21.8359 40.43 22.4319 41.084C22.5039 41.166 25.1899 43.618 27.3439 45.584C28.3699 46.52 30.0139 45.788 30.0139 44.4V42.002L41.6859 41.994C44.0279 41.994 46.1679 40.706 47.2719 38.634C48.3439 36.618 48.2239 34.178 46.9619 32.268L46.9599 32.264ZM16.0139 38H6.31994C5.47594 38.002 4.69394 37.534 4.27394 36.772C3.88994 36.08 3.91394 35.232 4.34394 34.554L9.81594 25.85C10.4739 26.302 11.1059 26.738 11.6759 27.132C12.7019 27.84 14.0799 26.99 13.9099 25.754L13.0419 19.422C12.9279 18.588 12.1599 18.004 11.3239 18.118C11.2179 18.13 7.68794 18.954 4.95594 19.592C3.74394 19.876 3.44394 21.46 4.46994 22.166C5.09394 22.596 5.79594 23.078 6.51994 23.578L0.959937 32.42C-0.248063 34.332 -0.320063 36.742 0.773937 38.71C1.89594 40.74 4.01994 42.002 6.33394 42.002H16.0139C17.1199 42 18.0139 41.102 18.0139 39.998C18.0139 38.894 17.1179 38 16.0139 38Z" fill="#2078BA"/>
</svg>
