<svg width="48" height="48" viewBox="0 0 48 48" fill="none" xmlns="http://www.w3.org/2000/svg">
<g clip-path="url(#clip0_72_3979)">
<path d="M47.378 40.8983C44.8916 38.4254 43.498 35.0606 43.5078 31.554V24.3634C43.498 20.8568 44.8916 17.492 47.378 15.0191C48.15 14.2469 48.15 12.9951 47.378 12.2228C43.4227 9.02102 38.9671 21.3535 39.5525 24.3634V25.9811H35.3461C34.7788 23.7991 33.3106 21.9613 31.3078 20.9262L31.2861 20.8945L22.6181 8.46124C20.7695 5.80886 17.741 4.22777 14.5079 4.22711H13.8434C10.5667 4.22711 7.91053 6.88333 7.91053 10.16V20.0481C3.54169 20.0482 0 23.5899 0 27.9587V31.9139C0.00075 33.3263 0.7545 34.631 1.97766 35.3372V36.858C1.97766 40.6808 5.07656 43.7797 8.89931 43.7797C12.7221 43.7797 15.821 40.6808 15.821 36.858V35.8692H19.7762V36.858C19.7762 40.6808 22.8751 43.7797 26.6978 43.7797C30.5206 43.7797 33.6195 40.6808 33.6195 36.858V35.3372C34.8427 34.6311 35.5964 33.3263 35.5972 31.9139V29.9363H39.5524V31.5539C39.54 36.1101 41.351 40.4817 44.5815 43.6945L44.7041 43.8191C46.5968 45.6228 49.2093 42.6821 47.378 40.8983ZM11.8658 10.1601C11.8658 9.06789 12.7511 8.18242 13.8434 8.18242H14.5079C16.4498 8.18036 18.27 9.12874 19.3807 10.7217L25.8753 20.0482H11.8658V10.1601ZM3.95522 27.9587C3.95522 25.7742 5.72606 24.0035 7.91044 24.0035H27.6867C29.8712 24.0035 31.6419 25.7743 31.6419 27.9587V31.9139H3.95522V27.9587ZM11.8658 36.858C11.8658 38.4963 10.5376 39.8245 8.89931 39.8245C7.26103 39.8245 5.93288 38.4963 5.93288 36.858V35.8692H11.8658V36.858ZM26.6979 39.8245C25.0597 39.8245 23.7315 38.4963 23.7315 36.858V35.8692H29.6644V36.858C29.6644 38.4963 28.3362 39.8245 26.6979 39.8245Z" fill="#2078BA"/>
</g>
<defs>
<clipPath id="clip0_72_3979">
<rect width="48" height="48" fill="white"/>
</clipPath>
</defs>
</svg>
