<svg width="48" height="48" viewBox="0 0 48 48" fill="none" xmlns="http://www.w3.org/2000/svg">
<g clip-path="url(#clip0_72_3980)">
<path d="M38 12H34C31.794 12 30 13.794 30 16V24H27.936L8.536 0.72C8.156 0.264 7.594 0 7 0H6C4.896 0 4 0.896 4 2V13C4 13.552 3.552 14 3 14H2C0.896 14 0 14.896 0 16C0 17.104 0.896 18 2 18H3C5.756 18 8 15.756 8 13V6.324L22.73 24H6C2.692 24 0 26.692 0 30V34C0 37.308 2.692 40 6 40H6.074C6.026 40.33 6 40.662 6 41C6 44.86 9.14 48 13 48C16.86 48 20 44.86 20 41C20 40.662 19.974 40.33 19.926 40H28.074C28.026 40.33 28 40.662 28 41C28 44.86 31.14 48 35 48C38.86 48 42 44.86 42 41C42 40.586 41.962 40.176 41.89 39.774C45.392 38.922 48 35.76 48 32V22C48 16.486 43.514 12 38 12ZM38 16C41.308 16 44 18.692 44 22V24H34V16H38ZM4 34V30C4 28.898 4.898 28 6 28H30V36H16.986C16.976 36 16.966 36 16.954 36H9.058C9.038 36 9.016 36 8.996 36H6C4.898 36 4 35.102 4 34ZM16 41C16 42.654 14.654 44 13 44C11.346 44 10 42.654 10 41C10 40.622 10.074 40.288 10.182 40H15.82C15.928 40.288 16.002 40.622 16.002 41H16ZM35 44C33.346 44 32 42.654 32 41C32 40.622 32.074 40.288 32.182 40H37.82C37.928 40.288 38.002 40.622 38.002 41C38.002 42.654 36.654 44 35 44ZM40 36H38.986C38.976 36 38.966 36 38.954 36H34V28H44V32C44 34.206 42.206 36 40 36Z" fill="#2078BA"/>
</g>
<defs>
<clipPath id="clip0_72_3980">
<rect width="48" height="48" fill="white"/>
</clipPath>
</defs>
</svg>
