<svg width="48" height="48" viewBox="0 0 48 48" fill="none" xmlns="http://www.w3.org/2000/svg">
<g clip-path="url(#clip0_72_3981)">
<path d="M45.0702 16.916L31.0762 2.92397C27.1722 -0.980028 20.8202 -0.980028 16.9162 2.92397L2.92419 16.916C1.03419 18.806 -0.0078125 21.322 -0.0078125 23.996C-0.0078125 26.67 1.03419 29.184 2.92619 31.076L16.9182 45.068C18.8702 47.02 21.4342 47.996 23.9982 47.996C26.5622 47.996 29.1262 47.02 31.0782 45.068L45.0702 31.074C48.9742 27.17 48.9742 20.818 45.0702 16.914V16.916ZM42.2422 28.248L28.2502 42.242C27.1142 43.376 25.6042 44.002 23.9982 44.002C22.3922 44.002 20.8822 43.376 19.7462 42.24L5.75419 28.248C4.61819 27.112 3.99219 25.602 3.99219 23.996C3.99219 22.39 4.61819 20.88 5.75419 19.744L19.7462 5.75197C20.9182 4.57997 22.4582 3.99397 23.9982 3.99397C25.5382 3.99397 27.0782 4.57997 28.2502 5.75197L42.2442 19.744C44.5882 22.088 44.5862 25.904 42.2422 28.248ZM32.0002 28H31.5822C31.5822 28 27.9102 12.594 27.8562 12.476C27.1582 10.948 25.6802 9.99997 24.0002 9.99997C22.3202 9.99997 20.8422 10.95 20.1442 12.476C20.0902 12.594 16.4182 28 16.4182 28H16.0002C14.8962 28 14.0002 28.896 14.0002 30C14.0002 31.104 14.8962 32 16.0002 32H32.0002C33.1042 32 34.0002 31.104 34.0002 30C34.0002 28.896 33.1042 28 32.0002 28ZM24.1582 14.052L25.5702 20H22.4302L23.8422 14.052C23.9062 13.994 24.0922 13.994 24.1562 14.052H24.1582ZM20.5322 28L21.4822 24H26.5222L27.4722 28H20.5322Z" fill="#2078BA"/>
</g>
<defs>
<clipPath id="clip0_72_3981">
<rect width="48" height="48" fill="white"/>
</clipPath>
</defs>
</svg>
