<svg width="48" height="48" viewBox="0 0 48 48" fill="none" xmlns="http://www.w3.org/2000/svg">
<path d="M44.1139 10.5046L29.3663 3.47878C26.12 1.5397 22.0795 1.5053 18.8006 3.38878L3.887 10.5046C3.83103 10.5326 3.773 10.5626 3.71901 10.5946C0.179846 12.6182 -1.04881 17.1278 0.974826 20.6669C1.66078 21.8667 2.66978 22.8497 3.887 23.5043L8.00093 25.4643V35.264C8.00336 39.646 10.8547 43.5174 15.0387 44.8198C17.9505 45.6621 20.9696 46.0745 24.0005 46.0437C27.031 46.0777 30.0502 45.6688 32.9624 44.8298C37.1464 43.5276 39.9977 39.6561 40.0002 35.274V25.4602L44.0001 23.5483V40.0438C44.0001 41.1483 44.8955 42.0437 46 42.0437C47.1046 42.0437 47.9999 41.1483 47.9999 40.0438V16.0444C48.0132 13.696 46.1589 11.5264 44.1139 10.5046ZM36.0001 35.274C36.0012 37.8951 34.3006 40.2136 31.8003 40.9998C29.2648 41.7243 26.6373 42.076 24.0005 42.0438C21.3636 42.076 18.7362 41.7243 16.2007 40.9998C13.7003 40.2135 11.9997 37.8951 12.0008 35.274V27.3703L18.6346 30.5302C20.2715 31.5022 22.1409 32.0129 24.0445 32.0081C25.8565 32.021 27.638 31.5413 29.1984 30.6202L36.0001 27.3702V35.274ZM42.4 19.8944L27.3164 27.0942C25.2133 28.3188 22.6064 28.2841 20.5366 27.0042L5.77892 19.9844C4.13393 19.0973 3.51951 17.0447 4.40655 15.3998C4.70654 14.8435 5.15634 14.3824 5.70495 14.0685L20.6945 6.90872C22.7983 5.68681 25.4038 5.72141 27.4744 6.99872L42.222 14.0245C43.3066 14.6268 43.9851 15.764 43.9999 17.0045C44.0019 18.1795 43.3968 19.2722 42.4 19.8944Z" fill="#2078BA"/>
</svg>
