<svg width="48" height="48" viewBox="0 0 48 48" fill="none" xmlns="http://www.w3.org/2000/svg">
<g clip-path="url(#clip0_72_3982)">
<path d="M40.2479 47.984C40.1639 47.994 40.0799 48 39.9979 48C39.0039 48 38.1419 47.26 38.0159 46.248C37.0999 38.922 31.4679 34 23.9999 34C16.5319 34 10.8999 38.922 9.98386 46.248C9.84586 47.344 8.83786 48.124 7.75186 47.984C6.65586 47.848 5.87786 46.848 6.01586 45.752C7.17586 36.478 14.5699 30 23.9999 30C33.4299 30 40.8259 36.478 41.9839 45.752C42.1199 46.848 41.3439 47.848 40.2479 47.984ZM8.99986 14C8.99986 12.896 9.89586 12 10.9999 12H11.9999V11C11.9999 4.934 16.9339 0 22.9999 0H24.9999C31.0659 0 35.9999 4.934 35.9999 11V12H36.9999C38.1039 12 38.9999 12.896 38.9999 14C38.9999 15.104 38.1039 16 36.9999 16H35.9999C35.9999 22.618 30.6179 28 23.9999 28C17.3819 28 11.9999 22.618 11.9999 16H10.9999C9.89586 16 8.99986 15.104 8.99986 14ZM31.9999 16H15.9999C15.9999 20.412 19.5879 24 23.9999 24C28.4119 24 31.9999 20.412 31.9999 16ZM15.9999 12H31.9999V11C31.9999 7.48 29.3879 4.558 25.9999 4.072V8C25.9999 9.104 25.1039 10 23.9999 10C22.8959 10 21.9999 9.104 21.9999 8V4.072C18.6119 4.558 15.9999 7.48 15.9999 11V12Z" fill="#2078BA"/>
</g>
<defs>
<clipPath id="clip0_72_3982">
<rect width="48" height="48" fill="white"/>
</clipPath>
</defs>
</svg>
