<svg width="48" height="48" viewBox="0 0 48 48" fill="none" xmlns="http://www.w3.org/2000/svg">
<g clip-path="url(#clip0_72_4065)">
<path d="M44.0077 8.996C44.0097 7.266 42.9577 5.776 41.3277 5.2L28.3977 0.637999C25.6257 -0.344001 22.5677 -0.346001 19.7937 0.623999L6.70567 5.204C5.06967 5.778 4.01367 7.266 4.01367 9C4.01367 10.732 5.07167 12.22 6.70767 12.792L11.9997 14.638V18C11.9997 24.618 17.3817 30 23.9997 30C30.6177 30 35.9997 24.618 35.9997 18V14.636L39.9997 13.24V21.998C39.9997 23.104 40.8957 23.998 41.9997 23.998C43.1037 23.998 43.9997 23.104 43.9997 21.998C43.9997 21.998 44.0077 9.014 44.0077 8.996ZM31.9997 18C31.9997 22.412 28.4117 26 23.9997 26C19.5877 26 15.9997 22.412 15.9997 18V16.032L19.7237 17.332C21.1017 17.812 22.5497 18.052 23.9977 18.052C25.4457 18.052 26.8937 17.812 28.2737 17.332L31.9997 16.032V18ZM26.9557 13.554C25.0477 14.218 22.9477 14.218 21.0397 13.554L8.02567 8.98L21.1137 4.402C23.0377 3.728 25.1517 3.734 27.0657 4.41L39.9937 9.006L26.9557 13.554ZM40.6497 45.596C40.8717 46.678 40.1777 47.736 39.0957 47.96C38.9597 47.988 38.8237 48.002 38.6897 48.002C37.7617 48.002 36.9277 47.352 36.7317 46.406C36.0197 42.954 33.8797 39.894 30.8597 38.014L25.5357 44.322C24.7757 45.232 23.2237 45.232 22.4637 44.322L17.2017 38.01C14.1197 39.894 11.9797 42.954 11.2677 46.406C11.0457 47.488 9.98567 48.176 8.90367 47.96C7.82167 47.736 7.12567 46.678 7.34967 45.596C8.28367 41.074 11.0817 37.074 15.0237 34.62C16.7357 33.552 18.9917 33.91 20.2737 35.446L23.9997 39.916L27.7237 35.446C29.0037 33.908 31.2617 33.55 32.9717 34.616C36.9197 37.074 39.7157 41.076 40.6497 45.596Z" fill="#2078BA"/>
</g>
<defs>
<clipPath id="clip0_72_4065">
<rect width="48" height="48" fill="white"/>
</clipPath>
</defs>
</svg>
