<svg width="48" height="48" viewBox="0 0 48 48" fill="none" xmlns="http://www.w3.org/2000/svg">
<g clip-path="url(#clip0_72_4001)">
<path d="M24.0004 32C28.4124 32 32.0004 28.412 32.0004 24C32.0004 19.588 28.4124 16 24.0004 16C19.5884 16 16.0004 19.588 16.0004 24C16.0004 28.412 19.5884 32 24.0004 32ZM24.0004 20C26.2064 20 28.0004 21.794 28.0004 24C28.0004 26.206 26.2064 28 24.0004 28C21.7944 28 20.0004 26.206 20.0004 24C20.0004 21.794 21.7944 20 24.0004 20ZM36.0004 46C36.0004 47.106 35.1044 48 34.0004 48C32.8964 48 32.0004 47.106 32.0004 46C32.0004 41.588 28.4124 38 24.0004 38C19.5884 38 16.0004 41.588 16.0004 46C16.0004 47.106 15.1044 48 14.0004 48C12.8964 48 12.0004 47.106 12.0004 46C12.0004 39.382 17.3824 34 24.0004 34C30.6184 34 36.0004 39.382 36.0004 46ZM11.6024 19.038C12.0344 20.216 10.5564 21.314 9.55243 20.564L6.93443 18.74L4.32443 20.564C3.32843 21.312 1.86043 20.232 2.28043 19.058L3.21043 16.146L0.772429 14.448C-0.301571 13.75 0.264428 11.926 1.54843 11.968H4.73843L5.48043 9.12599C5.81643 7.64999 8.06843 7.65199 8.40443 9.12599L9.14643 11.968H12.3164C13.5964 11.926 14.1604 13.738 13.0904 14.436L10.6484 16.142L11.6004 19.036L11.6024 19.038ZM47.4164 14.438L44.9744 16.144L45.9264 19.038C46.3584 20.216 44.8804 21.314 43.8764 20.564L41.2584 18.74L38.6484 20.564C37.6524 21.312 36.1864 20.23 36.6044 19.058L37.5344 16.146L35.0964 14.448C34.0224 13.75 34.5884 11.926 35.8724 11.968H39.0624L39.8044 9.12599C40.1404 7.64999 42.3924 7.65199 42.7284 9.12599L43.4704 11.968H46.6404C47.9204 11.926 48.4844 13.738 47.4144 14.436L47.4164 14.438ZM17.2964 5.02999C17.4304 4.41399 17.9764 3.96999 18.6084 3.97199H21.7984L22.5404 1.12999C22.8764 -0.346007 25.1284 -0.344007 25.4644 1.12999L26.2064 3.97199H29.3764C30.6564 3.92999 31.2204 5.74199 30.1504 6.43999L27.7084 8.14599L28.6604 11.04C29.0924 12.218 27.6124 13.316 26.6104 12.566L23.9924 10.742L21.3824 12.566C20.3864 13.314 18.9184 12.234 19.3384 11.06L20.2684 8.14799L17.8304 6.44999C17.3744 6.13199 17.1644 5.56799 17.2964 5.02999Z" fill="#2078BA"/>
</g>
<defs>
<clipPath id="clip0_72_4001">
<rect width="48" height="48" fill="white"/>
</clipPath>
</defs>
</svg>
