<svg width="48" height="48" viewBox="0 0 48 48" fill="none" xmlns="http://www.w3.org/2000/svg">
<g clip-path="url(#clip0_72_4034)">
<path d="M24 32C22.4177 32 20.871 31.5308 19.5554 30.6518C18.2398 29.7727 17.2145 28.5233 16.609 27.0615C16.0035 25.5997 15.845 23.9911 16.1537 22.4393C16.4624 20.8874 17.2243 19.462 18.3431 18.3432C19.462 17.2243 20.8874 16.4624 22.4393 16.1537C23.9911 15.845 25.5997 16.0035 27.0615 16.609C28.5233 17.2145 29.7727 18.2399 30.6518 19.5554C31.5308 20.871 32 22.4178 32 24C32 26.1217 31.1571 28.1566 29.6569 29.6569C28.1566 31.1572 26.1217 32 24 32ZM24 20C23.2089 20 22.4355 20.2346 21.7777 20.6741C21.1199 21.1137 20.6072 21.7384 20.3045 22.4693C20.0017 23.2002 19.9225 24.0044 20.0769 24.7804C20.2312 25.5563 20.6122 26.269 21.1716 26.8284C21.731 27.3878 22.4437 27.7688 23.2196 27.9231C23.9956 28.0775 24.7998 27.9983 25.5307 27.6955C26.2616 27.3928 26.8864 26.8801 27.3259 26.2223C27.7654 25.5645 28 24.7911 28 24C28 22.9391 27.5786 21.9217 26.8284 21.1716C26.0783 20.4214 25.0609 20 24 20ZM36 46C36 42.8174 34.7357 39.7652 32.4853 37.5147C30.2348 35.2643 27.1826 34 24 34C20.8174 34 17.7652 35.2643 15.5147 37.5147C13.2643 39.7652 12 42.8174 12 46C12 46.5304 12.2107 47.0392 12.5858 47.4142C12.9609 47.7893 13.4696 48 14 48C14.5304 48 15.0391 47.7893 15.4142 47.4142C15.7893 47.0392 16 46.5304 16 46C16 43.8783 16.8429 41.8434 18.3431 40.3432C19.8434 38.8429 21.8783 38 24 38C26.1217 38 28.1566 38.8429 29.6569 40.3432C31.1571 41.8434 32 43.8783 32 46C32 46.5304 32.2107 47.0392 32.5858 47.4142C32.9609 47.7893 33.4696 48 34 48C34.5304 48 35.0391 47.7893 35.4142 47.4142C35.7893 47.0392 36 46.5304 36 46ZM36 16C34.4178 16 32.871 15.5308 31.5554 14.6518C30.2398 13.7727 29.2145 12.5233 28.609 11.0615C28.0035 9.59966 27.845 7.99113 28.1537 6.43928C28.4624 4.88743 29.2243 3.46197 30.3431 2.34315C31.462 1.22433 32.8874 0.462403 34.4393 0.153721C35.9911 -0.15496 37.5997 0.00346625 39.0615 0.608967C40.5233 1.21447 41.7727 2.23985 42.6518 3.55544C43.5308 4.87104 44 6.41775 44 8C44 10.1217 43.1571 12.1566 41.6569 13.6569C40.1566 15.1572 38.1217 16 36 16ZM36 4C35.2089 4 34.4355 4.2346 33.7777 4.67413C33.1199 5.11365 32.6072 5.73837 32.3045 6.46927C32.0017 7.20018 31.9225 8.00444 32.0769 8.78037C32.2312 9.55629 32.6122 10.269 33.1716 10.8284C33.731 11.3878 34.4437 11.7688 35.2196 11.9231C35.9956 12.0775 36.7998 11.9983 37.5307 11.6955C38.2616 11.3928 38.8864 10.8801 39.3259 10.2223C39.7654 9.56449 40 8.79113 40 8C40 6.93914 39.5786 5.92172 38.8284 5.17158C38.0783 4.42143 37.0609 4 36 4ZM48 30C47.9968 26.8184 46.7315 23.768 44.4818 21.5182C42.232 19.2685 39.1816 18.0032 36 18C35.4696 18 34.9609 18.2107 34.5858 18.5858C34.2107 18.9609 34 19.4696 34 20C34 20.5304 34.2107 21.0391 34.5858 21.4142C34.9609 21.7893 35.4696 22 36 22C38.1217 22 40.1566 22.8429 41.6569 24.3432C43.1571 25.8434 44 27.8783 44 30C44 30.5304 44.2107 31.0391 44.5858 31.4142C44.9609 31.7893 45.4696 32 46 32C46.5304 32 47.0391 31.7893 47.4142 31.4142C47.7893 31.0391 48 30.5304 48 30ZM12 16C10.4177 16 8.87103 15.5308 7.55544 14.6518C6.23984 13.7727 5.21447 12.5233 4.60896 11.0615C4.00346 9.59966 3.84504 7.99113 4.15372 6.43928C4.4624 4.88743 5.22433 3.46197 6.34315 2.34315C7.46197 1.22433 8.88743 0.462403 10.4393 0.153721C11.9911 -0.15496 13.5997 0.00346625 15.0615 0.608967C16.5233 1.21447 17.7727 2.23985 18.6518 3.55544C19.5308 4.87104 20 6.41775 20 8C20 10.1217 19.1571 12.1566 17.6569 13.6569C16.1566 15.1572 14.1217 16 12 16ZM12 4C11.2089 4 10.4355 4.2346 9.77772 4.67413C9.11992 5.11365 8.60723 5.73837 8.30448 6.46927C8.00173 7.20018 7.92252 8.00444 8.07686 8.78037C8.2312 9.55629 8.61216 10.269 9.17157 10.8284C9.73098 11.3878 10.4437 11.7688 11.2196 11.9231C11.9956 12.0775 12.7998 11.9983 13.5307 11.6955C14.2616 11.3928 14.8864 10.8801 15.3259 10.2223C15.7654 9.56449 16 8.79113 16 8C16 6.93914 15.5786 5.92172 14.8284 5.17158C14.0783 4.42143 13.0609 4 12 4ZM4 30C4 27.8783 4.84285 25.8434 6.34315 24.3432C7.84344 22.8429 9.87827 22 12 22C12.5304 22 13.0391 21.7893 13.4142 21.4142C13.7893 21.0391 14 20.5304 14 20C14 19.4696 13.7893 18.9609 13.4142 18.5858C13.0391 18.2107 12.5304 18 12 18C8.81838 18.0032 5.76798 19.2685 3.51823 21.5182C1.26848 23.768 0.00317686 26.8184 0 30C0 30.5304 0.210714 31.0391 0.585786 31.4142C0.960859 31.7893 1.46957 32 2 32C2.53043 32 3.03914 31.7893 3.41421 31.4142C3.78929 31.0391 4 30.5304 4 30Z" fill="#2078BA"/>
</g>
<defs>
<clipPath id="clip0_72_4034">
<rect width="48" height="48" fill="white"/>
</clipPath>
</defs>
</svg>
