<svg width="40" height="48" viewBox="0 0 40 48" fill="none" xmlns="http://www.w3.org/2000/svg">
<path d="M33.162 4.28042L20.632 0.10248C20.2217 -0.03416 19.7783 -0.03416 19.368 0.10248L6.836 4.28042C4.84419 4.94251 3.11164 6.21539 1.88448 7.91824C0.657318 9.62109 -0.00206214 11.6673 4.84475e-06 13.7663V24.0001C4.84475e-06 39.1259 18.4 47.4798 19.188 47.8277C19.4436 47.9413 19.7203 48 20 48C20.2797 48 20.5564 47.9413 20.812 47.8277C21.6 47.4798 40 39.1259 40 24.0001V13.7663C40.0019 11.6671 39.3423 9.62066 38.1147 7.91778C36.8872 6.2149 35.1542 4.94217 33.162 4.28042ZM36 24.0001C36 34.9099 23.362 42.0658 20 43.7778C16.634 42.0718 4 34.9379 4 24.0001V13.7663C3.99998 12.5071 4.39612 11.2798 5.13232 10.2583C5.86852 9.23672 6.90747 8.47268 8.102 8.07436L20 4.10842L31.896 8.07436C33.0909 8.47234 34.1303 9.23623 34.8669 10.2578C35.6035 11.2794 35.9999 12.5068 36 13.7663V24.0001Z" fill="#2078BA"/>
</svg>
