<svg width="48" height="48" viewBox="0 0 48 48" fill="none" xmlns="http://www.w3.org/2000/svg">
<path d="M45.806 13.076C44.454 12.4 42.86 12.542 41.652 13.452C41.574 13.51 41.5 13.576 41.432 13.644L37.918 17.19C37.496 12.06 33.236 8.00201 28 8.00201H10C4.486 8.00001 0 12.486 0 18V30C0 35.514 4.486 40 10 40H28C33.258 40 37.536 35.906 37.924 30.746L41.436 34.254C41.504 34.32 41.574 34.38 41.65 34.438C42.354 34.966 43.186 35.234 44.026 35.234C44.632 35.234 45.238 35.096 45.806 34.812C47.16 34.136 48 32.774 48 31.264V16.628C48 15.114 47.16 13.752 45.806 13.076ZM28 36H10C6.692 36 4 33.308 4 30V18C4 14.692 6.692 12 10 12H28C31.308 12 34 14.692 34 18V30C34 33.308 31.308 36 28 36ZM38 25.166V22.788L44 16.732L44.05 31.208L38 25.164V25.166Z" fill="#2078BA"/>
</svg>
