<svg width="48" height="48" viewBox="0 0 48 48" fill="none" xmlns="http://www.w3.org/2000/svg">
<g clip-path="url(#clip0_72_3996)">
<path d="M0 24C0 23.4696 0.210714 22.9609 0.585786 22.5858C0.960859 22.2107 1.46957 22 2 22H14C14.5304 22 15.0391 22.2107 15.4142 22.5858C15.7893 22.9609 16 23.4696 16 24C16 24.5304 15.7893 25.0392 15.4142 25.4142C15.0391 25.7893 14.5304 26 14 26H2C1.46957 26 0.960859 25.7893 0.585786 25.4142C0.210714 25.0392 0 24.5304 0 24ZM41.772 22.214C42.7689 20.9683 43.4526 19.5017 43.7658 17.9372C44.079 16.3728 44.0125 14.756 43.572 13.2225C43.1314 11.689 42.3296 10.2835 41.2338 9.12384C40.1379 7.96416 38.78 7.08413 37.2739 6.55752C35.7678 6.0309 34.1574 5.87307 32.5777 6.09725C30.9981 6.32143 29.4951 6.92108 28.195 7.84593C26.8949 8.77078 25.8354 9.99387 25.1055 11.4126C24.3756 12.8314 23.9965 14.4045 24 16C24 16.5304 24.2107 17.0392 24.5858 17.4142C24.9609 17.7893 25.4696 18 26 18C26.5304 18 27.0391 17.7893 27.4142 17.4142C27.7893 17.0392 28 16.5304 28 16C28 14.8133 28.3519 13.6533 29.0112 12.6666C29.6705 11.6799 30.6075 10.9109 31.7039 10.4567C32.8003 10.0026 34.0067 9.88379 35.1705 10.1153C36.3344 10.3468 37.4035 10.9183 38.2426 11.7574C39.0818 12.5965 39.6532 13.6656 39.8847 14.8295C40.1162 15.9934 39.9974 17.1998 39.5433 18.2961C39.0892 19.3925 38.3201 20.3295 37.3334 20.9888C36.3467 21.6481 35.1867 22 34 22H22C21.4696 22 20.9609 22.2107 20.5858 22.5858C20.2107 22.9609 20 23.4696 20 24C20 24.5304 20.2107 25.0392 20.5858 25.4142C20.9609 25.7893 21.4696 26 22 26H40C41.0609 26 42.0783 26.4214 42.8284 27.1716C43.5786 27.9217 44 28.9391 44 30C43.982 34.674 37.438 35.296 35.886 31.334C35.7094 30.8338 35.3413 30.4243 34.8627 30.1955C34.3841 29.9667 33.8342 29.9374 33.334 30.114C32.8338 30.2906 32.4243 30.6587 32.1955 31.1373C31.9667 31.6159 31.9374 32.1658 32.114 32.666C35.23 40.83 47.904 39.158 48 30C47.9965 28.1889 47.3786 26.4325 46.2473 25.0181C45.1159 23.6038 43.5382 22.6152 41.772 22.214ZM22 32H2C1.46957 32 0.960859 32.2107 0.585786 32.5858C0.210714 32.9609 0 33.4696 0 34C0 34.5304 0.210714 35.0392 0.585786 35.4142C0.960859 35.7893 1.46957 36 2 36H22C23.0609 36 24.0783 36.4214 24.8284 37.1716C25.5786 37.9217 26 38.9391 26 40C25.982 44.674 19.438 45.296 17.886 41.334C17.7985 41.0863 17.6632 40.8583 17.4876 40.663C17.312 40.4676 17.0996 40.3088 16.8627 40.1955C16.6257 40.0822 16.3687 40.0167 16.1064 40.0027C15.8441 39.9887 15.5817 40.0266 15.334 40.114C15.0863 40.2015 14.8583 40.3369 14.663 40.5124C14.4676 40.688 14.3088 40.9004 14.1955 41.1373C14.0822 41.3743 14.0167 41.6313 14.0027 41.8936C13.9887 42.1559 14.0265 42.4183 14.114 42.666C17.23 50.83 29.904 49.158 30 40C30 37.8783 29.1571 35.8434 27.6569 34.3432C26.1566 32.8429 24.1217 32 22 32ZM2 16H14C16.1217 16 18.1566 15.1572 19.6569 13.6569C21.1571 12.1566 22 10.1217 22 8.00001C21.904 -1.16199 9.226 -2.82799 6.114 5.33401C5.93737 5.83421 5.96667 6.38409 6.19546 6.86268C6.42426 7.34127 6.8338 7.70938 7.334 7.88601C7.8342 8.06265 8.38408 8.03334 8.86267 7.80455C9.34126 7.57575 9.70937 7.16621 9.886 6.66601C11.44 2.70201 17.982 3.32601 18 8.00001C18 9.06088 17.5786 10.0783 16.8284 10.8284C16.0783 11.5786 15.0609 12 14 12H2C1.46957 12 0.960859 12.2107 0.585786 12.5858C0.210714 12.9609 0 13.4696 0 14C0 14.5304 0.210714 15.0392 0.585786 15.4142C0.960859 15.7893 1.46957 16 2 16Z" fill="#2078BA"/>
</g>
<defs>
<clipPath id="clip0_72_3996">
<rect width="48" height="48" fill="white"/>
</clipPath>
</defs>
</svg>
