<svg width="48" height="48" viewBox="0 0 48 48" fill="none" xmlns="http://www.w3.org/2000/svg">
<g clip-path="url(#clip0_72_4000)">
<path d="M22 48C20.3027 48.002 18.6439 47.4947 17.238 46.5438C15.8322 45.5929 14.7439 44.242 14.114 42.666C14.0265 42.4183 13.9887 42.1559 14.0027 41.8936C14.0167 41.6313 14.0822 41.3743 14.1955 41.1373C14.3088 40.9004 14.4676 40.688 14.663 40.5124C14.8583 40.3369 15.0863 40.2015 15.334 40.114C15.5817 40.0265 15.8441 39.9887 16.1064 40.0027C16.3687 40.0167 16.6257 40.0822 16.8627 40.1955C17.0996 40.3088 17.312 40.4676 17.4876 40.663C17.6632 40.8583 17.7985 41.0863 17.886 41.334C19.44 45.298 25.982 44.674 26 40C26 38.9391 25.5786 37.9217 24.8284 37.1716C24.0783 36.4214 23.0609 36 22 36H2C1.46957 36 0.960859 35.7893 0.585786 35.4142C0.210714 35.0391 0 34.5304 0 34C0 33.4696 0.210714 32.9609 0.585786 32.5858C0.960859 32.2107 1.46957 32 2 32H22C32.552 32.278 32.544 47.726 22 48ZM40 38C38.3027 38.002 36.6439 37.4947 35.238 36.5438C33.8322 35.5929 32.7439 34.242 32.114 32.666C31.9374 32.1658 31.9667 31.6159 32.1955 31.1373C32.4243 30.6587 32.8338 30.2906 33.334 30.114C33.8342 29.9374 34.3841 29.9667 34.8627 30.1955C35.3413 30.4243 35.7094 30.8338 35.886 31.334C37.44 35.298 43.982 34.674 44 30C44 28.9391 43.5786 27.9217 42.8284 27.1716C42.0783 26.4214 41.0609 26 40 26H30C29.4696 26 28.9609 25.7893 28.5858 25.4142C28.2107 25.0391 28 24.5304 28 24C28 23.4696 28.2107 22.9609 28.5858 22.5858C28.9609 22.2107 29.4696 22 30 22H40C50.552 22.278 50.544 37.726 40 38ZM14 28C-4.502 27.412 -4.498 0.586 14 0C32.502 0.588 32.498 27.414 14 28ZM14 4C0.784 4.42 0.788 23.582 14 24C27.216 23.58 27.212 4.418 14 4ZM40 18H34C33.4696 18 32.9609 17.7893 32.5858 17.4142C32.2107 17.0391 32 16.5304 32 16C32 15.4696 32.2107 14.9609 32.5858 14.5858C32.9609 14.2107 33.4696 14 34 14H40C41.0609 14 42.0783 13.5786 42.8284 12.8284C43.5786 12.0783 44 11.0609 44 10C43.982 5.326 37.438 4.704 35.886 8.666C35.7985 8.91367 35.6632 9.1417 35.4876 9.33705C35.312 9.5324 35.0996 9.69125 34.8627 9.80454C34.6257 9.91783 34.3687 9.98333 34.1064 9.9973C33.8441 10.0113 33.5817 9.97346 33.334 9.886C33.0863 9.79854 32.8583 9.66315 32.663 9.48757C32.4676 9.31199 32.3088 9.09965 32.1955 8.86267C32.0822 8.6257 32.0167 8.36873 32.0027 8.10644C31.9887 7.84415 32.0265 7.58167 32.114 7.334C35.232 -0.83 47.904 0.842 48 10C48 12.1217 47.1571 14.1566 45.6569 15.6569C44.1566 17.1571 42.1217 18 40 18ZM14 16C13.4696 16 12.9609 15.7893 12.5858 15.4142C12.2107 15.0391 12 14.5304 12 14V8C12 7.46957 12.2107 6.96086 12.5858 6.58579C12.9609 6.21071 13.4696 6 14 6C14.5304 6 15.0391 6.21071 15.4142 6.58579C15.7893 6.96086 16 7.46957 16 8V14C16 14.5304 15.7893 15.0391 15.4142 15.4142C15.0391 15.7893 14.5304 16 14 16ZM12 20C12 20.5304 12.2107 21.0391 12.5858 21.4142C12.9609 21.7893 13.4696 22 14 22C14.5304 22 15.0391 21.7893 15.4142 21.4142C15.7893 21.0391 16 20.5304 16 20C16 19.4696 15.7893 18.9609 15.4142 18.5858C15.0391 18.2107 14.5304 18 14 18C13.4696 18 12.9609 18.2107 12.5858 18.5858C12.2107 18.9609 12 19.4696 12 20Z" fill="#2078BA"/>
</g>
<defs>
<clipPath id="clip0_72_4000">
<rect width="48" height="48" fill="white"/>
</clipPath>
</defs>
</svg>
