<svg width="48" height="48" viewBox="0 0 48 48" fill="none" xmlns="http://www.w3.org/2000/svg">
<path d="M43.3679 27.524C40.6279 25.334 35.5539 21.382 31.2399 18.588C30.6619 13.47 29.3899 7.172 28.6539 3.748C28.1799 1.54 26.2679 0 24.0019 0C21.7359 0 19.8239 1.542 19.3499 3.748C18.6139 7.174 17.3399 13.472 16.7639 18.59C12.4499 21.384 7.37591 25.336 4.63591 27.524C2.87191 28.934 2.34591 31.334 3.35591 33.36C4.36391 35.386 6.59591 36.412 8.78391 35.852C11.9579 35.04 17.4139 33.57 22.0059 31.98L22.0259 44H16.0019C14.8979 44 14.0019 44.896 14.0019 46C14.0019 47.104 14.8979 48 16.0019 48H32.0019C33.1059 48 34.0019 47.104 34.0019 46C34.0019 44.896 33.1059 44 32.0019 44H26.0259L26.0059 31.982C30.5939 33.572 36.0479 35.038 39.2219 35.852C39.6199 35.954 40.0199 36.004 40.4159 36.004C42.1819 36.004 43.8259 35.016 44.6519 33.36C45.6619 31.334 45.1359 28.934 43.3719 27.526L43.3679 27.524ZM41.0679 31.576C40.9059 31.9 40.5559 32.064 40.2119 31.976C36.4659 31.018 29.4779 29.13 24.7379 27.254C24.5019 27.16 24.2519 27.114 24.0019 27.114C23.7519 27.114 23.5019 27.16 23.2659 27.254C18.5259 29.13 11.5379 31.018 7.79391 31.976C7.44791 32.062 7.09591 31.896 6.93591 31.574C6.77391 31.25 6.85391 30.87 7.13191 30.648C9.98191 28.37 15.4079 24.148 19.7139 21.452C20.2399 21.122 20.5839 20.568 20.6419 19.952C21.1359 14.882 22.4959 8.15 23.2619 4.588C23.4099 3.896 24.5959 3.896 24.7439 4.588C25.5099 8.15 26.8679 14.882 27.3639 19.952C27.4239 20.57 27.7679 21.124 28.2919 21.452C32.5979 24.148 38.0239 28.37 40.8739 30.648C41.1519 30.87 41.2319 31.25 41.0699 31.574L41.0679 31.576Z" fill="#2078BA"/>
</svg>
