<svg width="48" height="48" viewBox="0 0 48 48" fill="none" xmlns="http://www.w3.org/2000/svg">
<g clip-path="url(#clip0_72_3984)">
<path d="M7.37649 48C7.31249 48 7.25049 48 7.18649 48C5.14249 47.946 3.26049 47.076 1.88849 45.552C-0.649513 42.734 -0.425513 37.984 2.37649 35.182L14.1125 23.448C14.6185 22.94 14.8005 22.186 14.5945 21.43C13.8785 18.794 13.8085 16.078 14.3905 13.358C15.8065 6.72802 21.2525 1.47002 27.9445 0.27402C29.9565 -0.0859799 31.9745 -0.0939799 33.9485 0.26002C35.4105 0.51802 36.5465 1.51002 36.9885 2.91002C37.4905 4.50802 36.9825 6.27202 35.6245 7.62802L31.1305 12.062C29.8145 13.378 29.6145 15.442 30.6865 16.752C31.3025 17.508 32.1705 17.948 33.1305 17.996C34.0745 18.036 35.0025 17.686 35.6725 17.018L40.8325 11.918C41.9105 10.84 43.4965 10.448 44.9725 10.916C46.4185 11.37 47.4805 12.572 47.7425 14.05C48.0925 16.024 48.0865 18.046 47.7285 20.056C46.5285 26.75 41.2705 32.196 34.6405 33.61C31.9145 34.192 29.1985 34.122 26.5685 33.404C25.8145 33.196 25.0605 33.38 24.5525 33.886L12.6005 45.836C11.2205 47.216 9.32649 48 7.37649 48ZM31.2205 3.98602C30.3765 3.98602 29.5125 4.05602 28.6485 4.21002C23.5405 5.12402 19.3805 9.13602 18.3005 14.192C17.8525 16.282 17.9045 18.364 18.4525 20.378C19.0325 22.502 18.4525 24.76 16.9405 26.274L5.20449 38.008C3.90449 39.308 3.74049 41.628 4.86249 42.874C5.49249 43.574 6.35649 43.974 7.29249 43.998C8.21449 44.036 9.11049 43.672 9.77449 43.01L21.7245 31.06C23.2345 29.55 25.4945 28.966 27.6205 29.546C29.6285 30.094 31.7105 30.146 33.8065 29.698C38.8625 28.62 42.8745 24.462 43.7905 19.35C44.0665 17.806 44.0705 16.256 43.8025 14.748V14.734L38.4925 19.852C37.0345 21.31 35.0045 22.124 32.9305 21.988C30.8585 21.884 28.9125 20.898 27.5925 19.282C25.2345 16.404 25.5505 11.984 28.3145 9.22202L32.8085 4.78802C33.1665 4.42802 33.1905 4.16002 33.1765 4.10602C32.5465 4.02802 31.8905 3.98202 31.2245 3.98202L31.2205 3.98602Z" fill="#2078BA"/>
</g>
<defs>
<clipPath id="clip0_72_3984">
<rect width="48" height="48" fill="white"/>
</clipPath>
</defs>
</svg>
