<svg width="48" height="48" viewBox="0 0 48 48" fill="none" xmlns="http://www.w3.org/2000/svg">
<rect x="0.6" y="0.6" width="46.8" height="46.8" rx="23.4" stroke="#2078BA" stroke-width="1.2"/>
<path d="M30.708 17.2918C30.3931 16.9769 29.9659 16.8 29.5206 16.8C29.0752 16.8 28.6481 16.9769 28.3331 17.2918L23.9897 21.6352L19.6462 17.2918C19.3295 16.9858 18.9052 16.8165 18.4648 16.8203C18.0244 16.8242 17.6032 17.0008 17.2917 17.3122C16.9803 17.6236 16.8037 18.0449 16.7999 18.4853C16.796 18.9257 16.9653 19.3499 17.2713 19.6667L21.6147 24.0101L17.2713 28.3536C16.9653 28.6703 16.796 29.0946 16.7999 29.535C16.8037 29.9754 16.9803 30.3966 17.2917 30.708C17.6032 31.0195 18.0244 31.1961 18.4648 31.1999C18.9052 31.2038 19.3295 31.0345 19.6462 30.7285L23.9897 26.3851L28.3331 30.7285C28.6499 31.0345 29.0741 31.2038 29.5145 31.1999C29.9549 31.1961 30.3762 31.0195 30.6876 30.708C30.999 30.3966 31.1756 29.9754 31.1795 29.535C31.1833 29.0946 31.014 28.6703 30.708 28.3536L26.3646 24.0101L30.708 19.6667C31.0229 19.3517 31.1998 18.9246 31.1998 18.4792C31.1998 18.0339 31.0229 17.6067 30.708 17.2918Z" fill="#2078BA"/>
</svg>
